<svg width="current" height="current" viewBox="0 0 20 20" fill="none" xmlns="http://www.w3.org/2000/svg">
<path fill-rule="evenodd" clip-rule="evenodd" d="M17 9.00025H5.41401L8.70701 5.70725C9.09801 5.31625 9.09801 4.68425 8.70701 4.29325C8.31601 3.90225 7.68401 3.90225 7.29301 4.29325L2.29301 9.29325C1.90201 9.68425 1.90201 10.3163 2.29301 10.7073L7.29301 15.7072C7.48801 15.9022 7.74401 16.0002 8.00001 16.0002C8.25601 16.0002 8.51201 15.9022 8.70701 15.7072C9.09801 15.3162 9.09801 14.6842 8.70701 14.2933L5.41401 11.0002H17C17.553 11.0002 18 10.5522 18 10.0002C18 9.44825 17.553 9.00025 17 9.00025Z" fill="#5C5F62"/>
</svg>
