<svg width="current" height="current" viewBox="0 0 98 40" fill="none" xmlns="http://www.w3.org/2000/svg">
<path d="M0 8C0 3.58172 3.58172 0 8 0H90C94.4183 0 98 3.58172 98 8V32C98 36.4183 94.4183 40 90 40H8C3.58172 40 0 36.4183 0 32V8Z" fill="#F7F7FA"/>
<path d="M20.6465 26.7679C20.8417 26.9632 21.1583 26.9632 21.3536 26.7679L33.7678 14.3537C33.9631 14.1584 33.9631 13.8419 33.7678 13.6466L32.3536 12.2324C32.2598 12.1386 32.1326 12.0859 32 12.0859C31.8674 12.0859 31.7402 12.1386 31.6465 12.2324L21 22.8788L16.3536 18.2324C16.2598 18.1386 16.1326 18.0859 16 18.0859C15.8674 18.0859 15.7402 18.1386 15.6465 18.2324L14.2323 19.6466C14.1385 19.7404 14.0858 19.8675 14.0858 20.0002C14.0858 20.1328 14.1385 20.2599 14.2323 20.3537L20.6465 26.7679Z" fill="#C6C6C6" stroke="#C6C6C6" stroke-linecap="round" stroke-linejoin="round"/>
<path d="M48.7031 13.7969C50.7812 13.8047 52.2734 14.9688 52.2812 16.6875C52.2734 18.0781 51.2578 19.1406 49.7344 19.4688V20.5078C50.8516 20.4375 51.9609 20.3359 53 20.1875L53.1562 21.6406C50.2266 22.1562 46.9688 22.2266 44.5938 22.2188L44.3906 20.6406C45.375 20.6406 46.5234 20.6328 47.7344 20.6016V19.4844C46.1641 19.1719 45.1172 18.1016 45.125 16.6875C45.1172 14.9688 46.6094 13.8047 48.7031 13.7969ZM46.2656 27.1719V23.125H48.2656V25.5781H56.2812V27.1719H46.2656ZM46.9844 16.6875C46.9688 17.5547 47.6953 18.0547 48.7031 18.0625C49.7266 18.0547 50.4062 17.5547 50.4062 16.6875C50.4062 15.7969 49.7188 15.3125 48.7031 15.2969C47.6953 15.3125 46.9688 15.7969 46.9844 16.6875ZM53.7969 24.0781V13.2344H55.7969V17.7031H57.6094V19.3594H55.7969V24.0781H53.7969ZM71.2656 24.2188V25.8594H58.25V24.2188H61.5781V22.0469H59.75V17.2656H67.7969V15.7344H59.7344V14.1406H69.7656V18.8594H61.75V20.4375H70.0938V22.0469H68.0781V24.2188H71.2656ZM63.5156 24.2188H66.125V22.0469H63.5156V24.2188Z" fill="#C6C6C6"/>
</svg>
