<svg width="current" height="current" viewBox="0 0 18 18" fill="none" xmlns="http://www.w3.org/2000/svg">
<g clip-path="url(#clip0_684_3738)">
<path fill-rule="evenodd" clip-rule="evenodd" d="M0.75 7.5C0.75 3.77208 3.77208 0.75 7.5 0.75C11.2279 0.75 14.25 3.77208 14.25 7.5C14.25 9.09376 13.6976 10.5585 12.7739 11.7133L17.5607 16.5L16.5 17.5607L11.7133 12.7739C10.5585 13.6976 9.09376 14.25 7.5 14.25C3.77208 14.25 0.75 11.2279 0.75 7.5ZM7.5 2.25C4.6005 2.25 2.25 4.6005 2.25 7.5C2.25 10.3995 4.6005 12.75 7.5 12.75C10.3995 12.75 12.75 10.3995 12.75 7.5C12.75 4.6005 10.3995 2.25 7.5 2.25Z" fill="#C2D6E1"/>
</g>
<defs>
<clipPath id="clip0_684_3738">
<rect width="18" height="18" fill="white"/>
</clipPath>
</defs>
</svg>
