<svg width="98" height="36" viewBox="0 0 98 36" fill="none" xmlns="http://www.w3.org/2000/svg">
<path d="M0 8C0 3.58172 3.58172 0 8 0H90C94.4183 0 98 3.58172 98 8V28C98 32.4183 94.4183 36 90 36H8C3.58172 36 0 32.4183 0 28V8Z" fill="#F7F7FA"/>
<path d="M40.7188 11.2188V25.4375H38.8281V18.2969H37.4531V24.75H35.625V11.4531H37.4531V16.7031H38.8281V11.2188H40.7188ZM28.8281 22.2188V12.8594H34.125V14.4688H30.8281V20.5469C32.2031 20.5234 33.4219 20.4453 34.7969 20.2031L34.9375 21.8281C33.2031 22.1562 31.6875 22.2109 29.8125 22.2188H28.8281ZM54.2031 11.2188V25.4375H52.1875V11.2188H54.2031ZM42.2969 21.4062C45.9688 19.6719 47.5859 17.4219 47.9062 14.2656H43.0625V12.7031H49.9375C49.9297 17.0156 48.4219 20.6016 43.3438 23L42.2969 21.4062ZM69.0469 17.6719V19.2812H63.5469V20.3359C66.0156 20.5156 67.4844 21.4062 67.5 22.875C67.4844 24.5234 65.6172 25.4453 62.5469 25.4375C59.4297 25.4453 57.5625 24.5234 57.5625 22.875C57.5625 21.3984 59.0391 20.5078 61.5625 20.3281V19.2812H56.0781V17.6719H69.0469ZM56.6562 15.5781C59.2891 15.3438 60.7422 14.375 61.1016 13.3906H57.2656V11.8281H67.875V13.3906H64.0078C64.3516 14.3828 65.7969 15.3438 68.5 15.5781L67.7969 17.1406C65.1094 16.8828 63.3047 15.875 62.5469 14.4922C61.7969 15.8672 60.0078 16.8906 57.3125 17.1406L56.6562 15.5781ZM59.5938 22.875C59.5859 23.5625 60.5781 23.9375 62.5469 23.9375C64.4766 23.9375 65.4922 23.5625 65.5 22.875C65.4922 22.1562 64.4766 21.8125 62.5469 21.7969C60.5781 21.8125 59.5859 22.1562 59.5938 22.875Z" fill="#FB97A3"/>
</svg>
