<svg width="64" height="64" viewBox="0 0 64 64" fill="none" xmlns="http://www.w3.org/2000/svg">
<g clip-path="url(#clip0_812_18455)">
<path d="M64 32C64 34.7307 60.6453 36.9813 59.9733 39.4987C59.28 42.1013 61.0347 45.728 59.7173 48.0053C58.3787 50.32 54.352 50.5973 52.4747 52.4747C50.5973 54.352 50.32 58.3787 48.0053 59.7173C45.728 61.0347 42.1013 59.28 39.4987 59.9733C36.9813 60.6453 34.7307 64 32 64C29.2693 64 27.0187 60.6453 24.5013 59.9733C21.8987 59.28 18.272 61.0347 15.9947 59.7173C13.68 58.3787 13.4027 54.352 11.5253 52.4747C9.648 50.5973 5.62133 50.32 4.28267 48.0053C2.96533 45.728 4.72 42.1013 4.02667 39.4987C3.35467 36.9813 0 34.7307 0 32C0 29.2693 3.35467 27.0187 4.02667 24.5013C4.72 21.8987 2.96533 18.272 4.28267 15.9947C5.62133 13.68 9.648 13.4027 11.5253 11.5253C13.4027 9.648 13.68 5.62133 15.9947 4.28267C18.272 2.96533 21.8987 4.72 24.5013 4.02667C27.0187 3.35467 29.2693 0 32 0C34.7307 0 36.9813 3.35467 39.4987 4.02667C42.1013 4.72 45.728 2.96533 48.0053 4.28267C50.32 5.62133 50.5973 9.648 52.4747 11.5253C54.352 13.4027 58.3787 13.68 59.7173 15.9947C61.0347 18.272 59.28 21.8987 59.9733 24.5013C60.6453 27.0187 64 29.2693 64 32Z" fill="#66D5AD"/>
<path d="M41.2481 22.464L29.0668 34.6453L22.7521 28.336C21.3815 26.9653 19.1575 26.9653 17.7868 28.336C16.4161 29.7066 16.4161 31.9306 17.7868 33.3013L26.6455 42.16C27.9788 43.4933 30.1441 43.4933 31.4775 42.16L46.2081 27.4293C47.5788 26.0586 47.5788 23.8346 46.2081 22.464C44.8375 21.0933 42.6188 21.0933 41.2481 22.464Z" fill="#FFFCEE"/>
</g>
<defs>
<clipPath id="clip0_812_18455">
<rect width="64" height="64" fill="white"/>
</clipPath>
</defs>
</svg>
