<svg width="61" height="57" viewBox="0 0 61 57" fill="none" xmlns="http://www.w3.org/2000/svg">
<path d="M0 8C0 3.58172 3.58172 0 8 0H53C57.4183 0 61 3.58172 61 8V48.5C61 52.9183 57.4183 56.5 53 56.5H8C3.58172 56.5 0 52.9183 0 48.5V8Z" fill="#F7F7FA"/>
<path d="M33.5526 18.1752C35.1988 17.0802 36.2289 15.1302 36.0044 12.9603C35.74 10.3953 33.6898 8.32288 31.1333 8.03539C27.7961 7.6629 24.9627 10.2803 24.9627 13.5503C24.9627 15.4802 25.9504 17.1802 27.4469 18.1752C24.2918 19.3402 21.9747 22.2476 21.6729 25.73C21.638 26.145 21.9747 26.5 22.3912 26.5H22.4286C22.8077 26.5 23.112 26.205 23.147 25.8275C23.4862 22.0601 26.6538 19.1002 30.4998 19.1002C34.3458 19.1002 37.5134 22.0601 37.8526 25.8275C37.8875 26.205 38.1918 26.5 38.5709 26.5H38.6083C39.0248 26.5 39.364 26.145 39.3266 25.73C39.0248 22.2476 36.7078 19.3427 33.5551 18.1752H33.5526ZM30.4998 17.6202C28.26 17.6202 26.4393 15.7952 26.4393 13.5503C26.4393 11.3053 28.26 9.48036 30.4998 9.48036C32.7395 9.48036 34.5603 11.3053 34.5603 13.5503C34.5603 15.7952 32.7395 17.6202 30.4998 17.6202Z" fill="#737F8F"/>
<path d="M23.8164 44.4492H22.9141V39.0586H21.4141V43.9102H20.5469V34.2656H21.4141V38.2734H22.9141V34.0312H23.8164V44.4492ZM16.3633 40.9336C16.9453 40.9258 17.5117 40.8984 18.0625 40.8516C18.6133 40.8008 19.1836 40.7148 19.7734 40.5938L19.8906 41.4141C19.1992 41.5352 18.5469 41.623 17.9336 41.6777C17.3203 41.7285 16.707 41.7539 16.0938 41.7539H15.4492V35.3086H16.3633V40.9336ZM33.9297 40.2422H33.0039V37.5117H30.9062V36.75H33.0039V34.0312H33.9297V40.2422ZM30.4727 40.5703C31.1953 40.5703 31.8184 40.6465 32.3418 40.7988C32.8652 40.9512 33.2656 41.1719 33.543 41.4609C33.8242 41.75 33.9648 42.0977 33.9648 42.5039C33.9648 42.9102 33.8242 43.2578 33.543 43.5469C33.2656 43.8398 32.8652 44.0625 32.3418 44.2148C31.8184 44.3672 31.1953 44.4453 30.4727 44.4492C29.75 44.4453 29.127 44.3672 28.6035 44.2148C28.0801 44.0625 27.6777 43.8398 27.3965 43.5469C27.1191 43.2578 26.9805 42.9102 26.9805 42.5039C26.9805 42.0977 27.1191 41.75 27.3965 41.4609C27.6777 41.1719 28.0801 40.9512 28.6035 40.7988C29.127 40.6465 29.75 40.5703 30.4727 40.5703ZM30.4727 41.2852C29.9453 41.2852 29.4863 41.334 29.0957 41.4316C28.7051 41.5293 28.4062 41.6699 28.1992 41.8535C27.9922 42.0371 27.8906 42.2539 27.8945 42.5039C27.8906 42.75 27.9922 42.9648 28.1992 43.1484C28.4062 43.3281 28.7051 43.4668 29.0957 43.5645C29.4863 43.6621 29.9453 43.7109 30.4727 43.7109C31 43.7109 31.457 43.6621 31.8438 43.5645C32.2344 43.4668 32.5332 43.3281 32.7402 43.1484C32.9473 42.9648 33.0508 42.75 33.0508 42.5039C33.0508 42.2539 32.9473 42.0371 32.7402 41.8535C32.5332 41.6699 32.2344 41.5293 31.8438 41.4316C31.457 41.334 31 41.2852 30.4727 41.2852ZM28.9141 35.9414C28.9141 36.3906 29.0215 36.8262 29.2363 37.248C29.4512 37.666 29.752 38.0391 30.1387 38.3672C30.5293 38.6914 30.9766 38.9414 31.4805 39.1172L31 39.8555C30.418 39.6445 29.9062 39.332 29.4648 38.918C29.0273 38.5039 28.6973 38.0254 28.4746 37.4824C28.248 38.0918 27.9023 38.6309 27.4375 39.0996C26.9766 39.5645 26.4375 39.9141 25.8203 40.1484L25.3398 39.4102C25.8516 39.2227 26.3086 38.9531 26.7109 38.6016C27.1133 38.2461 27.4258 37.8379 27.6484 37.377C27.875 36.916 27.9883 36.4414 27.9883 35.9531V35.5664H25.6328V34.793H31.2461V35.5664H28.9141V35.9414ZM45.2031 43.1133H35.6641V42.3516H39.9531V40.1016H36.7891V34.7695H37.7148V36.6562H43.1289V34.7695H44.0312V40.1016H40.8555V42.3516H45.2031V43.1133ZM43.1289 39.3516V37.4062H37.7148V39.3516H43.1289Z" fill="#737F8F"/>
</svg>
