<svg width="23" height="30" viewBox="0 0 23 30" fill="none" xmlns="http://www.w3.org/2000/svg">
<g clip-path="url(#clip0_1572_2976)">
<path d="M23 11.0228C23 12.1969 21.5431 13.1228 21.2022 14.1779C20.8457 15.2745 21.4656 16.8779 20.8044 17.7883C20.1327 18.709 18.4124 18.6107 17.4928 19.2831C16.5836 19.9452 16.1496 21.621 15.0544 21.9728C14.0004 22.3141 12.6727 21.2279 11.5 21.2279C10.3273 21.2279 8.99955 22.3141 7.94564 21.9728C6.8504 21.6159 6.41644 19.9452 5.50719 19.2831C4.5876 18.6107 2.86725 18.709 2.19564 17.7883C1.53437 16.8779 2.15431 15.2745 1.79784 14.1779C1.45687 13.1228 0 12.1917 0 11.0228C0 9.85381 1.45687 8.92277 1.79784 7.8676C2.15431 6.77105 1.53437 5.1676 2.19564 4.25725C2.86725 3.33656 4.5876 3.43484 5.50719 2.76243C6.41644 2.10036 6.8504 0.424495 7.94564 0.0727703C8.99955 -0.268609 10.3273 0.817598 11.5 0.817598C12.6727 0.817598 14.0004 -0.273781 15.0544 0.0675979C16.1496 0.424495 16.5836 2.09518 17.4928 2.75725C18.4124 3.42967 20.1327 3.33139 20.8044 4.25208C21.4656 5.16243 20.8457 6.76587 21.2022 7.86243C21.5431 8.9176 23 9.84863 23 11.0176V11.0228Z" fill="#FCB316"/>
<path d="M11.4998 18.7809C15.7796 18.7809 19.2491 15.3073 19.2491 11.0223C19.2491 6.73732 15.7796 3.26367 11.4998 3.26367C7.21998 3.26367 3.75049 6.73732 3.75049 11.0223C3.75049 15.3073 7.21998 18.7809 11.4998 18.7809Z" fill="#FFE081"/>
<path d="M11.9908 6.96188L12.7244 9.22222C12.7916 9.43429 12.993 9.57912 13.2152 9.57912H15.5916C16.0928 9.57912 16.2994 10.2205 15.8965 10.5153L13.9746 11.9119C13.7938 12.0412 13.7163 12.2791 13.7886 12.4912L14.5222 14.7515C14.6772 15.2274 14.1296 15.6257 13.7266 15.3308L11.8048 13.9343C11.624 13.805 11.376 13.805 11.1952 13.9343L9.27336 15.3308C8.8704 15.6257 8.32278 15.2274 8.47776 14.7515L9.21137 12.4912C9.27853 12.2791 9.2062 12.0464 9.02538 11.9119L7.10355 10.5153C6.70058 10.2205 6.90723 9.57912 7.40836 9.57912H9.78482C10.007 9.57912 10.2084 9.43429 10.2756 9.22222L11.0092 6.96188C11.1642 6.48601 11.8358 6.48601 11.9908 6.96188Z" fill="#FCB316"/>
<path d="M17.4927 19.2828C16.5834 19.9448 16.1494 21.6207 15.0542 21.9724C14.2224 22.2414 13.2202 21.6259 12.2593 21.3517L16.2993 30L18.3864 26.7362L22.2249 27.2224L18.3296 18.8896C18.0196 18.9931 17.7251 19.1121 17.4875 19.2828H17.4927Z" fill="#E53A35"/>
<path d="M7.94541 21.9724C6.85017 21.6155 6.41621 19.9448 5.50695 19.2828C5.26931 19.1121 4.98 18.9879 4.66486 18.8896L0.769531 27.2224L4.60803 26.7362L6.69518 30L10.7352 21.3517C9.77425 21.6259 8.772 22.2414 7.94024 21.9724H7.94541Z" fill="#E53A35"/>
</g>
<defs>
<clipPath id="clip0_1572_2976">
<rect width="23" height="30" fill="white"/>
</clipPath>
</defs>
</svg>
