<svg width="25" height="25" viewBox="0 0 25 25" fill="none" xmlns="http://www.w3.org/2000/svg">
<g clip-path="url(#clip0_1151_297)">
<path fill-rule="evenodd" clip-rule="evenodd" d="M12.5 0.932251L23.5592 7.07621L19.0592 9.57621L23.5592 12.0762L19.0592 14.5762L23.5592 17.0762L12.5 23.2202L1.44092 17.0762L5.94092 14.5762L1.44092 12.0762L5.94092 9.57621L1.44092 7.07621L12.5 0.932251ZM8.00004 10.7202L5.55917 12.0762L12.5 15.9323L19.4409 12.0762L17 10.7202L12.5 13.2202L8.00004 10.7202ZM8.00004 15.7202L5.55917 17.0762L12.5 20.9323L19.4409 17.0762L17 15.7202L12.5 18.2202L8.00004 15.7202ZM5.55917 7.07621L12.5 10.9323L19.4409 7.07621L12.5 3.22017L5.55917 7.07621Z" fill="#737F8F"/>
</g>
<defs>
<clipPath id="clip0_1151_297">
<rect width="24" height="24" fill="white" transform="translate(0.5 0.0762329)"/>
</clipPath>
</defs>
</svg>
