<svg width="24" height="24" viewBox="0 0 24 24" fill="none" xmlns="http://www.w3.org/2000/svg">
<g clip-path="url(#clip0_933_11350)">
<path d="M16.0684 6.2832L16.0685 6.28321C16.2985 6.31661 16.4904 6.47477 16.5661 6.6929L16.5668 6.69361L16.5705 6.70499C16.6439 6.92911 16.5829 7.17485 16.4133 7.33938C16.4133 7.33938 16.4133 7.33939 16.4133 7.33939L14.6476 9.05219L15.0649 11.4711L15.0649 11.4712C15.1047 11.7033 15.0089 11.9378 14.8175 12.0763L14.8174 12.0764C14.6273 12.2136 14.3739 12.2334 14.1633 12.1234L14.1633 12.1233L11.9802 10.9815L9.79763 12.1233L9.79761 12.1234C9.58831 12.2328 9.33484 12.2149 9.14342 12.0763C8.95202 11.9378 8.85622 11.7033 8.89602 11.4712L8.89603 11.4711L9.31269 9.0522L7.54713 7.33945C7.54711 7.33943 7.54709 7.33942 7.54707 7.3394L7.54706 7.33938L7.58188 7.30349L16.0684 6.2832ZM16.0684 6.2832L13.6282 5.93093L12.537 3.73022L16.0684 6.2832ZM11.4222 3.7302L11.4222 3.73017C11.5273 3.51862 11.7429 3.38506 11.9796 3.38506C12.2162 3.38506 12.4325 3.51918 12.537 3.73019L11.4222 3.7302ZM11.4222 3.7302L10.331 5.9315L7.8913 6.28377L7.89126 6.28378M11.4222 3.7302L7.89126 6.28378M7.89126 6.28378C7.65715 6.31777 7.46253 6.48098 7.38975 6.70511M7.89126 6.28378L7.38975 6.70511M14.642 7.32819L13.1256 7.10901L13.1256 7.109L13.1327 7.05951L14.642 7.32819ZM14.642 7.32819L13.5442 8.39253L13.4556 8.47842H13.4716C13.3773 8.61124 13.3385 8.77713 13.3663 8.94015L13.3663 8.94024L13.6257 10.4443L12.2685 9.73426L12.2684 9.73423C12.0871 9.63968 11.871 9.63964 11.6901 9.73426C11.6901 9.73426 11.6901 9.73426 11.6901 9.73426L10.3329 10.4443L10.5923 8.9403L10.5923 8.94024L10.543 8.93174M14.642 7.32819L9.31599 7.32819L9.25349 7.33723L10.3784 8.42842C10.5133 8.55923 10.575 8.74748 10.543 8.93174M10.543 8.93174L10.2771 10.4735L10.543 8.93174ZM7.38975 6.70511L7.4373 6.72056L7.38975 6.70511ZM11.3004 6.77063L11.979 5.40166L10.8324 7.10901C11.035 7.07994 11.2096 6.95313 11.3004 6.77069L11.3004 6.77063Z" fill="#A7CAFF" stroke="#A7CAFF" stroke-width="0.1"/>
<path d="M1.7145 4.00357H3.17878V6.29575C3.17878 7.40331 3.31998 8.49212 3.59968 9.54991C2.21316 8.58909 1.39307 6.76591 1.39307 4.32229C1.39307 4.14812 1.53659 4.00357 1.7145 4.00357Z" stroke="#A7CAFF" stroke-width="0.5"/>
<path d="M14.2229 15.5698L14.2229 15.5698C13.3884 16.1293 12.8927 17.0756 12.8927 18.0973V20.5877C12.8927 21.0408 13.2618 21.4064 13.7141 21.4064C14.1198 21.4064 14.4621 21.6765 14.5709 22.0438H9.42836C9.46969 21.9031 9.54621 21.7741 9.65393 21.6669L9.65418 21.6666C9.81184 21.5093 10.0172 21.4185 10.2377 21.4073C10.2535 21.4082 10.2692 21.4087 10.285 21.4087C10.7387 21.4087 11.1064 21.0395 11.1064 20.5877V18.0944C11.1064 17.0743 10.6113 16.1299 9.77744 15.5704L9.7774 15.5704C7.97908 14.3642 6.57797 12.6771 5.72502 10.69L5.725 10.69C5.12524 9.29366 4.82129 7.81557 4.82129 6.29574V1.70617C4.82129 1.532 4.96481 1.38745 5.14272 1.38745H18.8576C19.0355 1.38745 19.179 1.532 19.179 1.70617V6.29574C19.179 7.81557 18.875 9.29366 18.2753 10.69L18.2753 10.69C17.4223 12.6766 16.0212 14.3642 14.2229 15.5698Z" stroke="#A7CAFF" stroke-width="0.5"/>
<path d="M8.24023 23.75V23.6813H15.7431V23.75H8.24023Z" stroke="#A7CAFF" stroke-width="0.5"/>
<path d="M22.2855 4.00357C22.4634 4.00357 22.6069 4.14812 22.6069 4.32229C22.6069 6.76532 21.7869 8.58847 20.4004 9.54971C20.6801 8.49198 20.8212 7.40324 20.8212 6.29575V4.00357H22.2855Z" stroke="#A7CAFF" stroke-width="0.5"/>
<path d="M15.7431 23.1813V22.1296C15.6729 21.2626 15.0496 20.5455 14.2235 20.3333L14.0357 20.2851V20.0912V18.0978C14.0357 17.4568 14.3407 16.8629 14.8614 16.5139C16.7647 15.2378 18.2638 13.4721 19.212 11.3946L19.2609 11.2875L19.3746 11.2569C22.0538 10.5377 23.7506 7.94795 23.7506 4.32285C23.7506 3.52138 23.0945 2.86669 22.2863 2.86669H20.572H20.322V2.61669V1.70674C20.322 0.905267 19.6659 0.25058 18.8577 0.25058H5.14286C4.33466 0.25058 3.67857 0.905267 3.67857 1.70674V2.61669V2.86669H3.42857H1.71429H1.71414C0.906089 2.86621 0.25 3.52078 0.25 4.32229C0.25 7.94799 1.94684 10.5382 4.62648 11.2569L4.74023 11.2874L4.78913 11.3946C5.73731 13.4715 7.23644 15.2372 9.13913 16.5133L15.7431 23.1813ZM15.7431 23.1813H8.24029V22.5737L8.25 22.5748V22.2938C8.25 21.7532 8.46104 21.2459 8.84607 20.8627C9.10809 20.6019 9.42799 20.4219 9.77622 20.3328L9.96428 20.2847V20.0906V18.0944C9.96428 17.455 9.65925 16.8617 9.13924 16.5133L15.7431 23.1813ZM1.71429 2.61669H3.17857H3.42857V2.36669V1.70674C3.42857 0.766077 4.19771 0.000579834 5.14286 0.000579834H18.8577C19.8029 0.000579834 20.572 0.766077 20.572 1.70674L1.71429 2.61669ZM1.71429 2.61669C0.769143 2.61612 0 3.38162 0 4.32229M1.71429 2.61669L0 4.32229M9.39286 22.5438H14.8566H15.1066V22.2938C15.1066 21.5274 14.481 20.9064 13.7137 20.9064C13.5352 20.9064 13.3923 20.7624 13.3923 20.5877V18.0973C13.3923 17.237 13.8087 16.4487 14.5008 15.9852L14.5009 15.9851C16.3792 14.7259 17.8432 12.9631 18.7343 10.8873C19.3608 9.42864 19.6786 7.88341 19.6786 6.29575V1.70617C19.6786 1.25362 19.3089 0.887452 18.8571 0.887452H5.14286C4.69105 0.887452 4.32143 1.25362 4.32143 1.70617V6.29575C4.32143 7.88393 4.63917 9.42914 5.2657 10.8872L9.39286 22.5438ZM9.39286 22.5438H9.14286H9.14229V22.2938H8.89286C8.89286 21.9234 9.03839 21.5742 9.30136 21.3125C9.55103 21.064 9.8802 20.921 10.2307 20.9072L10.2452 20.9066L10.2597 20.9077C10.2633 20.908 10.267 20.9082 10.2706 20.9084C10.2755 20.9086 10.2803 20.9087 10.2851 20.9087C10.4623 20.9087 10.6066 20.7637 10.6066 20.5877V18.0944C10.6066 17.2365 10.1908 16.4493 9.4991 15.9857L9.49907 15.9857C7.62079 14.7264 6.15678 12.9631 5.26574 10.8873L9.39286 22.5438ZM0 4.32229C0 8.02238 1.73943 10.7414 4.56171 11.4984L0 4.32229ZM20.5714 3.50357H20.3214V3.75357V6.29575C20.3214 7.56619 20.1277 8.80999 19.7463 10.0082L19.5682 10.568L20.0951 10.3082C22.0286 9.35512 23.1071 7.1736 23.1071 4.32229C23.1071 3.86973 22.7375 3.50357 22.2857 3.50357H20.5714ZM3.67857 3.75357V3.50357H3.42857H1.71429C1.26248 3.50357 0.892857 3.86973 0.892857 4.32229C0.892857 7.1736 1.97136 9.35512 3.90489 10.3082L4.43222 10.5682L4.25361 10.008C3.87179 8.8106 3.67857 7.56628 3.67857 6.29575V3.75357Z" fill="#A7CAFF" stroke="#A7CAFF" stroke-width="0.5"/>
</g>
<defs>
<clipPath id="clip0_933_11350">
<rect width="24" height="24" fill="white"/>
</clipPath>
</defs>
</svg>
