<svg width="24" height="24" viewBox="0 0 24 24" fill="none" xmlns="http://www.w3.org/2000/svg">
<g clip-path="url(#clip0_863_8968)">
<path d="M12.001 0.261414C5.51535 0.261414 0.261414 5.51539 0.261414 12.0011C0.261414 18.4867 5.51535 23.7407 12.001 23.7407C18.4866 23.7407 23.7405 18.4847 23.7405 12.0011C23.7405 5.51744 18.4846 0.261414 12.001 0.261414ZM21.4613 13.082C20.9636 17.4628 17.4852 20.9492 13.1086 21.4587V20.9504C13.1086 20.3379 12.6135 19.8428 12.001 19.8428C11.3885 19.8428 10.8934 20.3379 10.8934 20.9504V21.4587C6.51681 20.9492 3.03837 17.461 2.54068 13.082H3.02301C3.63552 13.082 4.13062 12.5869 4.13062 11.9744C4.13062 11.3619 3.63552 10.8668 3.02301 10.8668H2.54619C3.06496 6.51077 6.53502 3.0504 10.8934 2.54344V2.99636C10.8934 3.60886 11.3885 4.10397 12.001 4.10397C12.6135 4.10397 13.1086 3.60886 13.1086 2.99636V2.54344C17.4669 3.05047 20.9369 6.51261 21.4557 10.8668H20.9789C20.3664 10.8668 19.8713 11.3619 19.8713 11.9744C19.8713 12.5869 20.3664 13.082 20.9789 13.082H21.4613Z" fill="#BBACF9" stroke="#BBACF9" stroke-width="0.479126"/>
<path d="M16.9973 6.23338L11.9253 11.5484C11.9092 11.5494 11.893 11.5507 11.8769 11.5524L7.65583 8.36237L7.65583 8.36237L7.65491 8.36168C7.26569 8.07047 6.70746 8.14224 6.40926 8.53817C6.11148 8.9294 6.19052 9.49032 6.58336 9.78528C6.58349 9.78538 6.58362 9.78547 6.58375 9.78557L10.8042 12.9751C10.9045 13.5455 11.4031 13.9788 12.0014 13.9788C12.6681 13.9788 13.2092 13.4429 13.2177 12.7782L18.2879 7.46504L18.2881 7.4649C18.6281 7.10795 18.6129 6.54645 18.258 6.20548L18.258 6.20546C17.9104 5.87165 17.3633 5.87975 17.0207 6.21189C17.0126 6.21847 17.0047 6.22564 16.9973 6.23338Z" fill="#BBACF9" stroke="#BBACF9" stroke-width="0.479126" stroke-linejoin="round"/>
</g>
<defs>
<clipPath id="clip0_863_8968">
<rect width="24" height="24" fill="white"/>
</clipPath>
</defs>
</svg>
