<svg width="51" height="50" viewBox="0 0 51 50" fill="none" xmlns="http://www.w3.org/2000/svg">
<path d="M27.2481 27.527C37.6565 27.527 46.1255 19.0161 46.1255 8.5562C46.1255 7.14349 45.9687 5.73215 45.6606 4.3609C45.5437 3.84115 45.1104 3.45411 44.5835 3.39743C43.9123 3.32555 43.2342 3.28961 42.5671 3.28961C36.5148 3.28961 30.7872 6.23807 27.2439 11.1784C26.9565 11.5793 26.9413 12.0935 27.1628 12.5013L27.1229 12.5234C27.1229 12.5234 29.1972 15.6087 29.5892 19.7709L27.31 22.4553C27.31 22.3903 27.31 22.3254 27.31 22.2604C27.31 11.8005 18.8424 3.28961 8.43254 3.28961C7.76542 3.28961 7.0873 3.32555 6.41605 3.39743C5.88924 3.45411 5.45595 3.84115 5.33903 4.3609C5.0323 5.73215 4.87549 7.14349 4.87549 8.5562C4.87549 19.0161 13.3445 27.527 23.7529 27.527C24.0211 27.527 24.2921 27.5215 24.5631 27.509V40.4143C22.6938 40.8594 21.1408 42.2887 20.5851 44.1907C20.3926 44.8501 20.7681 45.5412 21.4242 45.7348C21.4242 45.7348 25.4407 47.9312 30.1779 45.7348C30.834 45.5412 31.2095 44.8501 31.017 44.1907C30.4612 42.2887 28.9083 40.8594 27.039 40.4143V27.509C27.1064 27.5201 27.1752 27.527 27.2467 27.527H27.2481Z" fill="#F0F0F5"/>
</svg>
