<svg width="20" height="20" viewBox="0 0 20 20" fill="none" xmlns="http://www.w3.org/2000/svg">
<path fill-rule="evenodd" clip-rule="evenodd" d="M17.3291 14.6213C15.8299 13.5913 13.5314 14.1393 12.1003 12.3039C12.1003 12.3039 11.5675 11.7231 12.7663 10.3069C13.9651 8.89075 14.0642 6.63626 13.7668 4.89674C13.4663 3.15722 11.7688 1.99854 10.0031 1.99854C8.23748 1.99854 6.53996 3.15722 6.23948 4.89674C5.93901 6.63626 6.03814 8.88776 7.24003 10.3069C8.44193 11.7261 7.90603 12.3039 7.90603 12.3039C6.47491 14.1393 4.17644 13.5913 2.67717 14.6213C1.1717 15.6512 1.54032 18.0015 1.54032 18.0015H18.4598C18.4598 18.0015 18.8253 15.6512 17.326 14.6213H17.3291Z" fill="#B1C7E8"/>
</svg>
