<svg width="20" height="20" viewBox="0 0 20 20" fill="none" xmlns="http://www.w3.org/2000/svg">
<path d="M15.8555 8.09735H15.4105V6.0481C15.4105 2.98903 12.9823 0.498535 10.0015 0.498535C7.02066 0.498535 4.59239 2.98903 4.59239 6.05106V8.10031H4.14745C3.23722 8.10031 2.50146 8.85842 2.50146 9.79124V17.8106C2.50146 18.7434 3.24012 19.5015 4.14745 19.5015H15.8526C16.7599 19.5015 17.4986 18.7434 17.4986 17.8106V9.79124C17.4986 8.85842 16.7599 8.10031 15.8526 8.10031L15.8555 8.09735ZM10.6907 13.9075V14.9558C10.6907 15.1128 10.5685 15.2401 10.4144 15.2401H9.58561C9.43438 15.2401 9.30934 15.1128 9.30934 14.9558V13.9075C8.93128 13.6676 8.67828 13.2442 8.67828 12.7555C8.67828 12.0063 9.26862 11.3993 9.99856 11.3993C10.7285 11.3993 11.3188 12.0063 11.3188 12.7555C11.3188 13.2442 11.0658 13.6676 10.6878 13.9075H10.6907ZM13.0375 8.09735H6.9625V6.0481C6.9625 4.32756 8.32349 2.9298 9.99856 2.9298C11.6736 2.9298 13.0346 4.32756 13.0346 6.0481V8.09735H13.0375Z" fill="#B1C7E8"/>
</svg>
