<svg width="current" height="current" viewBox="0 0 48 48" fill="none" xmlns="http://www.w3.org/2000/svg">
<circle cx="23.5" cy="23.5" r="23.5" fill="#EF7E7E"/>
<g clip-path="url(#clip0_291_5242)">
<mask id="mask0_291_5242" style="mask-type:luminance" maskUnits="userSpaceOnUse" x="0" y="0" width="48" height="48">
<path d="M24 48C37.2548 48 48 37.2548 48 24C48 10.7452 37.2548 0 24 0C10.7452 0 0 10.7452 0 24C0 37.2548 10.7452 48 24 48Z" fill="white"/>
</mask>
<g mask="url(#mask0_291_5242)">
<path d="M23.9998 23.9998V-12.0002L24.3144 -11.9985L23.9998 23.9998Z" fill="#F90BFA" stroke="#F90BFA" stroke-width="0.02"/>
<path d="M24 23.9998L24.3146 -11.9985L24.6291 -11.9942L24.0009 24.0006L24 23.9998Z" fill="#F80CFA" stroke="#F80CFA" stroke-width="0.02"/>
<path d="M24 24L24.6283 -11.9949L24.942 -11.988L24 24Z" fill="#F70DFA" stroke="#F70DFA" stroke-width="0.02"/>
<path d="M23.9999 23.9997L24.9419 -11.9883L25.2556 -11.9789L23.999 23.9989L23.9999 23.9997Z" fill="#F60EFA" stroke="#F60EFA" stroke-width="0.02"/>
<path d="M24 23.9997L25.2566 -11.978L25.5703 -11.966L24 23.9997Z" fill="#F50FFA" stroke="#F50FFA" stroke-width="0.02"/>
<path d="M24 24.0001L25.5703 -11.9656L25.884 -11.9501L24 24.0001Z" fill="#F410FA" stroke="#F410FA" stroke-width="0.02"/>
<path d="M24 24.0001L25.884 -11.9502L26.1977 -11.9322L24 24.0009V24.0001Z" fill="#F311FA" stroke="#F311FA" stroke-width="0.02"/>
<path d="M24 23.9998L26.1977 -11.9333L26.5114 -11.9128L24 23.9998Z" fill="#F212FA" stroke="#F212FA" stroke-width="0.02"/>
<path d="M24 23.9997L26.5114 -11.9128L26.8251 -11.8897L24.0009 23.9997H24Z" fill="#F113FA" stroke="#F113FA" stroke-width="0.02"/>
<path d="M23.9999 24L26.8242 -11.8894L27.137 -11.8637L23.999 23.9992L23.9999 24Z" fill="#F014FA" stroke="#F014FA" stroke-width="0.02"/>
<path d="M24 23.9998L27.138 -11.863L27.4509 -11.8348L24.0009 23.9998H24Z" fill="#EF15FA" stroke="#EF15FA" stroke-width="0.02"/>
<path d="M24 24.0001L27.45 -11.8345L27.7629 -11.8028L24 24.0001Z" fill="#EE16FA" stroke="#EE16FA" stroke-width="0.02"/>
<path d="M24 23.9999L27.7629 -11.803L28.0749 -11.7687L24 23.9999Z" fill="#ED17FA" stroke="#ED17FA" stroke-width="0.02"/>
<path d="M23.9999 24L28.0747 -11.7686L28.3867 -11.7317L23.999 24H23.9999Z" fill="#EC18FA" stroke="#EC18FA" stroke-width="0.02"/>
<path d="M24 23.9998L28.3877 -11.7319L28.6997 -11.6925L24.0009 23.9998H24Z" fill="#EB19FA" stroke="#EB19FA" stroke-width="0.02"/>
<path d="M24 23.9999L28.6989 -11.6924L29.01 -11.6495L24 23.9999Z" fill="#EA1AFA" stroke="#EA1AFA" stroke-width="0.02"/>
<path d="M24 24.0003L29.01 -11.6492L29.3211 -11.6037L24 24.0011V24.0003Z" fill="#E91BFA" stroke="#E91BFA" stroke-width="0.02"/>
<path d="M24 23.9996L29.3211 -11.6052L29.6314 -11.5572L24 23.9996Z" fill="#E81CFA" stroke="#E81CFA" stroke-width="0.02"/>
<path d="M24 24L29.6314 -11.5569L29.9417 -11.5063L24 24Z" fill="#E71DFA" stroke="#E71DFA" stroke-width="0.02"/>
<path d="M24 23.9999L29.9417 -11.5063L30.2511 -11.4532L24 23.9999Z" fill="#E61EFA" stroke="#E61EFA" stroke-width="0.02"/>
<path d="M24 24.0003L30.2511 -11.4529L30.5606 -11.3972L24 24.0003Z" fill="#E51FFA" stroke="#E51FFA" stroke-width="0.02"/>
<path d="M24 24.0002L30.5606 -11.3972L30.8691 -11.3389L24 23.9994V24.0002Z" fill="#E420FA" stroke="#E420FA" stroke-width="0.02"/>
<path d="M24 23.9997L30.8691 -11.3386L31.1769 -11.2778L24 23.9997Z" fill="#E321FA" stroke="#E321FA" stroke-width="0.02"/>
<path d="M24 24.0003L31.1769 -11.2771L31.4846 -11.2128L24 24.0003Z" fill="#E222FA" stroke="#E222FA" stroke-width="0.02"/>
<path d="M24 23.9998L31.4846 -11.2134L31.7914 -11.1465L24 23.9998Z" fill="#E123FA" stroke="#E123FA" stroke-width="0.02"/>
<path d="M24 24.0003L31.7914 -11.146L32.0983 -11.0766L24 24.0011V24.0003Z" fill="#E024FA" stroke="#E024FA" stroke-width="0.02"/>
<path d="M24 23.9998L32.0983 -11.0779L32.4043 -11.0059L24 23.9998Z" fill="#DF25FA" stroke="#DF25FA" stroke-width="0.02"/>
<path d="M24 23.9996L32.4043 -11.0061L32.7094 -10.9315L24 23.9988V23.9996Z" fill="#DE26FA" stroke="#DE26FA" stroke-width="0.02"/>
<path d="M24 23.9996L32.7094 -10.9307L33.0137 -10.8535L24 23.9996Z" fill="#DD27FA" stroke="#DD27FA" stroke-width="0.02"/>
<path d="M24 24.0001L33.0137 -10.853L33.3171 -10.7733L24 24.0001Z" fill="#DC28FA" stroke="#DC28FA" stroke-width="0.02"/>
<path d="M24 24.0002L33.3171 -10.7732L33.6206 -10.6909L24 23.9994V24.0002Z" fill="#DB29FA" stroke="#DB29FA" stroke-width="0.02"/>
<path d="M24 23.9999L33.6206 -10.6904L33.9231 -10.6056L24 23.9999Z" fill="#DA2AFA" stroke="#DA2AFA" stroke-width="0.02"/>
<path d="M24 24L33.9231 -10.6055L34.2249 -10.5172L24 24Z" fill="#D92BFA" stroke="#D92BFA" stroke-width="0.02"/>
<path d="M24 24.0003L34.2249 -10.5168L34.5257 -10.426L24 24.0012V24.0003Z" fill="#D82CFA" stroke="#D82CFA" stroke-width="0.02"/>
<path d="M24 23.9997L34.5257 -10.4275L34.8257 -10.3341L24 23.9997Z" fill="#D72DFA" stroke="#D72DFA" stroke-width="0.02"/>
<path d="M24 24L34.8257 -10.3337L35.1249 -10.2377L24 24Z" fill="#D62EFA" stroke="#D62EFA" stroke-width="0.02"/>
<path d="M24 23.9999L35.1249 -10.2378L35.4231 -10.1392L24 24.0008V23.9999Z" fill="#D52FFA" stroke="#D52FFA" stroke-width="0.02"/>
<path d="M24 23.9996L35.4231 -10.1404L35.7206 -10.0392L24 23.9996Z" fill="#D430FA" stroke="#D430FA" stroke-width="0.02"/>
<path d="M24 24.0003L35.7206 -10.0386L36.0171 -9.93486L24 24.0003Z" fill="#D331FA" stroke="#D331FA" stroke-width="0.02"/>
<path d="M24 23.9998L36.0171 -9.9353L36.3129 -9.82902L24 23.9998Z" fill="#D232FA" stroke="#D232FA" stroke-width="0.02"/>
<path d="M24 23.9998L36.3129 -9.8291L36.6077 -9.72024L24 23.9998Z" fill="#D133FA" stroke="#D133FA" stroke-width="0.02"/>
<path d="M24 24L36.6077 -9.71997L36.9017 -9.60854L24.0009 24H24Z" fill="#D034FA" stroke="#D034FA" stroke-width="0.02"/>
<path d="M24 23.9999L36.9009 -9.60864L37.194 -9.49464L24 24.0008V23.9999Z" fill="#CF35FA" stroke="#CF35FA" stroke-width="0.02"/>
<path d="M24 23.9996L37.194 -9.49585L37.4854 -9.37928L24 23.9996Z" fill="#CE36FA" stroke="#CE36FA" stroke-width="0.02"/>
<path d="M24 24.0002L37.4863 -9.37866L37.7769 -9.25952L24 24.0002Z" fill="#CD37FA" stroke="#CD37FA" stroke-width="0.02"/>
<path d="M24 23.9997L37.7769 -9.26001L38.0666 -9.1383L24 23.9997Z" fill="#CC38FA" stroke="#CC38FA" stroke-width="0.02"/>
<path d="M24 23.9996L38.0666 -9.13843L38.3554 -9.01414L24.0009 23.9996H24Z" fill="#CB39FA" stroke="#CB39FA" stroke-width="0.02"/>
<path d="M23.9999 23.9998L38.3544 -9.01392L38.6416 -8.88706L23.999 24.0007L23.9999 23.9998Z" fill="#CA3AFA" stroke="#CA3AFA" stroke-width="0.02"/>
<path d="M24 23.9998L38.6426 -8.88794L38.9289 -8.75851L24 23.9998Z" fill="#C93BFA" stroke="#C93BFA" stroke-width="0.02"/>
<path d="M24 24L38.9289 -8.7583L39.2143 -8.62716L24 24Z" fill="#C83CFA" stroke="#C83CFA" stroke-width="0.02"/>
<path d="M24 23.9999L39.2143 -8.6272L39.498 -8.49348L24 23.9999Z" fill="#C73DFA" stroke="#C73DFA" stroke-width="0.02"/>
<path d="M23.9999 24.0003L39.4979 -8.49316L39.7807 -8.35688L23.999 23.9994L23.9999 24.0003Z" fill="#C63EFA" stroke="#C63EFA" stroke-width="0.02"/>
<path d="M24 24.0001L39.7817 -8.3562L40.0637 -8.21734L24.0009 24.0001H24Z" fill="#C53FFA" stroke="#C53FFA" stroke-width="0.02"/>
<path d="M23.9999 23.9997L40.0627 -8.21777L40.343 -8.07634L23.999 23.9997H23.9999Z" fill="#C440FA" stroke="#C440FA" stroke-width="0.02"/>
<path d="M24 23.9996L40.344 -8.07642L40.6234 -7.93242L24.0009 23.9996H24Z" fill="#C341FA" stroke="#C341FA" stroke-width="0.02"/>
<path d="M23.9999 23.9999L40.6225 -7.93213L40.9002 -7.78556L23.999 24.0007L23.9999 23.9999Z" fill="#C242FA" stroke="#C242FA" stroke-width="0.02"/>
<path d="M24 23.9999L40.9011 -7.78638L41.178 -7.63809L24 23.9991V23.9999Z" fill="#C143FA" stroke="#C143FA" stroke-width="0.02"/>
<path d="M24 24.0003L41.178 -7.63684L41.4531 -7.48598L24 24.0003Z" fill="#C044FA" stroke="#C044FA" stroke-width="0.02"/>
<path d="M24 24.0003L41.4531 -7.48596L41.7274 -7.33253L24 24.0003Z" fill="#BF45FA" stroke="#BF45FA" stroke-width="0.02"/>
<path d="M24 24L41.7274 -7.33289L42 -7.17689L24 24Z" fill="#BE46FA" stroke="#BE46FA" stroke-width="0.02"/>
<path d="M24 24L42 -7.17688L42.2717 -7.01831L24 24Z" fill="#BD47FA" stroke="#BD47FA" stroke-width="0.02"/>
<path d="M24 24.0003L42.2717 -7.01794L42.5417 -6.85766L24 24.0003Z" fill="#BC48FA" stroke="#BC48FA" stroke-width="0.02"/>
<path d="M24 23.9997L42.5417 -6.85828L42.81 -6.69542L24 23.9997Z" fill="#BB49FA" stroke="#BB49FA" stroke-width="0.02"/>
<path d="M24 24.0002L42.81 -6.69495L43.0774 -6.52952L24 24.0002Z" fill="#BA4AFA" stroke="#BA4AFA" stroke-width="0.02"/>
<path d="M24 24.0003L43.0774 -6.52942L43.3431 -6.36142L24 24.0003Z" fill="#B94BFA" stroke="#B94BFA" stroke-width="0.02"/>
<path d="M24 24L43.3431 -6.36169L43.6071 -6.19198L24 24Z" fill="#B84CFA" stroke="#B84CFA" stroke-width="0.02"/>
<path d="M24 24.0002L43.6071 -6.19177L43.8703 -6.01949L24.0009 24.0002H24Z" fill="#B74DFA" stroke="#B74DFA" stroke-width="0.02"/>
<path d="M24 24.0001L43.8694 -6.01965L44.1309 -5.8448L24 24.0009V24.0001Z" fill="#B64EFA" stroke="#B64EFA" stroke-width="0.02"/>
<path d="M24 23.9996L44.1309 -5.84607L44.3906 -5.6695L24 23.9988V23.9996Z" fill="#B54FFA" stroke="#B54FFA" stroke-width="0.02"/>
<path d="M24 24.0002L44.3906 -5.66809L44.6486 -5.48895L24 24.0002Z" fill="#B450FA" stroke="#B450FA" stroke-width="0.02"/>
<path d="M23.9999 23.9998L44.6485 -5.48938L44.9047 -5.30767L23.999 24.0006L23.9999 23.9998Z" fill="#B351FA" stroke="#B351FA" stroke-width="0.02"/>
<path d="M24 23.9998L44.9057 -5.30847L45.1603 -5.12504L24 23.9998Z" fill="#B252FA" stroke="#B252FA" stroke-width="0.02"/>
<path d="M24 24.0002L45.1603 -5.12463L45.414 -4.93863L24 24.0002Z" fill="#B153FA" stroke="#B153FA" stroke-width="0.02"/>
<path d="M24 24.0003L45.414 -4.9386L45.666 -4.75088L24.0009 24.0003H24Z" fill="#B054FA" stroke="#B054FA" stroke-width="0.02"/>
<path d="M24 24L45.6651 -4.7511L45.9154 -4.56081L24 24Z" fill="#AF55FA" stroke="#AF55FA" stroke-width="0.02"/>
<path d="M24 24.0002L45.9154 -4.56067L46.164 -4.36867L24 23.9993V24.0002Z" fill="#AE56FA" stroke="#AE56FA" stroke-width="0.02"/>
<path d="M24 24L46.164 -4.36804L46.4109 -4.17347L24 24.0008V24Z" fill="#AD57FA" stroke="#AD57FA" stroke-width="0.02"/>
<path d="M24 23.9996L46.4109 -4.17468L46.656 -3.9784L24.0009 23.9987L24 23.9996Z" fill="#AC58FA" stroke="#AC58FA" stroke-width="0.02"/>
<path d="M24 24.0002L46.6551 -3.97693L46.8986 -3.77807L24 24.0002Z" fill="#AB59FA" stroke="#AB59FA" stroke-width="0.02"/>
<path d="M24 23.9998L46.8986 -3.77844L47.1403 -3.57787L24 23.9998Z" fill="#AA5AFA" stroke="#AA5AFA" stroke-width="0.02"/>
<path d="M24 24L47.1403 -3.57776L47.3803 -3.37462L24 24Z" fill="#A95BFA" stroke="#A95BFA" stroke-width="0.02"/>
<path d="M24 23.9997L47.3803 -3.37488L47.6186 -3.17002L24.0009 23.9997H24Z" fill="#A85CFA" stroke="#A85CFA" stroke-width="0.02"/>
<path d="M24 24L47.6177 -3.16968L47.8543 -2.96225L24 24Z" fill="#A75DFA" stroke="#A75DFA" stroke-width="0.02"/>
<path d="M23.9999 23.9999L47.8542 -2.9624L48.0882 -2.75326L23.999 23.9999H23.9999Z" fill="#A65EFA" stroke="#A65EFA" stroke-width="0.02"/>
<path d="M24 24.0002L48.0891 -2.75293L48.3214 -2.54207L24 24.0002Z" fill="#A55FFA" stroke="#A55FFA" stroke-width="0.02"/>
<path d="M24 24.0003L48.3214 -2.54199L48.552 -2.32856L24 24.0003Z" fill="#A460FA" stroke="#A460FA" stroke-width="0.02"/>
<path d="M24 24L48.552 -2.32886L48.7809 -2.11371L24 24Z" fill="#A361FA" stroke="#A361FA" stroke-width="0.02"/>
<path d="M24 24.0002L48.7809 -2.11353L49.008 -1.89667L24 23.9993V24.0002Z" fill="#A262FA" stroke="#A262FA" stroke-width="0.02"/>
<path d="M24 24L49.008 -1.896L49.2326 -1.67657L24 24.0009V24Z" fill="#A163FA" stroke="#A163FA" stroke-width="0.02"/>
<path d="M24 23.9997L49.2326 -1.67773L49.4554 -1.45659L24 23.9988V23.9997Z" fill="#A064FA" stroke="#A064FA" stroke-width="0.02"/>
<path d="M23.9999 24.0003L49.4553 -1.45508L49.6765 -1.23222L23.999 24.0003H23.9999Z" fill="#9F65FA" stroke="#9F65FA" stroke-width="0.02"/>
<path d="M24 24.0002L49.6774 -1.23242L49.8969 -1.00785L24.0009 24.0002H24Z" fill="#9E66FA" stroke="#9E66FA" stroke-width="0.02"/>
<path d="M23.9999 23.9999L49.8959 -1.00806L50.1127 -0.780914L23.999 23.9999H23.9999Z" fill="#9D67FA" stroke="#9D67FA" stroke-width="0.02"/>
<path d="M24 24.0003L50.1137 -0.780518L50.3289 -0.551659L24 24.0003Z" fill="#9C68FA" stroke="#9C68FA" stroke-width="0.02"/>
<path d="M24 24L50.3289 -0.552002L50.5423 -0.321432L24 24Z" fill="#9B69FA" stroke="#9B69FA" stroke-width="0.02"/>
<path d="M24 23.9999L50.5423 -0.321533L50.7531 -0.0892469L24 23.9999Z" fill="#9A6AFA" stroke="#9A6AFA" stroke-width="0.02"/>
<path d="M24 24L50.7531 -0.0891113L50.9623 0.144888L24 23.9992V24Z" fill="#996BFA" stroke="#996BFA" stroke-width="0.02"/>
<path d="M24 24.0005L50.9623 0.14624L51.1697 0.382811L24 24.0005Z" fill="#986CFA" stroke="#986CFA" stroke-width="0.02"/>
<path d="M24 24.0003L51.1697 0.382568L51.3746 0.620854L24 24.0011V24.0003Z" fill="#976DFA" stroke="#976DFA" stroke-width="0.02"/>
<path d="M24 24.0002L51.3746 0.619873L51.5777 0.859872L24 24.0002Z" fill="#966EFA" stroke="#966EFA" stroke-width="0.02"/>
<path d="M24 23.9994L51.5777 0.859131L51.7783 1.10085L24 23.9994Z" fill="#956FFA" stroke="#956FFA" stroke-width="0.02"/>
<path d="M24 23.9996L51.7783 1.10107L51.9771 1.3445L24 23.9996Z" fill="#9470FA" stroke="#9470FA" stroke-width="0.02"/>
<path d="M23.9999 24.0001L51.977 1.34497L52.1733 1.59011L23.999 24.001L23.9999 24.0001Z" fill="#9371FA" stroke="#9371FA" stroke-width="0.02"/>
<path d="M24 23.9997L52.1743 1.58887L52.3689 1.83572L24.0009 23.9997H24Z" fill="#9272FA" stroke="#9272FA" stroke-width="0.02"/>
<path d="M23.9999 23.9997L52.3679 1.83569L52.5599 2.08427L23.999 23.9997H23.9999Z" fill="#9173FA" stroke="#9173FA" stroke-width="0.02"/>
<path d="M24 24.0001L52.5609 2.08472L52.7511 2.335L24 24.0001Z" fill="#9074FA" stroke="#9074FA" stroke-width="0.02"/>
<path d="M24 23.9996L52.7511 2.33447L52.9389 2.58647L24 24.0005V23.9996Z" fill="#8F75FA" stroke="#8F75FA" stroke-width="0.02"/>
<path d="M24 23.9997L52.9389 2.58569L53.1249 2.83941L24 23.9997Z" fill="#8E76FA" stroke="#8E76FA" stroke-width="0.02"/>
<path d="M24 24.0001L53.1249 2.83984L53.3083 3.09442L24 24.0001Z" fill="#8D77FA" stroke="#8D77FA" stroke-width="0.02"/>
<path d="M24 23.9997L53.3083 3.09399L53.49 3.35028L24.0009 23.9989L24 23.9997Z" fill="#8C78FA" stroke="#8C78FA" stroke-width="0.02"/>
<path d="M24 23.9998L53.4891 3.3512L53.6683 3.6092L24 23.9998Z" fill="#8B79FA" stroke="#8B79FA" stroke-width="0.02"/>
<path d="M23.9999 24.0003L53.6682 3.60974L53.8447 3.86946L23.999 24.0003H23.9999Z" fill="#8A7AFA" stroke="#8A7AFA" stroke-width="0.02"/>
<path d="M24 23.9999L53.8457 3.86902L54.0206 4.13045L24.0009 23.9999H24Z" fill="#897BFA" stroke="#897BFA" stroke-width="0.02"/>
<path d="M24 23.9999L54.0197 4.13049L54.192 4.39364L24 24.0008V23.9999Z" fill="#887CFA" stroke="#887CFA" stroke-width="0.02"/>
<path d="M24 23.9998L54.192 4.3927L54.3617 4.6567L24 23.9998Z" fill="#877DFA" stroke="#877DFA" stroke-width="0.02"/>
<path d="M24 24.0002L54.3617 4.6571L54.5297 4.92282L24 24.0002Z" fill="#867EFA" stroke="#867EFA" stroke-width="0.02"/>
<path d="M24 23.9997L54.5297 4.92224L54.6951 5.18967L24 23.9997Z" fill="#857FFA" stroke="#857FFA" stroke-width="0.02"/>
<path d="M24 24.0003L54.6951 5.19031L54.858 5.45859L24 24.0003Z" fill="#8480FA" stroke="#8480FA" stroke-width="0.02"/>
<path d="M24 24.0001L54.858 5.45837L55.0183 5.72837L24 24.0001Z" fill="#8381FA" stroke="#8381FA" stroke-width="0.02"/>
<path d="M24 23.9996L55.0183 5.72791L55.1769 5.99962L24 23.9996Z" fill="#8282FA" stroke="#8282FA" stroke-width="0.02"/>
<path d="M24 23.9996L55.1769 5.99963L55.3329 6.27221L24 23.9996Z" fill="#8183FA" stroke="#8183FA" stroke-width="0.02"/>
<path d="M24 24.0003L55.3329 6.27283L55.4863 6.54711L24 24.0003Z" fill="#8084FA" stroke="#8084FA" stroke-width="0.02"/>
<path d="M24 23.9999L55.4863 6.54675L55.6371 6.8219L24 23.9999Z" fill="#7F85FA" stroke="#7F85FA" stroke-width="0.02"/>
<path d="M23.9999 24.0001L55.637 6.82214L55.7853 7.099L23.999 24.0001H23.9999Z" fill="#7E86FA" stroke="#7E86FA" stroke-width="0.02"/>
<path d="M24 24.0001L55.7863 7.099L55.9329 7.37671L24.0009 23.9993L24 24.0001Z" fill="#7D87FA" stroke="#7D87FA" stroke-width="0.02"/>
<path d="M24 23.9999L55.932 7.37732L56.076 7.65675L24 24.0007V23.9999Z" fill="#7C88FA" stroke="#7C88FA" stroke-width="0.02"/>
<path d="M24 23.9996L56.076 7.65564L56.2174 7.93593L24 23.9988V23.9996Z" fill="#7B89FA" stroke="#7B89FA" stroke-width="0.02"/>
<path d="M24 23.9999L56.2174 7.93701L56.3563 8.21901L24 24.0007V23.9999Z" fill="#7A8AFA" stroke="#7A8AFA" stroke-width="0.02"/>
<path d="M23.9999 24L56.3562 8.21826L56.4925 8.50112L23.999 23.9991L23.9999 24Z" fill="#798BFA" stroke="#798BFA" stroke-width="0.02"/>
<path d="M24 23.9997L56.4934 8.50171L56.6271 8.78542L24 23.9997Z" fill="#788CFA" stroke="#788CFA" stroke-width="0.02"/>
<path d="M24 24.0002L56.6271 8.78589L56.7583 9.07132L24 24.0002Z" fill="#778DFA" stroke="#778DFA" stroke-width="0.02"/>
<path d="M24 23.9997L56.7583 9.0708L56.8877 9.35709L24 23.9997Z" fill="#768EFA" stroke="#768EFA" stroke-width="0.02"/>
<path d="M24 23.9998L56.8877 9.35718L57.0146 9.64432L24 23.9989V23.9998Z" fill="#758FFA" stroke="#758FFA" stroke-width="0.02"/>
<path d="M24 24.0003L57.0146 9.64575L57.1389 9.93461L24.0009 24.0012L24 24.0003Z" fill="#7490FA" stroke="#7490FA" stroke-width="0.02"/>
<path d="M24 24.0002L57.138 9.93359L57.2597 10.2233L24 24.0002Z" fill="#7391FA" stroke="#7391FA" stroke-width="0.02"/>
<path d="M24 23.9998L57.2597 10.2229L57.3789 10.5135L24 23.9989V23.9998Z" fill="#7292FA" stroke="#7292FA" stroke-width="0.02"/>
<path d="M24 23.9998L57.3789 10.5144L57.4954 10.8058L24 23.9998Z" fill="#7193FA" stroke="#7193FA" stroke-width="0.02"/>
<path d="M24 23.9999L57.4954 10.8059L57.6094 11.0991L24.0009 23.9999H24Z" fill="#7094FA" stroke="#7094FA" stroke-width="0.02"/>
<path d="M24 23.9997L57.6086 11.0989L57.72 11.3929L24 24.0006V23.9997Z" fill="#6F95FA" stroke="#6F95FA" stroke-width="0.02"/>
<path d="M24 24.0003L57.72 11.3926L57.8289 11.6874L24 24.0003Z" fill="#6E96FA" stroke="#6E96FA" stroke-width="0.02"/>
<path d="M24 23.9999L57.8289 11.687L57.9351 11.9827L24 23.9999Z" fill="#6D97FA" stroke="#6D97FA" stroke-width="0.02"/>
<path d="M24 24.0001L57.9351 11.9829L58.0389 12.2795L24 24.0001Z" fill="#6C98FA" stroke="#6C98FA" stroke-width="0.02"/>
<path d="M24 24.0002L58.0389 12.2797L58.14 12.5771L24 24.0002Z" fill="#6B99FA" stroke="#6B99FA" stroke-width="0.02"/>
<path d="M24 24.0002L58.14 12.577L58.2386 12.8753L24.0009 24.0002H24Z" fill="#6A9AFA" stroke="#6A9AFA" stroke-width="0.02"/>
<path d="M24 24L58.2377 12.8751L58.3337 13.1743L24 24Z" fill="#699BFA" stroke="#699BFA" stroke-width="0.02"/>
<path d="M24 23.9997L58.3337 13.174L58.4271 13.474L24 23.9997Z" fill="#689CFA" stroke="#689CFA" stroke-width="0.02"/>
<path d="M24 24L58.4271 13.4742L58.518 13.7751L24.0009 24H24Z" fill="#679DFA" stroke="#679DFA" stroke-width="0.02"/>
<path d="M24 24.0001L58.5171 13.7753L58.6054 14.077L24 24.0001Z" fill="#669EFA" stroke="#669EFA" stroke-width="0.02"/>
<path d="M24 24.0002L58.6054 14.077L58.6903 14.3796L24 24.0002Z" fill="#659FFA" stroke="#659FFA" stroke-width="0.02"/>
<path d="M23.9999 24.0001L58.6902 14.3795L58.7725 14.6829L23.999 24.0001H23.9999Z" fill="#64A0FA" stroke="#64A0FA" stroke-width="0.02"/>
<path d="M24 23.9999L58.7734 14.6827L58.8531 14.9862L24 23.9999Z" fill="#63A1FA" stroke="#63A1FA" stroke-width="0.02"/>
<path d="M24 23.9997L58.8531 14.986L58.9303 15.2902L24 23.9997Z" fill="#62A2FA" stroke="#62A2FA" stroke-width="0.02"/>
<path d="M23.9999 24.0001L58.9302 15.2906L59.0047 15.5958L23.999 24.0001H23.9999Z" fill="#61A3FA" stroke="#61A3FA" stroke-width="0.02"/>
<path d="M24 23.9996L59.0057 15.5953L59.0777 15.9013L24 23.9996Z" fill="#60A4FA" stroke="#60A4FA" stroke-width="0.02"/>
<path d="M24 23.9998L59.0777 15.9015L59.1471 16.2083L24.0009 23.9998H24Z" fill="#5FA5FA" stroke="#5FA5FA" stroke-width="0.02"/>
<path d="M24 23.9998L59.1463 16.2084L59.2131 16.5152L24 23.9998Z" fill="#5EA6FA" stroke="#5EA6FA" stroke-width="0.02"/>
<path d="M24 23.9998L59.2131 16.5153L59.2774 16.823L24 23.9998Z" fill="#5DA7FA" stroke="#5DA7FA" stroke-width="0.02"/>
<path d="M24 23.9997L59.2774 16.8229L59.3383 17.1306L24 23.9997Z" fill="#5CA8FA" stroke="#5CA8FA" stroke-width="0.02"/>
<path d="M23.9999 23.9996L59.3382 17.1305L59.3965 17.4391L23.999 23.9996H23.9999Z" fill="#5BA9FA" stroke="#5BA9FA" stroke-width="0.02"/>
<path d="M24 24.0001L59.3974 17.4396L59.4531 17.749L24 24.0001Z" fill="#5AAAFA" stroke="#5AAAFA" stroke-width="0.02"/>
<path d="M24 23.9998L59.4531 17.7487L59.5063 18.0581L24 23.9998Z" fill="#59ABFA" stroke="#59ABFA" stroke-width="0.02"/>
<path d="M24 24.0002L59.5063 18.0585L59.5569 18.3688L24 24.0002Z" fill="#58ACFA" stroke="#58ACFA" stroke-width="0.02"/>
<path d="M24 23.9997L59.5569 18.3683L59.6049 18.6786L24 23.9997Z" fill="#57ADFA" stroke="#57ADFA" stroke-width="0.02"/>
<path d="M24 24.0001L59.6049 18.679L59.6503 18.9901L24.0009 24.0001H24Z" fill="#56AEFA" stroke="#56AEFA" stroke-width="0.02"/>
<path d="M23.9999 24.0002L59.6493 18.9902L59.6913 19.3014L23.999 24.0002H23.9999Z" fill="#55AFFA" stroke="#55AFFA" stroke-width="0.02"/>
<path d="M24 23.9996L59.6923 19.3008L59.7317 19.6128L24 24.0005V23.9996Z" fill="#54B0FA" stroke="#54B0FA" stroke-width="0.02"/>
<path d="M24 23.9998L59.7317 19.6121L59.7686 19.9241L24 23.9989V23.9998Z" fill="#53B1FA" stroke="#53B1FA" stroke-width="0.02"/>
<path d="M24 23.9997L59.7686 19.9248L59.8029 20.2368L24 23.9997Z" fill="#52B2FA" stroke="#52B2FA" stroke-width="0.02"/>
<path d="M24 23.9997L59.8029 20.2368L59.8346 20.5497L24 23.9997Z" fill="#51B3FA" stroke="#51B3FA" stroke-width="0.02"/>
<path d="M24 24.0003L59.8346 20.5503L59.8637 20.8631L24.0009 24.0011L24 24.0003Z" fill="#50B4FA" stroke="#50B4FA" stroke-width="0.02"/>
<path d="M23.9999 24.0003L59.8627 20.8623L59.8885 21.1752L23.999 23.9994L23.9999 24.0003Z" fill="#4FB5FA" stroke="#4FB5FA" stroke-width="0.02"/>
<path d="M24 24.0001L59.8894 21.1758L59.9126 21.4895L24 24.0009V24.0001Z" fill="#4EB6FA" stroke="#4EB6FA" stroke-width="0.02"/>
<path d="M24 24L59.9126 21.4885L59.9331 21.8022L24 24Z" fill="#4DB7FA" stroke="#4DB7FA" stroke-width="0.02"/>
<path d="M24 23.9997L59.9331 21.802L59.9511 22.1157L24.0009 23.9997H24Z" fill="#4CB8FA" stroke="#4CB8FA" stroke-width="0.02"/>
<path d="M24 24.0002L59.9503 22.1162L59.9657 22.4299L24 24.0002Z" fill="#4BB9FA" stroke="#4BB9FA" stroke-width="0.02"/>
<path d="M24 24L59.9657 22.4297L59.9777 22.7434L24 24Z" fill="#4ABAFA" stroke="#4ABAFA" stroke-width="0.02"/>
<path d="M23.9999 23.9997L59.9776 22.7432L59.987 23.0569L23.999 23.9989L23.9999 23.9997Z" fill="#49BBFA" stroke="#49BBFA" stroke-width="0.02"/>
<path d="M24 24.0002L59.988 23.0582L59.9949 23.3719L24 24.0002Z" fill="#48BCFA" stroke="#48BCFA" stroke-width="0.02"/>
<path d="M24 24L59.9949 23.3717L59.9991 23.6863L24.0009 24.0008L24 24Z" fill="#47BDFA" stroke="#47BDFA" stroke-width="0.02"/>
<path d="M24 23.9998L59.9983 23.6852L60 23.9998H24Z" fill="#46BEFA" stroke="#46BEFA" stroke-width="0.02"/>
<path d="M24 24.0001H60L59.9983 24.3147L24 24.0001Z" fill="#45BFFA" stroke="#45BFFA" stroke-width="0.02"/>
<path d="M23.9999 24.0001L59.9982 24.3147L59.9939 24.6293L23.999 24.001L23.9999 24.0001Z" fill="#44C0FA" stroke="#44C0FA" stroke-width="0.02"/>
<path d="M24 24.0001L59.9949 24.6284L59.988 24.9421L24 24.0001Z" fill="#43C1FA" stroke="#43C1FA" stroke-width="0.02"/>
<path d="M24 24.0002L59.988 24.9422L59.9786 25.256L24.0009 23.9994L24 24.0002Z" fill="#42C2FA" stroke="#42C2FA" stroke-width="0.02"/>
<path d="M24 24.0001L59.9777 25.2567L59.9657 25.5704L24 24.0001Z" fill="#41C3FA" stroke="#41C3FA" stroke-width="0.02"/>
<path d="M24 24.0001L59.9657 25.5704L59.9503 25.8841L24 24.0001Z" fill="#40C4FA" stroke="#40C4FA" stroke-width="0.02"/>
<path d="M23.9999 24.0001L59.9502 25.8841L59.9322 26.1978L23.999 24.0001H23.9999Z" fill="#3FC5FA" stroke="#3FC5FA" stroke-width="0.02"/>
<path d="M24 24.0001L59.9331 26.1978L59.9126 26.5115L24 24.0001Z" fill="#3EC6FA" stroke="#3EC6FA" stroke-width="0.02"/>
<path d="M24 24.0001L59.9126 26.5115L59.8894 26.8253L24 24.001V24.0001Z" fill="#3DC7FA" stroke="#3DC7FA" stroke-width="0.02"/>
<path d="M24 24.0002L59.8894 26.8245L59.8637 27.1374L24.0009 23.9994L24 24.0002Z" fill="#3CC8FA" stroke="#3CC8FA" stroke-width="0.02"/>
<path d="M23.9999 24.0001L59.8627 27.1381L59.8336 27.451L23.999 24.001L23.9999 24.0001Z" fill="#3BC9FA" stroke="#3BC9FA" stroke-width="0.02"/>
<path d="M24 24.0001L59.8346 27.4501L59.8029 27.763L24 24.0001Z" fill="#3ACAFA" stroke="#3ACAFA" stroke-width="0.02"/>
<path d="M24 24.0001L59.8029 27.763L59.7686 28.075L24 24.0001Z" fill="#39CBFA" stroke="#39CBFA" stroke-width="0.02"/>
<path d="M24 24.0002L59.7686 28.0751L59.7317 28.3871L24 23.9994V24.0002Z" fill="#38CCFA" stroke="#38CCFA" stroke-width="0.02"/>
<path d="M24 24.0001L59.7317 28.3878L59.6923 28.6998L24 24.001V24.0001Z" fill="#37CDFA" stroke="#37CDFA" stroke-width="0.02"/>
<path d="M24 24.0001L59.6923 28.699L59.6503 29.0101L24.0009 24.0001H24Z" fill="#36CEFA" stroke="#36CEFA" stroke-width="0.02"/>
<path d="M23.9999 24.0001L59.6493 29.0101L59.6039 29.3213L23.999 24.0001H23.9999Z" fill="#35CFFA" stroke="#35CFFA" stroke-width="0.02"/>
<path d="M24 24.0001L59.6049 29.3213L59.5569 29.6315L24 24.0001Z" fill="#34D0FA" stroke="#34D0FA" stroke-width="0.02"/>
<path d="M24 24.0001L59.5569 29.6315L59.5063 29.9418L24 24.0001Z" fill="#33D1FA" stroke="#33D1FA" stroke-width="0.02"/>
<path d="M24 24.0001L59.5063 29.9418L59.4531 30.2513L24 24.0001Z" fill="#32D2FA" stroke="#32D2FA" stroke-width="0.02"/>
<path d="M24 24.0001L59.4531 30.2513L59.3974 30.5607L24 24.0001Z" fill="#31D3FA" stroke="#31D3FA" stroke-width="0.02"/>
<path d="M24 24.0001L59.3974 30.5607L59.3391 30.8693L24.0009 24.0001H24Z" fill="#30D4FA" stroke="#30D4FA" stroke-width="0.02"/>
<path d="M24 24.0001L59.3383 30.8693L59.2774 31.177L24 24.0001Z" fill="#2FD5FA" stroke="#2FD5FA" stroke-width="0.02"/>
<path d="M24 24.0001L59.2774 31.177L59.2131 31.4847L24 24.0001Z" fill="#2ED6FA" stroke="#2ED6FA" stroke-width="0.02"/>
<path d="M24 24.0001L59.2131 31.4847L59.1463 31.7916L24 24.0001Z" fill="#2DD7FA" stroke="#2DD7FA" stroke-width="0.02"/>
<path d="M23.9999 24.0001L59.1462 31.7915L59.0767 32.0984L23.999 24.0001H23.9999Z" fill="#2CD8FA" stroke="#2CD8FA" stroke-width="0.02"/>
<path d="M24 24.0001L59.0777 32.0984L59.0057 32.4044L24 24.0001Z" fill="#2BD9FA" stroke="#2BD9FA" stroke-width="0.02"/>
<path d="M24 24.0001L59.0057 32.4044L58.9311 32.7095L24.0009 24.0001H24Z" fill="#2ADAFA" stroke="#2ADAFA" stroke-width="0.02"/>
<path d="M24 24.0001L58.9303 32.7095L58.8531 33.0138L24 24.0001Z" fill="#29DBFA" stroke="#29DBFA" stroke-width="0.02"/>
<path d="M24 24.0001L58.8531 33.0138L58.7734 33.3173L24 24.0001Z" fill="#28DCFA" stroke="#28DCFA" stroke-width="0.02"/>
<path d="M24 24.0001L58.7734 33.3173L58.6911 33.6207L24.0009 24.0001H24Z" fill="#27DDFA" stroke="#27DDFA" stroke-width="0.02"/>
<path d="M24 24.0001L58.6903 33.6207L58.6054 33.9233L24 24.0001Z" fill="#26DEFA" stroke="#26DEFA" stroke-width="0.02"/>
<path d="M24 24.0001L58.6054 33.9233L58.5171 34.225L24 24.0001Z" fill="#25DFFA" stroke="#25DFFA" stroke-width="0.02"/>
<path d="M23.9999 24.0001L58.517 34.225L58.4262 34.5258L23.999 24.0001H23.9999Z" fill="#24E0FA" stroke="#24E0FA" stroke-width="0.02"/>
<path d="M24 24.0001L58.4271 34.5258L58.3337 34.8258L24 24.0001Z" fill="#23E1FA" stroke="#23E1FA" stroke-width="0.02"/>
<path d="M24 24.0001L58.3337 34.8258L58.2377 35.125L24 24.0001Z" fill="#22E2FA" stroke="#22E2FA" stroke-width="0.02"/>
<path d="M23.9999 24.0001L58.2376 35.125L58.139 35.4233L23.999 24.0001H23.9999Z" fill="#21E3FA" stroke="#21E3FA" stroke-width="0.02"/>
<path d="M24 24.0001L58.14 35.4233L58.0389 35.7207L24 24.0001Z" fill="#20E4FA" stroke="#20E4FA" stroke-width="0.02"/>
<path d="M24 24.0001L58.0389 35.7207L57.9351 36.0173L24 24.0001Z" fill="#1FE5FA" stroke="#1FE5FA" stroke-width="0.02"/>
<path d="M24 24.0001L57.9351 36.0173L57.8289 36.313L24 24.0001Z" fill="#1EE6FA" stroke="#1EE6FA" stroke-width="0.02"/>
<path d="M24 24.0001L57.8289 36.313L57.72 36.6078L24 24.0001Z" fill="#1DE7FA" stroke="#1DE7FA" stroke-width="0.02"/>
<path d="M24 24.0001L57.72 36.6078L57.6086 36.9018L24 24.001V24.0001Z" fill="#1CE8FA" stroke="#1CE8FA" stroke-width="0.02"/>
<path d="M23.9999 24.0001L57.6085 36.901L57.4945 37.1941L23.999 24.0001H23.9999Z" fill="#1BE9FA" stroke="#1BE9FA" stroke-width="0.02"/>
<path d="M24 24.0001L57.4954 37.1941L57.3789 37.4856L24 24.0001Z" fill="#1AEAFA" stroke="#1AEAFA" stroke-width="0.02"/>
<path d="M24 24.0002L57.3789 37.4857L57.2597 37.7762L24 23.9994V24.0002Z" fill="#19EBFA" stroke="#19EBFA" stroke-width="0.02"/>
<path d="M24 24.0001L57.2597 37.777L57.138 38.0667L24 24.0001Z" fill="#18ECFA" stroke="#18ECFA" stroke-width="0.02"/>
<path d="M23.9999 24.0001L57.1379 38.0667L57.0136 38.3555L23.999 24.001L23.9999 24.0001Z" fill="#17EDFA" stroke="#17EDFA" stroke-width="0.02"/>
<path d="M24 24.0002L57.0146 38.3548L56.8877 38.642L24 23.9994V24.0002Z" fill="#16EEFA" stroke="#16EEFA" stroke-width="0.02"/>
<path d="M24 24.0001L56.8877 38.6427L56.7583 38.929L24 24.0001Z" fill="#15EFFA" stroke="#15EFFA" stroke-width="0.02"/>
<path d="M24 24.0001L56.7583 38.929L56.6271 39.2144L24 24.0001Z" fill="#14F0FA" stroke="#14F0FA" stroke-width="0.02"/>
<path d="M24 24.0001L56.6271 39.2144L56.4934 39.4981L24 24.0001Z" fill="#13F1FA" stroke="#13F1FA" stroke-width="0.02"/>
<path d="M24 24.0002L56.4934 39.4982L56.3571 39.7811L24.0009 23.9994L24 24.0002Z" fill="#12F2FA" stroke="#12F2FA" stroke-width="0.02"/>
<path d="M24 24.0001L56.3563 39.7818L56.2174 40.0638L24 24.001V24.0001Z" fill="#11F3FA" stroke="#11F3FA" stroke-width="0.02"/>
<path d="M24 24.0002L56.2174 40.0631L56.076 40.3434L24 23.9994V24.0002Z" fill="#10F4FA" stroke="#10F4FA" stroke-width="0.02"/>
<path d="M24 24.0001L56.076 40.3441L55.932 40.6236L24 24.001V24.0001Z" fill="#0FF5FA" stroke="#0FF5FA" stroke-width="0.02"/>
<path d="M23.9999 24.0002L55.9319 40.6228L55.7853 40.9005L23.999 23.9994L23.9999 24.0002Z" fill="#0EF6FA" stroke="#0EF6FA" stroke-width="0.02"/>
<path d="M24 24.0001L55.7863 40.9013L55.638 41.1781L24.0009 24.0001H24Z" fill="#0DF7FA" stroke="#0DF7FA" stroke-width="0.02"/>
<path d="M24 24.0001L55.6371 41.1781L55.4863 41.4533L24 24.0001Z" fill="#0CF8FA" stroke="#0CF8FA" stroke-width="0.02"/>
<path d="M24 24.0001L55.4863 41.4533L55.3329 41.7276L24 24.0001Z" fill="#0BF9FA" stroke="#0BF9FA" stroke-width="0.02"/>
<path d="M24 24.0001L55.3329 41.7276L55.1769 42.0001L24 24.0001Z" fill="#0AFAFA" stroke="#0AFAFA" stroke-width="0.02"/>
<path d="M24 24.0001L55.1769 42.0001L55.0183 42.2718L24 24.0001Z" fill="#0BFAF9" stroke="#0BFAF9" stroke-width="0.02"/>
<path d="M24 24.0001L55.0183 42.2718L54.858 42.5418L24 24.0001Z" fill="#0CFAF8" stroke="#0CFAF8" stroke-width="0.02"/>
<path d="M24 24.0001L54.858 42.5418L54.6951 42.8101L24 24.0001Z" fill="#0DFAF7" stroke="#0DFAF7" stroke-width="0.02"/>
<path d="M24 24.0001L54.6951 42.8101L54.5297 43.0776L24 24.0001Z" fill="#0EFAF6" stroke="#0EFAF6" stroke-width="0.02"/>
<path d="M24 24.0001L54.5297 43.0776L54.3617 43.3433L24 24.0001Z" fill="#0FFAF5" stroke="#0FFAF5" stroke-width="0.02"/>
<path d="M24 24.0001L54.3617 43.3433L54.192 43.6073L24 24.0001Z" fill="#10FAF4" stroke="#10FAF4" stroke-width="0.02"/>
<path d="M24 24.0001L54.192 43.6073L54.0197 43.8704L24 24.001V24.0001Z" fill="#11FAF3" stroke="#11FAF3" stroke-width="0.02"/>
<path d="M23.9999 24.0001L54.0196 43.8695L53.8447 44.131L23.999 24.0001H23.9999Z" fill="#12FAF2" stroke="#12FAF2" stroke-width="0.02"/>
<path d="M24 24.0001L53.8457 44.131L53.6691 44.3907L24.0009 24.0001H24Z" fill="#13FAF1" stroke="#13FAF1" stroke-width="0.02"/>
<path d="M24 24.0001L53.6683 44.3907L53.4891 44.6487L24 24.0001Z" fill="#14FAF0" stroke="#14FAF0" stroke-width="0.02"/>
<path d="M23.9999 24.0002L53.489 44.6488L53.3073 44.9051L23.999 23.9994L23.9999 24.0002Z" fill="#15FAEF" stroke="#15FAEF" stroke-width="0.02"/>
<path d="M24 24.0001L53.3083 44.9058L53.1249 45.1604L24 24.0001Z" fill="#16FAEE" stroke="#16FAEE" stroke-width="0.02"/>
<path d="M24 24.0001L53.1249 45.1604L52.9389 45.4141L24 24.0001Z" fill="#17FAED" stroke="#17FAED" stroke-width="0.02"/>
<path d="M24 24.0001L52.9389 45.4141L52.7511 45.6661L24 24.001V24.0001Z" fill="#18FAEC" stroke="#18FAEC" stroke-width="0.02"/>
<path d="M24 24.0001L52.7511 45.6653L52.5609 45.9156L24 24.0001Z" fill="#19FAEB" stroke="#19FAEB" stroke-width="0.02"/>
<path d="M24 24.0001L52.5609 45.9156L52.3689 46.1641L24.0009 24.0001H24Z" fill="#1AFAEA" stroke="#1AFAEA" stroke-width="0.02"/>
<path d="M23.9999 24.0001L52.3679 46.1641L52.1733 46.411L23.999 24.0001H23.9999Z" fill="#1BFAE9" stroke="#1BFAE9" stroke-width="0.02"/>
<path d="M24 24.0001L52.1743 46.411L51.978 46.6561L24.0009 24.001L24 24.0001Z" fill="#1CFAE8" stroke="#1CFAE8" stroke-width="0.02"/>
<path d="M24 24.0001L51.9771 46.6553L51.7783 46.8987L24 24.0001Z" fill="#1DFAE7" stroke="#1DFAE7" stroke-width="0.02"/>
<path d="M24 24.0001L51.7783 46.8987L51.5777 47.1404L24 24.0001Z" fill="#1EFAE6" stroke="#1EFAE6" stroke-width="0.02"/>
<path d="M24 24.0001L51.5777 47.1404L51.3746 47.3804L24 24.0001Z" fill="#1FFAE5" stroke="#1FFAE5" stroke-width="0.02"/>
<path d="M24 24.0001L51.3746 47.3804L51.1697 47.6187L24 24.001V24.0001Z" fill="#20FAE4" stroke="#20FAE4" stroke-width="0.02"/>
<path d="M24 24.0001L51.1697 47.6178L50.9623 47.8544L24 24.0001Z" fill="#21FAE3" stroke="#21FAE3" stroke-width="0.02"/>
<path d="M24 24.0002L50.9623 47.8545L50.7531 48.0885L24 23.9994V24.0002Z" fill="#22FAE2" stroke="#22FAE2" stroke-width="0.02"/>
<path d="M24 24.0001L50.7531 48.0893L50.5423 48.3216L24 24.0001Z" fill="#23FAE1" stroke="#23FAE1" stroke-width="0.02"/>
<path d="M24 24.0001L50.5423 48.3216L50.3289 48.5521L24 24.0001Z" fill="#24FAE0" stroke="#24FAE0" stroke-width="0.02"/>
<path d="M24 24.0001L50.3289 48.5521L50.1137 48.781L24 24.0001Z" fill="#25FADF" stroke="#25FADF" stroke-width="0.02"/>
<path d="M24 24.0001L50.1137 48.781L49.8969 49.0081L24.0009 24.0001H24Z" fill="#26FADE" stroke="#26FADE" stroke-width="0.02"/>
<path d="M23.9999 24.0001L49.8959 49.0081L49.6765 49.2327L23.999 24.0001H23.9999Z" fill="#27FADD" stroke="#27FADD" stroke-width="0.02"/>
<path d="M24 24.0001L49.6774 49.2327L49.4563 49.4556L24.0009 24.0001H24Z" fill="#28FADC" stroke="#28FADC" stroke-width="0.02"/>
<path d="M24 24.0002L49.4554 49.4557L49.2326 49.6768L24 23.9994V24.0002Z" fill="#29FADB" stroke="#29FADB" stroke-width="0.02"/>
<path d="M24 24.0001L49.2326 49.6776L49.008 49.897L24 24.001V24.0001Z" fill="#2AFADA" stroke="#2AFADA" stroke-width="0.02"/>
<path d="M24 24.0002L49.008 49.8962L48.7809 50.1131L24 23.9994V24.0002Z" fill="#2BFAD9" stroke="#2BFAD9" stroke-width="0.02"/>
<path d="M24 24.0001L48.7809 50.1138L48.552 50.329L24 24.0001Z" fill="#2CFAD8" stroke="#2CFAD8" stroke-width="0.02"/>
<path d="M24 24.0001L48.552 50.329L48.3214 50.5424L24 24.0001Z" fill="#2DFAD7" stroke="#2DFAD7" stroke-width="0.02"/>
<path d="M24 24.0001L48.3214 50.5424L48.0891 50.7533L24 24.0001Z" fill="#2EFAD6" stroke="#2EFAD6" stroke-width="0.02"/>
<path d="M24 24.0001L48.0891 50.7533L47.8551 50.9624L24.0009 24.0001H24Z" fill="#2FFAD5" stroke="#2FFAD5" stroke-width="0.02"/>
<path d="M24 24.0001L47.8543 50.9624L47.6177 51.1698L24 24.0001Z" fill="#30FAD4" stroke="#30FAD4" stroke-width="0.02"/>
<path d="M23.9999 24.0001L47.6176 51.1698L47.3793 51.3747L23.999 24.0001H23.9999Z" fill="#31FAD3" stroke="#31FAD3" stroke-width="0.02"/>
<path d="M24 24.0001L47.3803 51.3747L47.1403 51.5778L24 24.0001Z" fill="#32FAD2" stroke="#32FAD2" stroke-width="0.02"/>
<path d="M24 24.0001L47.1403 51.5778L46.8986 51.7784L24 24.0001Z" fill="#33FAD1" stroke="#33FAD1" stroke-width="0.02"/>
<path d="M24 24.0001L46.8986 51.7784L46.6551 51.9773L24 24.0001Z" fill="#34FAD0" stroke="#34FAD0" stroke-width="0.02"/>
<path d="M23.9999 24.0002L46.655 51.9774L46.4099 52.1737L23.999 23.9994L23.9999 24.0002Z" fill="#35FACF" stroke="#35FACF" stroke-width="0.02"/>
<path d="M24 24.0001L46.4109 52.1744L46.164 52.369L24 24.001V24.0001Z" fill="#36FACE" stroke="#36FACE" stroke-width="0.02"/>
<path d="M24 24.0002L46.164 52.3682L45.9154 52.5602L24 23.9994V24.0002Z" fill="#37FACD" stroke="#37FACD" stroke-width="0.02"/>
<path d="M24 24.0001L45.9154 52.561L45.6651 52.7513L24 24.0001Z" fill="#38FACC" stroke="#38FACC" stroke-width="0.02"/>
<path d="M23.9999 24.0001L45.665 52.7513L45.413 52.939L23.999 24.0001H23.9999Z" fill="#39FACB" stroke="#39FACB" stroke-width="0.02"/>
<path d="M24 24.0001L45.414 52.939L45.1603 53.125L24 24.0001Z" fill="#3AFACA" stroke="#3AFACA" stroke-width="0.02"/>
<path d="M24 24.0001L45.1603 53.125L44.9057 53.3084L24 24.0001Z" fill="#3BFAC9" stroke="#3BFAC9" stroke-width="0.02"/>
<path d="M24 24.0001L44.9057 53.3084L44.6494 53.4901L24.0009 24.001L24 24.0001Z" fill="#3CFAC8" stroke="#3CFAC8" stroke-width="0.02"/>
<path d="M24 24.0001L44.6486 53.4893L44.3906 53.6684L24 24.0001Z" fill="#3DFAC7" stroke="#3DFAC7" stroke-width="0.02"/>
<path d="M24 24.0002L44.3906 53.6685L44.1309 53.8451L24 23.9994V24.0002Z" fill="#3EFAC6" stroke="#3EFAC6" stroke-width="0.02"/>
<path d="M24 24.0001L44.1309 53.8458L43.8694 54.0207L24 24.001V24.0001Z" fill="#3FFAC5" stroke="#3FFAC5" stroke-width="0.02"/>
<path d="M23.9999 24.0001L43.8693 54.0198L43.6062 54.1921L23.999 24.0001H23.9999Z" fill="#40FAC4" stroke="#40FAC4" stroke-width="0.02"/>
<path d="M24 24.0001L43.6071 54.1921L43.3431 54.3618L24 24.0001Z" fill="#41FAC3" stroke="#41FAC3" stroke-width="0.02"/>
<path d="M24 24.0001L43.3431 54.3618L43.0774 54.5298L24 24.0001Z" fill="#42FAC2" stroke="#42FAC2" stroke-width="0.02"/>
<path d="M24 24.0001L43.0774 54.5298L42.81 54.6953L24 24.0001Z" fill="#43FAC1" stroke="#43FAC1" stroke-width="0.02"/>
<path d="M24 24.0001L42.81 54.6953L42.5417 54.8581L24 24.0001Z" fill="#44FAC0" stroke="#44FAC0" stroke-width="0.02"/>
<path d="M24 24.0001L42.5417 54.8581L42.2717 55.0184L24 24.0001Z" fill="#45FABF" stroke="#45FABF" stroke-width="0.02"/>
<path d="M24 24.0001L42.2717 55.0184L42 55.177L24 24.0001Z" fill="#46FABE" stroke="#46FABE" stroke-width="0.02"/>
<path d="M24 24.0001L42 55.177L41.7274 55.333L24 24.0001Z" fill="#47FABD" stroke="#47FABD" stroke-width="0.02"/>
<path d="M24 24.0001L41.7274 55.333L41.4531 55.4864L24 24.0001Z" fill="#48FABC" stroke="#48FABC" stroke-width="0.02"/>
<path d="M24 24.0001L41.4531 55.4864L41.178 55.6373L24 24.0001Z" fill="#49FABB" stroke="#49FABB" stroke-width="0.02"/>
<path d="M24 24.0002L41.178 55.6374L40.9011 55.7857L24 23.9994V24.0002Z" fill="#4AFABA" stroke="#4AFABA" stroke-width="0.02"/>
<path d="M24 24.0001L40.9011 55.7864L40.6234 55.933L24.0009 24.001L24 24.0001Z" fill="#4BFAB9" stroke="#4BFAB9" stroke-width="0.02"/>
<path d="M23.9999 24.0001L40.6225 55.9321L40.343 56.0761L23.999 24.0001H23.9999Z" fill="#4CFAB8" stroke="#4CFAB8" stroke-width="0.02"/>
<path d="M24 24.0001L40.344 56.0761L40.0637 56.2176L24.0009 24.0001H24Z" fill="#4DFAB7" stroke="#4DFAB7" stroke-width="0.02"/>
<path d="M23.9999 24.0001L40.0627 56.2176L39.7807 56.3564L23.999 24.0001H23.9999Z" fill="#4EFAB6" stroke="#4EFAB6" stroke-width="0.02"/>
<path d="M24 24.0002L39.7817 56.3565L39.4989 56.4928L24.0009 23.9994L24 24.0002Z" fill="#4FFAB5" stroke="#4FFAB5" stroke-width="0.02"/>
<path d="M24 24.0001L39.498 56.4935L39.2143 56.6273L24 24.0001Z" fill="#50FAB4" stroke="#50FAB4" stroke-width="0.02"/>
<path d="M24 24.0001L39.2143 56.6273L38.9289 56.7584L24 24.0001Z" fill="#51FAB3" stroke="#51FAB3" stroke-width="0.02"/>
<path d="M24 24.0001L38.9289 56.7584L38.6426 56.8878L24 24.0001Z" fill="#52FAB2" stroke="#52FAB2" stroke-width="0.02"/>
<path d="M24 24.0001L38.6426 56.8878L38.3554 57.0147L24.0009 24.0001H24Z" fill="#53FAB1" stroke="#53FAB1" stroke-width="0.02"/>
<path d="M23.9999 24.0001L38.3545 57.0147L38.0656 57.139L23.999 24.001L23.9999 24.0001Z" fill="#54FAB0" stroke="#54FAB0" stroke-width="0.02"/>
<path d="M24 24.0001L38.0666 57.1381L37.7769 57.2598L24 24.0001Z" fill="#55FAAF" stroke="#55FAAF" stroke-width="0.02"/>
<path d="M24 24.0001L37.7769 57.2598L37.4863 57.379L24.0009 24.0001H24Z" fill="#56FAAE" stroke="#56FAAE" stroke-width="0.02"/>
<path d="M24 24.0001L37.4854 57.379L37.194 57.4955L24 24.0001Z" fill="#57FAAD" stroke="#57FAAD" stroke-width="0.02"/>
<path d="M24 24.0001L37.194 57.4955L36.9009 57.6096L24 24.001V24.0001Z" fill="#58FAAC" stroke="#58FAAC" stroke-width="0.02"/>
<path d="M23.9999 24.0001L36.9007 57.6087L36.6067 57.7201L23.999 24.0001H23.9999Z" fill="#59FAAB" stroke="#59FAAB" stroke-width="0.02"/>
<path d="M24 24.0001L36.6077 57.7201L36.3129 57.829L24 24.0001Z" fill="#5AFAAA" stroke="#5AFAAA" stroke-width="0.02"/>
<path d="M24 24.0001L36.3129 57.829L36.0171 57.9353L24 24.0001Z" fill="#5BFAA9" stroke="#5BFAA9" stroke-width="0.02"/>
<path d="M24 24.0001L36.0171 57.9353L35.7206 58.039L24 24.0001Z" fill="#5CFAA8" stroke="#5CFAA8" stroke-width="0.02"/>
<path d="M24 24.0001L35.7206 58.039L35.4231 58.1401L24 24.0001Z" fill="#5DFAA7" stroke="#5DFAA7" stroke-width="0.02"/>
<path d="M24 24.0001L35.4231 58.1401L35.1249 58.2387L24 24.001V24.0001Z" fill="#5EFAA6" stroke="#5EFAA6" stroke-width="0.02"/>
<path d="M24 24.0001L35.1249 58.2378L34.8257 58.3338L24 24.0001Z" fill="#5FFAA5" stroke="#5FFAA5" stroke-width="0.02"/>
<path d="M24 24.0001L34.8257 58.3338L34.5257 58.4273L24 24.0001Z" fill="#60FAA4" stroke="#60FAA4" stroke-width="0.02"/>
<path d="M24 24.0001L34.5257 58.4273L34.2249 58.5181L24 24.001V24.0001Z" fill="#61FAA3" stroke="#61FAA3" stroke-width="0.02"/>
<path d="M24 24.0001L34.2249 58.5173L33.9231 58.6055L24 24.0001Z" fill="#62FAA2" stroke="#62FAA2" stroke-width="0.02"/>
<path d="M24 24.0001L33.9231 58.6055L33.6206 58.6904L24 24.0001Z" fill="#63FAA1" stroke="#63FAA1" stroke-width="0.02"/>
<path d="M24 24.0002L33.6206 58.6905L33.3171 58.7728L24 23.9994V24.0002Z" fill="#64FAA0" stroke="#64FAA0" stroke-width="0.02"/>
<path d="M24 24.0001L33.3171 58.7735L33.0137 58.8533L24 24.0001Z" fill="#65FA9F" stroke="#65FA9F" stroke-width="0.02"/>
<path d="M24 24.0001L33.0137 58.8533L32.7094 58.9304L24 24.0001Z" fill="#66FA9E" stroke="#66FA9E" stroke-width="0.02"/>
<path d="M24 24.0002L32.7094 58.9305L32.4043 59.0051L24 23.9994V24.0002Z" fill="#67FA9D" stroke="#67FA9D" stroke-width="0.02"/>
<path d="M24 24.0001L32.4043 59.0058L32.0983 59.0778L24 24.0001Z" fill="#68FA9C" stroke="#68FA9C" stroke-width="0.02"/>
<path d="M24 24.0001L32.0983 59.0778L31.7914 59.1473L24 24.001V24.0001Z" fill="#69FA9B" stroke="#69FA9B" stroke-width="0.02"/>
<path d="M24 24.0001L31.7914 59.1464L31.4846 59.2133L24 24.0001Z" fill="#6AFA9A" stroke="#6AFA9A" stroke-width="0.02"/>
<path d="M24 24.0001L31.4846 59.2133L31.1769 59.2776L24 24.0001Z" fill="#6BFA99" stroke="#6BFA99" stroke-width="0.02"/>
<path d="M24 24.0001L31.1769 59.2776L30.8691 59.3384L24 24.0001Z" fill="#6CFA98" stroke="#6CFA98" stroke-width="0.02"/>
<path d="M24 24.0002L30.8691 59.3385L30.5606 59.3968L24 23.9994V24.0002Z" fill="#6DFA97" stroke="#6DFA97" stroke-width="0.02"/>
<path d="M24 24.0001L30.5606 59.3975L30.2511 59.4533L24 24.0001Z" fill="#6EFA96" stroke="#6EFA96" stroke-width="0.02"/>
<path d="M24 24.0001L30.2511 59.4533L29.9417 59.5064L24 24.0001Z" fill="#6FFA95" stroke="#6FFA95" stroke-width="0.02"/>
<path d="M24 24.0001L29.9417 59.5064L29.6314 59.557L24 24.0001Z" fill="#70FA94" stroke="#70FA94" stroke-width="0.02"/>
<path d="M24 24.0001L29.6314 59.557L29.3211 59.605L24 24.0001Z" fill="#71FA93" stroke="#71FA93" stroke-width="0.02"/>
<path d="M24 24.0001L29.3211 59.605L29.01 59.6504L24 24.001V24.0001Z" fill="#72FA92" stroke="#72FA92" stroke-width="0.02"/>
<path d="M24 24.0002L29.01 59.6497L28.6989 59.6917L24 23.9994V24.0002Z" fill="#73FA91" stroke="#73FA91" stroke-width="0.02"/>
<path d="M23.9999 24.0001L28.6987 59.6924L28.3867 59.7318L23.999 24.0001H23.9999Z" fill="#74FA90" stroke="#74FA90" stroke-width="0.02"/>
<path d="M24 24.0001L28.3877 59.7318L28.0757 59.7687L24.0009 24.0001H24Z" fill="#75FA8F" stroke="#75FA8F" stroke-width="0.02"/>
<path d="M24 24.0001L28.0749 59.7687L27.7629 59.803L24 24.0001Z" fill="#76FA8E" stroke="#76FA8E" stroke-width="0.02"/>
<path d="M24 24.0001L27.7629 59.803L27.45 59.8347L24 24.0001Z" fill="#77FA8D" stroke="#77FA8D" stroke-width="0.02"/>
<path d="M23.9999 24.0001L27.4499 59.8347L27.137 59.8638L23.999 24.001L23.9999 24.0001Z" fill="#78FA8C" stroke="#78FA8C" stroke-width="0.02"/>
<path d="M24 24.0002L27.138 59.8631L26.8251 59.8888L24.0009 23.9994L24 24.0002Z" fill="#79FA8B" stroke="#79FA8B" stroke-width="0.02"/>
<path d="M23.9999 24.0001L26.8242 59.8895L26.5105 59.9127L23.999 24.0001H23.9999Z" fill="#7AFA8A" stroke="#7AFA8A" stroke-width="0.02"/>
<path d="M24 24.0001L26.5114 59.9127L26.1977 59.9333L24 24.0001Z" fill="#7BFA89" stroke="#7BFA89" stroke-width="0.02"/>
<path d="M24 24.0001L26.1977 59.9333L25.884 59.9513L24 24.001V24.0001Z" fill="#7CFA88" stroke="#7CFA88" stroke-width="0.02"/>
<path d="M24 24.0001L25.884 59.9504L25.5703 59.9658L24 24.0001Z" fill="#7DFA87" stroke="#7DFA87" stroke-width="0.02"/>
<path d="M24 24.0001L25.5703 59.9658L25.2566 59.9778L24 24.0001Z" fill="#7EFA86" stroke="#7EFA86" stroke-width="0.02"/>
<path d="M24 24.0002L25.2566 59.978L24.9429 59.9874L24.0009 23.9994L24 24.0002Z" fill="#7FFA85" stroke="#7FFA85" stroke-width="0.02"/>
<path d="M24 24.0001L24.942 59.9881L24.6283 59.995L24 24.0001Z" fill="#80FA84" stroke="#80FA84" stroke-width="0.02"/>
<path d="M23.9999 24.0001L24.6282 59.995L24.3136 59.9993L23.999 24.001L23.9999 24.0001Z" fill="#81FA83" stroke="#81FA83" stroke-width="0.02"/>
<path d="M24 24.0001L24.3146 59.9984L24 60.0001V24.0001Z" fill="#82FA82" stroke="#82FA82" stroke-width="0.02"/>
<path d="M23.9996 24.0001V60.0001L23.6851 59.9984L23.9996 24.0001Z" fill="#83FA81" stroke="#83FA81" stroke-width="0.02"/>
<path d="M23.9997 24.0002L23.6852 59.9985L23.3706 59.9942L23.9989 23.9994L23.9997 24.0002Z" fill="#84FA80" stroke="#84FA80" stroke-width="0.02"/>
<path d="M24.0001 24.0001L23.3718 59.995L23.0581 59.9881L24.0001 24.0001Z" fill="#85FA7F" stroke="#85FA7F" stroke-width="0.02"/>
<path d="M23.9994 24.0001L23.0574 59.9881L22.7437 59.9787L24.0002 24.001L23.9994 24.0001Z" fill="#86FA7E" stroke="#86FA7E" stroke-width="0.02"/>
<path d="M24 24.0001L22.7434 59.9778L22.4297 59.9658L24 24.0001Z" fill="#87FA7D" stroke="#87FA7D" stroke-width="0.02"/>
<path d="M24.0002 24.0001L22.4299 59.9658L22.1162 59.9504L24.0002 24.0001Z" fill="#88FA7C" stroke="#88FA7C" stroke-width="0.02"/>
<path d="M23.9995 24.0002L22.1155 59.9505L21.8018 59.9325L23.9995 23.9994V24.0002Z" fill="#89FA7B" stroke="#89FA7B" stroke-width="0.02"/>
<path d="M23.9997 24.0001L21.802 59.9333L21.4883 59.9127L23.9997 24.0001Z" fill="#8AFA7A" stroke="#8AFA7A" stroke-width="0.02"/>
<path d="M23.9999 24.0001L21.4885 59.9127L21.1748 59.8895L23.9991 24.0001H23.9999Z" fill="#8BFA79" stroke="#8BFA79" stroke-width="0.02"/>
<path d="M23.9999 24.0001L21.1756 59.8895L20.8628 59.8638L24.0008 24.001L23.9999 24.0001Z" fill="#8CFA78" stroke="#8CFA78" stroke-width="0.02"/>
<path d="M23.9992 24.0002L20.8612 59.8631L20.5483 59.834L23.9983 23.9994L23.9992 24.0002Z" fill="#8DFA77" stroke="#8DFA77" stroke-width="0.02"/>
<path d="M23.9992 24.0001L20.5492 59.8347L20.2363 59.803L23.9992 24.0001Z" fill="#8EFA76" stroke="#8EFA76" stroke-width="0.02"/>
<path d="M23.9992 24.0001L20.2363 59.803L19.9243 59.7687L23.9992 24.0001Z" fill="#8FFA75" stroke="#8FFA75" stroke-width="0.02"/>
<path d="M23.9992 24.0001L19.9243 59.7687L19.6123 59.7318L24 24.0001H23.9992Z" fill="#90FA74" stroke="#90FA74" stroke-width="0.02"/>
<path d="M23.9995 24.0001L19.6118 59.7318L19.2998 59.6924L23.9987 24.0001H23.9995Z" fill="#91FA73" stroke="#91FA73" stroke-width="0.02"/>
<path d="M23.9997 24.0001L19.3009 59.6924L18.9897 59.6504L23.9997 24.001V24.0001Z" fill="#92FA72" stroke="#92FA72" stroke-width="0.02"/>
<path d="M23.9999 24.0002L18.9899 59.6497L18.6787 59.6042L23.9999 23.9994V24.0002Z" fill="#93FA71" stroke="#93FA71" stroke-width="0.02"/>
<path d="M23.9996 24.0001L18.6784 59.605L18.3682 59.557L23.9996 24.0001Z" fill="#94FA70" stroke="#94FA70" stroke-width="0.02"/>
<path d="M23.9998 24.0001L18.3684 59.557L18.0581 59.5064L23.9998 24.0001Z" fill="#95FA6F" stroke="#95FA6F" stroke-width="0.02"/>
<path d="M23.9997 24.0001L18.058 59.5064L17.7485 59.4533L23.9997 24.0001Z" fill="#96FA6E" stroke="#96FA6E" stroke-width="0.02"/>
<path d="M24 24.0001L17.7489 59.4533L17.4395 59.3975L24 24.0001Z" fill="#97FA6D" stroke="#97FA6D" stroke-width="0.02"/>
<path d="M23.9995 24.0001L17.4389 59.3975L17.1304 59.3393L23.9995 24.001V24.0001Z" fill="#98FA6C" stroke="#98FA6C" stroke-width="0.02"/>
<path d="M23.9996 24.0001L17.1305 59.3384L16.8228 59.2776L23.9996 24.0001Z" fill="#99FA6B" stroke="#99FA6B" stroke-width="0.02"/>
<path d="M23.9997 24.0001L16.8229 59.2776L16.5151 59.2133L23.9997 24.0001Z" fill="#9AFA6A" stroke="#9AFA6A" stroke-width="0.02"/>
<path d="M23.9994 24.0001L16.5149 59.2133L16.208 59.1464L23.9994 24.0001Z" fill="#9BFA69" stroke="#9BFA69" stroke-width="0.02"/>
<path d="M23.9997 24.0002L16.2082 59.1465L15.9014 59.0771L23.9997 23.9994V24.0002Z" fill="#9CFA68" stroke="#9CFA68" stroke-width="0.02"/>
<path d="M23.9995 24.0001L15.9012 59.0778L15.5952 59.0058L23.9995 24.0001Z" fill="#9DFA67" stroke="#9DFA67" stroke-width="0.02"/>
<path d="M24 24.0001L15.5957 59.0058L15.2905 58.9313L24 24.001V24.0001Z" fill="#9EFA66" stroke="#9EFA66" stroke-width="0.02"/>
<path d="M23.9996 24.0001L15.2901 58.9304L14.9858 58.8533L23.9996 24.0001Z" fill="#9FFA65" stroke="#9FFA65" stroke-width="0.02"/>
<path d="M23.9998 24.0001L14.986 58.8533L14.6826 58.7735L23.9998 24.0001Z" fill="#A0FA64" stroke="#A0FA64" stroke-width="0.02"/>
<path d="M24 24.0001L14.6828 58.7736L14.3794 58.6913L24 24.001V24.0001Z" fill="#A1FA63" stroke="#A1FA63" stroke-width="0.02"/>
<path d="M23.9998 24.0001L14.3792 58.6904L14.0767 58.6055L23.9998 24.0001Z" fill="#A2FA62" stroke="#A2FA62" stroke-width="0.02"/>
<path d="M23.9998 24.0001L14.0766 58.6055L13.7749 58.5173L23.9998 24.0001Z" fill="#A3FA61" stroke="#A3FA61" stroke-width="0.02"/>
<path d="M23.9998 24.0002L13.775 58.5174L13.4741 58.4265L23.9998 23.9994V24.0002Z" fill="#A4FA60" stroke="#A4FA60" stroke-width="0.02"/>
<path d="M23.9995 24.0001L13.4738 58.4273L13.1738 58.3338L23.9995 24.0001Z" fill="#A5FA5F" stroke="#A5FA5F" stroke-width="0.02"/>
<path d="M23.9999 24.0001L13.1741 58.3338L12.875 58.2378L23.9999 24.0001Z" fill="#A6FA5E" stroke="#A6FA5E" stroke-width="0.02"/>
<path d="M23.9998 24.0002L12.8749 58.238L12.5767 58.1394L23.9998 23.9994V24.0002Z" fill="#A7FA5D" stroke="#A7FA5D" stroke-width="0.02"/>
<path d="M23.9999 24.0001L12.5767 58.1401L12.2793 58.039L23.9999 24.0001Z" fill="#A8FA5C" stroke="#A8FA5C" stroke-width="0.02"/>
<path d="M24.0001 24.0001L12.2795 58.039L11.9829 57.9353L24.0001 24.0001Z" fill="#A9FA5B" stroke="#A9FA5B" stroke-width="0.02"/>
<path d="M23.9999 24.0001L11.9827 57.9353L11.687 57.829L23.9999 24.0001Z" fill="#AAFA5A" stroke="#AAFA5A" stroke-width="0.02"/>
<path d="M24.0003 24.0001L11.6874 57.829L11.3926 57.7201L24.0003 24.0001Z" fill="#ABFA59" stroke="#ABFA59" stroke-width="0.02"/>
<path d="M23.9999 24.0001L11.3921 57.7201L11.0981 57.6087L23.999 24.0001H23.9999Z" fill="#ACFA58" stroke="#ACFA58" stroke-width="0.02"/>
<path d="M23.9997 24.0002L11.0988 57.6088L10.8057 57.4948L23.9997 23.9994V24.0002Z" fill="#ADFA57" stroke="#ADFA57" stroke-width="0.02"/>
<path d="M23.9996 24.0001L10.8056 57.4955L10.5142 57.379L23.9996 24.0001Z" fill="#AEFA56" stroke="#AEFA56" stroke-width="0.02"/>
<path d="M23.9991 24.0001L10.5137 57.379L10.2231 57.2598L24 24.0001H23.9991Z" fill="#AFFA55" stroke="#AFFA55" stroke-width="0.02"/>
<path d="M23.9997 24.0001L10.2228 57.2598L9.93311 57.1381L23.9997 24.0001Z" fill="#B0FA54" stroke="#B0FA54" stroke-width="0.02"/>
<path d="M23.9995 24.0002L9.9329 57.1382L9.64404 57.014L23.9986 23.9994L23.9995 24.0002Z" fill="#B1FA53" stroke="#B1FA53" stroke-width="0.02"/>
<path d="M23.9991 24.0001L9.64456 57.0147L9.35742 56.8878L24 24.0001H23.9991Z" fill="#B2FA52" stroke="#B2FA52" stroke-width="0.02"/>
<path d="M23.9992 24.0001L9.3566 56.8878L9.07031 56.7584L23.9992 24.0001Z" fill="#B3FA51" stroke="#B3FA51" stroke-width="0.02"/>
<path d="M23.9999 24.0001L9.07107 56.7584L8.78564 56.6273L23.9999 24.0001Z" fill="#B4FA50" stroke="#B4FA50" stroke-width="0.02"/>
<path d="M23.9995 24.0001L8.78518 56.6273L8.50146 56.4935L23.9995 24.0001Z" fill="#B5FA4F" stroke="#B5FA4F" stroke-width="0.02"/>
<path d="M23.9996 24.0001L8.50161 56.4935L8.21875 56.3573L24.0005 24.001L23.9996 24.0001Z" fill="#B6FA4E" stroke="#B6FA4E" stroke-width="0.02"/>
<path d="M23.9998 24.0001L8.21803 56.3564L7.93604 56.2176L23.9989 24.0001H23.9998Z" fill="#B7FA4D" stroke="#B7FA4D" stroke-width="0.02"/>
<path d="M23.9999 24.0001L7.93702 56.2176L7.65674 56.0761L24.0007 24.0001H23.9999Z" fill="#B8FA4C" stroke="#B8FA4C" stroke-width="0.02"/>
<path d="M23.9999 24.0001L7.65589 56.0761L7.37646 55.9321L23.999 24.0001H23.9999Z" fill="#B9FA4B" stroke="#B9FA4B" stroke-width="0.02"/>
<path d="M23.9999 24.0002L7.37732 55.9322L7.09961 55.7857L24.0008 23.9994L23.9999 24.0002Z" fill="#BAFA4A" stroke="#BAFA4A" stroke-width="0.02"/>
<path d="M23.9998 24.0001L7.09863 55.7864L6.82178 55.6381L23.9998 24.001V24.0001Z" fill="#BBFA49" stroke="#BBFA49" stroke-width="0.02"/>
<path d="M23.9995 24.0001L6.82153 55.6373L6.54639 55.4864L23.9995 24.0001Z" fill="#BCFA48" stroke="#BCFA48" stroke-width="0.02"/>
<path d="M23.9999 24.0001L6.54675 55.4864L6.27246 55.333L23.9999 24.0001Z" fill="#BDFA47" stroke="#BDFA47" stroke-width="0.02"/>
<path d="M23.9995 24.0001L6.27208 55.333L5.99951 55.177L23.9995 24.0001Z" fill="#BEFA46" stroke="#BEFA46" stroke-width="0.02"/>
<path d="M23.9993 24.0001L5.99925 55.177L5.72754 55.0184L23.9993 24.0001Z" fill="#BFFA45" stroke="#BFFA45" stroke-width="0.02"/>
<path d="M23.9997 24.0001L5.72801 55.0184L5.45801 54.8581L23.9997 24.0001Z" fill="#C0FA44" stroke="#C0FA44" stroke-width="0.02"/>
<path d="M23.9999 24.0001L5.45823 54.8581L5.18994 54.6953L23.9999 24.0001Z" fill="#C1FA43" stroke="#C1FA43" stroke-width="0.02"/>
<path d="M23.9993 24.0001L5.1893 54.6953L4.92188 54.5298L23.9993 24.0001Z" fill="#C2FA42" stroke="#C2FA42" stroke-width="0.02"/>
<path d="M23.9999 24.0001L4.92245 54.5298L4.65674 54.3618L23.9999 24.0001Z" fill="#C3FA41" stroke="#C3FA41" stroke-width="0.02"/>
<path d="M23.9997 24.0001L4.65658 54.3618L4.39258 54.1921L23.9997 24.0001Z" fill="#C4FA40" stroke="#C4FA40" stroke-width="0.02"/>
<path d="M23.9997 24.0001L4.39254 54.1921L4.12939 54.0198L23.9988 24.0001H23.9997Z" fill="#C5FA3F" stroke="#C5FA3F" stroke-width="0.02"/>
<path d="M23.9995 24.0002L4.13008 54.02L3.86865 53.8451L23.9995 23.9994V24.0002Z" fill="#C6FA3E" stroke="#C6FA3E" stroke-width="0.02"/>
<path d="M23.9999 24.0001L3.86909 53.8458L3.60938 53.6693L23.9999 24.001V24.0001Z" fill="#C7FA3D" stroke="#C7FA3D" stroke-width="0.02"/>
<path d="M23.9996 24.0001L3.60907 53.6684L3.35107 53.4893L23.9996 24.0001Z" fill="#C8FA3C" stroke="#C8FA3C" stroke-width="0.02"/>
<path d="M23.9996 24.0002L3.35101 53.4894L3.09473 53.3077L24.0004 23.9994L23.9996 24.0002Z" fill="#C9FA3B" stroke="#C9FA3B" stroke-width="0.02"/>
<path d="M24.0001 24.0001L3.09442 53.3084L2.83984 53.125L24.0001 24.0001Z" fill="#CAFA3A" stroke="#CAFA3A" stroke-width="0.02"/>
<path d="M23.9995 24.0001L2.83916 53.125L2.58545 52.939L23.9995 24.0001Z" fill="#CBFA39" stroke="#CBFA39" stroke-width="0.02"/>
<path d="M23.9995 24.0001L2.58549 52.939L2.3335 52.7513L23.9986 24.0001H23.9995Z" fill="#CCFA38" stroke="#CCFA38" stroke-width="0.02"/>
<path d="M23.9999 24.0001L2.33476 52.7513L2.08447 52.561L23.9999 24.0001Z" fill="#CDFA37" stroke="#CDFA37" stroke-width="0.02"/>
<path d="M23.9995 24.0001L2.08402 52.561L1.83545 52.369L23.9995 24.001V24.0001Z" fill="#CEFA36" stroke="#CEFA36" stroke-width="0.02"/>
<path d="M23.9997 24.0002L1.83572 52.3682L1.58887 52.1737L23.9997 23.9994V24.0002Z" fill="#CFFA35" stroke="#CFFA35" stroke-width="0.02"/>
<path d="M24.0002 24.0001L1.58938 52.1744L1.34424 51.9781L23.9994 24.001L24.0002 24.0001Z" fill="#D0FA34" stroke="#D0FA34" stroke-width="0.02"/>
<path d="M23.9996 24.0001L1.3445 51.9773L1.10107 51.7784L23.9996 24.0001Z" fill="#D1FA33" stroke="#D1FA33" stroke-width="0.02"/>
<path d="M23.9997 24.0001L1.10109 51.7784L0.859375 51.5778L23.9997 24.0001Z" fill="#D2FA32" stroke="#D2FA32" stroke-width="0.02"/>
<path d="M23.9999 24.0001L0.859628 51.5778L0.619629 51.3747L23.9999 24.0001Z" fill="#D3FA31" stroke="#D3FA31" stroke-width="0.02"/>
<path d="M23.9994 24.0001L0.619145 51.3747L0.380859 51.1698L23.9986 24.0001H23.9994Z" fill="#D4FA30" stroke="#D4FA30" stroke-width="0.02"/>
<path d="M24.0003 24.0001L0.382567 51.1698L0.145996 50.9624L24.0003 24.0001Z" fill="#D5FA2F" stroke="#D5FA2F" stroke-width="0.02"/>
<path d="M23.9994 24.0001L0.145134 50.9624L-0.0888672 50.7533L24.0003 24.0001H23.9994Z" fill="#D6FA2E" stroke="#D6FA2E" stroke-width="0.02"/>
<path d="M23.9997 24.0001L-0.0894911 50.7533L-0.321777 50.5424L23.9997 24.0001Z" fill="#D7FA2D" stroke="#D7FA2D" stroke-width="0.02"/>
<path d="M23.9998 24.0001L-0.321676 50.5424L-0.552246 50.329L23.9998 24.0001Z" fill="#D8FA2C" stroke="#D8FA2C" stroke-width="0.02"/>
<path d="M24.0001 24.0001L-0.551903 50.329L-0.780762 50.1138L24.0001 24.0001Z" fill="#D9FA2B" stroke="#D9FA2B" stroke-width="0.02"/>
<path d="M23.9992 24.0001L-0.781647 50.1138L-1.00879 49.897L23.9992 24.001V24.0001Z" fill="#DAFA2A" stroke="#DAFA2A" stroke-width="0.02"/>
<path d="M23.9997 24.0002L-1.00834 49.8962L-1.23291 49.6768L23.9997 23.9994V24.0002Z" fill="#DBFA29" stroke="#DBFA29" stroke-width="0.02"/>
<path d="M23.9999 24.0001L-1.23271 49.6776L-1.45557 49.4564L23.9999 24.001V24.0001Z" fill="#DCFA28" stroke="#DCFA28" stroke-width="0.02"/>
<path d="M23.9998 24.0001L-1.45561 49.4556L-1.67676 49.2327L24.0007 24.0001H23.9998Z" fill="#DDFA27" stroke="#DDFA27" stroke-width="0.02"/>
<path d="M23.9999 24.0001L-1.67754 49.2327L-1.89697 49.0081L23.999 24.0001H23.9999Z" fill="#DEFA26" stroke="#DEFA26" stroke-width="0.02"/>
<path d="M23.9996 24.0001L-1.89642 49.0081L-2.11328 48.781L24.0004 24.0001H23.9996Z" fill="#DFFA25" stroke="#DFFA25" stroke-width="0.02"/>
<path d="M23.9998 24.0001L-2.11396 48.781L-2.3291 48.5521L23.9998 24.0001Z" fill="#E0FA24" stroke="#E0FA24" stroke-width="0.02"/>
<path d="M23.9998 24.0001L-2.32905 48.5521L-2.54248 48.3216L23.9998 24.0001Z" fill="#E1FA23" stroke="#E1FA23" stroke-width="0.02"/>
<path d="M23.9997 24.0001L-2.54256 48.3216L-2.75342 48.0893L23.9997 24.0001Z" fill="#E2FA22" stroke="#E2FA22" stroke-width="0.02"/>
<path d="M23.9994 24.0001L-2.75375 48.0893L-2.96289 47.8553L23.9994 24.001V24.0001Z" fill="#E3FA21" stroke="#E3FA21" stroke-width="0.02"/>
<path d="M23.9998 24.0001L-2.96249 47.8544L-3.16992 47.6178L23.9998 24.0001Z" fill="#E4FA20" stroke="#E4FA20" stroke-width="0.02"/>
<path d="M23.9996 24.0002L-3.17014 47.618L-3.375 47.3797L23.9996 23.9994V24.0002Z" fill="#E5FA1F" stroke="#E5FA1F" stroke-width="0.02"/>
<path d="M23.9996 24.0001L-3.37498 47.3804L-3.57812 47.1404L23.9996 24.0001Z" fill="#E6FA1E" stroke="#E6FA1E" stroke-width="0.02"/>
<path d="M23.9995 24.0001L-3.57824 47.1404L-3.77881 46.8987L23.9995 24.0001Z" fill="#E7FA1D" stroke="#E7FA1D" stroke-width="0.02"/>
<path d="M24.0001 24.0001L-3.77819 46.8987L-3.97705 46.6553L24.0001 24.0001Z" fill="#E8FA1C" stroke="#E8FA1C" stroke-width="0.02"/>
<path d="M24.0001 24.0002L-3.97705 46.6554L-4.17334 46.4102L24.0009 23.9994L24.0001 24.0002Z" fill="#E9FA1B" stroke="#E9FA1B" stroke-width="0.02"/>
<path d="M23.9997 24.0001L-4.17457 46.411L-4.36914 46.1641L23.9989 24.0001H23.9997Z" fill="#EAFA1A" stroke="#EAFA1A" stroke-width="0.02"/>
<path d="M23.9999 24.0001L-4.36806 46.1641L-4.56006 45.9156L24.0008 24.0001H23.9999Z" fill="#EBFA19" stroke="#EBFA19" stroke-width="0.02"/>
<path d="M23.9997 24.0001L-4.56118 45.9156L-4.75146 45.6653L23.9997 24.0001Z" fill="#ECFA18" stroke="#ECFA18" stroke-width="0.02"/>
<path d="M23.9999 24.0002L-4.75125 45.6654L-4.93896 45.4134L23.9999 23.9994V24.0002Z" fill="#EDFA17" stroke="#EDFA17" stroke-width="0.02"/>
<path d="M23.9999 24.0001L-4.939 45.4141L-5.125 45.1604L23.9999 24.0001Z" fill="#EEFA16" stroke="#EEFA16" stroke-width="0.02"/>
<path d="M23.9997 24.0001L-5.12517 45.1604L-5.30859 44.9058L23.9997 24.0001Z" fill="#EFFA15" stroke="#EFFA15" stroke-width="0.02"/>
<path d="M23.9998 24.0001L-5.30852 44.9058L-5.49023 44.6495L23.9989 24.001L23.9998 24.0001Z" fill="#F0FA14" stroke="#F0FA14" stroke-width="0.02"/>
<path d="M23.9998 24.0001L-5.48931 44.6487L-5.66846 44.3907L23.9998 24.0001Z" fill="#F1FA13" stroke="#F1FA13" stroke-width="0.02"/>
<path d="M24.0001 24.0001L-5.66816 44.3907L-5.84473 44.131L24.001 24.0001H24.0001Z" fill="#F2FA12" stroke="#F2FA12" stroke-width="0.02"/>
<path d="M24.0001 24.0001L-5.84565 44.131L-6.02051 43.8695L23.9992 24.0001H24.0001Z" fill="#F3FA11" stroke="#F3FA11" stroke-width="0.02"/>
<path d="M24.0001 24.0002L-6.01961 43.8697L-6.19189 43.6065L24.0001 23.9994V24.0002Z" fill="#F4FA10" stroke="#F4FA10" stroke-width="0.02"/>
<path d="M23.9999 24.0001L-6.1921 43.6073L-6.36182 43.3433L23.9999 24.0001Z" fill="#F5FA0F" stroke="#F5FA0F" stroke-width="0.02"/>
<path d="M23.9999 24.0001L-6.36179 43.3433L-6.52979 43.0776L23.9999 24.0001Z" fill="#F6FA0E" stroke="#F6FA0E" stroke-width="0.02"/>
<path d="M23.9998 24.0001L-6.52988 43.0776L-6.69531 42.8101L23.9998 24.0001Z" fill="#F7FA0D" stroke="#F7FA0D" stroke-width="0.02"/>
<path d="M23.9996 24.0001L-6.69554 42.8101L-6.8584 42.5418L23.9996 24.0001Z" fill="#F8FA0C" stroke="#F8FA0C" stroke-width="0.02"/>
<path d="M24.0002 24.0001L-6.85778 42.5418L-7.01807 42.2718L24.0002 24.0001Z" fill="#F9FA0B" stroke="#F9FA0B" stroke-width="0.02"/>
<path d="M23.9996 24.0001L-7.01867 42.2718L-7.17725 42.0001L23.9996 24.0001Z" fill="#FAFA0A" stroke="#FAFA0A" stroke-width="0.02"/>
<path d="M23.9999 24.0001L-7.17701 42.0001L-7.33301 41.7276L23.9999 24.0001Z" fill="#FAF90B" stroke="#FAF90B" stroke-width="0.02"/>
<path d="M24 24.0001L-7.3329 41.7276L-7.48633 41.4533L24 24.0001Z" fill="#FAF80C" stroke="#FAF80C" stroke-width="0.02"/>
<path d="M23.9999 24.0001L-7.48635 41.4533L-7.63721 41.1781L23.9999 24.0001Z" fill="#FAF70D" stroke="#FAF70D" stroke-width="0.02"/>
<path d="M23.9998 24.0001L-7.63736 41.1781L-7.78564 40.9013L24.0006 24.0001H23.9998Z" fill="#FAF60E" stroke="#FAF60E" stroke-width="0.02"/>
<path d="M23.9998 24.0001L-7.78653 40.9013L-7.93311 40.6236L23.9989 24.001L23.9998 24.0001Z" fill="#FAF50F" stroke="#FAF50F" stroke-width="0.02"/>
<path d="M23.9993 24.0002L-7.93266 40.6228L-8.07666 40.3434L23.9993 23.9994V24.0002Z" fill="#FAF410" stroke="#FAF410" stroke-width="0.02"/>
<path d="M23.9997 24.0001L-8.07634 40.3441L-8.21777 40.0638L23.9997 24.001V24.0001Z" fill="#FAF311" stroke="#FAF311" stroke-width="0.02"/>
<path d="M23.9998 24.0002L-8.21759 40.0631L-8.35645 39.7811L23.9998 23.9994V24.0002Z" fill="#FAF212" stroke="#FAF212" stroke-width="0.02"/>
<path d="M23.9999 24.0001L-8.35639 39.7818L-8.49268 39.499L24.0008 24.001L23.9999 24.0001Z" fill="#FAF113" stroke="#FAF113" stroke-width="0.02"/>
<path d="M23.9997 24.0001L-8.49373 39.4981L-8.62744 39.2144L23.9997 24.0001Z" fill="#FAF014" stroke="#FAF014" stroke-width="0.02"/>
<path d="M24 24.0001L-8.62716 39.2144L-8.7583 38.929L24 24.0001Z" fill="#FAEF15" stroke="#FAEF15" stroke-width="0.02"/>
<path d="M23.9995 24.0001L-8.75875 38.929L-8.88818 38.6427L23.9995 24.0001Z" fill="#FAEE16" stroke="#FAEE16" stroke-width="0.02"/>
<path d="M23.9999 24.0001L-8.88779 38.6427L-9.01465 38.3555L23.9991 24.001L23.9999 24.0001Z" fill="#FAED17" stroke="#FAED17" stroke-width="0.02"/>
<path d="M23.9993 24.0002L-9.01439 38.3548L-9.13867 38.066L23.9993 23.9994V24.0002Z" fill="#FAEC18" stroke="#FAEC18" stroke-width="0.02"/>
<path d="M23.9995 24.0001L-9.13854 38.0667L-9.26025 37.777L23.9995 24.0001Z" fill="#FAEB19" stroke="#FAEB19" stroke-width="0.02"/>
<path d="M24 24.0001L-9.25976 37.777L-9.37891 37.4864L24 24.001V24.0001Z" fill="#FAEA1A" stroke="#FAEA1A" stroke-width="0.02"/>
<path d="M23.9993 24.0001L-9.37952 37.4864L-9.49609 37.195L23.9993 24.001V24.0001Z" fill="#FAE91B" stroke="#FAE91B" stroke-width="0.02"/>
<path d="M24.0001 24.0001L-9.49538 37.1941L-9.60938 36.901L23.9992 24.0001H24.0001Z" fill="#FAE81C" stroke="#FAE81C" stroke-width="0.02"/>
<path d="M23.9998 24.0002L-9.60879 36.9011L-9.72021 36.6071L23.9998 23.9994V24.0002Z" fill="#FAE71D" stroke="#FAE71D" stroke-width="0.02"/>
<path d="M23.9998 24.0001L-9.72024 36.6078L-9.8291 36.313L23.9998 24.0001Z" fill="#FAE61E" stroke="#FAE61E" stroke-width="0.02"/>
<path d="M23.9996 24.0001L-9.82926 36.313L-9.93555 36.0173L23.9996 24.0001Z" fill="#FAE51F" stroke="#FAE51F" stroke-width="0.02"/>
<path d="M24.0003 24.0001L-9.93486 36.0173L-10.0386 35.7207L24.0003 24.0001Z" fill="#FAE420" stroke="#FAE420" stroke-width="0.02"/>
<path d="M23.9994 24.0001L-10.0395 35.7207L-10.1406 35.4233L23.9994 24.0001Z" fill="#FAE321" stroke="#FAE321" stroke-width="0.02"/>
<path d="M23.9998 24.0001L-10.1402 35.4233L-10.2388 35.125L23.9989 24.0001H23.9998Z" fill="#FAE222" stroke="#FAE222" stroke-width="0.02"/>
<path d="M23.9997 24.0001L-10.238 35.125L-10.334 34.8258L23.9997 24.0001Z" fill="#FAE123" stroke="#FAE123" stroke-width="0.02"/>
<path d="M23.9994 24.0001L-10.3343 34.8258L-10.4277 34.5258L23.9994 24.0001Z" fill="#FAE024" stroke="#FAE024" stroke-width="0.02"/>
<path d="M23.9994 24.0001L-10.4277 34.5258L-10.5186 34.225L23.9986 24.0001H23.9994Z" fill="#FADF25" stroke="#FADF25" stroke-width="0.02"/>
<path d="M23.9995 24.0001L-10.5177 34.225L-10.606 33.9233L23.9995 24.0001Z" fill="#FADE26" stroke="#FADE26" stroke-width="0.02"/>
<path d="M23.9994 24.0001L-10.6061 33.9233L-10.6909 33.6207L23.9994 24.0001Z" fill="#FADD27" stroke="#FADD27" stroke-width="0.02"/>
<path d="M23.9996 24.0001L-10.6907 33.6207L-10.7729 33.3173L24.0005 24.0001H23.9996Z" fill="#FADC28" stroke="#FADC28" stroke-width="0.02"/>
<path d="M23.9996 24.0001L-10.7738 33.3173L-10.8535 33.0138L23.9996 24.0001Z" fill="#FADB29" stroke="#FADB29" stroke-width="0.02"/>
<path d="M23.9991 24.0001L-10.854 33.0138L-10.9312 32.7095L23.9991 24.0001Z" fill="#FADA2A" stroke="#FADA2A" stroke-width="0.02"/>
<path d="M24 24.0001L-10.9303 32.7095L-11.0049 32.4044L24.0008 24.0001H24Z" fill="#FAD92B" stroke="#FAD92B" stroke-width="0.02"/>
<path d="M23.9996 24.0001L-11.0061 32.4044L-11.0781 32.0984L23.9996 24.0001Z" fill="#FAD82C" stroke="#FAD82C" stroke-width="0.02"/>
<path d="M23.9992 24.0001L-11.0785 32.0984L-11.1479 31.7915L23.9983 24.0001H23.9992Z" fill="#FAD72D" stroke="#FAD72D" stroke-width="0.02"/>
<path d="M23.9993 24.0001L-11.147 31.7916L-11.2139 31.4847L23.9993 24.0001Z" fill="#FAD62E" stroke="#FAD62E" stroke-width="0.02"/>
<path d="M24.0001 24.0001L-11.2131 31.4847L-11.2773 31.177L24.0001 24.0001Z" fill="#FAD52F" stroke="#FAD52F" stroke-width="0.02"/>
<path d="M23.9994 24.0001L-11.278 31.177L-11.3389 30.8693L23.9994 24.0001Z" fill="#FAD430" stroke="#FAD430" stroke-width="0.02"/>
<path d="M23.9996 24.0001L-11.3387 30.8693L-11.397 30.5607L24.0005 24.0001H23.9996Z" fill="#FAD331" stroke="#FAD331" stroke-width="0.02"/>
<path d="M24 24.0001L-11.3974 30.5607L-11.4531 30.2513L24 24.0001Z" fill="#FAD232" stroke="#FAD232" stroke-width="0.02"/>
<path d="M23.9995 24.0001L-11.4537 30.2513L-11.5068 29.9418L23.9995 24.0001Z" fill="#FAD133" stroke="#FAD133" stroke-width="0.02"/>
<path d="M23.9997 24.0001L-11.5066 29.9418L-11.5571 29.6315L23.9997 24.0001Z" fill="#FAD034" stroke="#FAD034" stroke-width="0.02"/>
<path d="M23.9994 24.0001L-11.5575 29.6315L-11.6055 29.3213L23.9994 24.0001Z" fill="#FACF35" stroke="#FACF35" stroke-width="0.02"/>
<path d="M23.9994 24.0001L-11.6055 29.3213L-11.6509 29.0101L23.9986 24.0001H23.9994Z" fill="#FACE36" stroke="#FACE36" stroke-width="0.02"/>
<path d="M23.9994 24.0001L-11.65 29.0101L-11.6929 28.699L23.9994 24.0001Z" fill="#FACD37" stroke="#FACD37" stroke-width="0.02"/>
<path d="M23.9993 24.0002L-11.693 28.6991L-11.7324 28.3871L23.9993 23.9994V24.0002Z" fill="#FACC38" stroke="#FACC38" stroke-width="0.02"/>
<path d="M23.9995 24.0001L-11.7322 28.3878L-11.769 28.0758L23.9995 24.001V24.0001Z" fill="#FACB39" stroke="#FACB39" stroke-width="0.02"/>
<path d="M23.9996 24.0001L-11.7689 28.075L-11.8032 27.763L23.9996 24.0001Z" fill="#FACA3A" stroke="#FACA3A" stroke-width="0.02"/>
<path d="M23.9996 24.0001L-11.8032 27.763L-11.835 27.4501L23.9996 24.0001Z" fill="#FAC93B" stroke="#FAC93B" stroke-width="0.02"/>
<path d="M23.9996 24.0002L-11.835 27.4502L-11.8633 27.1374L23.9996 23.9994V24.0002Z" fill="#FAC83C" stroke="#FAC83C" stroke-width="0.02"/>
<path d="M23.9994 24.0001L-11.8634 27.1381L-11.8892 26.8253L24.0003 24.001L23.9994 24.0001Z" fill="#FAC73D" stroke="#FAC73D" stroke-width="0.02"/>
<path d="M23.9995 24.0002L-11.8899 26.8245L-11.9131 26.5108L23.9995 23.9994V24.0002Z" fill="#FAC63E" stroke="#FAC63E" stroke-width="0.02"/>
<path d="M23.9995 24.0001L-11.913 26.5115L-11.9336 26.1978L23.9995 24.0001Z" fill="#FAC53F" stroke="#FAC53F" stroke-width="0.02"/>
<path d="M24 24.0001L-11.9332 26.1978L-11.9512 25.8841L23.9991 24.0001H24Z" fill="#FAC440" stroke="#FAC440" stroke-width="0.02"/>
<path d="M23.9999 24.0001L-11.9504 25.8841L-11.9658 25.5704L23.9999 24.0001Z" fill="#FAC341" stroke="#FAC341" stroke-width="0.02"/>
<path d="M23.9992 24.0001L-11.9665 25.5704L-11.9785 25.2567L23.9992 24.0001Z" fill="#FAC242" stroke="#FAC242" stroke-width="0.02"/>
<path d="M23.9998 24.0001L-11.9779 25.2567L-11.9873 24.943L24.0007 24.001L23.9998 24.0001Z" fill="#FAC143" stroke="#FAC143" stroke-width="0.02"/>
<path d="M23.9997 24.0001L-11.9883 24.9421L-11.9951 24.6284L23.9997 24.0001Z" fill="#FAC044" stroke="#FAC044" stroke-width="0.02"/>
<path d="M23.9996 24.0002L-11.9952 24.6285L-11.9995 24.314L23.9988 23.9994L23.9996 24.0002Z" fill="#FABF45" stroke="#FABF45" stroke-width="0.02"/>
<path d="M23.9995 24.0001L-11.9988 24.3147L-12.0005 24.0001H23.9995Z" fill="#FABE46" stroke="#FABE46" stroke-width="0.02"/>
<path d="M23.9995 23.9998H-12.0005L-11.9988 23.6852L23.9995 23.9998Z" fill="#FABD47" stroke="#FABD47" stroke-width="0.02"/>
<path d="M23.9993 24L-11.999 23.6863L-11.9947 23.3717L24.0001 24H23.9993Z" fill="#FABC48" stroke="#FABC48" stroke-width="0.02"/>
<path d="M23.9997 24.0002L-11.9951 23.3719L-11.9883 23.0582L23.9997 24.0002Z" fill="#FABB49" stroke="#FABB49" stroke-width="0.02"/>
<path d="M23.9992 23.9996L-11.9888 23.0576L-11.9793 22.7439L23.9984 24.0005L23.9992 23.9996Z" fill="#F9FA0B" stroke="#F9FA0B" stroke-width="0.02"/>
<path d="M23.9992 24L-11.9785 22.7434L-11.9665 22.4297L23.9992 24Z" fill="#FAB94B" stroke="#FAB94B" stroke-width="0.02"/>
<path d="M23.9999 24.0002L-11.9658 22.4299L-11.9504 22.1162L23.9999 24.0002Z" fill="#FAB84C" stroke="#FAB84C" stroke-width="0.02"/>
<path d="M23.9996 23.9997L-11.9507 22.1157L-11.9327 21.802L24.0005 23.9997H23.9996Z" fill="#FAB74D" stroke="#FAB74D" stroke-width="0.02"/>
<path d="M23.9995 24L-11.9336 21.8022L-11.913 21.4885L23.9995 24Z" fill="#FAB64E" stroke="#FAB64E" stroke-width="0.02"/>
<path d="M23.9995 24.0002L-11.9131 21.4888L-11.8899 21.175L23.9995 23.9993V24.0002Z" fill="#FAB54F" stroke="#FAB54F" stroke-width="0.02"/>
<path d="M23.9998 24.0002L-11.8896 21.1759L-11.8639 20.863L23.9989 24.001L23.9998 24.0002Z" fill="#FAB450" stroke="#FAB450" stroke-width="0.02"/>
<path d="M23.9996 23.9997L-11.8633 20.8617L-11.835 20.5488L23.9996 23.9988V23.9997Z" fill="#FAB351" stroke="#FAB351" stroke-width="0.02"/>
<path d="M23.9996 23.9997L-11.835 20.5497L-11.8032 20.2368L23.9996 23.9997Z" fill="#FAB252" stroke="#FAB252" stroke-width="0.02"/>
<path d="M23.9996 23.9997L-11.8032 20.2368L-11.7689 19.9248L23.9996 23.9997Z" fill="#FAB153" stroke="#FAB153" stroke-width="0.02"/>
<path d="M23.9995 23.9997L-11.769 19.9248L-11.7322 19.6128L23.9995 24.0005V23.9997Z" fill="#FAB054" stroke="#FAB054" stroke-width="0.02"/>
<path d="M23.9993 23.9998L-11.7324 19.6121L-11.693 19.3L23.9993 23.9989V23.9998Z" fill="#FAAF55" stroke="#FAAF55" stroke-width="0.02"/>
<path d="M23.9994 24.0002L-11.6929 19.3014L-11.65 18.9902L23.9994 24.0002Z" fill="#FAAE56" stroke="#FAAE56" stroke-width="0.02"/>
<path d="M24 24.0001L-11.6494 18.9901L-11.604 18.679L24.0009 24.0001H24Z" fill="#FAAD57" stroke="#FAAD57" stroke-width="0.02"/>
<path d="M23.9994 23.9997L-11.6055 18.6786L-11.5575 18.3683L23.9994 23.9997Z" fill="#FAAC58" stroke="#FAAC58" stroke-width="0.02"/>
<path d="M23.9997 24.0002L-11.5571 18.3688L-11.5066 18.0585L23.9997 24.0002Z" fill="#FAAB59" stroke="#FAAB59" stroke-width="0.02"/>
<path d="M23.9995 23.9998L-11.5068 18.0581L-11.4537 17.7487L23.9995 23.9998Z" fill="#FAAA5A" stroke="#FAAA5A" stroke-width="0.02"/>
<path d="M24 24.0001L-11.4531 17.749L-11.3974 17.4396L24 24.0001Z" fill="#FAA95B" stroke="#FAA95B" stroke-width="0.02"/>
<path d="M24 23.9996L-11.3975 17.4391L-11.3392 17.1305L23.9991 23.9996H24Z" fill="#FAA85C" stroke="#FAA85C" stroke-width="0.02"/>
<path d="M23.9994 23.9997L-11.3389 17.1306L-11.278 16.8229L23.9994 23.9997Z" fill="#FAA75D" stroke="#FAA75D" stroke-width="0.02"/>
<path d="M24.0001 23.9998L-11.2773 16.823L-11.2131 16.5153L24.0001 23.9998Z" fill="#FAA65E" stroke="#FAA65E" stroke-width="0.02"/>
<path d="M23.9993 23.9998L-11.2139 16.5152L-11.147 16.2084L23.9993 23.9998Z" fill="#FAA55F" stroke="#FAA55F" stroke-width="0.02"/>
<path d="M23.9998 23.9998L-11.1465 16.2083L-11.0771 15.9015L24.0007 23.9998H23.9998Z" fill="#FAA460" stroke="#FAA460" stroke-width="0.02"/>
<path d="M23.9996 23.9996L-11.0781 15.9013L-11.0061 15.5953L23.9996 23.9996Z" fill="#FAA361" stroke="#FAA361" stroke-width="0.02"/>
<path d="M23.9994 24.0001L-11.0063 15.5958L-10.9318 15.2906L23.9985 24.0001H23.9994Z" fill="#FAA262" stroke="#FAA262" stroke-width="0.02"/>
<path d="M23.9991 23.9997L-10.9312 15.2902L-10.854 14.986L23.9991 23.9997Z" fill="#FAA163" stroke="#FAA163" stroke-width="0.02"/>
<path d="M23.9996 23.9999L-10.8535 14.9862L-10.7738 14.6827L23.9996 23.9999Z" fill="#FAA064" stroke="#FAA064" stroke-width="0.02"/>
<path d="M24 24.0001L-10.7734 14.6829L-10.6912 14.3795L23.9991 24.0001H24Z" fill="#FA9F65" stroke="#FA9F65" stroke-width="0.02"/>
<path d="M23.9994 24.0002L-10.6909 14.3796L-10.6061 14.077L23.9994 24.0002Z" fill="#FA9E66" stroke="#FA9E66" stroke-width="0.02"/>
<path d="M23.9995 24.0001L-10.606 14.077L-10.5177 13.7753L23.9995 24.0001Z" fill="#FA9D67" stroke="#FA9D67" stroke-width="0.02"/>
<path d="M24.0001 24L-10.5171 13.7751L-10.4262 13.4742L24.0009 24H24.0001Z" fill="#FA9C68" stroke="#FA9C68" stroke-width="0.02"/>
<path d="M23.9994 23.9997L-10.4277 13.474L-10.3343 13.174L23.9994 23.9997Z" fill="#FA9B69" stroke="#FA9B69" stroke-width="0.02"/>
<path d="M23.9997 24L-10.334 13.1743L-10.238 12.8751L23.9997 24Z" fill="#FA9A6A" stroke="#FA9A6A" stroke-width="0.02"/>
<path d="M23.9999 24.0002L-10.2378 12.8753L-10.1392 12.577L24.0008 24.0002H23.9999Z" fill="#FA996B" stroke="#FA996B" stroke-width="0.02"/>
<path d="M23.9994 24.0002L-10.1406 12.5771L-10.0395 12.2797L23.9994 24.0002Z" fill="#FA986C" stroke="#FA986C" stroke-width="0.02"/>
<path d="M24.0003 24.0001L-10.0386 12.2795L-9.93486 11.9829L24.0003 24.0001Z" fill="#FA976D" stroke="#FA976D" stroke-width="0.02"/>
<path d="M23.9996 23.9999L-9.93555 11.9827L-9.82926 11.687L23.9996 23.9999Z" fill="#FA966E" stroke="#FA966E" stroke-width="0.02"/>
<path d="M23.9998 24.0003L-9.8291 11.6874L-9.72024 11.3926L23.9998 24.0003Z" fill="#FA956F" stroke="#FA956F" stroke-width="0.02"/>
<path d="M23.9998 23.9999L-9.72021 11.3921L-9.60879 11.0981L23.9998 23.999V23.9999Z" fill="#FA9470" stroke="#FA9470" stroke-width="0.02"/>
<path d="M23.9997 23.9999L-9.60889 11.0991L-9.49489 10.8059L24.0005 23.9999H23.9997Z" fill="#FA9371" stroke="#FA9371" stroke-width="0.02"/>
<path d="M23.9993 23.9998L-9.49609 10.8058L-9.37952 10.5144L23.9993 23.9998Z" fill="#FA9272" stroke="#FA9272" stroke-width="0.02"/>
<path d="M24 23.9996L-9.37891 10.5142L-9.25976 10.2236L24 24.0005V23.9996Z" fill="#FA9173" stroke="#FA9173" stroke-width="0.02"/>
<path d="M23.9995 24.0002L-9.26025 10.2233L-9.13854 9.93359L23.9995 24.0002Z" fill="#FA9074" stroke="#FA9074" stroke-width="0.02"/>
<path d="M23.9993 23.9997L-9.13867 9.93314L-9.01439 9.64429L23.9993 23.9989V23.9997Z" fill="#FA8F75" stroke="#FA8F75" stroke-width="0.02"/>
<path d="M23.9996 23.9996L-9.01416 9.64505L-8.8873 9.35791L24.0004 24.0005L23.9996 23.9996Z" fill="#FA8E76" stroke="#FA8E76" stroke-width="0.02"/>
<path d="M23.9995 23.9997L-8.88818 9.35709L-8.75875 9.0708L23.9995 23.9997Z" fill="#FA8D77" stroke="#FA8D77" stroke-width="0.02"/>
<path d="M24 24.0002L-8.7583 9.07132L-8.62716 8.78589L24 24.0002Z" fill="#FA8C78" stroke="#FA8C78" stroke-width="0.02"/>
<path d="M23.9997 23.9997L-8.62744 8.78542L-8.49373 8.50171L23.9997 23.9997Z" fill="#FA8B79" stroke="#FA8B79" stroke-width="0.02"/>
<path d="M24.0003 23.9999L-8.49316 8.50185L-8.35688 8.21899L23.9994 24.0007L24.0003 23.9999Z" fill="#FA8A7A" stroke="#FA8A7A" stroke-width="0.02"/>
<path d="M23.9998 24L-8.35645 8.21828L-8.21759 7.93628L23.9998 23.9991V24Z" fill="#FA897B" stroke="#FA897B" stroke-width="0.02"/>
<path d="M23.9997 24.0002L-8.21777 7.93739L-8.07634 7.6571L23.9997 24.0011V24.0002Z" fill="#FA887C" stroke="#FA887C" stroke-width="0.02"/>
<path d="M23.9993 24L-8.07666 7.65602L-7.93266 7.37659L23.9993 23.9992V24Z" fill="#FA877D" stroke="#FA877D" stroke-width="0.02"/>
<path d="M23.9999 24L-7.93213 7.37745L-7.78556 7.09973L24.0007 24.0009L23.9999 24Z" fill="#FA867E" stroke="#FA867E" stroke-width="0.02"/>
<path d="M23.9997 24.0001L-7.78662 7.099L-7.63834 6.82214L23.9988 24.0001H23.9997Z" fill="#FA857F" stroke="#FA857F" stroke-width="0.02"/>
<path d="M23.9999 23.9999L-7.63721 6.8219L-7.48635 6.54675L23.9999 23.9999Z" fill="#FA8480" stroke="#FA8480" stroke-width="0.02"/>
<path d="M24 24.0003L-7.48633 6.54711L-7.3329 6.27283L24 24.0003Z" fill="#FA8381" stroke="#FA8381" stroke-width="0.02"/>
<path d="M23.9999 23.9996L-7.33301 6.27221L-7.17701 5.99963L23.9999 23.9996Z" fill="#FA8282" stroke="#FA8282" stroke-width="0.02"/>
<path d="M23.9996 23.9996L-7.17725 5.99962L-7.01867 5.72791L23.9996 23.9996Z" fill="#FA8183" stroke="#FA8183" stroke-width="0.02"/>
<path d="M24.0002 24.0001L-7.01807 5.72837L-6.85778 5.45837L24.0002 24.0001Z" fill="#FA8084" stroke="#FA8084" stroke-width="0.02"/>
<path d="M23.9996 24.0003L-6.8584 5.45859L-6.69554 5.19031L23.9996 24.0003Z" fill="#FA7F85" stroke="#FA7F85" stroke-width="0.02"/>
<path d="M23.9998 23.9997L-6.69531 5.18967L-6.52988 4.92224L23.9998 23.9997Z" fill="#FA7E86" stroke="#FA7E86" stroke-width="0.02"/>
<path d="M23.9999 24.0002L-6.52979 4.92282L-6.36179 4.6571L23.9999 24.0002Z" fill="#FA7D87" stroke="#FA7D87" stroke-width="0.02"/>
<path d="M23.9999 23.9998L-6.36182 4.6567L-6.1921 4.3927L23.9999 23.9998Z" fill="#FA7C88" stroke="#FA7C88" stroke-width="0.02"/>
<path d="M24.0001 24L-6.19189 4.3929L-6.01961 4.12976L24.0001 23.9992V24Z" fill="#FA7B89" stroke="#FA7B89" stroke-width="0.02"/>
<path d="M23.9997 23.9999L-6.02002 4.13045L-5.84516 3.86902L24.0006 23.9999H23.9997Z" fill="#FA7A8A" stroke="#FA7A8A" stroke-width="0.02"/>
<path d="M23.9995 24.0003L-5.84619 3.86946L-5.66962 3.60974L23.9987 24.0003H23.9995Z" fill="#FA798B" stroke="#FA798B" stroke-width="0.02"/>
<path d="M23.9998 23.9998L-5.66846 3.6092L-5.48931 3.3512L23.9998 23.9998Z" fill="#FA788C" stroke="#FA788C" stroke-width="0.02"/>
<path d="M23.9994 23.9996L-5.48975 3.35101L-5.30803 3.09473L24.0003 24.0004L23.9994 23.9996Z" fill="#FA778D" stroke="#FA778D" stroke-width="0.02"/>
<path d="M23.9997 24.0001L-5.30859 3.09442L-5.12517 2.83984L23.9997 24.0001Z" fill="#FA768E" stroke="#FA768E" stroke-width="0.02"/>
<path d="M23.9999 23.9997L-5.125 2.83941L-4.939 2.58569L23.9999 23.9997Z" fill="#FA758F" stroke="#FA758F" stroke-width="0.02"/>
<path d="M23.9999 23.9997L-4.93896 2.58574L-4.75125 2.33374L23.9999 23.9989V23.9997Z" fill="#FA7490" stroke="#FA7490" stroke-width="0.02"/>
<path d="M23.9997 24.0001L-4.75146 2.335L-4.56118 2.08472L23.9997 24.0001Z" fill="#FA7391" stroke="#FA7391" stroke-width="0.02"/>
<path d="M23.9998 23.9997L-4.56104 2.08427L-4.36904 1.83569L23.999 23.9997H23.9998Z" fill="#FA7292" stroke="#FA7292" stroke-width="0.02"/>
<path d="M23.9998 23.9997L-4.36816 1.83572L-4.17359 1.58887L24.0007 23.9997H23.9998Z" fill="#FA7193" stroke="#FA7193" stroke-width="0.02"/>
<path d="M23.9995 24.0002L-4.1748 1.58938L-3.97852 1.34424L23.9986 23.9994L23.9995 24.0002Z" fill="#FA7094" stroke="#FA7094" stroke-width="0.02"/>
<path d="M24.0001 23.9996L-3.97705 1.3445L-3.77819 1.10107L24.0001 23.9996Z" fill="#FA6F95" stroke="#FA6F95" stroke-width="0.02"/>
<path d="M23.9995 23.9994L-3.77881 1.10085L-3.57824 0.859131L23.9995 23.9994Z" fill="#FA6E96" stroke="#FA6E96" stroke-width="0.02"/>
<path d="M23.9996 24.0002L-3.57812 0.859872L-3.37498 0.619873L23.9996 24.0002Z" fill="#FA6D97" stroke="#FA6D97" stroke-width="0.02"/>
<path d="M23.9996 23.9997L-3.375 0.619389L-3.17014 0.381104L23.9996 23.9988V23.9997Z" fill="#FA6C98" stroke="#FA6C98" stroke-width="0.02"/>
<path d="M23.9998 24.0005L-3.16992 0.382811L-2.96249 0.14624L23.9998 24.0005Z" fill="#FA6B99" stroke="#FA6B99" stroke-width="0.02"/>
<path d="M23.9994 24.0002L-2.96289 0.145866L-2.75375 -0.0881348L23.9994 24.001V24.0002Z" fill="#FA6A9A" stroke="#FA6A9A" stroke-width="0.02"/>
<path d="M23.9997 23.9999L-2.75342 -0.0892469L-2.54256 -0.321533L23.9997 23.9999Z" fill="#FA699B" stroke="#FA699B" stroke-width="0.02"/>
<path d="M23.9998 24L-2.54248 -0.321432L-2.32905 -0.552002L23.9998 24Z" fill="#FA689C" stroke="#FA689C" stroke-width="0.02"/>
<path d="M23.9998 24.0003L-2.3291 -0.551659L-2.11396 -0.780518L23.9998 24.0003Z" fill="#FA679D" stroke="#FA679D" stroke-width="0.02"/>
<path d="M23.9999 23.9999L-2.11377 -0.780914L-1.89691 -1.00806L23.9991 23.9999H23.9999Z" fill="#FA669E" stroke="#FA669E" stroke-width="0.02"/>
<path d="M23.9995 24.0002L-1.89648 -1.00785L-1.67706 -1.23242L24.0004 24.0002H23.9995Z" fill="#FA659F" stroke="#FA659F" stroke-width="0.02"/>
<path d="M23.9992 24.0003L-1.67822 -1.23222L-1.45708 -1.45508L23.9984 24.0003H23.9992Z" fill="#FA64A0" stroke="#FA64A0" stroke-width="0.02"/>
<path d="M23.9999 24.0003L-1.45557 -1.45513L-1.23271 -1.67627L23.9999 24.0012V24.0003Z" fill="#FA63A1" stroke="#FA63A1" stroke-width="0.02"/>
<path d="M23.9997 24.0001L-1.23291 -1.6773L-1.00834 -1.89673L23.9997 23.9993V24.0001Z" fill="#FA62A2" stroke="#FA62A2" stroke-width="0.02"/>
<path d="M23.9992 24.0001L-1.00879 -1.89594L-0.781647 -2.11279L23.9992 24.0009V24.0001Z" fill="#FA61A3" stroke="#FA61A3" stroke-width="0.02"/>
<path d="M24.0001 24L-0.780762 -2.11371L-0.551903 -2.32886L24.0001 24Z" fill="#FA60A4" stroke="#FA60A4" stroke-width="0.02"/>
<path d="M23.9998 24.0003L-0.552246 -2.32856L-0.321676 -2.54199L23.9998 24.0003Z" fill="#FA5FA5" stroke="#FA5FA5" stroke-width="0.02"/>
<path d="M23.9997 24.0002L-0.321777 -2.54207L-0.0894911 -2.75293L23.9997 24.0002Z" fill="#FA5EA6" stroke="#FA5EA6" stroke-width="0.02"/>
<path d="M23.9998 23.9999L-0.0893555 -2.75326L0.144644 -2.9624L23.9989 23.9999H23.9998Z" fill="#FA5DA7" stroke="#FA5DA7" stroke-width="0.02"/>
<path d="M24.0003 24L0.145996 -2.96225L0.382567 -3.16968L24.0003 24Z" fill="#FA5CA8" stroke="#FA5CA8" stroke-width="0.02"/>
<path d="M24 23.9997L0.382324 -3.17002L0.62061 -3.37488L24.0009 23.9997H24Z" fill="#FA5BA9" stroke="#FA5BA9" stroke-width="0.02"/>
<path d="M23.9999 24L0.619629 -3.37462L0.859628 -3.57776L23.9999 24Z" fill="#FA5AAA" stroke="#FA5AAA" stroke-width="0.02"/>
<path d="M23.9997 23.9998L0.859375 -3.57787L1.10109 -3.77844L23.9997 23.9998Z" fill="#FA59AB" stroke="#FA59AB" stroke-width="0.02"/>
<path d="M23.9996 24.0002L1.10107 -3.77807L1.3445 -3.97693L23.9996 24.0002Z" fill="#FA58AC" stroke="#FA58AC" stroke-width="0.02"/>
<path d="M23.9999 24.0002L1.34473 -3.97693L1.58987 -4.17322L24.0007 24.0011L23.9999 24.0002Z" fill="#FA57AD" stroke="#FA57AD" stroke-width="0.02"/>
<path d="M23.9997 24.0001L1.58887 -4.1742L1.83572 -4.36877L23.9997 23.9992V24.0001Z" fill="#FA56AE" stroke="#FA56AE" stroke-width="0.02"/>
<path d="M23.9995 24.0001L1.83545 -4.36794L2.08402 -4.55994L23.9995 24.0009V24.0001Z" fill="#FA55AF" stroke="#FA55AF" stroke-width="0.02"/>
<path d="M23.9999 24L2.08447 -4.56081L2.33476 -4.7511L23.9999 24Z" fill="#FA54B0" stroke="#FA54B0" stroke-width="0.02"/>
<path d="M23.9996 24.0003L2.33447 -4.75088L2.58647 -4.9386L24.0005 24.0003H23.9996Z" fill="#FA53B1" stroke="#FA53B1" stroke-width="0.02"/>
<path d="M23.9995 24.0002L2.58545 -4.93863L2.83916 -5.12463L23.9995 24.0002Z" fill="#FA52B2" stroke="#FA52B2" stroke-width="0.02"/>
<path d="M24.0001 23.9998L2.83984 -5.12504L3.09442 -5.30847L24.0001 23.9998Z" fill="#FA51B3" stroke="#FA51B3" stroke-width="0.02"/>
<path d="M23.9995 23.9999L3.09375 -5.3084L3.35004 -5.49011L23.9986 23.999L23.9995 23.9999Z" fill="#FA50B4" stroke="#FA50B4" stroke-width="0.02"/>
<path d="M23.9996 24.0002L3.35107 -5.48895L3.60907 -5.66809L23.9996 24.0002Z" fill="#FA4FB5" stroke="#FA4FB5" stroke-width="0.02"/>
<path d="M23.9999 24.0003L3.60938 -5.66803L3.86909 -5.8446L23.9999 24.0011V24.0003Z" fill="#FA4EB6" stroke="#FA4EB6" stroke-width="0.02"/>
<path d="M23.9995 24.0002L3.86865 -5.84553L4.13008 -6.02039L23.9995 23.9993V24.0002Z" fill="#FA4DB7" stroke="#FA4DB7" stroke-width="0.02"/>
<path d="M23.9998 24.0002L4.13037 -6.01949L4.39351 -6.19177L24.0007 24.0002H23.9998Z" fill="#FA4CB8" stroke="#FA4CB8" stroke-width="0.02"/>
<path d="M23.9997 24L4.39258 -6.19198L4.65658 -6.36169L23.9997 24Z" fill="#FA4BB9" stroke="#FA4BB9" stroke-width="0.02"/>
<path d="M23.9999 24.0003L4.65674 -6.36142L4.92245 -6.52942L23.9999 24.0003Z" fill="#FA4ABA" stroke="#FA4ABA" stroke-width="0.02"/>
<path d="M23.9993 24.0002L4.92188 -6.52952L5.1893 -6.69495L23.9993 24.0002Z" fill="#FA49BB" stroke="#FA49BB" stroke-width="0.02"/>
<path d="M23.9999 23.9997L5.18994 -6.69542L5.45823 -6.85828L23.9999 23.9997Z" fill="#FA48BC" stroke="#FA48BC" stroke-width="0.02"/>
<path d="M23.9997 24.0003L5.45801 -6.85766L5.72801 -7.01794L23.9997 24.0003Z" fill="#FA47BD" stroke="#FA47BD" stroke-width="0.02"/>
<path d="M23.9993 24L5.72754 -7.01831L5.99925 -7.17688L23.9993 24Z" fill="#FA46BE" stroke="#FA46BE" stroke-width="0.02"/>
<path d="M23.9995 24L5.99951 -7.17689L6.27208 -7.33289L23.9995 24Z" fill="#FA45BF" stroke="#FA45BF" stroke-width="0.02"/>
<path d="M23.9999 24.0003L6.27246 -7.33253L6.54675 -7.48596L23.9999 24.0003Z" fill="#FA44C0" stroke="#FA44C0" stroke-width="0.02"/>
<path d="M23.9995 24.0003L6.54639 -7.48598L6.82153 -7.63684L23.9995 24.0003Z" fill="#FA43C1" stroke="#FA43C1" stroke-width="0.02"/>
<path d="M23.9998 23.9998L6.82178 -7.63736L7.09863 -7.78564L23.9998 24.0006V23.9998Z" fill="#FA42C2" stroke="#FA42C2" stroke-width="0.02"/>
<path d="M23.9998 24L7.09863 -7.78629L7.37635 -7.93286L23.9989 23.9991L23.9998 24Z" fill="#FA41C3" stroke="#FA41C3" stroke-width="0.02"/>
<path d="M23.9995 23.9996L7.37695 -7.93242L7.65638 -8.07642L24.0004 23.9996H23.9995Z" fill="#FA40C4" stroke="#FA40C4" stroke-width="0.02"/>
<path d="M23.9993 23.9997L7.65527 -8.07634L7.93556 -8.21777L23.9984 23.9997H23.9993Z" fill="#FA3FC5" stroke="#FA3FC5" stroke-width="0.02"/>
<path d="M23.9994 24.0001L7.93652 -8.21734L8.21852 -8.3562L24.0002 24.0001H23.9994Z" fill="#FA3EC6" stroke="#FA3EC6" stroke-width="0.02"/>
<path d="M23.9995 24.0001L8.21777 -8.35615L8.50063 -8.49243L23.9986 24.001L23.9995 24.0001Z" fill="#FA3DC7" stroke="#FA3DC7" stroke-width="0.02"/>
<path d="M23.9995 23.9999L8.50146 -8.49348L8.78518 -8.6272L23.9995 23.9999Z" fill="#FA3CC8" stroke="#FA3CC8" stroke-width="0.02"/>
<path d="M23.9999 24L8.78564 -8.62716L9.07107 -8.7583L23.9999 24Z" fill="#FA3BC9" stroke="#FA3BC9" stroke-width="0.02"/>
<path d="M23.9992 23.9998L9.07031 -8.75851L9.3566 -8.88794L23.9992 23.9998Z" fill="#FA3ACA" stroke="#FA3ACA" stroke-width="0.02"/>
<path d="M23.9995 23.9999L9.35693 -8.88779L9.64408 -9.01465L23.9986 23.9991L23.9995 23.9999Z" fill="#FA39CB" stroke="#FA39CB" stroke-width="0.02"/>
<path d="M24.0001 23.9996L9.64551 -9.01414L9.93437 -9.13843L24.0009 23.9996H24.0001Z" fill="#FA38CC" stroke="#FA38CC" stroke-width="0.02"/>
<path d="M23.9997 23.9997L9.93311 -9.1383L10.2228 -9.26001L23.9997 23.9997Z" fill="#FA37CD" stroke="#FA37CD" stroke-width="0.02"/>
<path d="M23.9995 24.0002L10.2227 -9.25952L10.5132 -9.37866L23.9987 24.0002H23.9995Z" fill="#FA36CE" stroke="#FA36CE" stroke-width="0.02"/>
<path d="M23.9996 23.9996L10.5142 -9.37928L10.8056 -9.49585L23.9996 23.9996Z" fill="#FA35CF" stroke="#FA35CF" stroke-width="0.02"/>
<path d="M23.9997 24.0001L10.8057 -9.49537L11.0988 -9.60938L23.9997 23.9992V24.0001Z" fill="#FA34D0" stroke="#FA34D0" stroke-width="0.02"/>
<path d="M23.9995 24L11.0986 -9.60854L11.3926 -9.71997L24.0003 24H23.9995Z" fill="#FA33D1" stroke="#FA33D1" stroke-width="0.02"/>
<path d="M24.0003 23.9998L11.3926 -9.72024L11.6874 -9.8291L24.0003 23.9998Z" fill="#FA32D2" stroke="#FA32D2" stroke-width="0.02"/>
<path d="M23.9999 23.9998L11.687 -9.82902L11.9827 -9.9353L23.9999 23.9998Z" fill="#FA31D3" stroke="#FA31D3" stroke-width="0.02"/>
<path d="M24.0001 24.0003L11.9829 -9.93486L12.2795 -10.0386L24.0001 24.0003Z" fill="#FA30D4" stroke="#FA30D4" stroke-width="0.02"/>
<path d="M23.9999 23.9996L12.2793 -10.0392L12.5767 -10.1404L23.9999 23.9996Z" fill="#FA2FD5" stroke="#FA2FD5" stroke-width="0.02"/>
<path d="M23.9998 24L12.5767 -10.14L12.8749 -10.2385L23.9998 23.9992V24Z" fill="#FA2ED6" stroke="#FA2ED6" stroke-width="0.02"/>
<path d="M23.9999 24L12.875 -10.2377L13.1741 -10.3337L23.9999 24Z" fill="#FA2DD7" stroke="#FA2DD7" stroke-width="0.02"/>
<path d="M23.9995 23.9997L13.1738 -10.3341L13.4738 -10.4275L23.9995 23.9997Z" fill="#FA2CD8" stroke="#FA2CD8" stroke-width="0.02"/>
<path d="M23.9998 23.9997L13.4741 -10.4275L13.775 -10.5183L23.9998 23.9988V23.9997Z" fill="#FA2BD9" stroke="#FA2BD9" stroke-width="0.02"/>
<path d="M23.9998 24L13.7749 -10.5172L14.0766 -10.6055L23.9998 24Z" fill="#FA2ADA" stroke="#FA2ADA" stroke-width="0.02"/>
<path d="M23.9998 23.9999L14.0767 -10.6056L14.3792 -10.6904L23.9998 23.9999Z" fill="#FA29DB" stroke="#FA29DB" stroke-width="0.02"/>
<path d="M24 24.0001L14.3794 -10.6902L14.6828 -10.7725L24 24.001V24.0001Z" fill="#FA28DC" stroke="#FA28DC" stroke-width="0.02"/>
<path d="M23.9998 24.0001L14.6826 -10.7733L14.986 -10.853L23.9998 24.0001Z" fill="#FA27DD" stroke="#FA27DD" stroke-width="0.02"/>
<path d="M23.9996 23.9996L14.9858 -10.8535L15.2901 -10.9307L23.9996 23.9996Z" fill="#FA26DE" stroke="#FA26DE" stroke-width="0.02"/>
<path d="M24 24.0002L15.2905 -10.9301L15.5957 -11.0046L24 24.0011V24.0002Z" fill="#FA25DF" stroke="#FA25DF" stroke-width="0.02"/>
<path d="M23.9995 23.9998L15.5952 -11.0059L15.9012 -11.0779L23.9995 23.9998Z" fill="#FA24E0" stroke="#FA24E0" stroke-width="0.02"/>
<path d="M23.9997 23.9997L15.9014 -11.078L16.2082 -11.1475L23.9997 23.9988V23.9997Z" fill="#FA23E1" stroke="#FA23E1" stroke-width="0.02"/>
<path d="M23.9994 23.9998L16.208 -11.1465L16.5149 -11.2134L23.9994 23.9998Z" fill="#FA22E2" stroke="#FA22E2" stroke-width="0.02"/>
<path d="M23.9997 24.0003L16.5151 -11.2128L16.8229 -11.2771L23.9997 24.0003Z" fill="#FA21E3" stroke="#FA21E3" stroke-width="0.02"/>
<path d="M23.9996 23.9997L16.8228 -11.2778L17.1305 -11.3386L23.9996 23.9997Z" fill="#FA20E4" stroke="#FA20E4" stroke-width="0.02"/>
<path d="M23.9995 24.0001L17.1304 -11.3382L17.4389 -11.3965L23.9995 24.0009V24.0001Z" fill="#FA1FE5" stroke="#FA1FE5" stroke-width="0.02"/>
<path d="M24 24.0003L17.4395 -11.3972L17.7489 -11.4529L24 24.0003Z" fill="#FA1EE6" stroke="#FA1EE6" stroke-width="0.02"/>
<path d="M23.9997 23.9999L17.7485 -11.4532L18.058 -11.5063L23.9997 23.9999Z" fill="#FA1DE7" stroke="#FA1DE7" stroke-width="0.02"/>
<path d="M23.9998 24L18.0581 -11.5063L18.3684 -11.5569L23.9998 24Z" fill="#FA1CE8" stroke="#FA1CE8" stroke-width="0.02"/>
<path d="M23.9996 23.9996L18.3682 -11.5572L18.6784 -11.6052L23.9996 23.9996Z" fill="#FA1BE9" stroke="#FA1BE9" stroke-width="0.02"/>
<path d="M23.9999 23.9996L18.6787 -11.6052L18.9899 -11.6506L23.9999 23.9988V23.9996Z" fill="#FA1AEA" stroke="#FA1AEA" stroke-width="0.02"/>
<path d="M23.9997 23.9999L18.9897 -11.6495L19.3009 -11.6924L23.9997 23.9999Z" fill="#FA19EB" stroke="#FA19EB" stroke-width="0.02"/>
<path d="M23.9992 23.9998L19.3003 -11.6925L19.6123 -11.7319L24 23.9998H23.9992Z" fill="#FA18EC" stroke="#FA18EC" stroke-width="0.02"/>
<path d="M23.9995 24L19.6118 -11.7317L19.9238 -11.7686L23.9987 24H23.9995Z" fill="#FA17ED" stroke="#FA17ED" stroke-width="0.02"/>
<path d="M23.9992 23.9999L19.9243 -11.7687L20.2363 -11.803L23.9992 23.9999Z" fill="#FA16EE" stroke="#FA16EE" stroke-width="0.02"/>
<path d="M23.9992 24.0001L20.2363 -11.8028L20.5492 -11.8345L23.9992 24.0001Z" fill="#FA15EF" stroke="#FA15EF" stroke-width="0.02"/>
<path d="M24.0003 23.9998L20.5503 -11.8348L20.8631 -11.863L24.0011 23.9998H24.0003Z" fill="#FA14F0" stroke="#FA14F0" stroke-width="0.02"/>
<path d="M24.0003 23.9999L20.8623 -11.863L21.1752 -11.8887L23.9994 24.0008L24.0003 23.9999Z" fill="#FA13F1" stroke="#FA13F1" stroke-width="0.02"/>
<path d="M24.0001 23.9997L21.1758 -11.8897L21.4895 -11.9128L24.0009 23.9997H24.0001Z" fill="#FA12F2" stroke="#FA12F2" stroke-width="0.02"/>
<path d="M23.9997 23.9998L21.4883 -11.9128L21.802 -11.9333L23.9997 23.9998Z" fill="#FA11F3" stroke="#FA11F3" stroke-width="0.02"/>
<path d="M23.9995 24.0002L21.8018 -11.9329L22.1155 -11.9509L23.9995 23.9994V24.0002Z" fill="#FA10F4" stroke="#FA10F4" stroke-width="0.02"/>
<path d="M24.0002 24.0001L22.1162 -11.9501L22.4299 -11.9656L24.0002 24.0001Z" fill="#FA0FF5" stroke="#FA0FF5" stroke-width="0.02"/>
<path d="M24 23.9997L22.4297 -11.966L22.7434 -11.978L24 23.9997Z" fill="#FA0EF6" stroke="#FA0EF6" stroke-width="0.02"/>
<path d="M23.9997 24.0003L22.7432 -11.9774L23.0569 -11.9868L23.9989 24.0012L23.9997 24.0003Z" fill="#FA0DF7" stroke="#FA0DF7" stroke-width="0.02"/>
<path d="M24.0001 24L23.0581 -11.988L23.3718 -11.9949L24.0001 24Z" fill="#FA0CF8" stroke="#FA0CF8" stroke-width="0.02"/>
<path d="M23.9999 23.9999L23.3716 -11.995L23.6862 -11.9993L24.0007 23.999L23.9999 23.9999Z" fill="#FA0BF9" stroke="#FA0BF9" stroke-width="0.02"/>
<path d="M24.0001 23.9998L23.6863 -11.9985L24.0009 -12.0002V23.9998H24.0001Z" fill="#FA0AFA" stroke="#FA0AFA" stroke-width="0.02"/>
</g>
</g>
<path d="M20.6465 30.7678C20.8417 30.9631 21.1583 30.9631 21.3536 30.7678L33.7678 18.3536C33.9631 18.1583 33.9631 17.8417 33.7678 17.6465L32.3536 16.2323C32.2598 16.1385 32.1326 16.0858 32 16.0858C31.8674 16.0858 31.7402 16.1385 31.6465 16.2323L21 26.8787L16.3536 22.2323C16.2598 22.1385 16.1326 22.0858 16 22.0858C15.8674 22.0858 15.7402 22.1385 15.6465 22.2323L14.2323 23.6465C14.1385 23.7402 14.0858 23.8674 14.0858 24C14.0858 24.1326 14.1385 24.2598 14.2323 24.3536L20.6465 30.7678Z" fill="white" stroke="white" stroke-linecap="round" stroke-linejoin="round"/>
<defs>
<clipPath id="clip0_291_5242">
<rect width="48" height="48" fill="white"/>
</clipPath>
</defs>
</svg>
