<svg width="current" height="current" viewBox="0 0 24 24" fill="none" xmlns="http://www.w3.org/2000/svg">
<path d="M8.64648 18.7679C8.84174 18.9632 9.15832 18.9632 9.35358 18.7679L21.7678 6.3537C21.9631 6.15844 21.9631 5.84186 21.7678 5.6466L20.3536 4.23238C20.2598 4.13862 20.1326 4.08594 20 4.08594C19.8674 4.08594 19.7402 4.13862 19.6465 4.23238L9.00003 14.8788L4.35358 10.2324C4.25981 10.1386 4.13264 10.0859 4.00003 10.0859C3.86742 10.0859 3.74024 10.1386 3.64648 10.2324L2.23226 11.6466C2.13849 11.7404 2.08582 11.8675 2.08582 12.0002C2.08582 12.1328 2.13849 12.2599 2.23226 12.3537L8.64648 18.7679Z" fill="white" stroke="white" stroke-linecap="round" stroke-linejoin="round"/>
</svg>
