<svg width="122" height="32" viewBox="0 0 122 32" fill="none" xmlns="http://www.w3.org/2000/svg">
<path fill-rule="evenodd" clip-rule="evenodd" d="M33.9544 20.6208C32.4551 19.5909 30.1566 20.1388 28.7255 18.3034C28.7255 18.3034 28.1927 17.7226 29.3915 16.3064C30.5903 14.8903 30.6894 12.6358 30.3921 10.8963C30.0916 9.15673 28.3941 7.99805 26.6284 7.99805C24.8627 7.99805 23.1652 9.15673 22.8647 10.8963C22.5643 12.6358 22.6634 14.8873 23.8653 16.3064C25.0672 17.7256 24.5313 18.3034 24.5313 18.3034C23.1002 20.1388 20.8017 19.5909 19.3024 20.6208C17.7969 21.6507 18.1656 24.001 18.1656 24.001H35.085C35.085 24.001 35.4506 21.6507 33.9513 20.6208H33.9544Z" fill="#B5D0DE"/>
<path d="M48.7861 10.1855C50.6729 10.1855 52.1084 11.3613 52.1084 13.0293C52.1084 14.6699 50.6729 15.8594 48.7861 15.8594C46.8584 15.8594 45.4365 14.6699 45.4365 13.0293C45.4365 11.3613 46.8584 10.1855 48.7861 10.1855ZM48.7861 11.6074C47.8291 11.6074 47.1182 12.127 47.1318 13.0293C47.1182 13.918 47.8291 14.4512 48.7861 14.4512C49.7295 14.4512 50.4268 13.918 50.4268 13.0293C50.4268 12.127 49.7295 11.6074 48.7861 11.6074ZM55.6631 9.81641V16.0508H53.9131V9.81641H55.6631ZM55.6631 16.5703V19.9473H49.0459V20.7539H56.0049V22.1211H47.3369V18.6758H53.9268V17.9102H47.3096V16.5703H55.6631ZM67.2158 9.83008V13.3301H68.8975V14.7656H67.2158V18.9902H65.4658V9.83008H67.2158ZM67.667 20.6445V22.0391H59.1494V18.0469H60.8857V20.6445H67.667ZM59.4502 10.7051V12.5098H61.9932V10.7051H63.7432V17.0078H57.7139V10.7051H59.4502ZM59.4502 15.6406H61.9932V13.8496H59.4502V15.6406ZM76.417 10.7188V11.498C76.417 12.3594 76.417 13.6035 76.1299 15.1484L74.4209 14.9844C74.6396 13.7881 74.6943 12.8857 74.708 12.1406H70.0186V10.7188H76.417ZM73.3271 13.5898V15.9688C74.5645 15.9209 75.8359 15.8252 77.0049 15.6543L77.1006 16.9121C74.5166 17.3906 71.5908 17.4316 69.4307 17.4453L69.2803 16.0508C69.9775 16.0508 70.7637 16.0508 71.5908 16.0234V13.5898H73.3271ZM79.4658 9.81641V13.6035H80.9697V15.0664H79.4658V19.127H77.6748V9.81641H79.4658ZM79.8486 20.6445V22.0391H71.1123V18.293H72.8623V20.6445H79.8486ZM91.9756 9.81641V22.2852H90.2393V9.81641H91.9756ZM88.1201 10.8555V15.6543H84.0186V17.9375C85.9121 17.9307 87.5254 17.8213 89.3506 17.5273L89.501 18.9355C87.4502 19.291 85.6045 19.373 83.335 19.373H82.2139V14.2734H86.3428V12.2637H82.2002V10.8555H88.1201ZM98.2373 13.207C98.2236 15.1074 99.2354 17.2949 101.286 18.2383L100.315 19.6055C98.9277 18.9697 97.9365 17.6982 97.3896 16.2012C96.8291 17.8486 95.8105 19.2432 94.3682 19.9199L93.3564 18.5391C95.4346 17.5684 96.4736 15.2578 96.4873 13.207V12.4414H93.8486V11.0195H100.739V12.4414H98.2373V13.207ZM103.46 9.81641V14.5605H105.292V16.0234H103.46V22.2578H101.71V9.81641H103.46Z" fill="#737F8F"/>
</svg>
