<svg width="current" height="current" viewBox="0 0 200 200" fill="none" xmlns="http://www.w3.org/2000/svg">
<circle cx="100" cy="100" r="100" fill="#F0F5FC"/>
<path d="M102.33 103.369C116.208 103.369 127.5 92.0214 127.5 78.0749C127.5 76.1912 127.291 74.3095 126.88 72.4811C126.724 71.7881 126.146 71.2721 125.444 71.1965C124.549 71.1007 123.645 71.0527 122.755 71.0527C114.686 71.0527 107.049 74.984 102.325 81.5712C101.941 82.1057 101.921 82.7913 102.216 83.335L102.163 83.3645C102.163 83.3645 104.929 87.4782 105.452 93.0277L102.413 96.607C102.413 96.5204 102.413 96.4337 102.413 96.3471C102.413 82.4006 91.1225 71.0527 77.2427 71.0527C76.3532 71.0527 75.4491 71.1007 74.5541 71.1965C73.8517 71.2721 73.274 71.7881 73.1181 72.4811C72.7091 74.3095 72.5 76.1912 72.5 78.0749C72.5 92.0214 83.792 103.369 97.6699 103.369C98.0275 103.369 98.3888 103.362 98.7501 103.345V120.552C96.2577 121.146 94.1871 123.051 93.4462 125.588C93.1894 126.467 93.6901 127.388 94.5649 127.646C94.5649 127.646 99.9202 130.575 106.237 127.646C107.111 127.388 107.612 126.467 107.355 125.588C106.614 123.051 104.544 121.146 102.051 120.552V103.345C102.141 103.36 102.233 103.369 102.328 103.369H102.33Z" fill="#C2D6E1"/>
</svg>
