<svg width="current" height="current" viewBox="0 0 57 56" fill="none" xmlns="http://www.w3.org/2000/svg">
<path d="M30.1734 30.4201C40.1403 30.4201 48.25 22.2703 48.25 12.2541C48.25 10.9013 48.0998 9.54985 47.8048 8.23678C47.6928 7.73908 47.2779 7.36845 46.7735 7.31418C46.1307 7.24535 45.4813 7.21094 44.8425 7.21094C39.0471 7.21094 33.5625 10.0343 30.1695 14.7651C29.8942 15.149 29.8797 15.6414 30.0918 16.0318L30.0536 16.053C30.0536 16.053 32.0398 19.0074 32.4152 22.993L30.2327 25.5635C30.2327 25.5013 30.2327 25.4391 30.2327 25.3769C30.2327 15.3607 22.1243 7.21094 12.1561 7.21094C11.5173 7.21094 10.868 7.24535 10.2252 7.31418C9.72074 7.36845 9.30584 7.73908 9.19388 8.23678C8.90016 9.54985 8.75 10.9013 8.75 12.2541C8.75 22.2703 16.8597 30.4201 26.8266 30.4201C27.0834 30.4201 27.3429 30.4148 27.6024 30.4029V42.7606C25.8124 43.1868 24.3253 44.5555 23.7932 46.3768C23.6088 47.0082 23.9683 47.6701 24.5966 47.8554C24.5966 47.8554 28.4427 49.9587 32.979 47.8554C33.6072 47.6701 33.9668 47.0082 33.7824 46.3768C33.2503 44.5555 31.7632 43.1868 29.9732 42.7606V30.4029C30.0378 30.4135 30.1036 30.4201 30.1721 30.4201H30.1734Z" fill="#D9E2E7"/>
</svg>
