<svg width="current" height="current" viewBox="0 0 48 48" fill="none" xmlns="http://www.w3.org/2000/svg">
<circle cx="23.5" cy="23.5" r="23.5" fill="#89B9F5"/>
<g clip-path="url(#clip0_359_13388)">
<mask id="mask0_359_13388" style="mask-type:luminance" maskUnits="userSpaceOnUse" x="0" y="0" width="48" height="48">
<path d="M24 48C37.2548 48 48 37.2548 48 24C48 10.7452 37.2548 0 24 0C10.7452 0 0 10.7452 0 24C0 37.2548 10.7452 48 24 48Z" fill="white"/>
</mask>
<g mask="url(#mask0_359_13388)">
<path d="M23.9999 24V-12L24.3144 -11.9983L23.9999 24Z" fill="#F90BFA" stroke="#F90BFA" stroke-width="0.02"/>
<path d="M24 24.0002L24.3146 -11.998L24.6291 -11.9938L24.0009 24.0011L24 24.0002Z" fill="#F80CFA" stroke="#F80CFA" stroke-width="0.02"/>
<path d="M24 23.9997L24.6283 -11.9951L24.942 -11.9883L24 23.9997Z" fill="#F70DFA" stroke="#F70DFA" stroke-width="0.02"/>
<path d="M23.9999 23.9997L24.9419 -11.9883L25.2556 -11.9789L23.999 23.9989L23.9999 23.9997Z" fill="#F60EFA" stroke="#F60EFA" stroke-width="0.02"/>
<path d="M24 24.0002L25.2566 -11.9775L25.5703 -11.9655L24 24.0002Z" fill="#F50FFA" stroke="#F50FFA" stroke-width="0.02"/>
<path d="M24 23.9999L25.5703 -11.9658L25.884 -11.9504L24 23.9999Z" fill="#F410FA" stroke="#F410FA" stroke-width="0.02"/>
<path d="M24 24.0001L25.884 -11.9502L26.1977 -11.9322L24 24.0009V24.0001Z" fill="#F311FA" stroke="#F311FA" stroke-width="0.02"/>
<path d="M24 23.9995L26.1977 -11.9336L26.5114 -11.913L24 23.9995Z" fill="#F212FA" stroke="#F212FA" stroke-width="0.02"/>
<path d="M24 23.9995L26.5114 -11.9131L26.8251 -11.8899L24.0009 23.9995H24Z" fill="#F113FA" stroke="#F113FA" stroke-width="0.02"/>
<path d="M23.9999 23.9998L26.8242 -11.8896L27.137 -11.8639L23.999 23.9989L23.9999 23.9998Z" fill="#F014FA" stroke="#F014FA" stroke-width="0.02"/>
<path d="M24 23.9996L27.138 -11.8633L27.4509 -11.835L24.0009 23.9996H24Z" fill="#EF15FA" stroke="#EF15FA" stroke-width="0.02"/>
<path d="M24 24.0006L27.45 -11.834L27.7629 -11.8023L24 24.0006Z" fill="#EE16FA" stroke="#EE16FA" stroke-width="0.02"/>
<path d="M24 24.0001L27.7629 -11.8027L28.0749 -11.7684L24 24.0001Z" fill="#ED17FA" stroke="#ED17FA" stroke-width="0.02"/>
<path d="M23.9999 24L28.0747 -11.7686L28.3867 -11.7317L23.999 24H23.9999Z" fill="#EC18FA" stroke="#EC18FA" stroke-width="0.02"/>
<path d="M24 24.0003L28.3877 -11.7314L28.6997 -11.692L24.0009 24.0003H24Z" fill="#EB19FA" stroke="#EB19FA" stroke-width="0.02"/>
<path d="M24 23.9999L28.6989 -11.6924L29.01 -11.6495L24 23.9999Z" fill="#EA1AFA" stroke="#EA1AFA" stroke-width="0.02"/>
<path d="M24 24L29.01 -11.6494L29.3211 -11.604L24 24.0009V24Z" fill="#E91BFA" stroke="#E91BFA" stroke-width="0.02"/>
<path d="M24 23.9994L29.3211 -11.6055L29.6314 -11.5575L24 23.9994Z" fill="#E81CFA" stroke="#E81CFA" stroke-width="0.02"/>
<path d="M24 24.0002L29.6314 -11.5566L29.9417 -11.5061L24 24.0002Z" fill="#E71DFA" stroke="#E71DFA" stroke-width="0.02"/>
<path d="M24 24.0004L29.9417 -11.5059L30.2511 -11.4527L24 24.0004Z" fill="#E61EFA" stroke="#E61EFA" stroke-width="0.02"/>
<path d="M24 24L30.2511 -11.4531L30.5606 -11.3974L24 24Z" fill="#E51FFA" stroke="#E51FFA" stroke-width="0.02"/>
<path d="M24 24L30.5606 -11.3975L30.8691 -11.3392L24 23.9991V24Z" fill="#E420FA" stroke="#E420FA" stroke-width="0.02"/>
<path d="M24 23.9994L30.8691 -11.3389L31.1769 -11.278L24 23.9994Z" fill="#E321FA" stroke="#E321FA" stroke-width="0.02"/>
<path d="M24 24.0001L31.1769 -11.2773L31.4846 -11.2131L24 24.0001Z" fill="#E222FA" stroke="#E222FA" stroke-width="0.02"/>
<path d="M24 24.0003L31.4846 -11.2129L31.7914 -11.146L24 24.0003Z" fill="#E123FA" stroke="#E123FA" stroke-width="0.02"/>
<path d="M24 24.0008L31.7914 -11.1455L32.0983 -11.0761L24 24.0016V24.0008Z" fill="#E024FA" stroke="#E024FA" stroke-width="0.02"/>
<path d="M24 23.9996L32.0983 -11.0781L32.4043 -11.0061L24 23.9996Z" fill="#DF25FA" stroke="#DF25FA" stroke-width="0.02"/>
<path d="M24 23.9999L32.4043 -11.0059L32.7094 -10.9313L24 23.999V23.9999Z" fill="#DE26FA" stroke="#DE26FA" stroke-width="0.02"/>
<path d="M24 23.9996L32.7094 -10.9307L33.0137 -10.8535L24 23.9996Z" fill="#DD27FA" stroke="#DD27FA" stroke-width="0.02"/>
<path d="M24 24.0006L33.0137 -10.8525L33.3171 -10.7728L24 24.0006Z" fill="#DC28FA" stroke="#DC28FA" stroke-width="0.02"/>
<path d="M24 24L33.3171 -10.7734L33.6206 -10.6912L24 23.9991V24Z" fill="#DB29FA" stroke="#DB29FA" stroke-width="0.02"/>
<path d="M24 23.9999L33.6206 -10.6904L33.9231 -10.6056L24 23.9999Z" fill="#DA2AFA" stroke="#DA2AFA" stroke-width="0.02"/>
<path d="M24 24L33.9231 -10.6055L34.2249 -10.5172L24 24Z" fill="#D92BFA" stroke="#D92BFA" stroke-width="0.02"/>
<path d="M24 24.0005L34.2249 -10.5166L34.5257 -10.4257L24 24.0014V24.0005Z" fill="#D82CFA" stroke="#D82CFA" stroke-width="0.02"/>
<path d="M24 23.9994L34.5257 -10.4277L34.8257 -10.3343L24 23.9994Z" fill="#D72DFA" stroke="#D72DFA" stroke-width="0.02"/>
<path d="M24 23.9997L34.8257 -10.334L35.1249 -10.238L24 23.9997Z" fill="#D62EFA" stroke="#D62EFA" stroke-width="0.02"/>
<path d="M24 24.0004L35.1249 -10.2373L35.4231 -10.1387L24 24.0013V24.0004Z" fill="#D52FFA" stroke="#D52FFA" stroke-width="0.02"/>
<path d="M24 23.9994L35.4231 -10.1406L35.7206 -10.0395L24 23.9994Z" fill="#D430FA" stroke="#D430FA" stroke-width="0.02"/>
<path d="M24 24.0008L35.7206 -10.0381L36.0171 -9.93437L24 24.0008Z" fill="#D331FA" stroke="#D331FA" stroke-width="0.02"/>
<path d="M24 23.9996L36.0171 -9.93555L36.3129 -9.82926L24 23.9996Z" fill="#D232FA" stroke="#D232FA" stroke-width="0.02"/>
<path d="M24 23.9998L36.3129 -9.8291L36.6077 -9.72024L24 23.9998Z" fill="#D133FA" stroke="#D133FA" stroke-width="0.02"/>
<path d="M24 24.0003L36.6077 -9.71973L36.9017 -9.6083L24.0009 24.0003H24Z" fill="#D034FA" stroke="#D034FA" stroke-width="0.02"/>
<path d="M24 24.0002L36.9009 -9.6084L37.194 -9.4944L24 24.001V24.0002Z" fill="#CF35FA" stroke="#CF35FA" stroke-width="0.02"/>
<path d="M24 24.0003L37.194 -9.49512L37.4854 -9.37855L24 24.0003Z" fill="#CE36FA" stroke="#CE36FA" stroke-width="0.02"/>
<path d="M24 24.0009L37.4863 -9.37793L37.7769 -9.25879L24 24.0009Z" fill="#CD37FA" stroke="#CD37FA" stroke-width="0.02"/>
<path d="M24 24L37.7769 -9.25977L38.0666 -9.13805L24 24Z" fill="#CC38FA" stroke="#CC38FA" stroke-width="0.02"/>
<path d="M24 24.0003L38.0666 -9.1377L38.3554 -9.01341L24.0009 24.0003H24Z" fill="#CB39FA" stroke="#CB39FA" stroke-width="0.02"/>
<path d="M23.9999 24L38.3544 -9.01367L38.6416 -8.88681L23.999 24.0009L23.9999 24Z" fill="#CA3AFA" stroke="#CA3AFA" stroke-width="0.02"/>
<path d="M24 24L38.6426 -8.8877L38.9289 -8.75827L24 24Z" fill="#C93BFA" stroke="#C93BFA" stroke-width="0.02"/>
<path d="M24 24.0005L38.9289 -8.75781L39.2143 -8.62667L24 24.0005Z" fill="#C83CFA" stroke="#C83CFA" stroke-width="0.02"/>
<path d="M24 24.0002L39.2143 -8.62695L39.498 -8.49324L24 24.0002Z" fill="#C73DFA" stroke="#C73DFA" stroke-width="0.02"/>
<path d="M23.9999 24.0003L39.4979 -8.49316L39.7807 -8.35688L23.999 23.9994L23.9999 24.0003Z" fill="#C63EFA" stroke="#C63EFA" stroke-width="0.02"/>
<path d="M24 24.0008L39.7817 -8.35547L40.0637 -8.21661L24.0009 24.0008H24Z" fill="#C53FFA" stroke="#C53FFA" stroke-width="0.02"/>
<path d="M23.9999 23.9997L40.0627 -8.21777L40.343 -8.07634L23.999 23.9997H23.9999Z" fill="#C440FA" stroke="#C440FA" stroke-width="0.02"/>
<path d="M24 23.9998L40.344 -8.07617L40.6234 -7.93217L24.0009 23.9998H24Z" fill="#C341FA" stroke="#C341FA" stroke-width="0.02"/>
<path d="M23.9999 24.0004L40.6225 -7.93164L40.9002 -7.78507L23.999 24.0012L23.9999 24.0004Z" fill="#C242FA" stroke="#C242FA" stroke-width="0.02"/>
<path d="M24 24.0002L40.9011 -7.78613L41.178 -7.63785L24 23.9993V24.0002Z" fill="#C143FA" stroke="#C143FA" stroke-width="0.02"/>
<path d="M24 24.0004L41.178 -7.63672L41.4531 -7.48586L24 24.0004Z" fill="#C044FA" stroke="#C044FA" stroke-width="0.02"/>
<path d="M24 24.0009L41.4531 -7.48535L41.7274 -7.33192L24 24.0009Z" fill="#BF45FA" stroke="#BF45FA" stroke-width="0.02"/>
<path d="M24 23.9999L41.7274 -7.33301L42 -7.17701L24 23.9999Z" fill="#BE46FA" stroke="#BE46FA" stroke-width="0.02"/>
<path d="M24 24.0001L42 -7.17676L42.2717 -7.01819L24 24.0001Z" fill="#BD47FA" stroke="#BD47FA" stroke-width="0.02"/>
<path d="M24 24.0007L42.2717 -7.01758L42.5417 -6.85729L24 24.0007Z" fill="#BC48FA" stroke="#BC48FA" stroke-width="0.02"/>
<path d="M24 23.9996L42.5417 -6.8584L42.81 -6.69554L24 23.9996Z" fill="#BB49FA" stroke="#BB49FA" stroke-width="0.02"/>
<path d="M24 24.0008L42.81 -6.69434L43.0774 -6.52891L24 24.0008Z" fill="#BA4AFA" stroke="#BA4AFA" stroke-width="0.02"/>
<path d="M24 24.0004L43.0774 -6.5293L43.3431 -6.3613L24 24.0004Z" fill="#B94BFA" stroke="#B94BFA" stroke-width="0.02"/>
<path d="M24 24.0004L43.3431 -6.36133L43.6071 -6.19161L24 24.0004Z" fill="#B84CFA" stroke="#B84CFA" stroke-width="0.02"/>
<path d="M24 24.0006L43.6071 -6.19141L43.8703 -6.01912L24.0009 24.0006H24Z" fill="#B74DFA" stroke="#B74DFA" stroke-width="0.02"/>
<path d="M24 24.0002L43.8694 -6.01953L44.1309 -5.84467L24 24.001V24.0002Z" fill="#B64EFA" stroke="#B64EFA" stroke-width="0.02"/>
<path d="M24 24L44.1309 -5.8457L44.3906 -5.66913L24 23.9992V24Z" fill="#B54FFA" stroke="#B54FFA" stroke-width="0.02"/>
<path d="M24 24.0003L44.3906 -5.66797L44.6486 -5.48883L24 24.0003Z" fill="#B450FA" stroke="#B450FA" stroke-width="0.02"/>
<path d="M23.9999 23.9999L44.6485 -5.48926L44.9047 -5.30754L23.999 24.0007L23.9999 23.9999Z" fill="#B351FA" stroke="#B351FA" stroke-width="0.02"/>
<path d="M24 23.9997L44.9057 -5.30859L45.1603 -5.12517L24 23.9997Z" fill="#B252FA" stroke="#B252FA" stroke-width="0.02"/>
<path d="M24 24.0008L45.1603 -5.12402L45.414 -4.93802L24 24.0008Z" fill="#B153FA" stroke="#B153FA" stroke-width="0.02"/>
<path d="M24 24.0004L45.414 -4.93848L45.666 -4.75076L24.0009 24.0004H24Z" fill="#B054FA" stroke="#B054FA" stroke-width="0.02"/>
<path d="M24 24.0002L45.6651 -4.75098L45.9154 -4.56069L24 24.0002Z" fill="#AF55FA" stroke="#AF55FA" stroke-width="0.02"/>
<path d="M24 24.0003L45.9154 -4.56055L46.164 -4.36855L24 23.9995V24.0003Z" fill="#AE56FA" stroke="#AE56FA" stroke-width="0.02"/>
<path d="M24 23.9998L46.164 -4.36816L46.4109 -4.17359L24 24.0007V23.9998Z" fill="#AD57FA" stroke="#AD57FA" stroke-width="0.02"/>
<path d="M24 23.9995L46.4109 -4.1748L46.656 -3.97852L24.0009 23.9986L24 23.9995Z" fill="#AC58FA" stroke="#AC58FA" stroke-width="0.02"/>
<path d="M24 24.0006L46.6551 -3.97656L46.8986 -3.77771L24 24.0006Z" fill="#AB59FA" stroke="#AB59FA" stroke-width="0.02"/>
<path d="M24 24L46.8986 -3.77832L47.1403 -3.57775L24 24Z" fill="#AA5AFA" stroke="#AA5AFA" stroke-width="0.02"/>
<path d="M24 24.0006L47.1403 -3.57715L47.3803 -3.37401L24 24.0006Z" fill="#A95BFA" stroke="#A95BFA" stroke-width="0.02"/>
<path d="M24 23.9996L47.3803 -3.375L47.6186 -3.17014L24.0009 23.9996H24Z" fill="#A85CFA" stroke="#A85CFA" stroke-width="0.02"/>
<path d="M24 23.9998L47.6177 -3.16992L47.8543 -2.96249L24 23.9998Z" fill="#A75DFA" stroke="#A75DFA" stroke-width="0.02"/>
<path d="M23.9999 24.0004L47.8542 -2.96191L48.0882 -2.75277L23.999 24.0004H23.9999Z" fill="#A65EFA" stroke="#A65EFA" stroke-width="0.02"/>
<path d="M24 24.0002L48.0891 -2.75293L48.3214 -2.54207L24 24.0002Z" fill="#A55FFA" stroke="#A55FFA" stroke-width="0.02"/>
<path d="M24 24.0003L48.3214 -2.54199L48.552 -2.32856L24 24.0003Z" fill="#A460FA" stroke="#A460FA" stroke-width="0.02"/>
<path d="M24 23.9998L48.552 -2.3291L48.7809 -2.11396L24 23.9998Z" fill="#A361FA" stroke="#A361FA" stroke-width="0.02"/>
<path d="M24 24.0004L48.7809 -2.11328L49.008 -1.89642L24 23.9996V24.0004Z" fill="#A262FA" stroke="#A262FA" stroke-width="0.02"/>
<path d="M24 24.0005L49.008 -1.89551L49.2326 -1.67608L24 24.0014V24.0005Z" fill="#A163FA" stroke="#A163FA" stroke-width="0.02"/>
<path d="M24 23.9997L49.2326 -1.67773L49.4554 -1.45659L24 23.9988V23.9997Z" fill="#A064FA" stroke="#A064FA" stroke-width="0.02"/>
<path d="M23.9999 24.0003L49.4553 -1.45508L49.6765 -1.23222L23.999 24.0003H23.9999Z" fill="#9F65FA" stroke="#9F65FA" stroke-width="0.02"/>
<path d="M24 24.0002L49.6774 -1.23242L49.8969 -1.00785L24.0009 24.0002H24Z" fill="#9E66FA" stroke="#9E66FA" stroke-width="0.02"/>
<path d="M23.9999 24.0002L49.8959 -1.00781L50.1127 -0.78067L23.999 24.0002H23.9999Z" fill="#9D67FA" stroke="#9D67FA" stroke-width="0.02"/>
<path d="M24 24.0006L50.1137 -0.780273L50.3289 -0.551415L24 24.0006Z" fill="#9C68FA" stroke="#9C68FA" stroke-width="0.02"/>
<path d="M24 24.0002L50.3289 -0.551758L50.5423 -0.321187L24 24.0002Z" fill="#9B69FA" stroke="#9B69FA" stroke-width="0.02"/>
<path d="M24 24.0001L50.5423 -0.321289L50.7531 -0.0890028L24 24.0001Z" fill="#9A6AFA" stroke="#9A6AFA" stroke-width="0.02"/>
<path d="M24 24.0003L50.7531 -0.0888672L50.9623 0.145132L24 23.9994V24.0003Z" fill="#996BFA" stroke="#996BFA" stroke-width="0.02"/>
<path d="M24 24.0008L50.9623 0.146484L51.1697 0.383055L24 24.0008Z" fill="#986CFA" stroke="#986CFA" stroke-width="0.02"/>
<path d="M24 24.0005L51.1697 0.382812L51.3746 0.621098L24 24.0014V24.0005Z" fill="#976DFA" stroke="#976DFA" stroke-width="0.02"/>
<path d="M24 24.0004L51.3746 0.620117L51.5777 0.860116L24 24.0004Z" fill="#966EFA" stroke="#966EFA" stroke-width="0.02"/>
<path d="M24 23.9997L51.5777 0.859375L51.7783 1.10109L24 23.9997Z" fill="#956FFA" stroke="#956FFA" stroke-width="0.02"/>
<path d="M24 24.0001L51.7783 1.10156L51.9771 1.34499L24 24.0001Z" fill="#9470FA" stroke="#9470FA" stroke-width="0.02"/>
<path d="M23.9999 24.0008L51.977 1.3457L52.1733 1.59085L23.999 24.0017L23.9999 24.0008Z" fill="#9371FA" stroke="#9371FA" stroke-width="0.02"/>
<path d="M24 23.9997L52.1743 1.58887L52.3689 1.83572L24.0009 23.9997H24Z" fill="#9272FA" stroke="#9272FA" stroke-width="0.02"/>
<path d="M23.9999 23.9999L52.3679 1.83594L52.5599 2.08451L23.999 23.9999H23.9999Z" fill="#9173FA" stroke="#9173FA" stroke-width="0.02"/>
<path d="M24 24.0004L52.5609 2.08496L52.7511 2.33525L24 24.0004Z" fill="#9074FA" stroke="#9074FA" stroke-width="0.02"/>
<path d="M24 24.0001L52.7511 2.33496L52.9389 2.58696L24 24.001V24.0001Z" fill="#8F75FA" stroke="#8F75FA" stroke-width="0.02"/>
<path d="M24 23.9999L52.9389 2.58594L53.1249 2.83965L24 23.9999Z" fill="#8E76FA" stroke="#8E76FA" stroke-width="0.02"/>
<path d="M24 24.0001L53.1249 2.83984L53.3083 3.09442L24 24.0001Z" fill="#8D77FA" stroke="#8D77FA" stroke-width="0.02"/>
<path d="M24 24.0004L53.3083 3.09473L53.49 3.35101L24.0009 23.9996L24 24.0004Z" fill="#8C78FA" stroke="#8C78FA" stroke-width="0.02"/>
<path d="M24 24.0001L53.4891 3.35156L53.6683 3.60956L24 24.0001Z" fill="#8B79FA" stroke="#8B79FA" stroke-width="0.02"/>
<path d="M23.9999 24.0009L53.6682 3.61035L53.8447 3.87007L23.999 24.0009H23.9999Z" fill="#8A7AFA" stroke="#8A7AFA" stroke-width="0.02"/>
<path d="M24 24L53.8457 3.86914L54.0206 4.13057L24.0009 24H24Z" fill="#897BFA" stroke="#897BFA" stroke-width="0.02"/>
<path d="M24 24.0003L54.0197 4.13086L54.192 4.394L24 24.0011V24.0003Z" fill="#887CFA" stroke="#887CFA" stroke-width="0.02"/>
<path d="M24 23.9997L54.192 4.39258L54.3617 4.65658L24 23.9997Z" fill="#877DFA" stroke="#877DFA" stroke-width="0.02"/>
<path d="M24 24.0004L54.3617 4.65723L54.5297 4.92294L24 24.0004Z" fill="#867EFA" stroke="#867EFA" stroke-width="0.02"/>
<path d="M24 24.0003L54.5297 4.92285L54.6951 5.19028L24 24.0003Z" fill="#857FFA" stroke="#857FFA" stroke-width="0.02"/>
<path d="M24 24.0004L54.6951 5.19043L54.858 5.45872L24 24.0004Z" fill="#8480FA" stroke="#8480FA" stroke-width="0.02"/>
<path d="M24 24.0007L54.858 5.45898L55.0183 5.72898L24 24.0007Z" fill="#8381FA" stroke="#8381FA" stroke-width="0.02"/>
<path d="M24 24.0002L55.0183 5.72852L55.1769 6.00023L24 24.0002Z" fill="#8282FA" stroke="#8282FA" stroke-width="0.02"/>
<path d="M24 24L55.1769 6L55.3329 6.27257L24 24Z" fill="#8183FA" stroke="#8183FA" stroke-width="0.02"/>
<path d="M24 24.0009L55.3329 6.27344L55.4863 6.54772L24 24.0009Z" fill="#8084FA" stroke="#8084FA" stroke-width="0.02"/>
<path d="M24 24L55.4863 6.54688L55.6371 6.82202L24 24Z" fill="#7F85FA" stroke="#7F85FA" stroke-width="0.02"/>
<path d="M23.9999 24.0003L55.637 6.82227L55.7853 7.09912L23.999 24.0003H23.9999Z" fill="#7E86FA" stroke="#7E86FA" stroke-width="0.02"/>
<path d="M24 24.0008L55.7863 7.09961L55.9329 7.37732L24.0009 23.9999L24 24.0008Z" fill="#7D87FA" stroke="#7D87FA" stroke-width="0.02"/>
<path d="M24 24.0005L55.932 7.37793L56.076 7.65736L24 24.0014V24.0005Z" fill="#7C88FA" stroke="#7C88FA" stroke-width="0.02"/>
<path d="M24 24.0002L56.076 7.65625L56.2174 7.93654L24 23.9994V24.0002Z" fill="#7B89FA" stroke="#7B89FA" stroke-width="0.02"/>
<path d="M24 24.0004L56.2174 7.9375L56.3563 8.2195L24 24.0012V24.0004Z" fill="#7A8AFA" stroke="#7A8AFA" stroke-width="0.02"/>
<path d="M23.9999 24.0005L56.3562 8.21875L56.4925 8.50161L23.999 23.9996L23.9999 24.0005Z" fill="#798BFA" stroke="#798BFA" stroke-width="0.02"/>
<path d="M24 24L56.4934 8.50195L56.6271 8.78567L24 24Z" fill="#788CFA" stroke="#788CFA" stroke-width="0.02"/>
<path d="M24 24.0004L56.6271 8.78613L56.7583 9.07156L24 24.0004Z" fill="#778DFA" stroke="#778DFA" stroke-width="0.02"/>
<path d="M24 24.0001L56.7583 9.07129L56.8877 9.35757L24 24.0001Z" fill="#768EFA" stroke="#768EFA" stroke-width="0.02"/>
<path d="M24 24L56.8877 9.35742L57.0146 9.64457L24 23.9991V24Z" fill="#758FFA" stroke="#758FFA" stroke-width="0.02"/>
<path d="M24 24.0001L57.0146 9.64551L57.1389 9.93437L24.0009 24.0009L24 24.0001Z" fill="#7490FA" stroke="#7490FA" stroke-width="0.02"/>
<path d="M24 24.0002L57.138 9.93359L57.2597 10.2233L24 24.0002Z" fill="#7391FA" stroke="#7391FA" stroke-width="0.02"/>
<path d="M24 24.0005L57.2597 10.2236L57.3789 10.5142L24 23.9996V24.0005Z" fill="#7292FA" stroke="#7292FA" stroke-width="0.02"/>
<path d="M24 24.0001L57.3789 10.5146L57.4954 10.8061L24 24.0001Z" fill="#7193FA" stroke="#7193FA" stroke-width="0.02"/>
<path d="M24 24.0006L57.4954 10.8066L57.6094 11.0998L24.0009 24.0006H24Z" fill="#7094FA" stroke="#7094FA" stroke-width="0.02"/>
<path d="M24 24.0005L57.6086 11.0996L57.72 11.3936L24 24.0013V24.0005Z" fill="#6F95FA" stroke="#6F95FA" stroke-width="0.02"/>
<path d="M24 24.0003L57.72 11.3926L57.8289 11.6874L24 24.0003Z" fill="#6E96FA" stroke="#6E96FA" stroke-width="0.02"/>
<path d="M24 24.0004L57.8289 11.6875L57.9351 11.9832L24 24.0004Z" fill="#6D97FA" stroke="#6D97FA" stroke-width="0.02"/>
<path d="M24 24.0005L57.9351 11.9834L58.0389 12.28L24 24.0005Z" fill="#6C98FA" stroke="#6C98FA" stroke-width="0.02"/>
<path d="M24 24.0008L58.0389 12.2803L58.14 12.5777L24 24.0008Z" fill="#6B99FA" stroke="#6B99FA" stroke-width="0.02"/>
<path d="M24 24.0003L58.14 12.5771L58.2386 12.8754L24.0009 24.0003H24Z" fill="#6A9AFA" stroke="#6A9AFA" stroke-width="0.02"/>
<path d="M24 23.9999L58.2377 12.875L58.3337 13.1741L24 23.9999Z" fill="#699BFA" stroke="#699BFA" stroke-width="0.02"/>
<path d="M24 23.9995L58.3337 13.1738L58.4271 13.4738L24 23.9995Z" fill="#689CFA" stroke="#689CFA" stroke-width="0.02"/>
<path d="M24 24.0003L58.4271 13.4746L58.518 13.7755L24.0009 24.0003H24Z" fill="#679DFA" stroke="#679DFA" stroke-width="0.02"/>
<path d="M24 24.0002L58.5171 13.7754L58.6054 14.0771L24 24.0002Z" fill="#669EFA" stroke="#669EFA" stroke-width="0.02"/>
<path d="M24 24.0003L58.6054 14.0771L58.6903 14.3797L24 24.0003Z" fill="#659FFA" stroke="#659FFA" stroke-width="0.02"/>
<path d="M23.9999 24.0005L58.6902 14.3799L58.7725 14.6833L23.999 24.0005H23.9999Z" fill="#64A0FA" stroke="#64A0FA" stroke-width="0.02"/>
<path d="M24 23.9998L58.7734 14.6826L58.8531 14.986L24 23.9998Z" fill="#63A1FA" stroke="#63A1FA" stroke-width="0.02"/>
<path d="M24 24L58.8531 14.9863L58.9303 15.2906L24 24Z" fill="#62A2FA" stroke="#62A2FA" stroke-width="0.02"/>
<path d="M23.9999 24.0004L58.9302 15.291L59.0047 15.5962L23.999 24.0004H23.9999Z" fill="#61A3FA" stroke="#61A3FA" stroke-width="0.02"/>
<path d="M24 24L59.0057 15.5957L59.0777 15.9017L24 24Z" fill="#60A4FA" stroke="#60A4FA" stroke-width="0.02"/>
<path d="M24 23.9997L59.0777 15.9014L59.1471 16.2082L24.0009 23.9997H24Z" fill="#5FA5FA" stroke="#5FA5FA" stroke-width="0.02"/>
<path d="M24 24.0004L59.1463 16.209L59.2131 16.5158L24 24.0004Z" fill="#5EA6FA" stroke="#5EA6FA" stroke-width="0.02"/>
<path d="M24 24.0002L59.2131 16.5156L59.2774 16.8233L24 24.0002Z" fill="#5DA7FA" stroke="#5DA7FA" stroke-width="0.02"/>
<path d="M24 24.0001L59.2774 16.8232L59.3383 17.131L24 24.0001Z" fill="#5CA8FA" stroke="#5CA8FA" stroke-width="0.02"/>
<path d="M23.9999 24L59.3382 17.1309L59.3965 17.4394L23.999 24H23.9999Z" fill="#5BA9FA" stroke="#5BA9FA" stroke-width="0.02"/>
<path d="M24 24L59.3974 17.4395L59.4531 17.7489L24 24Z" fill="#5AAAFA" stroke="#5AAAFA" stroke-width="0.02"/>
<path d="M24 24.0002L59.4531 17.749L59.5063 18.0585L24 24.0002Z" fill="#59ABFA" stroke="#59ABFA" stroke-width="0.02"/>
<path d="M24 24.0003L59.5063 18.0586L59.5569 18.3689L24 24.0003Z" fill="#58ACFA" stroke="#58ACFA" stroke-width="0.02"/>
<path d="M24 23.9996L59.5569 18.3682L59.6049 18.6784L24 23.9996Z" fill="#57ADFA" stroke="#57ADFA" stroke-width="0.02"/>
<path d="M24 23.9999L59.6049 18.6787L59.6503 18.9899L24.0009 23.9999H24Z" fill="#56AEFA" stroke="#56AEFA" stroke-width="0.02"/>
<path d="M23.9999 24.0002L59.6493 18.9902L59.6913 19.3014L23.999 24.0002H23.9999Z" fill="#55AFFA" stroke="#55AFFA" stroke-width="0.02"/>
<path d="M24 23.9996L59.6923 19.3008L59.7317 19.6128L24 24.0005V23.9996Z" fill="#54B0FA" stroke="#54B0FA" stroke-width="0.02"/>
<path d="M24 24L59.7317 19.6123L59.7686 19.9243L24 23.9992V24Z" fill="#53B1FA" stroke="#53B1FA" stroke-width="0.02"/>
<path d="M24 23.9997L59.7686 19.9248L59.8029 20.2368L24 23.9997Z" fill="#52B2FA" stroke="#52B2FA" stroke-width="0.02"/>
<path d="M24 24.0002L59.8029 20.2373L59.8346 20.5502L24 24.0002Z" fill="#51B3FA" stroke="#51B3FA" stroke-width="0.02"/>
<path d="M24 24.0008L59.8346 20.5508L59.8637 20.8636L24.0009 24.0016L24 24.0008Z" fill="#50B4FA" stroke="#50B4FA" stroke-width="0.02"/>
<path d="M23.9999 24.0003L59.8627 20.8623L59.8885 21.1752L23.999 23.9994L23.9999 24.0003Z" fill="#4FB5FA" stroke="#4FB5FA" stroke-width="0.02"/>
<path d="M24 24.0001L59.8894 21.1758L59.9126 21.4895L24 24.0009V24.0001Z" fill="#4EB6FA" stroke="#4EB6FA" stroke-width="0.02"/>
<path d="M24 24.0007L59.9126 21.4893L59.9331 21.803L24 24.0007Z" fill="#4DB7FA" stroke="#4DB7FA" stroke-width="0.02"/>
<path d="M24 24.0004L59.9331 21.8027L59.9511 22.1164L24.0009 24.0004H24Z" fill="#4CB8FA" stroke="#4CB8FA" stroke-width="0.02"/>
<path d="M24 24.0002L59.9503 22.1162L59.9657 22.4299L24 24.0002Z" fill="#4BB9FA" stroke="#4BB9FA" stroke-width="0.02"/>
<path d="M24 24L59.9657 22.4297L59.9777 22.7434L24 24Z" fill="#4ABAFA" stroke="#4ABAFA" stroke-width="0.02"/>
<path d="M23.9999 23.9997L59.9776 22.7432L59.987 23.0569L23.999 23.9989L23.9999 23.9997Z" fill="#49BBFA" stroke="#49BBFA" stroke-width="0.02"/>
<path d="M24 24.0006L59.988 23.0586L59.9949 23.3723L24 24.0006Z" fill="#48BCFA" stroke="#48BCFA" stroke-width="0.02"/>
<path d="M24 24.0004L59.9949 23.3721L59.9991 23.6866L24.0009 24.0012L24 24.0004Z" fill="#47BDFA" stroke="#47BDFA" stroke-width="0.02"/>
<path d="M24 24.0001L59.9983 23.6855L60 24.0001H24Z" fill="#46BEFA" stroke="#46BEFA" stroke-width="0.02"/>
<path d="M24 24H60L59.9983 24.3146L24 24Z" fill="#45BFFA" stroke="#45BFFA" stroke-width="0.02"/>
<path d="M23.9999 24L59.9982 24.3146L59.9939 24.6291L23.999 24.0009L23.9999 24Z" fill="#44C0FA" stroke="#44C0FA" stroke-width="0.02"/>
<path d="M24 24L59.9949 24.6283L59.988 24.942L24 24Z" fill="#43C1FA" stroke="#43C1FA" stroke-width="0.02"/>
<path d="M24 24.0009L59.988 24.9429L59.9786 25.2566L24.0009 24L24 24.0009Z" fill="#42C2FA" stroke="#42C2FA" stroke-width="0.02"/>
<path d="M24 24L59.9777 25.2566L59.9657 25.5703L24 24Z" fill="#41C3FA" stroke="#41C3FA" stroke-width="0.02"/>
<path d="M24 24L59.9657 25.5703L59.9503 25.884L24 24Z" fill="#40C4FA" stroke="#40C4FA" stroke-width="0.02"/>
<path d="M23.9999 24L59.9502 25.884L59.9322 26.1977L23.999 24H23.9999Z" fill="#3FC5FA" stroke="#3FC5FA" stroke-width="0.02"/>
<path d="M24 24L59.9331 26.1977L59.9126 26.5114L24 24Z" fill="#3EC6FA" stroke="#3EC6FA" stroke-width="0.02"/>
<path d="M24 24L59.9126 26.5114L59.8894 26.8251L24 24.0009V24Z" fill="#3DC7FA" stroke="#3DC7FA" stroke-width="0.02"/>
<path d="M24 24.0009L59.8894 26.8251L59.8637 27.138L24.0009 24L24 24.0009Z" fill="#3CC8FA" stroke="#3CC8FA" stroke-width="0.02"/>
<path d="M23.9999 24L59.8627 27.138L59.8336 27.4509L23.999 24.0009L23.9999 24Z" fill="#3BC9FA" stroke="#3BC9FA" stroke-width="0.02"/>
<path d="M24 24L59.8346 27.45L59.8029 27.7629L24 24Z" fill="#3ACAFA" stroke="#3ACAFA" stroke-width="0.02"/>
<path d="M24 24L59.8029 27.7629L59.7686 28.0749L24 24Z" fill="#39CBFA" stroke="#39CBFA" stroke-width="0.02"/>
<path d="M24 24.0009L59.7686 28.0757L59.7317 28.3877L24 24V24.0009Z" fill="#38CCFA" stroke="#38CCFA" stroke-width="0.02"/>
<path d="M24 24L59.7317 28.3877L59.6923 28.6997L24 24.0009V24Z" fill="#37CDFA" stroke="#37CDFA" stroke-width="0.02"/>
<path d="M24 24L59.6923 28.6989L59.6503 29.01L24.0009 24H24Z" fill="#36CEFA" stroke="#36CEFA" stroke-width="0.02"/>
<path d="M23.9999 24L59.6493 29.01L59.6039 29.3211L23.999 24H23.9999Z" fill="#35CFFA" stroke="#35CFFA" stroke-width="0.02"/>
<path d="M24 24L59.6049 29.3211L59.5569 29.6314L24 24Z" fill="#34D0FA" stroke="#34D0FA" stroke-width="0.02"/>
<path d="M24 24L59.5569 29.6314L59.5063 29.9417L24 24Z" fill="#33D1FA" stroke="#33D1FA" stroke-width="0.02"/>
<path d="M24 24L59.5063 29.9417L59.4531 30.2511L24 24Z" fill="#32D2FA" stroke="#32D2FA" stroke-width="0.02"/>
<path d="M24 24L59.4531 30.2511L59.3974 30.5606L24 24Z" fill="#31D3FA" stroke="#31D3FA" stroke-width="0.02"/>
<path d="M24 24L59.3974 30.5606L59.3391 30.8691L24.0009 24H24Z" fill="#30D4FA" stroke="#30D4FA" stroke-width="0.02"/>
<path d="M24 24L59.3383 30.8691L59.2774 31.1769L24 24Z" fill="#2FD5FA" stroke="#2FD5FA" stroke-width="0.02"/>
<path d="M24 24L59.2774 31.1769L59.2131 31.4846L24 24Z" fill="#2ED6FA" stroke="#2ED6FA" stroke-width="0.02"/>
<path d="M24 24L59.2131 31.4846L59.1463 31.7914L24 24Z" fill="#2DD7FA" stroke="#2DD7FA" stroke-width="0.02"/>
<path d="M23.9999 24L59.1462 31.7914L59.0767 32.0983L23.999 24H23.9999Z" fill="#2CD8FA" stroke="#2CD8FA" stroke-width="0.02"/>
<path d="M24 24L59.0777 32.0983L59.0057 32.4043L24 24Z" fill="#2BD9FA" stroke="#2BD9FA" stroke-width="0.02"/>
<path d="M24 24L59.0057 32.4043L58.9311 32.7094L24.0009 24H24Z" fill="#2ADAFA" stroke="#2ADAFA" stroke-width="0.02"/>
<path d="M24 24L58.9303 32.7094L58.8531 33.0137L24 24Z" fill="#29DBFA" stroke="#29DBFA" stroke-width="0.02"/>
<path d="M24 24L58.8531 33.0137L58.7734 33.3171L24 24Z" fill="#28DCFA" stroke="#28DCFA" stroke-width="0.02"/>
<path d="M24 24L58.7734 33.3171L58.6911 33.6206L24.0009 24H24Z" fill="#27DDFA" stroke="#27DDFA" stroke-width="0.02"/>
<path d="M24 24L58.6903 33.6206L58.6054 33.9231L24 24Z" fill="#26DEFA" stroke="#26DEFA" stroke-width="0.02"/>
<path d="M24 24L58.6054 33.9231L58.5171 34.2249L24 24Z" fill="#25DFFA" stroke="#25DFFA" stroke-width="0.02"/>
<path d="M23.9999 24L58.517 34.2249L58.4262 34.5257L23.999 24H23.9999Z" fill="#24E0FA" stroke="#24E0FA" stroke-width="0.02"/>
<path d="M24 24L58.4271 34.5257L58.3337 34.8257L24 24Z" fill="#23E1FA" stroke="#23E1FA" stroke-width="0.02"/>
<path d="M24 24L58.3337 34.8257L58.2377 35.1249L24 24Z" fill="#22E2FA" stroke="#22E2FA" stroke-width="0.02"/>
<path d="M23.9999 24L58.2376 35.1249L58.139 35.4231L23.999 24H23.9999Z" fill="#21E3FA" stroke="#21E3FA" stroke-width="0.02"/>
<path d="M24 24L58.14 35.4231L58.0389 35.7206L24 24Z" fill="#20E4FA" stroke="#20E4FA" stroke-width="0.02"/>
<path d="M24 24L58.0389 35.7206L57.9351 36.0171L24 24Z" fill="#1FE5FA" stroke="#1FE5FA" stroke-width="0.02"/>
<path d="M24 24L57.9351 36.0171L57.8289 36.3129L24 24Z" fill="#1EE6FA" stroke="#1EE6FA" stroke-width="0.02"/>
<path d="M24 24L57.8289 36.3129L57.72 36.6077L24 24Z" fill="#1DE7FA" stroke="#1DE7FA" stroke-width="0.02"/>
<path d="M24 24L57.72 36.6077L57.6086 36.9017L24 24.0009V24Z" fill="#1CE8FA" stroke="#1CE8FA" stroke-width="0.02"/>
<path d="M23.9999 24L57.6085 36.9009L57.4945 37.194L23.999 24H23.9999Z" fill="#1BE9FA" stroke="#1BE9FA" stroke-width="0.02"/>
<path d="M24 24L57.4954 37.194L57.3789 37.4854L24 24Z" fill="#1AEAFA" stroke="#1AEAFA" stroke-width="0.02"/>
<path d="M24 24.0009L57.3789 37.4863L57.2597 37.7769L24 24V24.0009Z" fill="#19EBFA" stroke="#19EBFA" stroke-width="0.02"/>
<path d="M24 24L57.2597 37.7769L57.138 38.0666L24 24Z" fill="#18ECFA" stroke="#18ECFA" stroke-width="0.02"/>
<path d="M23.9999 24L57.1379 38.0666L57.0136 38.3554L23.999 24.0009L23.9999 24Z" fill="#17EDFA" stroke="#17EDFA" stroke-width="0.02"/>
<path d="M24 24.0009L57.0146 38.3554L56.8877 38.6426L24 24V24.0009Z" fill="#16EEFA" stroke="#16EEFA" stroke-width="0.02"/>
<path d="M24 24L56.8877 38.6426L56.7583 38.9289L24 24Z" fill="#15EFFA" stroke="#15EFFA" stroke-width="0.02"/>
<path d="M24 24L56.7583 38.9289L56.6271 39.2143L24 24Z" fill="#14F0FA" stroke="#14F0FA" stroke-width="0.02"/>
<path d="M24 24L56.6271 39.2143L56.4934 39.498L24 24Z" fill="#13F1FA" stroke="#13F1FA" stroke-width="0.02"/>
<path d="M24 24.0009L56.4934 39.4989L56.3571 39.7817L24.0009 24L24 24.0009Z" fill="#12F2FA" stroke="#12F2FA" stroke-width="0.02"/>
<path d="M24 24L56.3563 39.7817L56.2174 40.0637L24 24.0009V24Z" fill="#11F3FA" stroke="#11F3FA" stroke-width="0.02"/>
<path d="M24 24.0009L56.2174 40.0637L56.076 40.344L24 24V24.0009Z" fill="#10F4FA" stroke="#10F4FA" stroke-width="0.02"/>
<path d="M24 24L56.076 40.344L55.932 40.6234L24 24.0009V24Z" fill="#0FF5FA" stroke="#0FF5FA" stroke-width="0.02"/>
<path d="M23.9999 24.0009L55.9319 40.6234L55.7853 40.9011L23.999 24L23.9999 24.0009Z" fill="#0EF6FA" stroke="#0EF6FA" stroke-width="0.02"/>
<path d="M24 24L55.7863 40.9011L55.638 41.178L24.0009 24H24Z" fill="#0DF7FA" stroke="#0DF7FA" stroke-width="0.02"/>
<path d="M24 24L55.6371 41.178L55.4863 41.4531L24 24Z" fill="#0CF8FA" stroke="#0CF8FA" stroke-width="0.02"/>
<path d="M24 24L55.4863 41.4531L55.3329 41.7274L24 24Z" fill="#0BF9FA" stroke="#0BF9FA" stroke-width="0.02"/>
<path d="M24 24L55.3329 41.7274L55.1769 42L24 24Z" fill="#0AFAFA" stroke="#0AFAFA" stroke-width="0.02"/>
<path d="M24 24L55.1769 42L55.0183 42.2717L24 24Z" fill="#0BFAF9" stroke="#0BFAF9" stroke-width="0.02"/>
<path d="M24 24L55.0183 42.2717L54.858 42.5417L24 24Z" fill="#0CFAF8" stroke="#0CFAF8" stroke-width="0.02"/>
<path d="M24 24L54.858 42.5417L54.6951 42.81L24 24Z" fill="#0DFAF7" stroke="#0DFAF7" stroke-width="0.02"/>
<path d="M24 24L54.6951 42.81L54.5297 43.0774L24 24Z" fill="#0EFAF6" stroke="#0EFAF6" stroke-width="0.02"/>
<path d="M24 24L54.5297 43.0774L54.3617 43.3431L24 24Z" fill="#0FFAF5" stroke="#0FFAF5" stroke-width="0.02"/>
<path d="M24 24L54.3617 43.3431L54.192 43.6071L24 24Z" fill="#10FAF4" stroke="#10FAF4" stroke-width="0.02"/>
<path d="M24 24L54.192 43.6071L54.0197 43.8703L24 24.0009V24Z" fill="#11FAF3" stroke="#11FAF3" stroke-width="0.02"/>
<path d="M23.9999 24L54.0196 43.8694L53.8447 44.1309L23.999 24H23.9999Z" fill="#12FAF2" stroke="#12FAF2" stroke-width="0.02"/>
<path d="M24 24L53.8457 44.1309L53.6691 44.3906L24.0009 24H24Z" fill="#13FAF1" stroke="#13FAF1" stroke-width="0.02"/>
<path d="M24 24L53.6683 44.3906L53.4891 44.6486L24 24Z" fill="#14FAF0" stroke="#14FAF0" stroke-width="0.02"/>
<path d="M23.9999 24.0009L53.489 44.6494L53.3073 44.9057L23.999 24L23.9999 24.0009Z" fill="#15FAEF" stroke="#15FAEF" stroke-width="0.02"/>
<path d="M24 24L53.3083 44.9057L53.1249 45.1603L24 24Z" fill="#16FAEE" stroke="#16FAEE" stroke-width="0.02"/>
<path d="M24 24L53.1249 45.1603L52.9389 45.414L24 24Z" fill="#17FAED" stroke="#17FAED" stroke-width="0.02"/>
<path d="M24 24L52.9389 45.414L52.7511 45.666L24 24.0009V24Z" fill="#18FAEC" stroke="#18FAEC" stroke-width="0.02"/>
<path d="M24 24L52.7511 45.6651L52.5609 45.9154L24 24Z" fill="#19FAEB" stroke="#19FAEB" stroke-width="0.02"/>
<path d="M24 24L52.5609 45.9154L52.3689 46.164L24.0009 24H24Z" fill="#1AFAEA" stroke="#1AFAEA" stroke-width="0.02"/>
<path d="M23.9999 24L52.3679 46.164L52.1733 46.4109L23.999 24H23.9999Z" fill="#1BFAE9" stroke="#1BFAE9" stroke-width="0.02"/>
<path d="M24 24L52.1743 46.4109L51.978 46.656L24.0009 24.0009L24 24Z" fill="#1CFAE8" stroke="#1CFAE8" stroke-width="0.02"/>
<path d="M24 24L51.9771 46.6551L51.7783 46.8986L24 24Z" fill="#1DFAE7" stroke="#1DFAE7" stroke-width="0.02"/>
<path d="M24 24L51.7783 46.8986L51.5777 47.1403L24 24Z" fill="#1EFAE6" stroke="#1EFAE6" stroke-width="0.02"/>
<path d="M24 24L51.5777 47.1403L51.3746 47.3803L24 24Z" fill="#1FFAE5" stroke="#1FFAE5" stroke-width="0.02"/>
<path d="M24 24L51.3746 47.3803L51.1697 47.6186L24 24.0009V24Z" fill="#20FAE4" stroke="#20FAE4" stroke-width="0.02"/>
<path d="M24 24L51.1697 47.6177L50.9623 47.8543L24 24Z" fill="#21FAE3" stroke="#21FAE3" stroke-width="0.02"/>
<path d="M24 24.0009L50.9623 47.8551L50.7531 48.0891L24 24V24.0009Z" fill="#22FAE2" stroke="#22FAE2" stroke-width="0.02"/>
<path d="M24 24L50.7531 48.0891L50.5423 48.3214L24 24Z" fill="#23FAE1" stroke="#23FAE1" stroke-width="0.02"/>
<path d="M24 24L50.5423 48.3214L50.3289 48.552L24 24Z" fill="#24FAE0" stroke="#24FAE0" stroke-width="0.02"/>
<path d="M24 24L50.3289 48.552L50.1137 48.7809L24 24Z" fill="#25FADF" stroke="#25FADF" stroke-width="0.02"/>
<path d="M24 24L50.1137 48.7809L49.8969 49.008L24.0009 24H24Z" fill="#26FADE" stroke="#26FADE" stroke-width="0.02"/>
<path d="M23.9999 24L49.8959 49.008L49.6765 49.2326L23.999 24H23.9999Z" fill="#27FADD" stroke="#27FADD" stroke-width="0.02"/>
<path d="M24 24L49.6774 49.2326L49.4563 49.4554L24.0009 24H24Z" fill="#28FADC" stroke="#28FADC" stroke-width="0.02"/>
<path d="M24 24.0009L49.4554 49.4563L49.2326 49.6774L24 24V24.0009Z" fill="#29FADB" stroke="#29FADB" stroke-width="0.02"/>
<path d="M24 24L49.2326 49.6774L49.008 49.8969L24 24.0009V24Z" fill="#2AFADA" stroke="#2AFADA" stroke-width="0.02"/>
<path d="M24 24.0009L49.008 49.8969L48.7809 50.1137L24 24V24.0009Z" fill="#2BFAD9" stroke="#2BFAD9" stroke-width="0.02"/>
<path d="M24 24L48.7809 50.1137L48.552 50.3289L24 24Z" fill="#2CFAD8" stroke="#2CFAD8" stroke-width="0.02"/>
<path d="M24 24L48.552 50.3289L48.3214 50.5423L24 24Z" fill="#2DFAD7" stroke="#2DFAD7" stroke-width="0.02"/>
<path d="M24 24L48.3214 50.5423L48.0891 50.7531L24 24Z" fill="#2EFAD6" stroke="#2EFAD6" stroke-width="0.02"/>
<path d="M24 24L48.0891 50.7531L47.8551 50.9623L24.0009 24H24Z" fill="#2FFAD5" stroke="#2FFAD5" stroke-width="0.02"/>
<path d="M24 24L47.8543 50.9623L47.6177 51.1697L24 24Z" fill="#30FAD4" stroke="#30FAD4" stroke-width="0.02"/>
<path d="M23.9999 24L47.6176 51.1697L47.3793 51.3746L23.999 24H23.9999Z" fill="#31FAD3" stroke="#31FAD3" stroke-width="0.02"/>
<path d="M24 24L47.3803 51.3746L47.1403 51.5777L24 24Z" fill="#32FAD2" stroke="#32FAD2" stroke-width="0.02"/>
<path d="M24 24L47.1403 51.5777L46.8986 51.7783L24 24Z" fill="#33FAD1" stroke="#33FAD1" stroke-width="0.02"/>
<path d="M24 24L46.8986 51.7783L46.6551 51.9771L24 24Z" fill="#34FAD0" stroke="#34FAD0" stroke-width="0.02"/>
<path d="M23.9999 24.0009L46.655 51.978L46.4099 52.1743L23.999 24L23.9999 24.0009Z" fill="#35FACF" stroke="#35FACF" stroke-width="0.02"/>
<path d="M24 24L46.4109 52.1743L46.164 52.3689L24 24.0009V24Z" fill="#36FACE" stroke="#36FACE" stroke-width="0.02"/>
<path d="M24 24.0009L46.164 52.3689L45.9154 52.5609L24 24V24.0009Z" fill="#37FACD" stroke="#37FACD" stroke-width="0.02"/>
<path d="M24 24L45.9154 52.5609L45.6651 52.7511L24 24Z" fill="#38FACC" stroke="#38FACC" stroke-width="0.02"/>
<path d="M23.9999 24L45.665 52.7511L45.413 52.9389L23.999 24H23.9999Z" fill="#39FACB" stroke="#39FACB" stroke-width="0.02"/>
<path d="M24 24L45.414 52.9389L45.1603 53.1249L24 24Z" fill="#3AFACA" stroke="#3AFACA" stroke-width="0.02"/>
<path d="M24 24L45.1603 53.1249L44.9057 53.3083L24 24Z" fill="#3BFAC9" stroke="#3BFAC9" stroke-width="0.02"/>
<path d="M24 24L44.9057 53.3083L44.6494 53.49L24.0009 24.0009L24 24Z" fill="#3CFAC8" stroke="#3CFAC8" stroke-width="0.02"/>
<path d="M24 24L44.6486 53.4891L44.3906 53.6683L24 24Z" fill="#3DFAC7" stroke="#3DFAC7" stroke-width="0.02"/>
<path d="M24 24.0009L44.3906 53.6691L44.1309 53.8457L24 24V24.0009Z" fill="#3EFAC6" stroke="#3EFAC6" stroke-width="0.02"/>
<path d="M24 24L44.1309 53.8457L43.8694 54.0206L24 24.0009V24Z" fill="#3FFAC5" stroke="#3FFAC5" stroke-width="0.02"/>
<path d="M23.9999 24L43.8693 54.0197L43.6062 54.192L23.999 24H23.9999Z" fill="#40FAC4" stroke="#40FAC4" stroke-width="0.02"/>
<path d="M24 24L43.6071 54.192L43.3431 54.3617L24 24Z" fill="#41FAC3" stroke="#41FAC3" stroke-width="0.02"/>
<path d="M24 24L43.3431 54.3617L43.0774 54.5297L24 24Z" fill="#42FAC2" stroke="#42FAC2" stroke-width="0.02"/>
<path d="M24 24L43.0774 54.5297L42.81 54.6951L24 24Z" fill="#43FAC1" stroke="#43FAC1" stroke-width="0.02"/>
<path d="M24 24L42.81 54.6951L42.5417 54.858L24 24Z" fill="#44FAC0" stroke="#44FAC0" stroke-width="0.02"/>
<path d="M24 24L42.5417 54.858L42.2717 55.0183L24 24Z" fill="#45FABF" stroke="#45FABF" stroke-width="0.02"/>
<path d="M24 24L42.2717 55.0183L42 55.1769L24 24Z" fill="#46FABE" stroke="#46FABE" stroke-width="0.02"/>
<path d="M24 24L42 55.1769L41.7274 55.3329L24 24Z" fill="#47FABD" stroke="#47FABD" stroke-width="0.02"/>
<path d="M24 24L41.7274 55.3329L41.4531 55.4863L24 24Z" fill="#48FABC" stroke="#48FABC" stroke-width="0.02"/>
<path d="M24 24L41.4531 55.4863L41.178 55.6371L24 24Z" fill="#49FABB" stroke="#49FABB" stroke-width="0.02"/>
<path d="M24 24.0009L41.178 55.638L40.9011 55.7863L24 24V24.0009Z" fill="#4AFABA" stroke="#4AFABA" stroke-width="0.02"/>
<path d="M24 24L40.9011 55.7863L40.6234 55.9329L24.0009 24.0009L24 24Z" fill="#4BFAB9" stroke="#4BFAB9" stroke-width="0.02"/>
<path d="M23.9999 24L40.6225 55.932L40.343 56.076L23.999 24H23.9999Z" fill="#4CFAB8" stroke="#4CFAB8" stroke-width="0.02"/>
<path d="M24 24L40.344 56.076L40.0637 56.2174L24.0009 24H24Z" fill="#4DFAB7" stroke="#4DFAB7" stroke-width="0.02"/>
<path d="M23.9999 24L40.0627 56.2174L39.7807 56.3563L23.999 24H23.9999Z" fill="#4EFAB6" stroke="#4EFAB6" stroke-width="0.02"/>
<path d="M24 24.0009L39.7817 56.3571L39.4989 56.4934L24.0009 24L24 24.0009Z" fill="#4FFAB5" stroke="#4FFAB5" stroke-width="0.02"/>
<path d="M24 24L39.498 56.4934L39.2143 56.6271L24 24Z" fill="#50FAB4" stroke="#50FAB4" stroke-width="0.02"/>
<path d="M24 24L39.2143 56.6271L38.9289 56.7583L24 24Z" fill="#51FAB3" stroke="#51FAB3" stroke-width="0.02"/>
<path d="M24 24L38.9289 56.7583L38.6426 56.8877L24 24Z" fill="#52FAB2" stroke="#52FAB2" stroke-width="0.02"/>
<path d="M24 24L38.6426 56.8877L38.3554 57.0146L24.0009 24H24Z" fill="#53FAB1" stroke="#53FAB1" stroke-width="0.02"/>
<path d="M23.9999 24L38.3545 57.0146L38.0656 57.1389L23.999 24.0009L23.9999 24Z" fill="#54FAB0" stroke="#54FAB0" stroke-width="0.02"/>
<path d="M24 24L38.0666 57.138L37.7769 57.2597L24 24Z" fill="#55FAAF" stroke="#55FAAF" stroke-width="0.02"/>
<path d="M24 24L37.7769 57.2597L37.4863 57.3789L24.0009 24H24Z" fill="#56FAAE" stroke="#56FAAE" stroke-width="0.02"/>
<path d="M24 24L37.4854 57.3789L37.194 57.4954L24 24Z" fill="#57FAAD" stroke="#57FAAD" stroke-width="0.02"/>
<path d="M24 24L37.194 57.4954L36.9009 57.6094L24 24.0009V24Z" fill="#58FAAC" stroke="#58FAAC" stroke-width="0.02"/>
<path d="M23.9999 24L36.9007 57.6086L36.6067 57.72L23.999 24H23.9999Z" fill="#59FAAB" stroke="#59FAAB" stroke-width="0.02"/>
<path d="M24 24L36.6077 57.72L36.3129 57.8289L24 24Z" fill="#5AFAAA" stroke="#5AFAAA" stroke-width="0.02"/>
<path d="M24 24L36.3129 57.8289L36.0171 57.9351L24 24Z" fill="#5BFAA9" stroke="#5BFAA9" stroke-width="0.02"/>
<path d="M24 24L36.0171 57.9351L35.7206 58.0389L24 24Z" fill="#5CFAA8" stroke="#5CFAA8" stroke-width="0.02"/>
<path d="M24 24L35.7206 58.0389L35.4231 58.14L24 24Z" fill="#5DFAA7" stroke="#5DFAA7" stroke-width="0.02"/>
<path d="M24 24L35.4231 58.14L35.1249 58.2386L24 24.0009V24Z" fill="#5EFAA6" stroke="#5EFAA6" stroke-width="0.02"/>
<path d="M24 24L35.1249 58.2377L34.8257 58.3337L24 24Z" fill="#5FFAA5" stroke="#5FFAA5" stroke-width="0.02"/>
<path d="M24 24L34.8257 58.3337L34.5257 58.4271L24 24Z" fill="#60FAA4" stroke="#60FAA4" stroke-width="0.02"/>
<path d="M24 24L34.5257 58.4271L34.2249 58.518L24 24.0009V24Z" fill="#61FAA3" stroke="#61FAA3" stroke-width="0.02"/>
<path d="M24 24L34.2249 58.5171L33.9231 58.6054L24 24Z" fill="#62FAA2" stroke="#62FAA2" stroke-width="0.02"/>
<path d="M24 24L33.9231 58.6054L33.6206 58.6903L24 24Z" fill="#63FAA1" stroke="#63FAA1" stroke-width="0.02"/>
<path d="M24 24.0009L33.6206 58.6911L33.3171 58.7734L24 24V24.0009Z" fill="#64FAA0" stroke="#64FAA0" stroke-width="0.02"/>
<path d="M24 24L33.3171 58.7734L33.0137 58.8531L24 24Z" fill="#65FA9F" stroke="#65FA9F" stroke-width="0.02"/>
<path d="M24 24L33.0137 58.8531L32.7094 58.9303L24 24Z" fill="#66FA9E" stroke="#66FA9E" stroke-width="0.02"/>
<path d="M24 24.0009L32.7094 58.9311L32.4043 59.0057L24 24V24.0009Z" fill="#67FA9D" stroke="#67FA9D" stroke-width="0.02"/>
<path d="M24 24L32.4043 59.0057L32.0983 59.0777L24 24Z" fill="#68FA9C" stroke="#68FA9C" stroke-width="0.02"/>
<path d="M24 24L32.0983 59.0777L31.7914 59.1471L24 24.0009V24Z" fill="#69FA9B" stroke="#69FA9B" stroke-width="0.02"/>
<path d="M24 24L31.7914 59.1463L31.4846 59.2131L24 24Z" fill="#6AFA9A" stroke="#6AFA9A" stroke-width="0.02"/>
<path d="M24 24L31.4846 59.2131L31.1769 59.2774L24 24Z" fill="#6BFA99" stroke="#6BFA99" stroke-width="0.02"/>
<path d="M24 24L31.1769 59.2774L30.8691 59.3383L24 24Z" fill="#6CFA98" stroke="#6CFA98" stroke-width="0.02"/>
<path d="M24 24.0009L30.8691 59.3391L30.5606 59.3974L24 24V24.0009Z" fill="#6DFA97" stroke="#6DFA97" stroke-width="0.02"/>
<path d="M24 24L30.5606 59.3974L30.2511 59.4531L24 24Z" fill="#6EFA96" stroke="#6EFA96" stroke-width="0.02"/>
<path d="M24 24L30.2511 59.4531L29.9417 59.5063L24 24Z" fill="#6FFA95" stroke="#6FFA95" stroke-width="0.02"/>
<path d="M24 24L29.9417 59.5063L29.6314 59.5569L24 24Z" fill="#70FA94" stroke="#70FA94" stroke-width="0.02"/>
<path d="M24 24L29.6314 59.5569L29.3211 59.6049L24 24Z" fill="#71FA93" stroke="#71FA93" stroke-width="0.02"/>
<path d="M24 24L29.3211 59.6049L29.01 59.6503L24 24.0009V24Z" fill="#72FA92" stroke="#72FA92" stroke-width="0.02"/>
<path d="M24 24.0009L29.01 59.6503L28.6989 59.6923L24 24V24.0009Z" fill="#73FA91" stroke="#73FA91" stroke-width="0.02"/>
<path d="M23.9999 24L28.6987 59.6923L28.3867 59.7317L23.999 24H23.9999Z" fill="#74FA90" stroke="#74FA90" stroke-width="0.02"/>
<path d="M24 24L28.3877 59.7317L28.0757 59.7686L24.0009 24H24Z" fill="#75FA8F" stroke="#75FA8F" stroke-width="0.02"/>
<path d="M24 24L28.0749 59.7686L27.7629 59.8029L24 24Z" fill="#76FA8E" stroke="#76FA8E" stroke-width="0.02"/>
<path d="M24 24L27.7629 59.8029L27.45 59.8346L24 24Z" fill="#77FA8D" stroke="#77FA8D" stroke-width="0.02"/>
<path d="M23.9999 24L27.4499 59.8346L27.137 59.8637L23.999 24.0009L23.9999 24Z" fill="#78FA8C" stroke="#78FA8C" stroke-width="0.02"/>
<path d="M24 24.0009L27.138 59.8637L26.8251 59.8894L24.0009 24L24 24.0009Z" fill="#79FA8B" stroke="#79FA8B" stroke-width="0.02"/>
<path d="M23.9999 24L26.8242 59.8894L26.5105 59.9126L23.999 24H23.9999Z" fill="#7AFA8A" stroke="#7AFA8A" stroke-width="0.02"/>
<path d="M24 24L26.5114 59.9126L26.1977 59.9331L24 24Z" fill="#7BFA89" stroke="#7BFA89" stroke-width="0.02"/>
<path d="M24 24L26.1977 59.9331L25.884 59.9511L24 24.0009V24Z" fill="#7CFA88" stroke="#7CFA88" stroke-width="0.02"/>
<path d="M24 24L25.884 59.9503L25.5703 59.9657L24 24Z" fill="#7DFA87" stroke="#7DFA87" stroke-width="0.02"/>
<path d="M24 24L25.5703 59.9657L25.2566 59.9777L24 24Z" fill="#7EFA86" stroke="#7EFA86" stroke-width="0.02"/>
<path d="M24 24.0009L25.2566 59.9786L24.9429 59.988L24.0009 24L24 24.0009Z" fill="#7FFA85" stroke="#7FFA85" stroke-width="0.02"/>
<path d="M24 24L24.942 59.988L24.6283 59.9949L24 24Z" fill="#80FA84" stroke="#80FA84" stroke-width="0.02"/>
<path d="M23.9999 24L24.6282 59.9949L24.3136 59.9991L23.999 24.0009L23.9999 24Z" fill="#81FA83" stroke="#81FA83" stroke-width="0.02"/>
<path d="M24 24L24.3146 59.9983L24 60V24Z" fill="#82FA82" stroke="#82FA82" stroke-width="0.02"/>
<path d="M23.9996 24V60L23.6851 59.9983L23.9996 24Z" fill="#83FA81" stroke="#83FA81" stroke-width="0.02"/>
<path d="M23.9997 24.0009L23.6852 59.9991L23.3706 59.9949L23.9989 24L23.9997 24.0009Z" fill="#84FA80" stroke="#84FA80" stroke-width="0.02"/>
<path d="M24.0001 24L23.3718 59.9949L23.0581 59.988L24.0001 24Z" fill="#85FA7F" stroke="#85FA7F" stroke-width="0.02"/>
<path d="M23.9994 24L23.0574 59.988L22.7437 59.9786L24.0002 24.0009L23.9994 24Z" fill="#86FA7E" stroke="#86FA7E" stroke-width="0.02"/>
<path d="M24 24L22.7434 59.9777L22.4297 59.9657L24 24Z" fill="#87FA7D" stroke="#87FA7D" stroke-width="0.02"/>
<path d="M24.0002 24L22.4299 59.9657L22.1162 59.9503L24.0002 24Z" fill="#88FA7C" stroke="#88FA7C" stroke-width="0.02"/>
<path d="M23.9995 24.0009L22.1155 59.9511L21.8018 59.9331L23.9995 24V24.0009Z" fill="#89FA7B" stroke="#89FA7B" stroke-width="0.02"/>
<path d="M23.9997 24L21.802 59.9331L21.4883 59.9126L23.9997 24Z" fill="#8AFA7A" stroke="#8AFA7A" stroke-width="0.02"/>
<path d="M23.9999 24L21.4885 59.9126L21.1748 59.8894L23.9991 24H23.9999Z" fill="#8BFA79" stroke="#8BFA79" stroke-width="0.02"/>
<path d="M23.9999 24L21.1756 59.8894L20.8628 59.8637L24.0008 24.0009L23.9999 24Z" fill="#8CFA78" stroke="#8CFA78" stroke-width="0.02"/>
<path d="M23.9992 24.0009L20.8612 59.8637L20.5483 59.8346L23.9983 24L23.9992 24.0009Z" fill="#8DFA77" stroke="#8DFA77" stroke-width="0.02"/>
<path d="M23.9992 24L20.5492 59.8346L20.2363 59.8029L23.9992 24Z" fill="#8EFA76" stroke="#8EFA76" stroke-width="0.02"/>
<path d="M23.9992 24L20.2363 59.8029L19.9243 59.7686L23.9992 24Z" fill="#8FFA75" stroke="#8FFA75" stroke-width="0.02"/>
<path d="M23.9992 24L19.9243 59.7686L19.6123 59.7317L24 24H23.9992Z" fill="#90FA74" stroke="#90FA74" stroke-width="0.02"/>
<path d="M23.9995 24L19.6118 59.7317L19.2998 59.6923L23.9987 24H23.9995Z" fill="#91FA73" stroke="#91FA73" stroke-width="0.02"/>
<path d="M23.9997 24L19.3009 59.6923L18.9897 59.6503L23.9997 24.0009V24Z" fill="#92FA72" stroke="#92FA72" stroke-width="0.02"/>
<path d="M23.9999 24.0009L18.9899 59.6503L18.6787 59.6049L23.9999 24V24.0009Z" fill="#93FA71" stroke="#93FA71" stroke-width="0.02"/>
<path d="M23.9996 24L18.6784 59.6049L18.3682 59.5569L23.9996 24Z" fill="#94FA70" stroke="#94FA70" stroke-width="0.02"/>
<path d="M23.9998 24L18.3684 59.5569L18.0581 59.5063L23.9998 24Z" fill="#95FA6F" stroke="#95FA6F" stroke-width="0.02"/>
<path d="M23.9997 24L18.058 59.5063L17.7485 59.4531L23.9997 24Z" fill="#96FA6E" stroke="#96FA6E" stroke-width="0.02"/>
<path d="M24 24L17.7489 59.4531L17.4395 59.3974L24 24Z" fill="#97FA6D" stroke="#97FA6D" stroke-width="0.02"/>
<path d="M23.9995 24L17.4389 59.3974L17.1304 59.3391L23.9995 24.0009V24Z" fill="#98FA6C" stroke="#98FA6C" stroke-width="0.02"/>
<path d="M23.9996 24L17.1305 59.3383L16.8228 59.2774L23.9996 24Z" fill="#99FA6B" stroke="#99FA6B" stroke-width="0.02"/>
<path d="M23.9997 24L16.8229 59.2774L16.5151 59.2131L23.9997 24Z" fill="#9AFA6A" stroke="#9AFA6A" stroke-width="0.02"/>
<path d="M23.9994 24L16.5149 59.2131L16.208 59.1463L23.9994 24Z" fill="#9BFA69" stroke="#9BFA69" stroke-width="0.02"/>
<path d="M23.9997 24.0009L16.2082 59.1471L15.9014 59.0777L23.9997 24V24.0009Z" fill="#9CFA68" stroke="#9CFA68" stroke-width="0.02"/>
<path d="M23.9995 24L15.9012 59.0777L15.5952 59.0057L23.9995 24Z" fill="#9DFA67" stroke="#9DFA67" stroke-width="0.02"/>
<path d="M24 24L15.5957 59.0057L15.2905 58.9311L24 24.0009V24Z" fill="#9EFA66" stroke="#9EFA66" stroke-width="0.02"/>
<path d="M23.9996 24L15.2901 58.9303L14.9858 58.8531L23.9996 24Z" fill="#9FFA65" stroke="#9FFA65" stroke-width="0.02"/>
<path d="M23.9998 24L14.986 58.8531L14.6826 58.7734L23.9998 24Z" fill="#A0FA64" stroke="#A0FA64" stroke-width="0.02"/>
<path d="M24 24L14.6828 58.7734L14.3794 58.6911L24 24.0009V24Z" fill="#A1FA63" stroke="#A1FA63" stroke-width="0.02"/>
<path d="M23.9998 24L14.3792 58.6903L14.0767 58.6054L23.9998 24Z" fill="#A2FA62" stroke="#A2FA62" stroke-width="0.02"/>
<path d="M23.9998 24L14.0766 58.6054L13.7749 58.5171L23.9998 24Z" fill="#A3FA61" stroke="#A3FA61" stroke-width="0.02"/>
<path d="M23.9998 24.0009L13.775 58.518L13.4741 58.4271L23.9998 24V24.0009Z" fill="#A4FA60" stroke="#A4FA60" stroke-width="0.02"/>
<path d="M23.9995 24L13.4738 58.4271L13.1738 58.3337L23.9995 24Z" fill="#A5FA5F" stroke="#A5FA5F" stroke-width="0.02"/>
<path d="M23.9999 24L13.1741 58.3337L12.875 58.2377L23.9999 24Z" fill="#A6FA5E" stroke="#A6FA5E" stroke-width="0.02"/>
<path d="M23.9998 24.0009L12.8749 58.2386L12.5767 58.14L23.9998 24V24.0009Z" fill="#A7FA5D" stroke="#A7FA5D" stroke-width="0.02"/>
<path d="M23.9999 24L12.5767 58.14L12.2793 58.0389L23.9999 24Z" fill="#A8FA5C" stroke="#A8FA5C" stroke-width="0.02"/>
<path d="M24.0001 24L12.2795 58.0389L11.9829 57.9351L24.0001 24Z" fill="#A9FA5B" stroke="#A9FA5B" stroke-width="0.02"/>
<path d="M23.9999 24L11.9827 57.9351L11.687 57.8289L23.9999 24Z" fill="#AAFA5A" stroke="#AAFA5A" stroke-width="0.02"/>
<path d="M24.0003 24L11.6874 57.8289L11.3926 57.72L24.0003 24Z" fill="#ABFA59" stroke="#ABFA59" stroke-width="0.02"/>
<path d="M23.9999 24L11.3921 57.72L11.0981 57.6086L23.999 24H23.9999Z" fill="#ACFA58" stroke="#ACFA58" stroke-width="0.02"/>
<path d="M23.9997 24.0009L11.0988 57.6094L10.8057 57.4954L23.9997 24V24.0009Z" fill="#ADFA57" stroke="#ADFA57" stroke-width="0.02"/>
<path d="M23.9996 24L10.8056 57.4954L10.5142 57.3789L23.9996 24Z" fill="#AEFA56" stroke="#AEFA56" stroke-width="0.02"/>
<path d="M23.9991 24L10.5137 57.3789L10.2231 57.2597L24 24H23.9991Z" fill="#AFFA55" stroke="#AFFA55" stroke-width="0.02"/>
<path d="M23.9997 24L10.2228 57.2597L9.93311 57.138L23.9997 24Z" fill="#B0FA54" stroke="#B0FA54" stroke-width="0.02"/>
<path d="M23.9995 24.0009L9.9329 57.1389L9.64404 57.0146L23.9986 24L23.9995 24.0009Z" fill="#B1FA53" stroke="#B1FA53" stroke-width="0.02"/>
<path d="M23.9991 24L9.64456 57.0146L9.35742 56.8877L24 24H23.9991Z" fill="#B2FA52" stroke="#B2FA52" stroke-width="0.02"/>
<path d="M23.9992 24L9.3566 56.8877L9.07031 56.7583L23.9992 24Z" fill="#B3FA51" stroke="#B3FA51" stroke-width="0.02"/>
<path d="M23.9999 24L9.07107 56.7583L8.78564 56.6271L23.9999 24Z" fill="#B4FA50" stroke="#B4FA50" stroke-width="0.02"/>
<path d="M23.9995 24L8.78518 56.6271L8.50146 56.4934L23.9995 24Z" fill="#B5FA4F" stroke="#B5FA4F" stroke-width="0.02"/>
<path d="M23.9996 24L8.50161 56.4934L8.21875 56.3571L24.0005 24.0009L23.9996 24Z" fill="#B6FA4E" stroke="#B6FA4E" stroke-width="0.02"/>
<path d="M23.9998 24L8.21803 56.3563L7.93604 56.2174L23.9989 24H23.9998Z" fill="#B7FA4D" stroke="#B7FA4D" stroke-width="0.02"/>
<path d="M23.9999 24L7.93702 56.2174L7.65674 56.076L24.0007 24H23.9999Z" fill="#B8FA4C" stroke="#B8FA4C" stroke-width="0.02"/>
<path d="M23.9999 24L7.65589 56.076L7.37646 55.932L23.999 24H23.9999Z" fill="#B9FA4B" stroke="#B9FA4B" stroke-width="0.02"/>
<path d="M23.9999 24.0009L7.37732 55.9329L7.09961 55.7863L24.0008 24L23.9999 24.0009Z" fill="#BAFA4A" stroke="#BAFA4A" stroke-width="0.02"/>
<path d="M23.9998 24L7.09863 55.7863L6.82178 55.638L23.9998 24.0009V24Z" fill="#BBFA49" stroke="#BBFA49" stroke-width="0.02"/>
<path d="M23.9995 24L6.82153 55.6371L6.54639 55.4863L23.9995 24Z" fill="#BCFA48" stroke="#BCFA48" stroke-width="0.02"/>
<path d="M23.9999 24L6.54675 55.4863L6.27246 55.3329L23.9999 24Z" fill="#BDFA47" stroke="#BDFA47" stroke-width="0.02"/>
<path d="M23.9995 24L6.27208 55.3329L5.99951 55.1769L23.9995 24Z" fill="#BEFA46" stroke="#BEFA46" stroke-width="0.02"/>
<path d="M23.9993 24L5.99925 55.1769L5.72754 55.0183L23.9993 24Z" fill="#BFFA45" stroke="#BFFA45" stroke-width="0.02"/>
<path d="M23.9997 24L5.72801 55.0183L5.45801 54.858L23.9997 24Z" fill="#C0FA44" stroke="#C0FA44" stroke-width="0.02"/>
<path d="M23.9999 24L5.45823 54.858L5.18994 54.6951L23.9999 24Z" fill="#C1FA43" stroke="#C1FA43" stroke-width="0.02"/>
<path d="M23.9993 24L5.1893 54.6951L4.92188 54.5297L23.9993 24Z" fill="#C2FA42" stroke="#C2FA42" stroke-width="0.02"/>
<path d="M23.9999 24L4.92245 54.5297L4.65674 54.3617L23.9999 24Z" fill="#C3FA41" stroke="#C3FA41" stroke-width="0.02"/>
<path d="M23.9997 24L4.65658 54.3617L4.39258 54.192L23.9997 24Z" fill="#C4FA40" stroke="#C4FA40" stroke-width="0.02"/>
<path d="M23.9997 24L4.39254 54.192L4.12939 54.0197L23.9988 24H23.9997Z" fill="#C5FA3F" stroke="#C5FA3F" stroke-width="0.02"/>
<path d="M23.9995 24.0009L4.13008 54.0206L3.86865 53.8457L23.9995 24V24.0009Z" fill="#C6FA3E" stroke="#C6FA3E" stroke-width="0.02"/>
<path d="M23.9999 24L3.86909 53.8457L3.60938 53.6691L23.9999 24.0009V24Z" fill="#C7FA3D" stroke="#C7FA3D" stroke-width="0.02"/>
<path d="M23.9996 24L3.60907 53.6683L3.35107 53.4891L23.9996 24Z" fill="#C8FA3C" stroke="#C8FA3C" stroke-width="0.02"/>
<path d="M23.9996 24.0009L3.35101 53.49L3.09473 53.3083L24.0004 24L23.9996 24.0009Z" fill="#C9FA3B" stroke="#C9FA3B" stroke-width="0.02"/>
<path d="M24.0001 24L3.09442 53.3083L2.83984 53.1249L24.0001 24Z" fill="#CAFA3A" stroke="#CAFA3A" stroke-width="0.02"/>
<path d="M23.9995 24L2.83916 53.1249L2.58545 52.9389L23.9995 24Z" fill="#CBFA39" stroke="#CBFA39" stroke-width="0.02"/>
<path d="M23.9995 24L2.58549 52.9389L2.3335 52.7511L23.9986 24H23.9995Z" fill="#CCFA38" stroke="#CCFA38" stroke-width="0.02"/>
<path d="M23.9999 24L2.33476 52.7511L2.08447 52.5609L23.9999 24Z" fill="#CDFA37" stroke="#CDFA37" stroke-width="0.02"/>
<path d="M23.9995 24L2.08402 52.5609L1.83545 52.3689L23.9995 24.0009V24Z" fill="#CEFA36" stroke="#CEFA36" stroke-width="0.02"/>
<path d="M23.9997 24.0009L1.83572 52.3689L1.58887 52.1743L23.9997 24V24.0009Z" fill="#CFFA35" stroke="#CFFA35" stroke-width="0.02"/>
<path d="M24.0002 24L1.58938 52.1743L1.34424 51.978L23.9994 24.0009L24.0002 24Z" fill="#D0FA34" stroke="#D0FA34" stroke-width="0.02"/>
<path d="M23.9996 24L1.3445 51.9771L1.10107 51.7783L23.9996 24Z" fill="#D1FA33" stroke="#D1FA33" stroke-width="0.02"/>
<path d="M23.9997 24L1.10109 51.7783L0.859375 51.5777L23.9997 24Z" fill="#D2FA32" stroke="#D2FA32" stroke-width="0.02"/>
<path d="M23.9999 24L0.859628 51.5777L0.619629 51.3746L23.9999 24Z" fill="#D3FA31" stroke="#D3FA31" stroke-width="0.02"/>
<path d="M23.9994 24L0.619145 51.3746L0.380859 51.1697L23.9986 24H23.9994Z" fill="#D4FA30" stroke="#D4FA30" stroke-width="0.02"/>
<path d="M24.0003 24L0.382567 51.1697L0.145996 50.9623L24.0003 24Z" fill="#D5FA2F" stroke="#D5FA2F" stroke-width="0.02"/>
<path d="M23.9994 24L0.145134 50.9623L-0.0888672 50.7531L24.0003 24H23.9994Z" fill="#D6FA2E" stroke="#D6FA2E" stroke-width="0.02"/>
<path d="M23.9997 24L-0.0894911 50.7531L-0.321777 50.5423L23.9997 24Z" fill="#D7FA2D" stroke="#D7FA2D" stroke-width="0.02"/>
<path d="M23.9998 24L-0.321676 50.5423L-0.552246 50.3289L23.9998 24Z" fill="#D8FA2C" stroke="#D8FA2C" stroke-width="0.02"/>
<path d="M24.0001 24L-0.551903 50.3289L-0.780762 50.1137L24.0001 24Z" fill="#D9FA2B" stroke="#D9FA2B" stroke-width="0.02"/>
<path d="M23.9992 24L-0.781647 50.1137L-1.00879 49.8969L23.9992 24.0009V24Z" fill="#DAFA2A" stroke="#DAFA2A" stroke-width="0.02"/>
<path d="M23.9997 24.0009L-1.00834 49.8969L-1.23291 49.6774L23.9997 24V24.0009Z" fill="#DBFA29" stroke="#DBFA29" stroke-width="0.02"/>
<path d="M23.9999 24L-1.23271 49.6774L-1.45557 49.4563L23.9999 24.0009V24Z" fill="#DCFA28" stroke="#DCFA28" stroke-width="0.02"/>
<path d="M23.9998 24L-1.45561 49.4554L-1.67676 49.2326L24.0007 24H23.9998Z" fill="#DDFA27" stroke="#DDFA27" stroke-width="0.02"/>
<path d="M23.9999 24L-1.67754 49.2326L-1.89697 49.008L23.999 24H23.9999Z" fill="#DEFA26" stroke="#DEFA26" stroke-width="0.02"/>
<path d="M23.9996 24L-1.89642 49.008L-2.11328 48.7809L24.0004 24H23.9996Z" fill="#DFFA25" stroke="#DFFA25" stroke-width="0.02"/>
<path d="M23.9998 24L-2.11396 48.7809L-2.3291 48.552L23.9998 24Z" fill="#E0FA24" stroke="#E0FA24" stroke-width="0.02"/>
<path d="M23.9998 24L-2.32905 48.552L-2.54248 48.3214L23.9998 24Z" fill="#E1FA23" stroke="#E1FA23" stroke-width="0.02"/>
<path d="M23.9997 24L-2.54256 48.3214L-2.75342 48.0891L23.9997 24Z" fill="#E2FA22" stroke="#E2FA22" stroke-width="0.02"/>
<path d="M23.9994 24L-2.75375 48.0891L-2.96289 47.8551L23.9994 24.0009V24Z" fill="#E3FA21" stroke="#E3FA21" stroke-width="0.02"/>
<path d="M23.9998 24L-2.96249 47.8543L-3.16992 47.6177L23.9998 24Z" fill="#E4FA20" stroke="#E4FA20" stroke-width="0.02"/>
<path d="M23.9996 24.0009L-3.17014 47.6186L-3.375 47.3803L23.9996 24V24.0009Z" fill="#E5FA1F" stroke="#E5FA1F" stroke-width="0.02"/>
<path d="M23.9996 24L-3.37498 47.3803L-3.57812 47.1403L23.9996 24Z" fill="#E6FA1E" stroke="#E6FA1E" stroke-width="0.02"/>
<path d="M23.9995 24L-3.57824 47.1403L-3.77881 46.8986L23.9995 24Z" fill="#E7FA1D" stroke="#E7FA1D" stroke-width="0.02"/>
<path d="M24.0001 24L-3.77819 46.8986L-3.97705 46.6551L24.0001 24Z" fill="#E8FA1C" stroke="#E8FA1C" stroke-width="0.02"/>
<path d="M24.0001 24.0009L-3.97705 46.656L-4.17334 46.4109L24.0009 24L24.0001 24.0009Z" fill="#E9FA1B" stroke="#E9FA1B" stroke-width="0.02"/>
<path d="M23.9997 24L-4.17457 46.4109L-4.36914 46.164L23.9989 24H23.9997Z" fill="#EAFA1A" stroke="#EAFA1A" stroke-width="0.02"/>
<path d="M23.9999 24L-4.36806 46.164L-4.56006 45.9154L24.0008 24H23.9999Z" fill="#EBFA19" stroke="#EBFA19" stroke-width="0.02"/>
<path d="M23.9997 24L-4.56118 45.9154L-4.75146 45.6651L23.9997 24Z" fill="#ECFA18" stroke="#ECFA18" stroke-width="0.02"/>
<path d="M23.9999 24.0009L-4.75125 45.666L-4.93896 45.414L23.9999 24V24.0009Z" fill="#EDFA17" stroke="#EDFA17" stroke-width="0.02"/>
<path d="M23.9999 24L-4.939 45.414L-5.125 45.1603L23.9999 24Z" fill="#EEFA16" stroke="#EEFA16" stroke-width="0.02"/>
<path d="M23.9997 24L-5.12517 45.1603L-5.30859 44.9057L23.9997 24Z" fill="#EFFA15" stroke="#EFFA15" stroke-width="0.02"/>
<path d="M23.9998 24L-5.30852 44.9057L-5.49023 44.6494L23.9989 24.0009L23.9998 24Z" fill="#F0FA14" stroke="#F0FA14" stroke-width="0.02"/>
<path d="M23.9998 24L-5.48931 44.6486L-5.66846 44.3906L23.9998 24Z" fill="#F1FA13" stroke="#F1FA13" stroke-width="0.02"/>
<path d="M24.0001 24L-5.66816 44.3906L-5.84473 44.1309L24.001 24H24.0001Z" fill="#F2FA12" stroke="#F2FA12" stroke-width="0.02"/>
<path d="M24.0001 24L-5.84565 44.1309L-6.02051 43.8694L23.9992 24H24.0001Z" fill="#F3FA11" stroke="#F3FA11" stroke-width="0.02"/>
<path d="M24.0001 24.0009L-6.01961 43.8703L-6.19189 43.6071L24.0001 24V24.0009Z" fill="#F4FA10" stroke="#F4FA10" stroke-width="0.02"/>
<path d="M23.9999 24L-6.1921 43.6071L-6.36182 43.3431L23.9999 24Z" fill="#F5FA0F" stroke="#F5FA0F" stroke-width="0.02"/>
<path d="M23.9999 24L-6.36179 43.3431L-6.52979 43.0774L23.9999 24Z" fill="#F6FA0E" stroke="#F6FA0E" stroke-width="0.02"/>
<path d="M23.9998 24L-6.52988 43.0774L-6.69531 42.81L23.9998 24Z" fill="#F7FA0D" stroke="#F7FA0D" stroke-width="0.02"/>
<path d="M23.9996 24L-6.69554 42.81L-6.8584 42.5417L23.9996 24Z" fill="#F8FA0C" stroke="#F8FA0C" stroke-width="0.02"/>
<path d="M24.0002 24L-6.85778 42.5417L-7.01807 42.2717L24.0002 24Z" fill="#F9FA0B" stroke="#F9FA0B" stroke-width="0.02"/>
<path d="M23.9996 24L-7.01867 42.2717L-7.17725 42L23.9996 24Z" fill="#FAFA0A" stroke="#FAFA0A" stroke-width="0.02"/>
<path d="M23.9999 24L-7.17701 42L-7.33301 41.7274L23.9999 24Z" fill="#FAF90B" stroke="#FAF90B" stroke-width="0.02"/>
<path d="M24 24L-7.3329 41.7274L-7.48633 41.4531L24 24Z" fill="#FAF80C" stroke="#FAF80C" stroke-width="0.02"/>
<path d="M23.9999 24L-7.48635 41.4531L-7.63721 41.178L23.9999 24Z" fill="#FAF70D" stroke="#FAF70D" stroke-width="0.02"/>
<path d="M23.9998 24L-7.63736 41.178L-7.78564 40.9011L24.0006 24H23.9998Z" fill="#FAF60E" stroke="#FAF60E" stroke-width="0.02"/>
<path d="M23.9998 24L-7.78653 40.9011L-7.93311 40.6234L23.9989 24.0009L23.9998 24Z" fill="#FAF50F" stroke="#FAF50F" stroke-width="0.02"/>
<path d="M23.9993 24.0009L-7.93266 40.6234L-8.07666 40.344L23.9993 24V24.0009Z" fill="#FAF410" stroke="#FAF410" stroke-width="0.02"/>
<path d="M23.9997 24L-8.07634 40.344L-8.21777 40.0637L23.9997 24.0009V24Z" fill="#FAF311" stroke="#FAF311" stroke-width="0.02"/>
<path d="M23.9998 24.0009L-8.21759 40.0637L-8.35645 39.7817L23.9998 24V24.0009Z" fill="#FAF212" stroke="#FAF212" stroke-width="0.02"/>
<path d="M23.9999 24L-8.35639 39.7817L-8.49268 39.4989L24.0008 24.0009L23.9999 24Z" fill="#FAF113" stroke="#FAF113" stroke-width="0.02"/>
<path d="M23.9997 24L-8.49373 39.498L-8.62744 39.2143L23.9997 24Z" fill="#FAF014" stroke="#FAF014" stroke-width="0.02"/>
<path d="M24 24L-8.62716 39.2143L-8.7583 38.9289L24 24Z" fill="#FAEF15" stroke="#FAEF15" stroke-width="0.02"/>
<path d="M23.9995 24L-8.75875 38.9289L-8.88818 38.6426L23.9995 24Z" fill="#FAEE16" stroke="#FAEE16" stroke-width="0.02"/>
<path d="M23.9999 24L-8.88779 38.6426L-9.01465 38.3554L23.9991 24.0009L23.9999 24Z" fill="#FAED17" stroke="#FAED17" stroke-width="0.02"/>
<path d="M23.9993 24.0009L-9.01439 38.3554L-9.13867 38.0666L23.9993 24V24.0009Z" fill="#FAEC18" stroke="#FAEC18" stroke-width="0.02"/>
<path d="M23.9995 24L-9.13854 38.0666L-9.26025 37.7769L23.9995 24Z" fill="#FAEB19" stroke="#FAEB19" stroke-width="0.02"/>
<path d="M24 24L-9.25976 37.7769L-9.37891 37.4863L24 24.0009V24Z" fill="#FAEA1A" stroke="#FAEA1A" stroke-width="0.02"/>
<path d="M23.9993 24L-9.37952 37.4863L-9.49609 37.1949L23.9993 24.0009V24Z" fill="#FAE91B" stroke="#FAE91B" stroke-width="0.02"/>
<path d="M24.0001 24L-9.49538 37.194L-9.60938 36.9009L23.9992 24H24.0001Z" fill="#FAE81C" stroke="#FAE81C" stroke-width="0.02"/>
<path d="M23.9998 24.0009L-9.60879 36.9017L-9.72021 36.6077L23.9998 24V24.0009Z" fill="#FAE71D" stroke="#FAE71D" stroke-width="0.02"/>
<path d="M23.9998 24L-9.72024 36.6077L-9.8291 36.3129L23.9998 24Z" fill="#FAE61E" stroke="#FAE61E" stroke-width="0.02"/>
<path d="M23.9996 24L-9.82926 36.3129L-9.93555 36.0171L23.9996 24Z" fill="#FAE51F" stroke="#FAE51F" stroke-width="0.02"/>
<path d="M24.0003 24L-9.93486 36.0171L-10.0386 35.7206L24.0003 24Z" fill="#FAE420" stroke="#FAE420" stroke-width="0.02"/>
<path d="M23.9994 24L-10.0395 35.7206L-10.1406 35.4231L23.9994 24Z" fill="#FAE321" stroke="#FAE321" stroke-width="0.02"/>
<path d="M23.9998 24L-10.1402 35.4231L-10.2388 35.1249L23.9989 24H23.9998Z" fill="#FAE222" stroke="#FAE222" stroke-width="0.02"/>
<path d="M23.9997 24L-10.238 35.1249L-10.334 34.8257L23.9997 24Z" fill="#FAE123" stroke="#FAE123" stroke-width="0.02"/>
<path d="M23.9994 24L-10.3343 34.8257L-10.4277 34.5257L23.9994 24Z" fill="#FAE024" stroke="#FAE024" stroke-width="0.02"/>
<path d="M23.9994 24L-10.4277 34.5257L-10.5186 34.2249L23.9986 24H23.9994Z" fill="#FADF25" stroke="#FADF25" stroke-width="0.02"/>
<path d="M23.9995 24L-10.5177 34.2249L-10.606 33.9231L23.9995 24Z" fill="#FADE26" stroke="#FADE26" stroke-width="0.02"/>
<path d="M23.9994 24L-10.6061 33.9231L-10.6909 33.6206L23.9994 24Z" fill="#FADD27" stroke="#FADD27" stroke-width="0.02"/>
<path d="M23.9996 24L-10.6907 33.6206L-10.7729 33.3171L24.0005 24H23.9996Z" fill="#FADC28" stroke="#FADC28" stroke-width="0.02"/>
<path d="M23.9996 24L-10.7738 33.3171L-10.8535 33.0137L23.9996 24Z" fill="#FADB29" stroke="#FADB29" stroke-width="0.02"/>
<path d="M23.9991 24L-10.854 33.0137L-10.9312 32.7094L23.9991 24Z" fill="#FADA2A" stroke="#FADA2A" stroke-width="0.02"/>
<path d="M24 24L-10.9303 32.7094L-11.0049 32.4043L24.0008 24H24Z" fill="#FAD92B" stroke="#FAD92B" stroke-width="0.02"/>
<path d="M23.9996 24L-11.0061 32.4043L-11.0781 32.0983L23.9996 24Z" fill="#FAD82C" stroke="#FAD82C" stroke-width="0.02"/>
<path d="M23.9992 24L-11.0785 32.0983L-11.1479 31.7914L23.9983 24H23.9992Z" fill="#FAD72D" stroke="#FAD72D" stroke-width="0.02"/>
<path d="M23.9993 24L-11.147 31.7914L-11.2139 31.4846L23.9993 24Z" fill="#FAD62E" stroke="#FAD62E" stroke-width="0.02"/>
<path d="M24.0001 24L-11.2131 31.4846L-11.2773 31.1769L24.0001 24Z" fill="#FAD52F" stroke="#FAD52F" stroke-width="0.02"/>
<path d="M23.9994 24L-11.278 31.1769L-11.3389 30.8691L23.9994 24Z" fill="#FAD430" stroke="#FAD430" stroke-width="0.02"/>
<path d="M23.9996 24L-11.3387 30.8691L-11.397 30.5606L24.0005 24H23.9996Z" fill="#FAD331" stroke="#FAD331" stroke-width="0.02"/>
<path d="M24 24L-11.3974 30.5606L-11.4531 30.2511L24 24Z" fill="#FAD232" stroke="#FAD232" stroke-width="0.02"/>
<path d="M23.9995 24L-11.4537 30.2511L-11.5068 29.9417L23.9995 24Z" fill="#FAD133" stroke="#FAD133" stroke-width="0.02"/>
<path d="M23.9997 24L-11.5066 29.9417L-11.5571 29.6314L23.9997 24Z" fill="#FAD034" stroke="#FAD034" stroke-width="0.02"/>
<path d="M23.9994 24L-11.5575 29.6314L-11.6055 29.3211L23.9994 24Z" fill="#FACF35" stroke="#FACF35" stroke-width="0.02"/>
<path d="M23.9994 24L-11.6055 29.3211L-11.6509 29.01L23.9986 24H23.9994Z" fill="#FACE36" stroke="#FACE36" stroke-width="0.02"/>
<path d="M23.9994 24L-11.65 29.01L-11.6929 28.6989L23.9994 24Z" fill="#FACD37" stroke="#FACD37" stroke-width="0.02"/>
<path d="M23.9993 24.0009L-11.693 28.6997L-11.7324 28.3877L23.9993 24V24.0009Z" fill="#FACC38" stroke="#FACC38" stroke-width="0.02"/>
<path d="M23.9995 24L-11.7322 28.3877L-11.769 28.0757L23.9995 24.0009V24Z" fill="#FACB39" stroke="#FACB39" stroke-width="0.02"/>
<path d="M23.9996 24L-11.7689 28.0749L-11.8032 27.7629L23.9996 24Z" fill="#FACA3A" stroke="#FACA3A" stroke-width="0.02"/>
<path d="M23.9996 24L-11.8032 27.7629L-11.835 27.45L23.9996 24Z" fill="#FAC93B" stroke="#FAC93B" stroke-width="0.02"/>
<path d="M23.9996 24.0009L-11.835 27.4509L-11.8633 27.138L23.9996 24V24.0009Z" fill="#FAC83C" stroke="#FAC83C" stroke-width="0.02"/>
<path d="M23.9994 24L-11.8634 27.138L-11.8892 26.8251L24.0003 24.0009L23.9994 24Z" fill="#FAC73D" stroke="#FAC73D" stroke-width="0.02"/>
<path d="M23.9995 24.0009L-11.8899 26.8251L-11.9131 26.5114L23.9995 24V24.0009Z" fill="#FAC63E" stroke="#FAC63E" stroke-width="0.02"/>
<path d="M23.9995 24L-11.913 26.5114L-11.9336 26.1977L23.9995 24Z" fill="#FAC53F" stroke="#FAC53F" stroke-width="0.02"/>
<path d="M24 24L-11.9332 26.1977L-11.9512 25.884L23.9991 24H24Z" fill="#FAC440" stroke="#FAC440" stroke-width="0.02"/>
<path d="M23.9999 24L-11.9504 25.884L-11.9658 25.5703L23.9999 24Z" fill="#FAC341" stroke="#FAC341" stroke-width="0.02"/>
<path d="M23.9992 24L-11.9665 25.5703L-11.9785 25.2566L23.9992 24Z" fill="#FAC242" stroke="#FAC242" stroke-width="0.02"/>
<path d="M23.9998 24L-11.9779 25.2566L-11.9873 24.9429L24.0007 24.0009L23.9998 24Z" fill="#FAC143" stroke="#FAC143" stroke-width="0.02"/>
<path d="M23.9997 24L-11.9883 24.942L-11.9951 24.6283L23.9997 24Z" fill="#FAC044" stroke="#FAC044" stroke-width="0.02"/>
<path d="M23.9996 24.0009L-11.9952 24.6291L-11.9995 24.3146L23.9988 24L23.9996 24.0009Z" fill="#FABF45" stroke="#FABF45" stroke-width="0.02"/>
<path d="M23.9995 24L-11.9988 24.3146L-12.0005 24H23.9995Z" fill="#FABE46" stroke="#FABE46" stroke-width="0.02"/>
<path d="M23.9995 24.0001H-12.0005L-11.9988 23.6855L23.9995 24.0001Z" fill="#FABD47" stroke="#FABD47" stroke-width="0.02"/>
<path d="M23.9993 24.0004L-11.999 23.6866L-11.9947 23.3721L24.0001 24.0004H23.9993Z" fill="#FABC48" stroke="#FABC48" stroke-width="0.02"/>
<path d="M23.9997 24.0006L-11.9951 23.3723L-11.9883 23.0586L23.9997 24.0006Z" fill="#FABB49" stroke="#FABB49" stroke-width="0.02"/>
<path d="M23.9992 23.9999L-11.9888 23.0579L-11.9793 22.7441L23.9984 24.0007L23.9992 23.9999Z" fill="#FAB94B" stroke="#FABB49" stroke-width="0.02"/>
<path d="M23.9992 24L-11.9785 22.7434L-11.9665 22.4297L23.9992 24Z" fill="#FAB94B" stroke="#FAB94B" stroke-width="0.02"/>
<path d="M23.9999 24.0002L-11.9658 22.4299L-11.9504 22.1162L23.9999 24.0002Z" fill="#FAB84C" stroke="#FAB84C" stroke-width="0.02"/>
<path d="M23.9996 24.0004L-11.9507 22.1164L-11.9327 21.8027L24.0005 24.0004H23.9996Z" fill="#FAB74D" stroke="#FAB74D" stroke-width="0.02"/>
<path d="M23.9995 24.0007L-11.9336 21.803L-11.913 21.4893L23.9995 24.0007Z" fill="#FAB64E" stroke="#FAB64E" stroke-width="0.02"/>
<path d="M23.9995 24.0009L-11.9131 21.4895L-11.8899 21.1758L23.9995 24.0001V24.0009Z" fill="#FAB54F" stroke="#FAB54F" stroke-width="0.02"/>
<path d="M23.9998 24.0004L-11.8896 21.1761L-11.8639 20.8633L23.9989 24.0013L23.9998 24.0004Z" fill="#FAB450" stroke="#FAB450" stroke-width="0.02"/>
<path d="M23.9996 23.9997L-11.8633 20.8617L-11.835 20.5488L23.9996 23.9988V23.9997Z" fill="#FAB351" stroke="#FAB351" stroke-width="0.02"/>
<path d="M23.9996 24.0002L-11.835 20.5502L-11.8032 20.2373L23.9996 24.0002Z" fill="#FAB252" stroke="#FAB252" stroke-width="0.02"/>
<path d="M23.9996 23.9997L-11.8032 20.2368L-11.7689 19.9248L23.9996 23.9997Z" fill="#FAB153" stroke="#FAB153" stroke-width="0.02"/>
<path d="M23.9995 24.0001L-11.769 19.9253L-11.7322 19.6133L23.9995 24.001V24.0001Z" fill="#FAB054" stroke="#FAB054" stroke-width="0.02"/>
<path d="M23.9993 23.9995L-11.7324 19.6118L-11.693 19.2998L23.9993 23.9987V23.9995Z" fill="#FAAF55" stroke="#FAAF55" stroke-width="0.02"/>
<path d="M23.9994 24.0002L-11.6929 19.3014L-11.65 18.9902L23.9994 24.0002Z" fill="#FAAE56" stroke="#FAAE56" stroke-width="0.02"/>
<path d="M24 23.9999L-11.6494 18.9899L-11.604 18.6787L24.0009 23.9999H24Z" fill="#FAAD57" stroke="#FAAD57" stroke-width="0.02"/>
<path d="M23.9994 23.9996L-11.6055 18.6784L-11.5575 18.3682L23.9994 23.9996Z" fill="#FAAC58" stroke="#FAAC58" stroke-width="0.02"/>
<path d="M23.9997 24.0003L-11.5571 18.3689L-11.5066 18.0586L23.9997 24.0003Z" fill="#FAAB59" stroke="#FAAB59" stroke-width="0.02"/>
<path d="M23.9995 24.0002L-11.5068 18.0585L-11.4537 17.749L23.9995 24.0002Z" fill="#FAAA5A" stroke="#FAAA5A" stroke-width="0.02"/>
<path d="M24 24L-11.4531 17.7489L-11.3974 17.4395L24 24Z" fill="#FAA95B" stroke="#FAA95B" stroke-width="0.02"/>
<path d="M24 24L-11.3975 17.4394L-11.3392 17.1309L23.9991 24H24Z" fill="#FAA85C" stroke="#FAA85C" stroke-width="0.02"/>
<path d="M23.9994 24.0001L-11.3389 17.131L-11.278 16.8232L23.9994 24.0001Z" fill="#FAA75D" stroke="#FAA75D" stroke-width="0.02"/>
<path d="M24.0001 24.0002L-11.2773 16.8233L-11.2131 16.5156L24.0001 24.0002Z" fill="#FAA65E" stroke="#FAA65E" stroke-width="0.02"/>
<path d="M23.9993 24.0004L-11.2139 16.5158L-11.147 16.209L23.9993 24.0004Z" fill="#FAA55F" stroke="#FAA55F" stroke-width="0.02"/>
<path d="M23.9998 23.9997L-11.1465 16.2082L-11.0771 15.9014L24.0007 23.9997H23.9998Z" fill="#FAA460" stroke="#FAA460" stroke-width="0.02"/>
<path d="M23.9996 24L-11.0781 15.9017L-11.0061 15.5957L23.9996 24Z" fill="#FAA361" stroke="#FAA361" stroke-width="0.02"/>
<path d="M23.9994 24.0004L-11.0063 15.5962L-10.9318 15.291L23.9985 24.0004H23.9994Z" fill="#FAA262" stroke="#FAA262" stroke-width="0.02"/>
<path d="M23.9991 24L-10.9312 15.2906L-10.854 14.9863L23.9991 24Z" fill="#FAA163" stroke="#FAA163" stroke-width="0.02"/>
<path d="M23.9996 23.9998L-10.8535 14.986L-10.7738 14.6826L23.9996 23.9998Z" fill="#FAA064" stroke="#FAA064" stroke-width="0.02"/>
<path d="M24 24.0005L-10.7734 14.6833L-10.6912 14.3799L23.9991 24.0005H24Z" fill="#FA9F65" stroke="#FA9F65" stroke-width="0.02"/>
<path d="M23.9994 24.0003L-10.6909 14.3797L-10.6061 14.0771L23.9994 24.0003Z" fill="#FA9E66" stroke="#FA9E66" stroke-width="0.02"/>
<path d="M23.9995 24.0002L-10.606 14.0771L-10.5177 13.7754L23.9995 24.0002Z" fill="#FA9D67" stroke="#FA9D67" stroke-width="0.02"/>
<path d="M24.0001 24.0003L-10.5171 13.7755L-10.4262 13.4746L24.0009 24.0003H24.0001Z" fill="#FA9C68" stroke="#FA9C68" stroke-width="0.02"/>
<path d="M23.9994 23.9995L-10.4277 13.4738L-10.3343 13.1738L23.9994 23.9995Z" fill="#FA9B69" stroke="#FA9B69" stroke-width="0.02"/>
<path d="M23.9997 23.9999L-10.334 13.1741L-10.238 12.875L23.9997 23.9999Z" fill="#FA9A6A" stroke="#FA9A6A" stroke-width="0.02"/>
<path d="M23.9999 24.0003L-10.2378 12.8754L-10.1392 12.5771L24.0008 24.0003H23.9999Z" fill="#FA996B" stroke="#FA996B" stroke-width="0.02"/>
<path d="M23.9994 24.0008L-10.1406 12.5777L-10.0395 12.2803L23.9994 24.0008Z" fill="#FA986C" stroke="#FA986C" stroke-width="0.02"/>
<path d="M24.0003 24.0005L-10.0386 12.28L-9.93486 11.9834L24.0003 24.0005Z" fill="#FA976D" stroke="#FA976D" stroke-width="0.02"/>
<path d="M23.9996 24.0004L-9.93555 11.9832L-9.82926 11.6875L23.9996 24.0004Z" fill="#FA966E" stroke="#FA966E" stroke-width="0.02"/>
<path d="M23.9998 24.0003L-9.8291 11.6874L-9.72024 11.3926L23.9998 24.0003Z" fill="#FA956F" stroke="#FA956F" stroke-width="0.02"/>
<path d="M23.9998 24.0003L-9.72021 11.3926L-9.60879 11.0986L23.9998 23.9995V24.0003Z" fill="#FA9470" stroke="#FA9470" stroke-width="0.02"/>
<path d="M23.9997 24.0006L-9.60889 11.0998L-9.49489 10.8066L24.0005 24.0006H23.9997Z" fill="#FA9371" stroke="#FA9371" stroke-width="0.02"/>
<path d="M23.9993 24.0001L-9.49609 10.8061L-9.37952 10.5146L23.9993 24.0001Z" fill="#FA9272" stroke="#FA9272" stroke-width="0.02"/>
<path d="M24 23.9996L-9.37891 10.5142L-9.25976 10.2236L24 24.0005V23.9996Z" fill="#FA9173" stroke="#FA9173" stroke-width="0.02"/>
<path d="M23.9995 24.0002L-9.26025 10.2233L-9.13854 9.93359L23.9995 24.0002Z" fill="#FA9074" stroke="#FA9074" stroke-width="0.02"/>
<path d="M23.9993 24L-9.13867 9.93339L-9.01439 9.64453L23.9993 23.9991V24Z" fill="#FA8F75" stroke="#FA8F75" stroke-width="0.02"/>
<path d="M23.9996 24.0001L-9.01416 9.64554L-8.8873 9.3584L24.0004 24.001L23.9996 24.0001Z" fill="#FA8E76" stroke="#FA8E76" stroke-width="0.02"/>
<path d="M23.9995 24.0001L-8.88818 9.35757L-8.75875 9.07129L23.9995 24.0001Z" fill="#FA8D77" stroke="#FA8D77" stroke-width="0.02"/>
<path d="M24 24.0004L-8.7583 9.07156L-8.62716 8.78613L24 24.0004Z" fill="#FA8C78" stroke="#FA8C78" stroke-width="0.02"/>
<path d="M23.9997 24L-8.62744 8.78567L-8.49373 8.50195L23.9997 24Z" fill="#FA8B79" stroke="#FA8B79" stroke-width="0.02"/>
<path d="M24.0003 23.9996L-8.49316 8.50161L-8.35688 8.21875L23.9994 24.0005L24.0003 23.9996Z" fill="#FA8A7A" stroke="#FA8A7A" stroke-width="0.02"/>
<path d="M23.9998 24.0002L-8.35645 8.21852L-8.21759 7.93652L23.9998 23.9994V24.0002Z" fill="#FA897B" stroke="#FA897B" stroke-width="0.02"/>
<path d="M23.9997 24.0004L-8.21777 7.93751L-8.07634 7.65723L23.9997 24.0012V24.0004Z" fill="#FA887C" stroke="#FA887C" stroke-width="0.02"/>
<path d="M23.9993 24.0004L-8.07666 7.65638L-7.93266 7.37695L23.9993 23.9995V24.0004Z" fill="#FA877D" stroke="#FA877D" stroke-width="0.02"/>
<path d="M23.9999 23.9999L-7.93213 7.37732L-7.78556 7.09961L24.0007 24.0008L23.9999 23.9999Z" fill="#FA867E" stroke="#FA867E" stroke-width="0.02"/>
<path d="M23.9997 24.0003L-7.78662 7.09912L-7.63834 6.82227L23.9988 24.0003H23.9997Z" fill="#FA857F" stroke="#FA857F" stroke-width="0.02"/>
<path d="M23.9999 24L-7.63721 6.82202L-7.48635 6.54688L23.9999 24Z" fill="#FA8480" stroke="#FA8480" stroke-width="0.02"/>
<path d="M24 24.0009L-7.48633 6.54772L-7.3329 6.27344L24 24.0009Z" fill="#FA8381" stroke="#FA8381" stroke-width="0.02"/>
<path d="M23.9999 24L-7.33301 6.27257L-7.17701 6L23.9999 24Z" fill="#FA8282" stroke="#FA8282" stroke-width="0.02"/>
<path d="M23.9996 24.0002L-7.17725 6.00023L-7.01867 5.72852L23.9996 24.0002Z" fill="#FA8183" stroke="#FA8183" stroke-width="0.02"/>
<path d="M24.0002 24.0007L-7.01807 5.72898L-6.85778 5.45898L24.0002 24.0007Z" fill="#FA8084" stroke="#FA8084" stroke-width="0.02"/>
<path d="M23.9996 24.0004L-6.8584 5.45872L-6.69554 5.19043L23.9996 24.0004Z" fill="#FA7F85" stroke="#FA7F85" stroke-width="0.02"/>
<path d="M23.9998 24.0003L-6.69531 5.19028L-6.52988 4.92285L23.9998 24.0003Z" fill="#FA7E86" stroke="#FA7E86" stroke-width="0.02"/>
<path d="M23.9999 24.0004L-6.52979 4.92294L-6.36179 4.65723L23.9999 24.0004Z" fill="#FA7D87" stroke="#FA7D87" stroke-width="0.02"/>
<path d="M23.9999 23.9997L-6.36182 4.65658L-6.1921 4.39258L23.9999 23.9997Z" fill="#FA7C88" stroke="#FA7C88" stroke-width="0.02"/>
<path d="M24.0001 24.0002L-6.19189 4.39303L-6.01961 4.12988L24.0001 23.9993V24.0002Z" fill="#FA7B89" stroke="#FA7B89" stroke-width="0.02"/>
<path d="M23.9997 24L-6.02002 4.13057L-5.84516 3.86914L24.0006 24H23.9997Z" fill="#FA7A8A" stroke="#FA7A8A" stroke-width="0.02"/>
<path d="M23.9995 24.0009L-5.84619 3.87007L-5.66962 3.61035L23.9987 24.0009H23.9995Z" fill="#FA798B" stroke="#FA798B" stroke-width="0.02"/>
<path d="M23.9998 24.0001L-5.66846 3.60956L-5.48931 3.35156L23.9998 24.0001Z" fill="#FA788C" stroke="#FA788C" stroke-width="0.02"/>
<path d="M23.9994 23.9996L-5.48975 3.35101L-5.30803 3.09473L24.0003 24.0004L23.9994 23.9996Z" fill="#FA778D" stroke="#FA778D" stroke-width="0.02"/>
<path d="M23.9997 24.0001L-5.30859 3.09442L-5.12517 2.83984L23.9997 24.0001Z" fill="#FA768E" stroke="#FA768E" stroke-width="0.02"/>
<path d="M23.9999 23.9999L-5.125 2.83965L-4.939 2.58594L23.9999 23.9999Z" fill="#FA758F" stroke="#FA758F" stroke-width="0.02"/>
<path d="M23.9999 24L-4.93896 2.58598L-4.75125 2.33398L23.9999 23.9991V24Z" fill="#FA7490" stroke="#FA7490" stroke-width="0.02"/>
<path d="M23.9997 24.0004L-4.75146 2.33525L-4.56118 2.08496L23.9997 24.0004Z" fill="#FA7391" stroke="#FA7391" stroke-width="0.02"/>
<path d="M23.9998 23.9999L-4.56104 2.08451L-4.36904 1.83594L23.999 23.9999H23.9998Z" fill="#FA7292" stroke="#FA7292" stroke-width="0.02"/>
<path d="M23.9998 23.9997L-4.36816 1.83572L-4.17359 1.58887L24.0007 23.9997H23.9998Z" fill="#FA7193" stroke="#FA7193" stroke-width="0.02"/>
<path d="M23.9995 24.0007L-4.1748 1.58987L-3.97852 1.34473L23.9986 23.9999L23.9995 24.0007Z" fill="#FA7094" stroke="#FA7094" stroke-width="0.02"/>
<path d="M24.0001 24.0001L-3.97705 1.34499L-3.77819 1.10156L24.0001 24.0001Z" fill="#FA6F95" stroke="#FA6F95" stroke-width="0.02"/>
<path d="M23.9995 23.9997L-3.77881 1.10109L-3.57824 0.859375L23.9995 23.9997Z" fill="#FA6E96" stroke="#FA6E96" stroke-width="0.02"/>
<path d="M23.9996 24.0004L-3.57812 0.860116L-3.37498 0.620117L23.9996 24.0004Z" fill="#FA6D97" stroke="#FA6D97" stroke-width="0.02"/>
<path d="M23.9996 23.9994L-3.375 0.619145L-3.17014 0.380859L23.9996 23.9986V23.9994Z" fill="#FA6C98" stroke="#FA6C98" stroke-width="0.02"/>
<path d="M23.9998 24.0008L-3.16992 0.383055L-2.96249 0.146484L23.9998 24.0008Z" fill="#FA6B99" stroke="#FA6B99" stroke-width="0.02"/>
<path d="M23.9994 24.0004L-2.96289 0.14611L-2.75375 -0.0878906L23.9994 24.0012V24.0004Z" fill="#FA6A9A" stroke="#FA6A9A" stroke-width="0.02"/>
<path d="M23.9997 24.0001L-2.75342 -0.0890028L-2.54256 -0.321289L23.9997 24.0001Z" fill="#FA699B" stroke="#FA699B" stroke-width="0.02"/>
<path d="M23.9998 24.0002L-2.54248 -0.321187L-2.32905 -0.551758L23.9998 24.0002Z" fill="#FA689C" stroke="#FA689C" stroke-width="0.02"/>
<path d="M23.9998 24.0006L-2.3291 -0.551415L-2.11396 -0.780273L23.9998 24.0006Z" fill="#FA679D" stroke="#FA679D" stroke-width="0.02"/>
<path d="M23.9999 24.0002L-2.11377 -0.78067L-1.89691 -1.00781L23.9991 24.0002H23.9999Z" fill="#FA669E" stroke="#FA669E" stroke-width="0.02"/>
<path d="M23.9995 24.0002L-1.89648 -1.00785L-1.67706 -1.23242L24.0004 24.0002H23.9995Z" fill="#FA659F" stroke="#FA659F" stroke-width="0.02"/>
<path d="M23.9992 24.0003L-1.67822 -1.23222L-1.45708 -1.45508L23.9984 24.0003H23.9992Z" fill="#FA64A0" stroke="#FA64A0" stroke-width="0.02"/>
<path d="M23.9999 24.0008L-1.45557 -1.45464L-1.23271 -1.67578L23.9999 24.0016V24.0008Z" fill="#FA63A1" stroke="#FA63A1" stroke-width="0.02"/>
<path d="M23.9997 24.0004L-1.23291 -1.67706L-1.00834 -1.89648L23.9997 23.9995V24.0004Z" fill="#FA62A2" stroke="#FA62A2" stroke-width="0.02"/>
<path d="M23.9992 24.0006L-1.00879 -1.89545L-0.781647 -2.1123L23.9992 24.0014V24.0006Z" fill="#FA61A3" stroke="#FA61A3" stroke-width="0.02"/>
<path d="M24.0001 23.9998L-0.780762 -2.11396L-0.551903 -2.3291L24.0001 23.9998Z" fill="#FA60A4" stroke="#FA60A4" stroke-width="0.02"/>
<path d="M23.9998 24.0003L-0.552246 -2.32856L-0.321676 -2.54199L23.9998 24.0003Z" fill="#FA5FA5" stroke="#FA5FA5" stroke-width="0.02"/>
<path d="M23.9997 24.0002L-0.321777 -2.54207L-0.0894911 -2.75293L23.9997 24.0002Z" fill="#FA5EA6" stroke="#FA5EA6" stroke-width="0.02"/>
<path d="M23.9998 24.0004L-0.0893555 -2.75277L0.144644 -2.96191L23.9989 24.0004H23.9998Z" fill="#FA5DA7" stroke="#FA5DA7" stroke-width="0.02"/>
<path d="M24.0003 23.9998L0.145996 -2.96249L0.382567 -3.16992L24.0003 23.9998Z" fill="#FA5CA8" stroke="#FA5CA8" stroke-width="0.02"/>
<path d="M24 23.9996L0.382324 -3.17014L0.62061 -3.375L24.0009 23.9996H24Z" fill="#FA5BA9" stroke="#FA5BA9" stroke-width="0.02"/>
<path d="M23.9999 24.0006L0.619629 -3.37401L0.859628 -3.57715L23.9999 24.0006Z" fill="#FA5AAA" stroke="#FA5AAA" stroke-width="0.02"/>
<path d="M23.9997 24L0.859375 -3.57775L1.10109 -3.77832L23.9997 24Z" fill="#FA59AB" stroke="#FA59AB" stroke-width="0.02"/>
<path d="M23.9996 24.0006L1.10107 -3.77771L1.3445 -3.97656L23.9996 24.0006Z" fill="#FA58AC" stroke="#FA58AC" stroke-width="0.02"/>
<path d="M23.9999 24.0006L1.34473 -3.97657L1.58987 -4.17285L24.0007 24.0014L23.9999 24.0006Z" fill="#FA57AD" stroke="#FA57AD" stroke-width="0.02"/>
<path d="M23.9997 24.0007L1.58887 -4.17359L1.83572 -4.36816L23.9997 23.9998V24.0007Z" fill="#FA56AE" stroke="#FA56AE" stroke-width="0.02"/>
<path d="M23.9995 24.0004L1.83545 -4.36757L2.08402 -4.55957L23.9995 24.0013V24.0004Z" fill="#FA55AF" stroke="#FA55AF" stroke-width="0.02"/>
<path d="M23.9999 24.0002L2.08447 -4.56069L2.33476 -4.75098L23.9999 24.0002Z" fill="#FA54B0" stroke="#FA54B0" stroke-width="0.02"/>
<path d="M23.9996 24.0004L2.33447 -4.75076L2.58647 -4.93848L24.0005 24.0004H23.9996Z" fill="#FA53B1" stroke="#FA53B1" stroke-width="0.02"/>
<path d="M23.9995 24.0008L2.58545 -4.93802L2.83916 -5.12402L23.9995 24.0008Z" fill="#FA52B2" stroke="#FA52B2" stroke-width="0.02"/>
<path d="M24.0001 23.9997L2.83984 -5.12517L3.09442 -5.30859L24.0001 23.9997Z" fill="#FA51B3" stroke="#FA51B3" stroke-width="0.02"/>
<path d="M23.9995 23.9998L3.09375 -5.30852L3.35004 -5.49023L23.9986 23.9989L23.9995 23.9998Z" fill="#FA50B4" stroke="#FA50B4" stroke-width="0.02"/>
<path d="M23.9996 24.0003L3.35107 -5.48883L3.60907 -5.66797L23.9996 24.0003Z" fill="#FA4FB5" stroke="#FA4FB5" stroke-width="0.02"/>
<path d="M23.9999 24.0001L3.60938 -5.66816L3.86909 -5.84473L23.9999 24.001V24.0001Z" fill="#FA4EB6" stroke="#FA4EB6" stroke-width="0.02"/>
<path d="M23.9995 24.0001L3.86865 -5.84565L4.13008 -6.02051L23.9995 23.9992V24.0001Z" fill="#FA4DB7" stroke="#FA4DB7" stroke-width="0.02"/>
<path d="M23.9998 24.0006L4.13037 -6.01912L4.39351 -6.19141L24.0007 24.0006H23.9998Z" fill="#FA4CB8" stroke="#FA4CB8" stroke-width="0.02"/>
<path d="M23.9997 24.0004L4.39258 -6.19161L4.65658 -6.36133L23.9997 24.0004Z" fill="#FA4BB9" stroke="#FA4BB9" stroke-width="0.02"/>
<path d="M23.9999 24.0004L4.65674 -6.3613L4.92245 -6.5293L23.9999 24.0004Z" fill="#FA4ABA" stroke="#FA4ABA" stroke-width="0.02"/>
<path d="M23.9993 24.0008L4.92188 -6.52891L5.1893 -6.69434L23.9993 24.0008Z" fill="#FA49BB" stroke="#FA49BB" stroke-width="0.02"/>
<path d="M23.9999 23.9996L5.18994 -6.69554L5.45823 -6.8584L23.9999 23.9996Z" fill="#FA48BC" stroke="#FA48BC" stroke-width="0.02"/>
<path d="M23.9997 24.0007L5.45801 -6.85729L5.72801 -7.01758L23.9997 24.0007Z" fill="#FA47BD" stroke="#FA47BD" stroke-width="0.02"/>
<path d="M23.9993 24.0001L5.72754 -7.01819L5.99925 -7.17676L23.9993 24.0001Z" fill="#FA46BE" stroke="#FA46BE" stroke-width="0.02"/>
<path d="M23.9995 23.9999L5.99951 -7.17701L6.27208 -7.33301L23.9995 23.9999Z" fill="#FA45BF" stroke="#FA45BF" stroke-width="0.02"/>
<path d="M23.9999 24.0009L6.27246 -7.33192L6.54675 -7.48535L23.9999 24.0009Z" fill="#FA44C0" stroke="#FA44C0" stroke-width="0.02"/>
<path d="M23.9995 24.0004L6.54639 -7.48586L6.82153 -7.63672L23.9995 24.0004Z" fill="#FA43C1" stroke="#FA43C1" stroke-width="0.02"/>
<path d="M23.9998 24.0003L6.82178 -7.63687L7.09863 -7.78516L23.9998 24.0011V24.0003Z" fill="#FA42C2" stroke="#FA42C2" stroke-width="0.02"/>
<path d="M23.9998 24.0002L7.09863 -7.78605L7.37635 -7.93262L23.9989 23.9994L23.9998 24.0002Z" fill="#FA41C3" stroke="#FA41C3" stroke-width="0.02"/>
<path d="M23.9995 23.9998L7.37695 -7.93217L7.65638 -8.07617L24.0004 23.9998H23.9995Z" fill="#FA40C4" stroke="#FA40C4" stroke-width="0.02"/>
<path d="M23.9993 23.9997L7.65527 -8.07634L7.93556 -8.21777L23.9984 23.9997H23.9993Z" fill="#FA3FC5" stroke="#FA3FC5" stroke-width="0.02"/>
<path d="M23.9994 24.0008L7.93652 -8.21661L8.21852 -8.35547L24.0002 24.0008H23.9994Z" fill="#FA3EC6" stroke="#FA3EC6" stroke-width="0.02"/>
<path d="M23.9995 24.0004L8.21777 -8.3559L8.50063 -8.49219L23.9986 24.0012L23.9995 24.0004Z" fill="#FA3DC7" stroke="#FA3DC7" stroke-width="0.02"/>
<path d="M23.9995 24.0002L8.50146 -8.49324L8.78518 -8.62695L23.9995 24.0002Z" fill="#FA3CC8" stroke="#FA3CC8" stroke-width="0.02"/>
<path d="M23.9999 24.0005L8.78564 -8.62667L9.07107 -8.75781L23.9999 24.0005Z" fill="#FA3BC9" stroke="#FA3BC9" stroke-width="0.02"/>
<path d="M23.9992 24L9.07031 -8.75827L9.3566 -8.8877L23.9992 24Z" fill="#FA3ACA" stroke="#FA3ACA" stroke-width="0.02"/>
<path d="M23.9995 23.9999L9.35693 -8.88779L9.64408 -9.01465L23.9986 23.9991L23.9995 23.9999Z" fill="#FA39CB" stroke="#FA39CB" stroke-width="0.02"/>
<path d="M24.0001 24.0003L9.64551 -9.01341L9.93437 -9.1377L24.0009 24.0003H24.0001Z" fill="#FA38CC" stroke="#FA38CC" stroke-width="0.02"/>
<path d="M23.9997 24L9.93311 -9.13805L10.2228 -9.25977L23.9997 24Z" fill="#FA37CD" stroke="#FA37CD" stroke-width="0.02"/>
<path d="M23.9995 24.0009L10.2227 -9.25879L10.5132 -9.37793L23.9987 24.0009H23.9995Z" fill="#FA36CE" stroke="#FA36CE" stroke-width="0.02"/>
<path d="M23.9996 24.0003L10.5142 -9.37855L10.8056 -9.49512L23.9996 24.0003Z" fill="#FA35CF" stroke="#FA35CF" stroke-width="0.02"/>
<path d="M23.9997 24.0001L10.8057 -9.49537L11.0988 -9.60938L23.9997 23.9992V24.0001Z" fill="#FA34D0" stroke="#FA34D0" stroke-width="0.02"/>
<path d="M23.9995 24.0003L11.0986 -9.6083L11.3926 -9.71973L24.0003 24.0003H23.9995Z" fill="#FA33D1" stroke="#FA33D1" stroke-width="0.02"/>
<path d="M24.0003 23.9998L11.3926 -9.72024L11.6874 -9.8291L24.0003 23.9998Z" fill="#FA32D2" stroke="#FA32D2" stroke-width="0.02"/>
<path d="M23.9999 23.9996L11.687 -9.82926L11.9827 -9.93555L23.9999 23.9996Z" fill="#FA31D3" stroke="#FA31D3" stroke-width="0.02"/>
<path d="M24.0001 24.0008L11.9829 -9.93437L12.2795 -10.0381L24.0001 24.0008Z" fill="#FA30D4" stroke="#FA30D4" stroke-width="0.02"/>
<path d="M23.9999 23.9994L12.2793 -10.0395L12.5767 -10.1406L23.9999 23.9994Z" fill="#FA2FD5" stroke="#FA2FD5" stroke-width="0.02"/>
<path d="M23.9998 24.0003L12.5767 -10.1397L12.8749 -10.2383L23.9998 23.9994V24.0003Z" fill="#FA2ED6" stroke="#FA2ED6" stroke-width="0.02"/>
<path d="M23.9999 23.9997L12.875 -10.238L13.1741 -10.334L23.9999 23.9997Z" fill="#FA2DD7" stroke="#FA2DD7" stroke-width="0.02"/>
<path d="M23.9995 23.9994L13.1738 -10.3343L13.4738 -10.4277L23.9995 23.9994Z" fill="#FA2CD8" stroke="#FA2CD8" stroke-width="0.02"/>
<path d="M23.9998 23.9994L13.4741 -10.4277L13.775 -10.5186L23.9998 23.9986V23.9994Z" fill="#FA2BD9" stroke="#FA2BD9" stroke-width="0.02"/>
<path d="M23.9998 24L13.7749 -10.5172L14.0766 -10.6055L23.9998 24Z" fill="#FA2ADA" stroke="#FA2ADA" stroke-width="0.02"/>
<path d="M23.9998 23.9999L14.0767 -10.6056L14.3792 -10.6904L23.9998 23.9999Z" fill="#FA29DB" stroke="#FA29DB" stroke-width="0.02"/>
<path d="M24 24.0001L14.3794 -10.6902L14.6828 -10.7725L24 24.001V24.0001Z" fill="#FA28DC" stroke="#FA28DC" stroke-width="0.02"/>
<path d="M23.9998 24.0006L14.6826 -10.7728L14.986 -10.8525L23.9998 24.0006Z" fill="#FA27DD" stroke="#FA27DD" stroke-width="0.02"/>
<path d="M23.9996 23.9996L14.9858 -10.8535L15.2901 -10.9307L23.9996 23.9996Z" fill="#FA26DE" stroke="#FA26DE" stroke-width="0.02"/>
<path d="M24 24L15.2905 -10.9303L15.5957 -11.0049L24 24.0008V24Z" fill="#FA25DF" stroke="#FA25DF" stroke-width="0.02"/>
<path d="M23.9995 23.9996L15.5952 -11.0061L15.9012 -11.0781L23.9995 23.9996Z" fill="#FA24E0" stroke="#FA24E0" stroke-width="0.02"/>
<path d="M23.9997 23.9997L15.9014 -11.078L16.2082 -11.1475L23.9997 23.9988V23.9997Z" fill="#FA23E1" stroke="#FA23E1" stroke-width="0.02"/>
<path d="M23.9994 24.0003L16.208 -11.146L16.5149 -11.2129L23.9994 24.0003Z" fill="#FA22E2" stroke="#FA22E2" stroke-width="0.02"/>
<path d="M23.9997 24.0001L16.5151 -11.2131L16.8229 -11.2773L23.9997 24.0001Z" fill="#FA21E3" stroke="#FA21E3" stroke-width="0.02"/>
<path d="M23.9996 23.9994L16.8228 -11.278L17.1305 -11.3389L23.9996 23.9994Z" fill="#FA20E4" stroke="#FA20E4" stroke-width="0.02"/>
<path d="M23.9995 24.0001L17.1304 -11.3382L17.4389 -11.3965L23.9995 24.0009V24.0001Z" fill="#FA1FE5" stroke="#FA1FE5" stroke-width="0.02"/>
<path d="M24 24L17.4395 -11.3974L17.7489 -11.4531L24 24Z" fill="#FA1EE6" stroke="#FA1EE6" stroke-width="0.02"/>
<path d="M23.9997 24.0004L17.7485 -11.4527L18.058 -11.5059L23.9997 24.0004Z" fill="#FA1DE7" stroke="#FA1DE7" stroke-width="0.02"/>
<path d="M23.9998 24.0002L18.0581 -11.5061L18.3684 -11.5566L23.9998 24.0002Z" fill="#FA1CE8" stroke="#FA1CE8" stroke-width="0.02"/>
<path d="M23.9996 23.9994L18.3682 -11.5575L18.6784 -11.6055L23.9996 23.9994Z" fill="#FA1BE9" stroke="#FA1BE9" stroke-width="0.02"/>
<path d="M23.9999 23.9999L18.6787 -11.605L18.9899 -11.6504L23.9999 23.999V23.9999Z" fill="#FA1AEA" stroke="#FA1AEA" stroke-width="0.02"/>
<path d="M23.9997 23.9999L18.9897 -11.6495L19.3009 -11.6924L23.9997 23.9999Z" fill="#FA19EB" stroke="#FA19EB" stroke-width="0.02"/>
<path d="M23.9992 24.0003L19.3003 -11.692L19.6123 -11.7314L24 24.0003H23.9992Z" fill="#FA18EC" stroke="#FA18EC" stroke-width="0.02"/>
<path d="M23.9995 24L19.6118 -11.7317L19.9238 -11.7686L23.9987 24H23.9995Z" fill="#FA17ED" stroke="#FA17ED" stroke-width="0.02"/>
<path d="M23.9992 24.0001L19.9243 -11.7684L20.2363 -11.8027L23.9992 24.0001Z" fill="#FA16EE" stroke="#FA16EE" stroke-width="0.02"/>
<path d="M23.9992 24.0006L20.2363 -11.8023L20.5492 -11.834L23.9992 24.0006Z" fill="#FA15EF" stroke="#FA15EF" stroke-width="0.02"/>
<path d="M24.0003 23.9996L20.5503 -11.835L20.8631 -11.8633L24.0011 23.9996H24.0003Z" fill="#FA14F0" stroke="#FA14F0" stroke-width="0.02"/>
<path d="M24.0003 23.9999L20.8623 -11.863L21.1752 -11.8887L23.9994 24.0008L24.0003 23.9999Z" fill="#FA13F1" stroke="#FA13F1" stroke-width="0.02"/>
<path d="M24.0001 23.9995L21.1758 -11.8899L21.4895 -11.9131L24.0009 23.9995H24.0001Z" fill="#FA12F2" stroke="#FA12F2" stroke-width="0.02"/>
<path d="M23.9997 23.9995L21.4883 -11.913L21.802 -11.9336L23.9997 23.9995Z" fill="#FA11F3" stroke="#FA11F3" stroke-width="0.02"/>
<path d="M23.9995 24L21.8018 -11.9332L22.1155 -11.9512L23.9995 23.9991V24Z" fill="#FA10F4" stroke="#FA10F4" stroke-width="0.02"/>
<path d="M24.0002 23.9999L22.1162 -11.9504L22.4299 -11.9658L24.0002 23.9999Z" fill="#FA0FF5" stroke="#FA0FF5" stroke-width="0.02"/>
<path d="M24 24.0002L22.4297 -11.9655L22.7434 -11.9775L24 24.0002Z" fill="#FA0EF6" stroke="#FA0EF6" stroke-width="0.02"/>
<path d="M23.9997 24.0008L22.7432 -11.9769L23.0569 -11.9863L23.9989 24.0017L23.9997 24.0008Z" fill="#FA0DF7" stroke="#FA0DF7" stroke-width="0.02"/>
<path d="M24.0001 23.9997L23.0581 -11.9883L23.3718 -11.9951L24.0001 23.9997Z" fill="#FA0CF8" stroke="#FA0CF8" stroke-width="0.02"/>
<path d="M23.9999 24.0001L23.3716 -11.9947L23.6862 -11.999L24.0007 23.9993L23.9999 24.0001Z" fill="#FA0BF9" stroke="#FA0BF9" stroke-width="0.02"/>
<path d="M24.0001 24L23.6864 -11.9983L24.001 -12V24H24.0001Z" fill="#FA0AFA" stroke="#FA0AFA" stroke-width="0.02"/>
</g>
</g>
<defs>
<clipPath id="clip0_359_13388">
<rect width="48" height="48" fill="white"/>
</clipPath>
</defs>
</svg>
