<svg width="107" height="28" viewBox="0 0 107 28" fill="none" xmlns="http://www.w3.org/2000/svg">
<path d="M0 8C0 3.58172 3.58172 0 8 0H99C103.418 0 107 3.58172 107 8V20C107 24.4183 103.418 28 99 28H8C3.58172 28 0 24.4183 0 20V8Z" fill="#F7F7FA"/>
<g clip-path="url(#clip0_262_16165)">
<path d="M33.2955 21.0001V9.90918H32.5931C32.5931 11.0888 31.6702 12.0444 30.531 12.0444C29.3918 12.0444 28.4689 11.0888 28.4689 9.90918H27.0642C27.0642 11.0888 26.1413 12.0444 25.0021 12.0444C23.8629 12.0444 22.9379 11.0888 22.9379 9.90918H21.5332C21.5332 11.0888 20.6102 12.0444 19.4711 12.0444C18.3319 12.0444 17.4068 11.0888 17.4068 9.90918H16.7045V21.0001H33.2976H33.2955Z" fill="#FDC33E"/>
<path d="M20.8287 8.4541C20.4411 8.4541 20.1263 8.78004 20.1263 9.18137C20.1263 9.5827 20.4411 9.90865 20.8287 9.90865H23.6381C24.0257 9.90865 24.3405 9.5827 24.3405 9.18137C24.3405 8.78004 24.0257 8.4541 23.6381 8.4541H20.8287Z" fill="#FDC33E"/>
<path d="M29.1691 9.90865C29.5567 9.90865 29.8715 9.5827 29.8715 9.18137C29.8715 8.78004 29.5567 8.4541 29.1691 8.4541H26.3597C25.9721 8.4541 25.6573 8.78004 25.6573 9.18137C25.6573 9.5827 25.9721 9.90865 26.3597 9.90865H29.1691Z" fill="#FDC33E"/>
<path d="M32.9443 8.4541H31.8908C31.5032 8.4541 31.1884 8.78004 31.1884 9.18137C31.1884 9.5827 31.5032 9.90865 31.8908 9.90865H32.9443V8.4541Z" fill="#FDC33E"/>
<path d="M17.0535 8.4541V9.90865H18.1071C18.4946 9.90865 18.8094 9.5827 18.8094 9.18137C18.8094 8.78004 18.4946 8.4541 18.1071 8.4541H17.0535Z" fill="#FDC33E"/>
<path d="M33.2955 12.0466V7C32.9079 7 32.5931 7.32594 32.5931 7.72727V12.0466H33.2955Z" fill="#FDC33E"/>
<path d="M28.4668 12.0466V7.72727C28.4668 7.32594 28.152 7 27.7644 7C27.3768 7 27.0621 7.32594 27.0621 7.72727V12.0466H28.4668Z" fill="#FDC33E"/>
<path d="M22.9357 12.0466V7.72727C22.9357 7.32594 22.6209 7 22.2334 7C21.8458 7 21.531 7.32594 21.531 7.72727V12.0466H22.9357Z" fill="#FDC33E"/>
<path d="M17.4047 12.0466V7.72727C17.4047 7.32594 17.0899 7 16.7023 7V12.0466H17.4047Z" fill="#FDC33E"/>
<path d="M25 12.0464C23.8608 12.0464 22.9357 11.0907 22.9357 9.91113H21.531C21.531 11.0907 20.6081 12.0464 19.4689 12.0464C18.3297 12.0464 17.4047 11.0907 17.4047 9.91113H16.7023V21.002H25V12.0464Z" fill="#FDCF65"/>
<path d="M20.8287 8.4541C20.4411 8.4541 20.1263 8.78004 20.1263 9.18137C20.1263 9.5827 20.4411 9.90865 20.8287 9.90865H23.6381C24.0257 9.90865 24.3405 9.5827 24.3405 9.18137C24.3405 8.78004 24.0257 8.4541 23.6381 8.4541H20.8287Z" fill="#FDCF65"/>
<path d="M17.0535 8.4541V9.90865H18.1071C18.4946 9.90865 18.8094 9.5827 18.8094 9.18137C18.8094 8.78004 18.4946 8.4541 18.1071 8.4541H17.0535Z" fill="#FDCF65"/>
<path d="M22.9357 12.0466V7.72727C22.9357 7.32594 22.6209 7 22.2334 7C21.8458 7 21.531 7.32594 21.531 7.72727V12.0466H22.9357Z" fill="#FDCF65"/>
<path d="M17.4047 12.0466V7.72727C17.4047 7.32594 17.0899 7 16.7023 7V12.0466H17.4047Z" fill="#FDCF65"/>
<path d="M34 19.5459H16V21.0004H34V19.5459Z" fill="#FCAE28"/>
<path d="M34 14H16V15.4545H34V14Z" fill="#FCAE28"/>
<path d="M25 19.5459H16V21.0004H25V19.5459Z" fill="#FDBE53"/>
<path d="M25 14H16V15.4545H25V14Z" fill="#FDBE53"/>
<path d="M20.0728 17.5015C20.0728 17.8474 19.8009 18.129 19.4668 18.129C19.1328 18.129 18.8608 17.8474 18.8608 17.5015C18.8608 17.1556 19.1328 16.874 19.4668 16.874C19.8009 16.874 20.0728 17.1556 20.0728 17.5015Z" fill="#F15338"/>
<path d="M22.8394 17.5015C22.8394 17.8474 22.5675 18.129 22.2334 18.129C21.8994 18.129 21.6274 17.8474 21.6274 17.5015C21.6274 17.1556 21.8994 16.874 22.2334 16.874C22.5675 16.874 22.8394 17.1556 22.8394 17.5015Z" fill="#F15338"/>
<path d="M28.3705 17.5015C28.3705 17.8474 28.0986 18.129 27.7645 18.129C27.4305 18.129 27.1585 17.8474 27.1585 17.5015C27.1585 17.1556 27.4305 16.874 27.7645 16.874C28.0986 16.874 28.3705 17.1556 28.3705 17.5015Z" fill="#F15338"/>
<path d="M25.606 17.5015C25.606 17.8474 25.3341 18.129 25 18.129C24.666 18.129 24.394 17.8474 24.394 17.5015C24.394 17.1556 24.666 16.874 25 16.874C25.3341 16.874 25.606 17.1556 25.606 17.5015Z" fill="#F15338"/>
<path d="M31.137 17.5015C31.137 17.8474 30.8651 18.129 30.531 18.129C30.197 18.129 29.925 17.8474 29.925 17.5015C29.925 17.1556 30.197 16.874 30.531 16.874C30.8651 16.874 31.137 17.1556 31.137 17.5015Z" fill="#F15338"/>
</g>
<path d="M54.0176 14.0508V15.4453H42.6699V14.0508H47.4688V12.8477H49.1914V14.0508H54.0176ZM49.1914 7.85742V8.92383H52.9238V10.3047H49.3418C49.5742 11.166 50.8525 11.9658 53.5117 12.123L52.9922 13.4492C50.6953 13.2852 49.1094 12.6152 48.3301 11.6172C47.5439 12.6152 45.958 13.2852 43.6816 13.4492L43.1484 12.123C45.8076 11.9658 47.0723 11.166 47.3184 10.3047H43.7637V8.92383H47.4688V7.85742H49.1914ZM48.3301 16.0332C51.0508 16.0332 52.6504 16.7715 52.6641 18.1387C52.6504 19.5195 51.0508 20.2578 48.3301 20.2578C45.5957 20.2578 43.9688 19.5195 43.9688 18.1387C43.9688 16.7715 45.5957 16.0332 48.3301 16.0332ZM48.3301 17.3184C46.5938 17.3184 45.7324 17.5781 45.7461 18.1387C45.7324 18.7129 46.5938 18.9727 48.3301 18.9727C50.0254 18.9727 50.9004 18.7129 50.9141 18.1387C50.9004 17.5781 50.0254 17.3184 48.3301 17.3184ZM61.7422 8.71875V9.49805C61.7422 10.3594 61.7422 11.6035 61.4551 13.1484L59.7461 12.9844C59.9648 11.7881 60.0195 10.8857 60.0332 10.1406H55.3438V8.71875H61.7422ZM58.6523 11.5898V13.9688C59.8896 13.9209 61.1611 13.8252 62.3301 13.6543L62.4258 14.9121C59.8418 15.3906 56.916 15.4316 54.7559 15.4453L54.6055 14.0508C55.3027 14.0508 56.0889 14.0508 56.916 14.0234V11.5898H58.6523ZM64.791 7.81641V11.6035H66.2949V13.0664H64.791V17.127H63V7.81641H64.791ZM65.1738 18.6445V20.0391H56.4375V16.293H58.1875V18.6445H65.1738ZM77.3008 7.81641V20.2852H75.5645V7.81641H77.3008ZM73.4453 8.85547V13.6543H69.3438V15.9375C71.2373 15.9307 72.8506 15.8213 74.6758 15.5273L74.8262 16.9355C72.7754 17.291 70.9297 17.373 68.6602 17.373H67.5391V12.2734H71.668V10.2637H67.5254V8.85547H73.4453ZM83.5625 11.207C83.5488 13.1074 84.5605 15.2949 86.6113 16.2383L85.6406 17.6055C84.2529 16.9697 83.2617 15.6982 82.7148 14.2012C82.1543 15.8486 81.1357 17.2432 79.6934 17.9199L78.6816 16.5391C80.7598 15.5684 81.7988 13.2578 81.8125 11.207V10.4414H79.1738V9.01953H86.0645V10.4414H83.5625V11.207ZM88.7852 7.81641V12.5605H90.6172V14.0234H88.7852V20.2578H87.0352V7.81641H88.7852Z" fill="#737F8F"/>
<defs>
<clipPath id="clip0_262_16165">
<rect width="18" height="14" fill="white" transform="translate(16 7)"/>
</clipPath>
</defs>
</svg>
