<svg width="116" height="244" viewBox="0 0 116 244" fill="none" xmlns="http://www.w3.org/2000/svg">
<g clip-path="url(#clip0_685_20408)">
<path d="M94.1349 226.463C84.0786 230.676 71.2268 236.82 59.0482 234.258C46.8696 231.696 35.5234 220.447 28.4321 212.627C21.3664 204.827 20.4004 193.989 18.5453 184.206C17.0448 176.309 11.2587 171.604 8.93604 163.907C35.7752 154.647 68.8939 153.786 98.5233 163.891C108.95 185.215 118.985 216.055 94.1349 226.463Z" fill="#FFCCBC"/>
<path d="M23.5044 204.822C23.5044 204.822 0.010424 165.618 0.000146739 161.155C-0.0101306 156.179 0.519151 150.859 1.68049 146.688C3.34541 140.708 8.72558 137.187 12.5076 142.112C12.5436 142.158 12.5796 142.209 12.6155 142.255C15.3339 145.924 16.2691 150.572 17.1324 155.057C29.3419 162.006 27.4149 159.151 35.796 170.405C35.9348 174.469 47.2038 186.66 43.7661 190.611C40.9449 193.855 26.8393 207.538 23.5044 204.822Z" fill="#FFCCBC"/>
<path d="M12.4203 154.36L45.3385 160.827C38.9974 146.088 29.2494 133.103 18.0574 122.172C18.3143 116.581 18.5404 110.774 16.5004 105.675C14.4655 100.581 9.21889 96.8302 4.03913 97.9167C3.13473 106.88 2.51809 120.578 1.72674 131.422C1.36189 136.459 2.81099 141.451 5.77086 145.545C7.99076 148.615 10.2107 151.521 12.4203 154.354V154.36Z" fill="#FFAB91"/>
<path opacity="0.34" d="M36.5459 169.441C43.9867 174.433 52.9588 178.194 59.2896 184.528C65.6153 190.862 70.9338 198.785 72.6963 207.553C73.2462 204.433 72.1568 202.46 72.7118 199.339C74.6439 188.377 74.0529 177.149 79.1762 167.263L36.5459 169.441Z" fill="#FFAB91"/>
<path d="M53.9405 157.875H54.4184C59.6393 152.351 62.9846 143.823 62.9589 136.254C53.0824 122.131 39.542 110.636 24.8095 101.653C23.9205 96.1179 22.9442 90.3783 19.7428 85.7712C16.5414 81.1642 10.2363 78.4994 5.01025 80.5646C6.1459 91.7568 7.91359 104.691 9.04924 115.884L53.9354 157.88L53.9405 157.875Z" fill="#FFAB91"/>
<path opacity="0.34" d="M13.1653 153.591C10.9556 155.292 8.74087 156.999 6.53125 158.7C12.0296 163.251 16.8754 168.586 20.8732 174.494C25.349 171.389 30.611 169.416 36.0271 168.811C29.8145 168.57 23.2267 168.273 18.5043 164.24C15.4725 161.652 13.1755 157.568 13.1653 153.586V153.591Z" fill="#FFAB91"/>
<path d="M88.0201 1.54761H20.6677C16.3483 1.54761 12.8467 5.03966 12.8467 9.34733V159.945C12.8467 164.253 16.3483 167.745 20.6677 167.745H88.0201C92.3395 167.745 95.8411 164.253 95.8411 159.945V9.34733C95.8411 5.03966 92.3395 1.54761 88.0201 1.54761Z" fill="white"/>
<path d="M87.984 169.293H20.7087C15.5186 169.293 11.2998 165.086 11.2998 159.91V9.38324C11.2998 4.20734 15.5186 0 20.7087 0H87.984C93.174 0 97.3928 4.20734 97.3928 9.38324V159.904C97.3928 165.08 93.174 169.288 87.984 169.288V169.293ZM20.7087 3.09016C17.2298 3.09016 14.3984 5.91385 14.3984 9.38324V159.904C14.3984 163.374 17.2298 166.198 20.7087 166.198H87.984C91.4628 166.198 94.2942 163.374 94.2942 159.904V9.38324C94.2942 5.91385 91.4628 3.09016 87.984 3.09016H20.7087Z" fill="black"/>
<path d="M61.3813 0.0256348H47.3168C45.6282 0.0256348 44.2593 1.39079 44.2593 3.0748V3.10555C44.2593 4.78956 45.6282 6.15472 47.3168 6.15472H61.3813C63.0699 6.15472 64.4388 4.78956 64.4388 3.10555V3.0748C64.4388 1.39079 63.0699 0.0256348 61.3813 0.0256348Z" fill="black"/>
<path d="M32.42 33.2897V34.8527H22.9237V44.323H21.3564V33.2897H32.42Z" fill="#5899FB"/>
<path d="M76.2681 99.1414V97.5784H85.7694V88.1132H87.3367V99.1414H76.2681Z" fill="#5899FB"/>
<path d="M87.3624 44.3538H85.7951V34.8783H76.2988V33.3153H87.3624V44.3538Z" fill="#5899FB"/>
<path d="M21.3306 88.0824H22.8979V97.5528H32.3941V99.1158H21.3306V88.0824Z" fill="#5899FB"/>
<path d="M79.7002 41.0126H28.9868V91.5877H79.7002V41.0126Z" fill="white"/>
<path d="M48.4673 44.0105H46.1138V46.3525H48.4673H50.8208V44.0105H48.4673Z" fill="black"/>
<path d="M62.5781 44.0105H60.2246V46.3576H62.5781V44.0105Z" fill="black"/>
<path d="M57.871 46.3525H55.5227V44.0105H53.1692V46.3525H50.8208V48.6996V51.0466H48.4673V53.3886H50.8208V55.7357H53.1692H55.5227V53.3886H53.1692V51.0466V48.6996H55.5227H57.871H60.2245V46.3525H57.871Z" fill="black"/>
<path d="M62.573 51.0467V48.6996H60.2246V51.0467V53.3886H62.573V51.0467Z" fill="black"/>
<path d="M46.1138 55.7358V58.0777H48.4673V55.7358V53.3887H46.1138V55.7358Z" fill="black"/>
<path d="M60.2246 53.3887H57.8711V55.7358H60.2246V53.3887Z" fill="black"/>
<path d="M50.8208 69.8029H48.4673V72.1499H50.8208V69.8029Z" fill="black"/>
<path d="M34.3618 58.0776H32.0083V60.4247H34.3618V58.0776Z" fill="black"/>
<path d="M57.871 60.4248H60.2245V62.7719H62.5729V60.4248H64.9264V58.0777H62.5729V55.7357H60.2245V58.0777H57.871H55.5227H53.1692H50.8208V60.4248H53.1692H55.5227V62.7719H57.871V60.4248Z" fill="black"/>
<path d="M74.3303 60.4247V58.0776H71.9819V60.4247V62.7718H74.3303V60.4247Z" fill="black"/>
<path d="M34.3618 62.7719H32.0083V65.1189H34.3618V62.7719Z" fill="black"/>
<path d="M43.7656 65.1138H46.114V62.7718H48.4675V60.4247H46.114H43.7656V58.0776H41.4121V60.4247V62.7718H43.7656V65.1138Z" fill="black"/>
<path d="M55.5229 62.7719H53.1694V65.1189H55.5229V62.7719Z" fill="black"/>
<path d="M69.6286 62.7718V60.4247V58.0776H67.2802V60.4247V62.7718H64.9267H62.5732V65.1138H64.9267H67.2802V67.4609H69.6286V65.1138H71.9821V62.7718H69.6286Z" fill="black"/>
<path d="M43.7656 65.1138H41.412V62.7718H39.0637V60.4247V58.0776H36.7102V60.4247H34.3618V62.7718H36.7102V65.1138H39.0637V67.4609H41.412V69.8028H43.7656V67.4609V65.1138Z" fill="black"/>
<path d="M48.4673 67.4609H50.8208V69.8029H53.1692V67.4609V65.1138H50.8208V62.7719H48.4673V65.1138V67.4609Z" fill="black"/>
<path d="M74.3303 65.1138H71.9819V67.4609V69.8028H69.6284V72.1499H71.9819V74.4919H74.3303V76.839V79.1861H76.6838V76.839V74.4919V72.1499H74.3303V69.8028H76.6838V67.4609H74.3303V65.1138Z" fill="black"/>
<path d="M34.3618 67.4609H32.0083V69.8029V72.15H34.3618V74.492H36.7102V72.15V69.8029H34.3618V67.4609Z" fill="black"/>
<path d="M39.0635 67.4609H36.71V69.808H39.0635V67.4609Z" fill="black"/>
<path d="M62.5732 67.4609V65.1138H60.2248H57.8713H55.5229V67.4609V69.8028H57.8713V67.4609H60.2248V69.8028H62.5732V72.1499H64.9267V69.8028H67.2802V67.4609H64.9267H62.5732Z" fill="black"/>
<path d="M41.417 69.8029H39.0635V72.1499H41.417V69.8029Z" fill="black"/>
<path d="M46.114 69.8029H43.7656V72.1499V74.4919H46.114V76.839V79.1861H48.4675V76.839V74.4919V72.1499H46.114V69.8029Z" fill="black"/>
<path d="M55.5229 69.8029H53.1694V72.1499H55.5229V69.8029Z" fill="black"/>
<path d="M53.1743 72.1499H50.8208V74.497H53.1743V72.1499Z" fill="black"/>
<path d="M60.2248 76.839V74.4919V72.1499H57.8713V74.4919H55.5229V76.839H57.8713H60.2248Z" fill="black"/>
<path d="M53.1743 76.839H50.8208V79.1861H53.1743V76.839Z" fill="black"/>
<path d="M57.8765 79.1862H55.5229V81.5332H57.8765V79.1862Z" fill="black"/>
<path d="M69.6746 79.1861V72.1499H60.2246V81.5741H62.5781V83.8751H64.9316V81.5741H67.2851V83.8751H69.6386V81.5741H69.6849V81.528H71.9921V83.8751H76.694V81.528H74.3405V79.1809H69.6797L69.6746 79.1861ZM62.0334 73.9538H67.912V79.8164H62.0334V73.9538Z" fill="black"/>
<path d="M48.4673 83.8752V86.2172H50.8208V83.8752V81.5281V79.1862H48.4673V81.5281V83.8752Z" fill="black"/>
<path d="M57.8711 83.8751V86.2171H60.2246H62.573V83.8751H60.2246H57.8711Z" fill="black"/>
<path d="M48.4673 86.2172H46.1138V88.5643H48.4673V86.2172Z" fill="black"/>
<path d="M53.1692 88.5643H55.5227V86.2172H53.1692H50.8208V88.5643H53.1692Z" fill="black"/>
<path d="M71.9819 86.2172V88.5643H74.3303H76.6838V86.2172H74.3303H71.9819Z" fill="black"/>
<path d="M66.1494 75.7115H63.7959V78.0586H66.1494V75.7115Z" fill="black"/>
<path d="M43.7655 44.0105H32.0083V55.7357H43.7655V44.0105ZM42.003 53.9779H33.7709V45.7734H42.003V53.9779Z" fill="black"/>
<path d="M40.2351 47.526H35.5332V52.2151H40.2351V47.526Z" fill="black"/>
<path d="M64.9268 44.0105V55.7357H76.684V44.0105H64.9268ZM74.9214 53.9779H66.6893V45.7734H74.9214V53.9779Z" fill="black"/>
<path d="M73.1535 47.526H68.4517V52.2151H73.1535V47.526Z" fill="black"/>
<path d="M32.0083 88.595H43.7655V76.8698H32.0083V88.595ZM33.7709 78.6275H42.003V86.8372H33.7709V78.6275Z" fill="black"/>
<path d="M40.2351 80.3853H35.5332V85.0743H40.2351V80.3853Z" fill="black"/>
<path d="M2.72363 144.064C7.27648 137.746 11.8242 131.422 16.377 125.103C19.5836 129.674 20.935 134.845 20.303 140.39C19.6709 145.935 15.4161 153.453 11.2589 157.188C7.16857 154.734 4.74826 148.374 2.72363 144.064Z" fill="#FFCCBC"/>
<path d="M80.5945 221.036C72.0284 213.831 65.0398 196.961 68.2926 186.809C71.1291 177.964 74.3665 172.465 87.4701 160.033C87.0024 150.583 88.5235 147.805 86.802 137.925C77.7683 129.869 70.6512 119.317 74.3459 107.807C84.6849 115.228 95.6251 122.115 105.964 129.536C108.533 144.689 111.247 159.684 113.816 174.838C115.255 183.329 116.699 191.969 115.64 200.517C113.878 214.713 101.041 231.398 85.0446 223.896C83.4465 223.148 81.9614 222.174 80.5997 221.031L80.5945 221.036Z" fill="#FFCCBC"/>
<path d="M75.8876 211.269C72.3471 194.578 60.6721 180.106 45.0352 173.157C43.2418 172.357 41.6385 174.991 43.4473 175.796C58.4265 182.453 69.5054 196.044 72.9021 212.053C73.3132 213.99 76.2936 213.206 75.8825 211.269H75.8876Z" fill="#FFAB91"/>
<path d="M94.6849 138.473C82.1261 134.44 74.4797 122.279 75.9802 109.257C76.2063 107.295 73.1231 107.274 72.897 109.222C71.2424 123.612 80.0655 137.007 93.8319 141.43C95.7229 142.04 96.5708 139.083 94.6849 138.473Z" fill="#FFAB91"/>
<path d="M18.6945 125.518C17.749 123.781 15.0666 125.298 16.0121 127.04C20.8682 135.957 16.6545 150.239 9.14691 157.05C7.67725 158.382 9.83549 160.581 11.3 159.249C19.8353 151.515 24.1878 135.609 18.6945 125.518Z" fill="#FFAB91"/>
<path d="M89.2998 136.787C89.2433 134.814 86.1601 134.768 86.2166 136.751C86.4221 144.08 86.6328 151.408 86.8384 158.736C86.8949 160.709 89.9781 160.755 89.9216 158.772C89.716 151.444 89.5053 144.115 89.2998 136.787Z" fill="#FFAB91"/>
<path d="M87.8814 158.408C76.7151 166.069 68.9044 177.748 65.9805 190.791C66.9208 191.821 67.7225 192.943 68.4573 194.106C70.6566 180.864 78.2516 168.734 89.4076 161.078C91.0314 159.966 89.5207 157.281 87.8814 158.403V158.408Z" fill="#FFAB91"/>
<path opacity="0.34" d="M97.8607 141.635C96.4116 142.296 95.6614 143.88 95.0242 145.335C93.015 149.947 91.0109 154.559 89.0017 159.167C89.0017 153.54 88.3491 147.831 88.0151 142.209C87.8917 140.087 87.4961 138.15 90.2041 138.494C92.6964 138.811 95.5483 140.656 97.8556 141.63L97.8607 141.635Z" fill="#FFAB91"/>
<path d="M44.3672 224.137L45.3384 244H113.667L109.638 215.794L44.3672 224.137Z" fill="#FFCCBC"/>
<path opacity="0.34" d="M97.9837 223.614C85.3529 222.487 72.6605 223.343 60.2866 226.11C58.3493 226.54 59.1355 229.518 61.0728 229.082C73.1897 226.371 85.579 225.582 97.9478 226.684C99.9262 226.858 99.9519 223.783 97.9837 223.609V223.614Z" fill="#FFAB91"/>
</g>
<defs>
<clipPath id="clip0_685_20408">
<rect width="116" height="244" fill="white"/>
</clipPath>
</defs>
</svg>
