<svg width="24" height="25" viewBox="0 0 24 25" fill="none" xmlns="http://www.w3.org/2000/svg">
<circle cx="12" cy="12.5" r="12" fill="white"/>
<path d="M16.0528 11.4121C16.6084 11.4121 17.0588 11.8625 17.0588 12.4182C17.0588 12.9738 16.6084 13.4242 16.0528 13.4242L7.78303 13.4242C7.2274 13.4242 6.77697 12.9738 6.77697 12.4182C6.77697 11.8625 7.2274 11.4121 7.78303 11.4121L16.0528 11.4121Z" fill="#5899FB"/>
<path d="M10.9119 8.2834C10.9119 7.72777 11.3624 7.27734 11.918 7.27734C12.4736 7.27734 12.924 7.72777 12.924 8.2834L12.924 17.2239C12.924 17.7795 12.4736 18.2299 11.918 18.2299C11.3624 18.2299 10.9119 17.7795 10.9119 17.2239L10.9119 8.2834Z" fill="#5899FB"/>
</svg>
