<svg width="20" height="25" viewBox="0 0 20 25" fill="none" xmlns="http://www.w3.org/2000/svg">
<g clip-path="url(#clip0_684_4399)">
<path d="M20 24.1846C20 24.6348 19.6267 25 19.1665 25H0.833541C0.373347 25 0 24.6348 0 24.1846V0.81543C0 0.365234 0.373347 0 0.833541 0H12.5001C12.7207 0 12.9329 0.0859375 13.0891 0.23877L19.7559 6.76074C19.9122 6.91357 20 7.12109 20 7.33691V24.1846Z" fill="#9AC1FC"/>
<path d="M20 24.1846V7.33789C20 7.12109 19.9117 6.91357 19.7549 6.76074L13.0641 0.237793C12.9079 0.0854492 12.6963 0 12.4757 0H10V25H19.1665C19.6267 25 20 24.6348 20 24.1846Z" fill="#6CA7FF"/>
<path d="M19.7559 6.76074L13.0891 0.23877C12.9329 0.0859375 12.7208 0 12.4996 0H11.6666V7.33691C11.6666 7.78711 12.0399 8.15234 12.5001 8.15234H20V7.33691C20 7.1206 19.9122 6.91357 19.7559 6.76074Z" fill="#6CA7FF"/>
<path d="M15.8333 10.3262H4.1667C3.70651 10.3262 3.33316 10.6914 3.33316 11.1416V20.9243C3.33316 21.3745 3.70651 21.7397 4.1667 21.7397H15.8333C16.2935 21.7397 16.6668 21.3745 16.6668 20.9243V11.1416C16.6668 10.6914 16.2935 10.3262 15.8333 10.3262ZM5.00024 15.2173H8.33341V16.8477H5.00024V15.2173ZM9.99999 15.2173H14.9997V16.8477H9.99999V15.2173ZM14.9997 13.5869H9.99999V11.9565H14.9997V13.5869ZM8.33291 11.9565V13.5869H4.99974V11.9565H8.33291ZM4.99974 18.4785H8.33291V20.1089H4.99974V18.4785ZM9.99949 20.1089V18.4785H14.9992V20.1089H9.99949Z" fill="white"/>
<path d="M15.8333 10.3267H10V11.957H14.9997V13.5874H10V15.2178H14.9997V16.8481H10V18.4785H14.9997V20.1089H10V21.7393H15.8333C16.2935 21.7393 16.6668 21.374 16.6668 20.9238V11.1416C16.6668 10.6914 16.2935 10.3262 15.8333 10.3262V10.3267Z" fill="#E6F3FF"/>
</g>
<defs>
<clipPath id="clip0_684_4399">
<rect width="20" height="25" fill="white"/>
</clipPath>
</defs>
</svg>
