<svg width="current" height="current" viewBox="0 0 56 56" fill="none" xmlns="http://www.w3.org/2000/svg">
<path d="M55.0969 18.0363L35.3208 8.54537L34.5645 8.16699L33.8083 8.54537L14.0161 18.0363C13.2115 18.4147 12.8897 19.3607 13.2759 20.1489C13.6621 20.9372 14.6275 21.2525 15.4321 20.8742L16.3654 20.4327V27.2435L1.00486 35.9462C0.184208 36.2773 -0.218072 37.1917 0.119844 37.9957C0.457759 38.7998 1.39105 39.1939 2.2117 38.8629L2.72662 38.6579V51.1286C2.72662 51.9957 3.45072 52.7052 4.33574 52.7052C5.22076 52.7052 5.94486 51.9957 5.94486 51.1286V36.7987L16.3654 30.6647V51.1286C16.3654 51.9957 17.0895 52.7052 17.9745 52.7052H51.1385C52.0235 52.7052 52.7476 51.9957 52.7476 51.1286V20.417L53.6809 20.8584C54.4855 21.2368 55.4348 20.9215 55.8371 20.1332C56.2233 19.3449 55.9015 18.4147 55.0969 18.0206V18.0363ZM39.7942 32.194C39.7942 32.8561 39.2471 33.4079 38.5552 33.4079H30.5578C29.882 33.4079 29.3188 32.8719 29.3188 32.194V24.3584C29.3188 23.6962 29.8659 23.1444 30.5578 23.1444H38.5552C39.231 23.1444 39.7942 23.6805 39.7942 24.3584V32.194Z" fill="#D9E2E7"/>
<path d="M12.576 43.9727H11.3872C10.7207 43.9727 10.1804 44.7139 10.1804 45.6283V48.2475C10.1804 49.1619 10.7207 49.9031 11.3872 49.9031H12.576C13.2425 49.9031 13.7828 49.1619 13.7828 48.2475V45.6283C13.7828 44.7139 13.2425 43.9727 12.576 43.9727Z" fill="#D9E2E7"/>
</svg>
