<svg width="current" height="current" viewBox="0 0 16 16" fill="none" xmlns="http://www.w3.org/2000/svg">
<path d="M4.51501 7.63229C4.83166 7.63229 5.08835 7.3756 5.08835 7.05896C5.08835 6.74231 4.83166 6.48562 4.51501 6.48562C4.19837 6.48562 3.94168 6.74231 3.94168 7.05896C3.94168 7.3756 4.19837 7.63229 4.51501 7.63229Z" fill="current" stroke="current" stroke-width="0.266667"/>
<path d="M1.26672 5.89077C1.26672 6.20724 1.52359 6.46411 1.84005 6.46411C2.15652 6.46411 2.41339 6.20724 2.41339 5.89077V4.04002C2.41339 3.14181 3.14184 2.41336 4.04005 2.41336H5.7742C6.09067 2.41336 6.34754 2.15649 6.34754 1.84002C6.34754 1.52356 6.09067 1.26669 5.7742 1.26669H4.04005C2.50865 1.26669 1.26672 2.50833 1.26672 4.04002V5.89077Z" fill="current" stroke="current" stroke-width="0.266667"/>
<path d="M4.0406 14.7333H5.77475H5.77503C6.09149 14.7333 6.34836 14.4765 6.34836 14.16C6.34836 13.8435 6.09149 13.5867 5.77503 13.5867H4.04088C3.14267 13.5867 2.41421 12.8582 2.41421 11.96V10.112C2.41421 9.79553 2.15734 9.53866 1.84088 9.53866C1.52442 9.53866 1.26755 9.79553 1.26755 10.112V11.96C1.26755 13.4917 2.5089 14.7333 4.0406 14.7333Z" fill="current" stroke="current" stroke-width="0.266667"/>
<path d="M10.2292 14.7334H11.9601C13.4918 14.7334 14.7334 13.4917 14.7334 11.96V10.222C14.7334 9.90558 14.4765 9.64871 14.1601 9.64871C13.8436 9.64871 13.5867 9.90558 13.5867 10.222V11.96C13.5867 12.8583 12.8583 13.5867 11.9601 13.5867H10.2292C9.91275 13.5867 9.65588 13.8436 9.65588 14.16C9.65588 14.4765 9.91275 14.7334 10.2292 14.7334Z" fill="current" stroke="current" stroke-width="0.266667"/>
<path d="M13.587 5.76702C13.587 6.08349 13.8439 6.34036 14.1604 6.34036C14.4768 6.34036 14.7337 6.08349 14.7337 5.76702V4.04002C14.7337 2.50834 13.492 1.26669 11.9604 1.26669H10.2435C9.92706 1.26669 9.67019 1.52356 9.67019 1.84002C9.67019 2.15649 9.92706 2.41336 10.2435 2.41336H11.9604C12.8586 2.41336 13.587 3.14181 13.587 4.04002V5.76702Z" fill="current" stroke="current" stroke-width="0.266667"/>
<path d="M10.9469 11.3075C10.9469 11.6239 11.2038 11.8808 11.5202 11.8808C11.8367 11.8808 12.0936 11.6239 12.0936 11.3075V9.53289C12.0936 8.73023 11.4429 8.07956 10.6402 8.07956H9.76025C8.95758 8.07956 8.30691 8.73023 8.30691 9.53289V11.3075C8.30691 11.6239 8.56378 11.8808 8.88025 11.8808C9.19671 11.8808 9.45358 11.6239 9.45358 11.3075V9.53289C9.45358 9.3637 9.59106 9.22622 9.76025 9.22622H10.6402C10.8094 9.22622 10.9469 9.3637 10.9469 9.53289V11.3075Z" fill="current" stroke="current" stroke-width="0.266667"/>
<path d="M6.24207 3.93582H4.4675C4.15103 3.93582 3.89416 4.19269 3.89416 4.50915C3.89416 4.82562 4.15103 5.08249 4.4675 5.08249H6.24207C6.41126 5.08249 6.54874 5.21997 6.54874 5.38915V7.18215C6.54874 7.49862 6.80561 7.75549 7.12207 7.75549C7.43853 7.75549 7.6954 7.49862 7.6954 7.18215V5.38915C7.6954 4.58649 7.04473 3.93582 6.24207 3.93582Z" fill="current" stroke="current" stroke-width="0.266667"/>
<path d="M5.3615 12.0933H6.2415C7.04279 12.0933 7.69484 11.4413 7.69484 10.64V9.76C7.69484 8.95871 7.04279 8.30667 6.2415 8.30667H5.3615C4.56022 8.30667 3.90817 8.95871 3.90817 9.76V10.64C3.90817 11.4413 4.56022 12.0933 5.3615 12.0933ZM5.05484 9.76C5.05484 9.59082 5.19232 9.45334 5.3615 9.45334H6.2415C6.41069 9.45334 6.54817 9.59082 6.54817 9.76V10.64C6.54817 10.8092 6.41069 10.9467 6.2415 10.9467H5.3615C5.19232 10.9467 5.05484 10.8092 5.05484 10.64V9.76Z" fill="current" stroke="current" stroke-width="0.266667"/>
<path d="M8.30758 5.82915C8.30758 6.87354 9.15653 7.72249 10.2009 7.72249C11.2453 7.72249 12.0943 6.87354 12.0943 5.82915C12.0943 4.78476 11.2453 3.93582 10.2009 3.93582C9.15653 3.93582 8.30758 4.78476 8.30758 5.82915ZM9.45425 5.82915C9.45425 5.41742 9.78918 5.08249 10.2009 5.08249C10.6127 5.08249 10.9476 5.41742 10.9476 5.82915C10.9476 6.24089 10.6127 6.57582 10.2009 6.57582C9.78918 6.57582 9.45425 6.24089 9.45425 5.82915Z" fill="current" stroke="current" stroke-width="0.266667"/>
</svg>
