<svg width="current" height="current" viewBox="0 0 24 25" fill="none" xmlns="http://www.w3.org/2000/svg">
<path d="M12 3.46094C7.02944 3.46094 3 7.49037 3 12.4609V13.4609H1V12.4609C1 6.38581 5.92487 1.46094 12 1.46094C15.7216 1.46094 19.01 3.30898 21 6.13513V2.46094H23V9.46094H16V7.46094H19.4847C17.8694 5.04789 15.1193 3.46094 12 3.46094Z" fill="#737F8F"/>
<path d="M22.9999 11.4609V12.4609C22.9999 18.5361 18.0751 23.4609 11.9999 23.4609C8.27841 23.4609 4.99001 21.6129 3 18.7868V22.4609H1V15.4609H8V17.4609H4.51525C6.1305 19.874 8.88069 21.4609 11.9999 21.4609C16.9705 21.4609 20.9999 17.4315 20.9999 12.4609V11.4609H22.9999Z" fill="#737F8F"/>
</svg>
