<svg width="current" height="current" viewBox="0 0 40 40" fill="none" xmlns="http://www.w3.org/2000/svg">
<path d="M0 8C0 3.58172 3.58172 0 8 0H32C36.4183 0 40 3.58172 40 8V32C40 36.4183 36.4183 40 32 40H8C3.58172 40 0 36.4183 0 32V8Z" fill="#CAD9ED"/>
<path fill-rule="evenodd" clip-rule="evenodd" d="M9 18C9 13.0294 13.0294 9 18 9C22.9706 9 27 13.0294 27 18C27 20.125 26.2635 22.078 25.0319 23.6177L31.4142 30L30 31.4142L23.6177 25.0319C22.078 26.2635 20.125 27 18 27C13.0294 27 9 22.9706 9 18ZM18 11C14.134 11 11 14.134 11 18C11 21.866 14.134 25 18 25C21.866 25 25 21.866 25 18C25 14.134 21.866 11 18 11Z" fill="white"/>
</svg>
