<svg width="24" height="24" viewBox="0 0 24 24" fill="none" xmlns="http://www.w3.org/2000/svg">
<path d="M17.4129 8.93857L10.5 16.4799L6.58712 12.2113L8.06143 10.8598L10.5 13.5201L15.9386 7.58712L17.4129 8.93857Z" fill="#00B071"/>
<path fill-rule="evenodd" clip-rule="evenodd" d="M1 12C1 5.92487 5.92487 1 12 1C18.0751 1 23 5.92487 23 12C23 18.0751 18.0751 23 12 23C5.92487 23 1 18.0751 1 12ZM12 3C7.02944 3 3 7.02944 3 12C3 16.9706 7.02944 21 12 21C16.9706 21 21 16.9706 21 12C21 7.02944 16.9706 3 12 3Z" fill="#00B071"/>
</svg>
