<svg width="20" height="20" viewBox="0 0 20 20" fill="none" xmlns="http://www.w3.org/2000/svg">
<path fill-rule="evenodd" clip-rule="evenodd" d="M17.3294 14.6213C15.8301 13.5913 13.5316 14.1393 12.1005 12.3039C12.1005 12.3039 11.5677 11.7231 12.7665 10.3069C13.9653 8.89075 14.0644 6.63626 13.767 4.89674C13.4666 3.15722 11.769 1.99854 10.0034 1.99854C8.23771 1.99854 6.54019 3.15722 6.23971 4.89674C5.93924 6.63626 6.03836 8.88776 7.24026 10.3069C8.44215 11.7261 7.90626 12.3039 7.90626 12.3039C6.47514 14.1393 4.17667 13.5913 2.6774 14.6213C1.17193 15.6512 1.54055 18.0015 1.54055 18.0015H18.46C18.46 18.0015 18.8255 15.6512 17.3263 14.6213H17.3294Z" fill="#B5D0DE"/>
</svg>
