<svg width="current" height="current" viewBox="0 0 22 22" fill="none" xmlns="http://www.w3.org/2000/svg">
<path d="M14.6303 12.1005C16.5879 10.7983 17.813 8.47939 17.546 5.89884C17.2316 2.84857 14.7935 0.383979 11.7532 0.0420875C7.78456 -0.400885 4.41507 2.71182 4.41507 6.60047C4.41507 8.8956 5.58964 10.9172 7.36931 12.1005C3.61719 13.4859 0.861678 16.9434 0.50278 21.0848C0.461255 21.5783 0.861678 22.0005 1.35702 22.0005H1.40151C1.85236 22.0005 2.21422 21.6497 2.25575 21.2007C2.65914 16.7205 6.42609 13.2005 10.9998 13.2005C15.5735 13.2005 19.3405 16.7205 19.7439 21.2007C19.7854 21.6497 20.1473 22.0005 20.5981 22.0005H20.6426C21.1379 22.0005 21.5413 21.5783 21.4968 21.0848C21.1379 16.9434 18.3824 13.4888 14.6333 12.1005H14.6303ZM10.9998 11.4405C8.33626 11.4405 6.171 9.2702 6.171 6.60047C6.171 3.93074 8.33626 1.76047 10.9998 1.76047C13.6634 1.76047 15.8286 3.93074 15.8286 6.60047C15.8286 9.2702 13.6634 11.4405 10.9998 11.4405Z" fill="#405F8D"/>
</svg>
