<svg width="current" height="current" viewBox="0 0 40 27" fill="none" xmlns="http://www.w3.org/2000/svg">
<path d="M36.7261 26.4988C36.1637 26.4988 35.7034 26.0369 35.7034 25.4723V7.65585L26.1923 2.80072L16.6812 7.65585V25.4621C16.6812 26.0266 16.221 26.4885 15.6585 26.4885C15.096 26.4885 14.6358 26.0266 14.6358 25.4621V6.40357L26.1923 0.501465L37.7488 6.40357V25.4723C37.7488 26.0369 37.2886 26.4988 36.7261 26.4988Z" fill="#6CA7FF"/>
<path d="M15.6481 26.4988C15.0856 26.4988 14.6254 26.0369 14.6254 25.4723V15.149L3.95864 19.6653V25.4723C3.95864 26.0369 3.49843 26.4988 2.93594 26.4988C2.37345 26.4988 1.91324 26.0369 1.91324 25.4723V18.3002L16.6708 12.0593V25.4723C16.6708 26.0369 16.2106 26.4988 15.6481 26.4988Z" fill="#6CA7FF"/>
<path d="M12.6723 8.30251C12.4268 7.78928 12.6314 7.17341 13.1427 6.92706L26.1924 0.501465L39.2421 6.9168C39.7534 7.16315 39.9579 7.77902 39.7125 8.29225C39.467 8.80547 38.8534 9.01076 38.3421 8.76442L26.1924 2.79046L14.0427 8.76442C13.5313 9.01076 12.928 8.80547 12.6723 8.29225V8.30251Z" fill="#6CA7FF"/>
<path d="M0.256405 19.922C0.0416381 19.3985 0.297313 18.7929 0.818891 18.5876L15.2594 12.6547L16.0367 14.5537L1.59614 20.4866C1.07457 20.7021 0.4814 20.4455 0.266632 19.922H0.256405Z" fill="#6CA7FF"/>
<path d="M29.9456 18.9879H22.4288C21.539 18.9879 20.8232 18.2694 20.8232 17.3764V9.83193C20.8232 8.93892 21.539 8.2204 22.4288 8.2204H29.9456C30.8354 8.2204 31.5513 8.93892 31.5513 9.83193V17.3764C31.5513 18.2694 30.8354 18.9879 29.9456 18.9879ZM23.6458 16.935H28.7286C29.1582 16.935 29.5161 16.586 29.5161 16.1446V11.0431C29.5161 10.612 29.1684 10.2528 28.7286 10.2528H23.6458C23.2163 10.2528 22.8583 10.6018 22.8583 11.0431V16.1446C22.8583 16.5757 23.206 16.935 23.6458 16.935Z" fill="#6CA7FF"/>
<path d="M9.63451 21.9543H8.95953C8.5811 21.9543 8.27432 22.2623 8.27432 22.6421V23.7301C8.27432 24.1099 8.5811 24.4178 8.95953 24.4178H9.63451C10.0129 24.4178 10.3197 24.1099 10.3197 23.7301V22.6421C10.3197 22.2623 10.0129 21.9543 9.63451 21.9543Z" fill="#6CA7FF"/>
</svg>
