<svg width="current" height="current" viewBox="0 0 64 64" fill="none" xmlns="http://www.w3.org/2000/svg">
<g clip-path="url(#clip0_812_18462)">
<path d="M32 0C14.336 0 0 14.336 0 32C0 49.664 14.336 64 32 64C49.664 64 64 49.664 64 32C64 14.336 49.664 0 32 0ZM32 51.2C29.6533 51.2 27.7333 49.28 27.7333 46.9333C27.7333 44.5867 29.6533 42.6667 32 42.6667C34.3467 42.6667 36.2667 44.5867 36.2667 46.9333C36.2667 49.28 34.3467 51.2 32 51.2ZM36.8853 18.112L35.456 35.2213C35.3067 37.0133 33.8133 38.4 32 38.4C30.1867 38.4 28.6933 37.0133 28.544 35.2213L27.1147 18.112C26.88 15.2533 29.12 12.8 32 12.8C34.7307 12.8 36.9067 15.0187 36.9067 17.7067C36.9067 17.8347 36.9067 17.984 36.8853 18.112Z" fill="#FFA3A3"/>
</g>
<defs>
<clipPath id="clip0_812_18462">
<rect width="64" height="64" fill="white"/>
</clipPath>
</defs>
</svg>
