<svg width="current" height="current" viewBox="0 0 36 37" fill="none" xmlns="http://www.w3.org/2000/svg">
<g id="al_9920373 1" clip-path="url(#clip0_2300_2693)">
<g id="Layer 2">
<g id="13 Aluminium,periodic table,chemistry,metal,education,science,element">
<path id="Vector" d="M14.5041 12.949L14.5045 12.9479C14.611 12.6906 14.7916 12.4707 15.0232 12.3161C15.2549 12.1615 15.5273 12.0792 15.8058 12.0797M14.5041 12.949L15.8056 12.1797M14.5041 12.949L14.4942 12.9736L14.4942 12.9736L14.4938 12.9748L10.2821 23.8887L10.2821 23.8887C10.1718 24.1745 10.1796 24.4924 10.3038 24.7725C10.4279 25.0525 10.6583 25.2718 10.9441 25.3821C11.2299 25.4923 11.5478 25.4845 11.8279 25.3603C12.1079 25.2362 12.3272 25.0059 12.4374 24.7201L13.2009 22.7408H18.382L19.1372 24.714C19.1876 24.86 19.2668 24.9943 19.37 25.1092C19.4737 25.2244 19.5995 25.3176 19.7399 25.3832C19.8803 25.4489 20.0325 25.4855 20.1874 25.4911C20.3423 25.4966 20.4968 25.4709 20.6415 25.4155C20.7863 25.3601 20.9184 25.2761 21.03 25.1685C21.1416 25.0609 21.2304 24.932 21.2911 24.7893C21.3518 24.6467 21.3832 24.4933 21.3834 24.3383C21.3835 24.1839 21.3527 24.0311 21.2928 23.8888L17.1227 12.987M14.5041 12.949L17.1227 12.987M15.8058 12.0797L15.8056 12.1797M15.8058 12.0797C15.8056 12.0797 15.8055 12.0797 15.8054 12.0797L15.8056 12.1797M15.8058 12.0797C16.0838 12.0791 16.3558 12.161 16.5872 12.3151C16.818 12.4688 16.9982 12.6874 17.1049 12.9433M15.8056 12.1797C16.064 12.179 16.3167 12.2551 16.5318 12.3984C16.7469 12.5416 16.9145 12.7454 17.0136 12.9841M17.1049 12.9433L17.1048 12.9431C17.1044 12.9424 17.1043 12.9422 17.1044 12.9423C17.1045 12.9425 17.105 12.9434 17.1055 12.9447L17.0136 12.9841M17.1049 12.9433L17.1099 12.9525C17.1126 12.9577 17.119 12.97 17.1227 12.987M17.1049 12.9433C17.1053 12.9441 17.1056 12.9449 17.1059 12.9457L17.0136 12.9841M17.0136 12.9841L17.1227 12.987M17.4969 20.4314H14.0902L15.8017 15.9974L17.4969 20.4314Z" fill="current" stroke="current" stroke-width="0.2"/>
<path id="Vector_2" d="M24.6426 12.0797C24.3363 12.0797 24.0426 12.2013 23.8261 12.4179C23.6095 12.6344 23.4879 12.9281 23.4879 13.2344V24.3044C23.4879 24.6106 23.6095 24.9043 23.8261 25.1209C24.0426 25.3374 24.3363 25.4591 24.6426 25.4591C24.9488 25.4591 25.2425 25.3374 25.4591 25.1209C25.6756 24.9043 25.7973 24.6106 25.7973 24.3044V13.2344C25.7973 12.9281 25.6756 12.6344 25.4591 12.4179C25.2425 12.2013 24.9488 12.0797 24.6426 12.0797Z" fill="current" stroke="current" stroke-width="0.2"/>
<path id="Vector_3" d="M30.7983 5.97282L30.7983 5.97279L30.7962 5.97075C27.3855 2.65824 22.8082 0.820815 18.0538 0.855562C13.2993 0.890309 8.74941 2.79444 5.3874 6.15645C2.02539 9.51845 0.121266 14.0683 0.0865191 18.8228C0.051772 23.5773 1.8892 28.1545 5.20171 31.5653L5.20168 31.5653L5.20377 31.5673C8.61456 34.8799 13.1918 36.7173 17.9463 36.6825C22.7007 36.6478 27.2506 34.7437 30.6126 31.3817C33.9746 28.0196 35.8787 23.4698 35.9135 18.7153C35.9482 13.9608 34.1108 9.38361 30.7983 5.97282ZM18 34.5597C9.29289 34.5597 2.20938 27.4762 2.20938 18.7691C2.20938 10.0619 9.29289 2.97842 18 2.97842C26.7071 2.97842 33.7906 10.0619 33.7906 18.7691C33.7906 27.4762 26.7071 34.5597 18 34.5597Z" fill="current" stroke="current" stroke-width="0.2"/>
</g>
</g>
</g>
<defs>
<clipPath id="clip0_2300_2693">
<rect width="36" height="36" fill="current" transform="translate(0 0.769531)"/>
</clipPath>
</defs>
</svg>
