<svg width="40" height="41" viewBox="0 0 40 41" fill="none" xmlns="http://www.w3.org/2000/svg">
<g clip-path="url(#clip0_2287_4606)">
<path d="M16.5031 14.949L16.5036 14.9479C16.61 14.6906 16.7906 14.4707 17.0222 14.3161C17.2539 14.1615 17.5263 14.0792 17.8048 14.0797M16.5031 14.949L17.8046 14.1797M16.5031 14.949L16.4933 14.9736L16.4933 14.9736M16.5031 14.949L16.4933 14.9736M17.8048 14.0797L17.8046 14.1797M17.8048 14.0797C17.8047 14.0797 17.8045 14.0797 17.8044 14.0797L17.8046 14.1797M17.8048 14.0797C18.0828 14.0791 18.3548 14.161 18.5863 14.3151C18.8171 14.4688 18.9972 14.6874 19.1039 14.9433M17.8046 14.1797C18.063 14.179 18.3158 14.2551 18.5308 14.3984C18.7459 14.5416 18.9136 14.7454 19.0126 14.9841M19.1039 14.9433L19.1039 14.9431C19.1029 14.9414 19.1036 14.9425 19.1045 14.9447L19.0126 14.9841M19.1039 14.9433C19.1043 14.9441 19.1046 14.9449 19.105 14.9457L19.0126 14.9841M19.1039 14.9433L19.0126 14.9841M16.4933 14.9736L16.4928 14.9748M16.4933 14.9736L16.4928 14.9748M16.4928 14.9748L12.2811 25.8887L12.2811 25.8887M16.4928 14.9748L12.2811 25.8887M12.2811 25.8887C12.1709 26.1745 12.1787 26.4924 12.3028 26.7725M12.2811 25.8887L12.3028 26.7725M12.3028 26.7725C12.427 27.0525 12.6573 27.2718 12.9431 27.3821M12.3028 26.7725L12.9431 27.3821M12.9431 27.3821C13.2289 27.4923 13.5468 27.4845 13.8269 27.3603M12.9431 27.3821L13.8269 27.3603M13.8269 27.3603C14.1069 27.2362 14.3262 27.0059 14.4364 26.7201M13.8269 27.3603L14.4364 26.7201M14.4364 26.7201L15.2 24.7408M14.4364 26.7201L15.2 24.7408M15.2 24.7408H20.381L21.1363 26.714L15.2 24.7408ZM19.1217 14.987L19.118 14.9772L19.0246 15.0129H19.1246C19.1246 15.0035 19.1234 14.9947 19.1217 14.987ZM23.2918 25.8888C23.2916 25.8882 23.2913 25.8877 23.2911 25.8871L23.199 25.9261L23.2924 25.8904L23.2918 25.8888ZM19.4959 22.4314H16.0893L17.8007 17.9974L19.4959 22.4314Z" fill="current" stroke="current" stroke-width="0.2"/>
<path d="M26.6416 14.0797C26.3354 14.0797 26.0417 14.2013 25.8251 14.4179C25.6086 14.6344 25.4869 14.9281 25.4869 15.2344V26.3044C25.4869 26.6106 25.6086 26.9043 25.8251 27.1209C26.0417 27.3374 26.3354 27.4591 26.6416 27.4591C26.9478 27.4591 27.2415 27.3374 27.4581 27.1209C27.6746 26.9043 27.7963 26.6106 27.7963 26.3044V15.2344C27.7963 14.9281 27.6746 14.6344 27.4581 14.4179C27.2415 14.2013 26.9478 14.0797 26.6416 14.0797Z" fill="current" stroke="current" stroke-width="0.2"/>
<path d="M32.7978 7.97282L32.7978 7.97279L32.7957 7.97075C29.385 4.65824 24.8077 2.82081 20.0533 2.85556C15.2988 2.89031 10.7489 4.79444 7.38691 8.15645C4.02491 11.5185 2.12078 16.0683 2.08603 20.8228C2.05128 25.5773 3.88871 30.1545 7.20122 33.5653L7.20119 33.5653L7.20329 33.5673C10.6141 36.8799 15.1913 38.7173 19.9458 38.6825C24.7002 38.6478 29.2501 36.7437 32.6121 33.3817C35.9741 30.0196 37.8783 25.4698 37.913 20.7153C37.9478 15.9608 36.1103 11.3836 32.7978 7.97282ZM19.9995 36.5597C11.2924 36.5597 4.20889 29.4762 4.20889 20.7691C4.20889 12.0619 11.2924 4.97842 19.9995 4.97842C28.7066 4.97842 35.7901 12.0619 35.7901 20.7691C35.7901 29.4762 28.7066 36.5597 19.9995 36.5597Z" fill="current" stroke="current" stroke-width="0.2"/>
</g>
<defs>
<clipPath id="clip0_2287_4606">
<rect width="36" height="36" fill="current" transform="translate(2 2.76953)"/>
</clipPath>
</defs>
</svg>
