<svg width="current" height="current" viewBox="0 0 198 32" fill="none" xmlns="http://www.w3.org/2000/svg">
<path d="M25.355 21.698C25.5457 21.7153 25.7623 21.7327 26.005 21.75C26.265 21.75 26.5683 21.75 26.915 21.75C28.943 21.75 30.4423 21.2387 31.413 20.216C32.401 19.1933 32.895 17.7807 32.895 15.978C32.895 14.0887 32.427 12.6587 31.491 11.688C30.555 10.7173 29.073 10.232 27.045 10.232C26.7677 10.232 26.4817 10.2407 26.187 10.258C25.8923 10.258 25.615 10.2753 25.355 10.31V21.698ZM37.081 15.978C37.081 17.538 36.8383 18.8987 36.353 20.06C35.8677 21.2213 35.1743 22.1833 34.273 22.946C33.389 23.7087 32.3057 24.2807 31.023 24.662C29.7403 25.0433 28.3017 25.234 26.707 25.234C25.979 25.234 25.1297 25.1993 24.159 25.13C23.1883 25.078 22.235 24.9567 21.299 24.766V7.216C22.235 7.04267 23.2057 6.93 24.211 6.878C25.2337 6.80867 26.109 6.774 26.837 6.774C28.3797 6.774 29.775 6.94733 31.023 7.294C32.2883 7.64067 33.3717 8.18667 34.273 8.932C35.1743 9.67733 35.8677 10.6307 36.353 11.792C36.8383 12.9533 37.081 14.3487 37.081 15.978ZM44.9149 22.296C45.2963 22.296 45.6603 22.2873 46.0069 22.27C46.3536 22.2527 46.6309 22.2267 46.8389 22.192V19.254C46.6829 19.2193 46.4489 19.1847 46.1369 19.15C45.8249 19.1153 45.5389 19.098 45.2789 19.098C44.9149 19.098 44.5683 19.124 44.2389 19.176C43.9269 19.2107 43.6496 19.2887 43.4069 19.41C43.1643 19.5313 42.9736 19.696 42.8349 19.904C42.6963 20.112 42.6269 20.372 42.6269 20.684C42.6269 21.2907 42.8263 21.7153 43.2249 21.958C43.6409 22.1833 44.2043 22.296 44.9149 22.296ZM44.6029 10.96C45.7469 10.96 46.7003 11.09 47.4629 11.35C48.2256 11.61 48.8323 11.9827 49.2829 12.468C49.7509 12.9533 50.0803 13.5427 50.2709 14.236C50.4616 14.9293 50.5569 15.7007 50.5569 16.55V24.61C50.0023 24.7313 49.2309 24.87 48.2429 25.026C47.2549 25.1993 46.0589 25.286 44.6549 25.286C43.7709 25.286 42.9649 25.208 42.2369 25.052C41.5263 24.896 40.9109 24.6447 40.3909 24.298C39.8709 23.934 39.4723 23.466 39.1949 22.894C38.9176 22.322 38.7789 21.62 38.7789 20.788C38.7789 19.9907 38.9349 19.3147 39.2469 18.76C39.5763 18.2053 40.0096 17.7633 40.5469 17.434C41.0843 17.1047 41.6996 16.8707 42.3929 16.732C43.0863 16.576 43.8056 16.498 44.5509 16.498C45.0536 16.498 45.4956 16.524 45.8769 16.576C46.2756 16.6107 46.5963 16.6627 46.8389 16.732V16.368C46.8389 15.7093 46.6396 15.1807 46.2409 14.782C45.8423 14.3833 45.1489 14.184 44.1609 14.184C43.5023 14.184 42.8523 14.236 42.2109 14.34C41.5696 14.4267 41.0149 14.5567 40.5469 14.73L40.0529 11.61C40.2783 11.5407 40.5556 11.4713 40.8849 11.402C41.2316 11.3153 41.6043 11.246 42.0029 11.194C42.4016 11.1247 42.8176 11.0727 43.2509 11.038C43.7016 10.986 44.1523 10.96 44.6029 10.96ZM53.41 7.918L57.284 7.294V11.324H61.938V14.548H57.284V19.358C57.284 20.1727 57.4227 20.8227 57.7 21.308C57.9947 21.7933 58.5754 22.036 59.442 22.036C59.858 22.036 60.2827 22.0013 60.716 21.932C61.1667 21.8453 61.574 21.7327 61.938 21.594L62.484 24.61C62.016 24.8007 61.496 24.9653 60.924 25.104C60.352 25.2427 59.65 25.312 58.818 25.312C57.7607 25.312 56.8854 25.1733 56.192 24.896C55.4987 24.6013 54.944 24.2027 54.528 23.7C54.112 23.18 53.8173 22.556 53.644 21.828C53.488 21.1 53.41 20.294 53.41 19.41V7.918ZM69.2909 22.296C69.6723 22.296 70.0363 22.2873 70.3829 22.27C70.7296 22.2527 71.0069 22.2267 71.2149 22.192V19.254C71.0589 19.2193 70.8249 19.1847 70.5129 19.15C70.2009 19.1153 69.9149 19.098 69.6549 19.098C69.2909 19.098 68.9443 19.124 68.6149 19.176C68.3029 19.2107 68.0256 19.2887 67.7829 19.41C67.5403 19.5313 67.3496 19.696 67.2109 19.904C67.0723 20.112 67.0029 20.372 67.0029 20.684C67.0029 21.2907 67.2023 21.7153 67.6009 21.958C68.0169 22.1833 68.5803 22.296 69.2909 22.296ZM68.9789 10.96C70.1229 10.96 71.0763 11.09 71.8389 11.35C72.6016 11.61 73.2083 11.9827 73.6589 12.468C74.1269 12.9533 74.4563 13.5427 74.6469 14.236C74.8376 14.9293 74.9329 15.7007 74.9329 16.55V24.61C74.3783 24.7313 73.6069 24.87 72.6189 25.026C71.6309 25.1993 70.4349 25.286 69.0309 25.286C68.1469 25.286 67.3409 25.208 66.6129 25.052C65.9023 24.896 65.2869 24.6447 64.7669 24.298C64.2469 23.934 63.8483 23.466 63.5709 22.894C63.2936 22.322 63.1549 21.62 63.1549 20.788C63.1549 19.9907 63.3109 19.3147 63.6229 18.76C63.9523 18.2053 64.3856 17.7633 64.9229 17.434C65.4603 17.1047 66.0756 16.8707 66.7689 16.732C67.4623 16.576 68.1816 16.498 68.9269 16.498C69.4296 16.498 69.8716 16.524 70.2529 16.576C70.6516 16.6107 70.9723 16.6627 71.2149 16.732V16.368C71.2149 15.7093 71.0156 15.1807 70.6169 14.782C70.2183 14.3833 69.5249 14.184 68.5369 14.184C67.8783 14.184 67.2283 14.236 66.5869 14.34C65.9456 14.4267 65.3909 14.5567 64.9229 14.73L64.4289 11.61C64.6543 11.5407 64.9316 11.4713 65.2609 11.402C65.6076 11.3153 65.9803 11.246 66.3789 11.194C66.7776 11.1247 67.1936 11.0727 67.6269 11.038C68.0776 10.986 68.5283 10.96 68.9789 10.96ZM95.9921 25C94.8308 22.9373 93.5741 20.9007 92.2221 18.89C90.8701 16.8793 89.4315 14.9813 87.9061 13.196V25H83.9021V6.982H87.2041C87.7761 7.554 88.4088 8.256 89.1021 9.088C89.7955 9.92 90.4975 10.8127 91.2081 11.766C91.9361 12.702 92.6555 13.6813 93.3661 14.704C94.0768 15.7093 94.7441 16.68 95.3681 17.616V6.982H99.3981V25H95.9921ZM114.448 24.532C113.79 24.7227 112.94 24.896 111.9 25.052C110.86 25.2253 109.768 25.312 108.624 25.312C107.463 25.312 106.492 25.156 105.712 24.844C104.95 24.532 104.343 24.0987 103.892 23.544C103.442 22.972 103.121 22.296 102.93 21.516C102.74 20.736 102.644 19.878 102.644 18.942V11.324H106.518V18.474C106.518 19.722 106.683 20.6233 107.012 21.178C107.342 21.7327 107.957 22.01 108.858 22.01C109.136 22.01 109.43 22.0013 109.742 21.984C110.054 21.9493 110.332 21.9147 110.574 21.88V11.324H114.448V24.532ZM125.807 14.756C125.46 14.6693 125.053 14.5827 124.585 14.496C124.117 14.392 123.614 14.34 123.077 14.34C122.834 14.34 122.54 14.366 122.193 14.418C121.864 14.4527 121.612 14.496 121.439 14.548V25H117.565V12.052C118.258 11.8093 119.073 11.584 120.009 11.376C120.962 11.1507 122.02 11.038 123.181 11.038C123.389 11.038 123.64 11.0553 123.935 11.09C124.23 11.1073 124.524 11.142 124.819 11.194C125.114 11.2287 125.408 11.2807 125.703 11.35C125.998 11.402 126.249 11.4713 126.457 11.558L125.807 14.756ZM131.94 22.218C132.65 22.218 133.153 22.1487 133.448 22.01C133.742 21.8713 133.89 21.6027 133.89 21.204C133.89 20.892 133.699 20.6233 133.318 20.398C132.936 20.1553 132.356 19.8867 131.576 19.592C130.969 19.3667 130.414 19.1327 129.912 18.89C129.426 18.6473 129.01 18.3613 128.664 18.032C128.317 17.6853 128.048 17.278 127.858 16.81C127.667 16.342 127.572 15.7787 127.572 15.12C127.572 13.8373 128.048 12.8233 129.002 12.078C129.955 11.3327 131.264 10.96 132.928 10.96C133.76 10.96 134.557 11.038 135.32 11.194C136.082 11.3327 136.689 11.4887 137.14 11.662L136.464 14.678C136.013 14.522 135.519 14.3833 134.982 14.262C134.462 14.1407 133.872 14.08 133.214 14.08C132 14.08 131.394 14.418 131.394 15.094C131.394 15.25 131.42 15.3887 131.472 15.51C131.524 15.6313 131.628 15.7527 131.784 15.874C131.94 15.978 132.148 16.0993 132.408 16.238C132.685 16.3593 133.032 16.498 133.448 16.654C134.297 16.966 134.999 17.278 135.554 17.59C136.108 17.8847 136.542 18.214 136.854 18.578C137.183 18.9247 137.408 19.3147 137.53 19.748C137.668 20.1813 137.738 20.684 137.738 21.256C137.738 22.608 137.226 23.6307 136.204 24.324C135.198 25.0173 133.768 25.364 131.914 25.364C130.7 25.364 129.686 25.26 128.872 25.052C128.074 24.844 127.52 24.6707 127.208 24.532L127.858 21.386C128.516 21.646 129.192 21.854 129.886 22.01C130.579 22.1487 131.264 22.218 131.94 22.218ZM139.463 18.266C139.463 17.0527 139.645 15.9953 140.009 15.094C140.39 14.1753 140.884 13.4127 141.491 12.806C142.098 12.1993 142.791 11.74 143.571 11.428C144.368 11.116 145.183 10.96 146.015 10.96C147.956 10.96 149.49 11.558 150.617 12.754C151.744 13.9327 152.307 15.6747 152.307 17.98C152.307 18.2053 152.298 18.4567 152.281 18.734C152.264 18.994 152.246 19.228 152.229 19.436H143.441C143.528 20.2333 143.9 20.866 144.559 21.334C145.218 21.802 146.102 22.036 147.211 22.036C147.922 22.036 148.615 21.9753 149.291 21.854C149.984 21.7153 150.548 21.5507 150.981 21.36L151.501 24.506C151.293 24.61 151.016 24.714 150.669 24.818C150.322 24.922 149.932 25.0087 149.499 25.078C149.083 25.1647 148.632 25.234 148.147 25.286C147.662 25.338 147.176 25.364 146.691 25.364C145.46 25.364 144.386 25.182 143.467 24.818C142.566 24.454 141.812 23.96 141.205 23.336C140.616 22.6947 140.174 21.9407 139.879 21.074C139.602 20.2073 139.463 19.2713 139.463 18.266ZM148.563 16.784C148.546 16.4547 148.485 16.134 148.381 15.822C148.294 15.51 148.147 15.2327 147.939 14.99C147.748 14.7473 147.497 14.548 147.185 14.392C146.89 14.236 146.518 14.158 146.067 14.158C145.634 14.158 145.261 14.236 144.949 14.392C144.637 14.5307 144.377 14.7213 144.169 14.964C143.961 15.2067 143.796 15.4927 143.675 15.822C143.571 16.134 143.493 16.4547 143.441 16.784H148.563ZM163.019 14.756C162.672 14.6693 162.265 14.5827 161.797 14.496C161.329 14.392 160.826 14.34 160.289 14.34C160.046 14.34 159.751 14.366 159.405 14.418C159.075 14.4527 158.824 14.496 158.651 14.548V25H154.777V12.052C155.47 11.8093 156.285 11.584 157.221 11.376C158.174 11.1507 159.231 11.038 160.393 11.038C160.601 11.038 160.852 11.0553 161.147 11.09C161.441 11.1073 161.736 11.142 162.031 11.194C162.325 11.2287 162.62 11.2807 162.915 11.35C163.209 11.402 163.461 11.4713 163.669 11.558L163.019 14.756ZM178.18 11.324C177.4 13.9587 176.585 16.4287 175.736 18.734C174.886 21.0393 173.959 23.2753 172.954 25.442C172.59 26.222 172.226 26.8807 171.862 27.418C171.498 27.9727 171.099 28.4233 170.666 28.77C170.232 29.134 169.738 29.394 169.184 29.55C168.646 29.7233 168.014 29.81 167.286 29.81C166.679 29.81 166.116 29.7493 165.596 29.628C165.093 29.524 164.677 29.4027 164.348 29.264L165.024 26.17C165.422 26.3087 165.778 26.404 166.09 26.456C166.402 26.508 166.731 26.534 167.078 26.534C167.771 26.534 168.3 26.3433 168.664 25.962C169.045 25.598 169.366 25.0867 169.626 24.428C168.742 22.6947 167.858 20.7533 166.974 18.604C166.09 16.4373 165.258 14.0107 164.478 11.324H168.586C168.759 12 168.958 12.7367 169.184 13.534C169.426 14.314 169.678 15.1113 169.938 15.926C170.198 16.7233 170.458 17.5033 170.718 18.266C170.995 19.0287 171.255 19.722 171.498 20.346C171.723 19.722 171.957 19.0287 172.2 18.266C172.442 17.5033 172.676 16.7233 172.902 15.926C173.144 15.1113 173.37 14.314 173.578 13.534C173.803 12.7367 174.002 12 174.176 11.324H178.18Z" fill="#4B86DD"/>
</svg>
