<svg width="current" height="current" viewBox="0 0 34 34" fill="none" xmlns="http://www.w3.org/2000/svg">
<g clip-path="url(#clip0_1_550)">
<path d="M30.4829 12.6542C30.1652 12.6542 29.8819 12.4424 29.7563 12.1149C29.6677 11.8809 29.5692 11.6445 29.4657 11.4154C29.3278 11.1076 29.3771 10.7677 29.5938 10.5534C30.9459 9.20129 30.9459 7.0044 29.5938 5.65229L28.3476 4.40607C26.9954 3.05395 24.7986 3.05395 23.4464 4.40607C23.2322 4.62034 22.8923 4.67206 22.5844 4.53414C22.3554 4.43316 22.1214 4.33465 21.885 4.24352C21.5574 4.11792 21.3456 3.83222 21.3456 3.51697C21.3456 1.6181 19.7989 0.0714111 17.9001 0.0714111H16.0972C14.1984 0.0714111 12.6517 1.61563 12.6517 3.51697C12.6517 3.83468 12.4399 4.11792 12.1123 4.24352C11.8759 4.33465 11.6419 4.4307 11.4128 4.53414C11.105 4.67206 10.7651 4.6228 10.5508 4.40607C9.19872 3.05395 7.00183 3.05395 5.64971 4.40607L4.4035 5.65229C3.74837 6.30741 3.38879 7.17681 3.38879 8.10285C3.38879 9.02889 3.74837 9.89828 4.4035 10.5534C4.61777 10.7677 4.66949 11.1076 4.52911 11.4154C4.42566 11.6445 4.32961 11.8809 4.23849 12.1149C4.11288 12.4424 3.82719 12.6542 3.51194 12.6542C1.61306 12.6542 0.0663757 14.1985 0.0663757 16.0998V17.9026C0.0663757 19.8015 1.61306 21.3482 3.51194 21.3482C3.82965 21.3482 4.11288 21.56 4.23849 21.8876C4.32715 22.1215 4.42566 22.358 4.52911 22.587C4.66703 22.8949 4.61777 23.2348 4.40104 23.449C3.04892 24.8011 3.04892 26.998 4.40104 28.3501L5.64725 29.5964C6.99937 30.9485 9.19625 30.9485 10.5484 29.5964C10.7626 29.3821 11.1025 29.3304 11.4104 29.4708C11.6394 29.5742 11.8759 29.6702 12.1098 29.7614C12.4374 29.887 12.6492 30.1727 12.6492 30.4879C12.6492 32.3868 14.1959 33.9335 16.0948 33.9335H17.8976C19.7965 33.9335 21.3432 32.3893 21.3432 30.4879C21.3432 30.1702 21.555 29.887 21.8825 29.7614C22.1165 29.6727 22.3529 29.5742 22.582 29.4708C22.8898 29.3328 23.2297 29.3821 23.444 29.5964C24.7961 30.9485 26.993 30.9485 28.3451 29.5964L29.5913 28.3501C30.9434 26.998 30.9434 24.8011 29.5913 23.449C29.3771 23.2348 29.3253 22.8949 29.4632 22.587C29.5667 22.358 29.6627 22.1215 29.7539 21.8876C29.8795 21.56 30.1652 21.3482 30.4804 21.3482C32.3793 21.3482 33.926 19.804 33.926 17.9026V16.0998C33.926 14.2009 32.3793 12.6542 30.4804 12.6542H30.4829ZM31.4877 17.9026C31.4877 18.4568 31.037 18.9075 30.4829 18.9075C29.1455 18.9075 27.9658 19.735 27.4757 21.0157C27.4018 21.2078 27.323 21.4024 27.2368 21.5896C26.6827 22.8308 26.929 24.2371 27.8648 25.173C28.2638 25.572 28.2638 26.2222 27.8648 26.6237L26.6186 27.8699C26.4241 28.0644 26.1679 28.1704 25.8945 28.1704C25.6212 28.1704 25.3626 28.0644 25.1705 27.8699C24.2346 26.934 22.8258 26.6852 21.587 27.2418C21.3973 27.3256 21.2052 27.4069 21.0131 27.4807C19.7324 27.9709 18.9049 29.1506 18.9049 30.4879C18.9049 31.0421 18.4542 31.4928 17.9001 31.4928H16.0972C15.5431 31.4928 15.0924 31.0421 15.0924 30.4879C15.0924 29.1506 14.2648 27.9709 12.9842 27.4807C12.7921 27.4069 12.5999 27.3281 12.4103 27.2443C11.9694 27.0473 11.5089 26.9512 11.0557 26.9512C10.2307 26.9512 9.43023 27.2689 8.82682 27.8723C8.42784 28.2713 7.77764 28.2713 7.37619 27.8723L6.12997 26.6261C5.93541 26.4316 5.8295 26.1754 5.8295 25.902C5.8295 25.6287 5.93541 25.3701 6.12997 25.178C7.06587 24.2421 7.31462 22.8333 6.75801 21.5945C6.67427 21.4073 6.59299 21.2127 6.51911 21.0206C6.029 19.7399 4.84928 18.9124 3.51194 18.9124C2.95779 18.9124 2.50709 18.4617 2.50709 17.9076V16.1047C2.50709 15.5506 2.95779 15.0999 3.51194 15.0999C4.84928 15.0999 6.029 14.2723 6.51911 12.9917C6.59299 12.7995 6.67181 12.605 6.75801 12.4178C7.31215 11.1765 7.06587 9.77021 6.12997 8.83432C5.93541 8.63975 5.8295 8.38361 5.8295 8.11024C5.8295 7.83686 5.93541 7.57825 6.12997 7.38615L7.37619 6.13994C7.57076 5.94537 7.82689 5.83946 8.10027 5.83946C8.37365 5.83946 8.63226 5.94537 8.82436 6.13994C9.76025 7.07583 11.169 7.32458 12.4078 6.76797C12.595 6.68423 12.7871 6.60542 12.9817 6.52907C14.2624 6.03896 15.0899 4.85924 15.0899 3.5219C15.0899 2.96775 15.5406 2.51705 16.0948 2.51705H17.8976C18.4517 2.51705 18.9024 2.96775 18.9024 3.5219C18.9024 4.85924 19.73 6.03896 21.0107 6.52907C21.2052 6.60296 21.3973 6.68423 21.5845 6.76797C22.8258 7.32212 24.2321 7.07583 25.168 6.13994C25.3626 5.94537 25.6187 5.83946 25.8921 5.83946C26.1655 5.83946 26.4241 5.94537 26.6162 6.13994L27.8624 7.38615C28.2614 7.78514 28.2614 8.4378 27.8624 8.83678C26.9265 9.77268 26.6777 11.1814 27.2343 12.4203C27.3181 12.6074 27.3994 12.802 27.4732 12.9941C27.9634 14.2748 29.1431 15.1023 30.4804 15.1023C31.0346 15.1023 31.4853 15.553 31.4853 16.1072V17.91L31.4877 17.9026Z" fill="current"/>
<path d="M17.0012 10.9031C13.6394 10.9031 10.9032 13.6393 10.9032 17.0012C10.9032 20.363 13.6394 23.0992 17.0012 23.0992C20.3631 23.0992 23.0993 20.363 23.0993 17.0012C23.0993 13.6393 20.3631 10.9031 17.0012 10.9031ZM17.0012 20.6585C14.9842 20.6585 13.3439 19.0182 13.3439 17.0012C13.3439 14.9841 14.9842 13.3438 17.0012 13.3438C19.0183 13.3438 20.6586 14.9841 20.6586 17.0012C20.6586 19.0182 19.0183 20.6585 17.0012 20.6585Z" fill="current"/>
</g>
<defs>
<clipPath id="clip0_1_550">
<rect width="33.8571" height="33.8571" fill="white" transform="translate(0.0714417 0.0714111)"/>
</clipPath>
</defs>
</svg>
