<svg width="current" height="current" viewBox="0 0 34 34" fill="none" xmlns="http://www.w3.org/2000/svg">
<path d="M19.4541 0.801732L19.4541 0.801698L19.4504 0.8016L19.3935 0.800072L19.3935 0.8H19.3882C18.5948 0.8 17.9418 1.43322 17.9418 2.22099V13.8166C17.9418 14.6046 18.6006 15.2361 19.3993 15.2361H32.2409C32.654 15.2361 33.0513 15.0648 33.3299 14.7634C33.5939 14.4784 33.725 14.1093 33.6964 13.7258L33.6909 13.6519L33.69 13.6511C33.1348 6.87321 26.7575 1.13156 19.4541 0.801732ZM19.6435 13.529V2.51994C25.9314 2.93222 31.352 7.80359 31.9698 13.529H19.6435Z" fill="#6CA7FF" stroke="#6CA7FF" stroke-width="0.4"/>
<path d="M29.2932 17.8413L29.3203 17.7869H28.9973H15.9252L15.9252 4.47041L15.9252 4.469C15.9219 4.0003 15.5425 3.62043 15.0733 3.62043C10.8208 3.62043 6.77933 5.411 3.98649 8.53494L3.98648 8.53495C1.20727 11.6442 -0.0688236 15.6894 0.392061 19.9193C1.13554 26.7475 6.55538 32.2881 13.2876 33.0926C13.8809 33.1643 14.4809 33.2005 15.0728 33.2005C23.0817 33.2005 29.8471 26.5381 29.8471 18.6404C29.8471 18.2752 29.6166 17.9623 29.2932 17.8413ZM13.4893 31.3975L13.4891 31.3975C7.54157 30.688 2.7426 25.7829 2.08433 19.7339L2.08432 19.7338C1.67603 15.9872 2.80293 12.4165 5.25342 9.67355C7.53668 7.11971 10.7702 5.57175 14.2275 5.35315L14.2275 18.6435L14.2275 18.6449C14.2293 18.8952 14.3578 19.109 14.5284 19.2552C14.6986 19.4011 14.9256 19.4935 15.1566 19.4935H28.1169C27.6527 26.0763 21.8686 31.4929 15.0733 31.4929C14.5488 31.4929 14.0166 31.4608 13.4893 31.3975Z" fill="#6CA7FF" stroke="#6CA7FF" stroke-width="0.4"/>
</svg>
