<svg width="21" height="20" viewBox="0 0 21 20" fill="none" xmlns="http://www.w3.org/2000/svg">
<path fill-rule="evenodd" clip-rule="evenodd" d="M17.3955 9.00001H5.54004L8.90962 5.70701C9.30971 5.31601 9.30971 4.68401 8.90962 4.29301C8.50953 3.90201 7.86283 3.90201 7.46274 4.29301L2.34646 9.29301C1.94636 9.68401 1.94636 10.316 2.34646 10.707L7.46274 15.707C7.66227 15.902 7.92422 16 8.18618 16C8.44813 16 8.71008 15.902 8.90962 15.707C9.30971 15.316 9.30971 14.684 8.90962 14.293L5.54004 11H17.3955C17.9613 11 18.4187 10.552 18.4187 10C18.4187 9.44801 17.9613 9.00001 17.3955 9.00001Z" fill="#5C5F62"/>
</svg>
