<svg width="10" height="10" viewBox="0 0 10 10" fill="none" xmlns="http://www.w3.org/2000/svg">
<path d="M1.69766 9.3608L0.760158 8.40199L8.30277 0.646306L9.23317 1.61222L1.69766 9.3608ZM8.29567 9.3608L0.760158 1.61222L1.69056 0.646306L9.23317 8.40199L8.29567 9.3608ZM0.00021522 4.90057C-0.00451962 4.64489 0.0688705 4.42472 0.220386 4.24006C0.376636 4.05066 0.615745 3.95597 0.937715 3.95597C1.26915 3.95597 1.51063 4.05066 1.66215 4.24006C1.81366 4.42472 1.88942 4.64489 1.88942 4.90057C1.89415 5.15625 1.8184 5.37405 1.66215 5.55398C1.51063 5.7339 1.26915 5.82386 0.937715 5.82386C0.611011 5.82386 0.371901 5.7339 0.220386 5.55398C0.0736053 5.37405 0.00021522 5.15625 0.00021522 4.90057ZM3.95618 9.0625C3.95618 8.81629 4.03194 8.60085 4.18345 8.41619C4.33497 8.2268 4.57171 8.13447 4.89368 8.1392C5.22039 8.1392 5.4595 8.23153 5.61101 8.41619C5.76726 8.60085 5.84775 8.81629 5.85249 9.0625C5.85249 9.31818 5.77436 9.53835 5.61811 9.72301C5.46186 9.90767 5.22039 10 4.89368 10C4.57171 10 4.33497 9.90767 4.18345 9.72301C4.03194 9.53835 3.95618 9.31818 3.95618 9.0625ZM3.95618 0.930398C3.95618 0.67945 4.03194 0.461647 4.18345 0.276988C4.33497 0.0923292 4.57171 0 4.89368 0C5.22039 0.0047342 5.4595 0.0994309 5.61101 0.28409C5.76726 0.464014 5.84775 0.67945 5.85249 0.930398C5.85249 1.18134 5.77436 1.40151 5.61811 1.59091C5.46186 1.77557 5.22039 1.8679 4.89368 1.8679C4.57171 1.8679 4.33497 1.77557 4.18345 1.59091C4.03194 1.40151 3.95618 1.18134 3.95618 0.930398ZM7.89084 4.90057C7.89084 4.64489 7.96897 4.42472 8.12522 4.24006C8.2862 4.05066 8.52768 3.95597 8.84965 3.95597C9.17162 3.95597 9.41073 4.05066 9.56698 4.24006C9.72323 4.42472 9.80135 4.64489 9.80135 4.90057C9.80609 5.15625 9.72796 5.37405 9.56698 5.55398C9.41073 5.7339 9.17162 5.82386 8.84965 5.82386C8.52294 5.82386 8.28147 5.7339 8.12522 5.55398C7.96897 5.37405 7.89084 5.15625 7.89084 4.90057Z" fill="#737F8F"/>
</svg>
