<svg width="24" height="24" viewBox="0 0 24 24" fill="none" xmlns="http://www.w3.org/2000/svg">
<path d="M8.6466 18.7677C8.84186 18.9629 9.15844 18.9629 9.3537 18.7677L21.7679 6.35346C21.9632 6.1582 21.9632 5.84162 21.7679 5.64635L20.3537 4.23214C20.2599 4.13837 20.1328 4.08569 20.0002 4.08569C19.8675 4.08569 19.7404 4.13837 19.6466 4.23214L9.00015 14.8786L4.3537 10.2321C4.25994 10.1384 4.13276 10.0857 4.00015 10.0857C3.86754 10.0857 3.74037 10.1384 3.6466 10.2321L2.23238 11.6464C2.13862 11.7401 2.08594 11.8673 2.08594 11.9999C2.08594 12.1325 2.13862 12.2597 2.23238 12.3535L8.6466 18.7677Z" fill="#00B071" stroke="#00B071" stroke-linecap="round" stroke-linejoin="round"/>
</svg>
