<svg width="64" height="64" viewBox="0 0 64 64" fill="none" xmlns="http://www.w3.org/2000/svg">
<path d="M0 16.5161C0 7.39452 7.39452 0 16.5161 0H47.4839C56.6055 0 64 7.39452 64 16.5161V47.4839C64 56.6055 56.6055 64 47.4839 64H16.5161C7.39452 64 0 56.6055 0 47.4839V16.5161Z" fill="#F0F5FC" fill-opacity="0.3"/>
<circle cx="20.9383" cy="30.7244" r="2.19644" fill="white" stroke="white" stroke-width="1.47393"/>
<circle cx="32.7153" cy="26.6424" r="2.19644" fill="white" stroke="white" stroke-width="1.47393"/>
<circle cx="42.3102" cy="18.1673" r="2.19644" fill="white" stroke="white" stroke-width="1.47393"/>
<path d="M22.7808 29.9732L30.5189 27.0254" stroke="white" stroke-width="1.47393"/>
<path d="M34.5722 25.1828L40.0994 19.2871" stroke="white" stroke-width="1.47393"/>
<path d="M18.7274 39.5535C18.7274 38.1289 19.8823 36.9741 21.3068 36.9741C22.7314 36.9741 23.8862 38.1289 23.8862 39.5535V48.7655H18.7274V39.5535Z" fill="white"/>
<path d="M29.7819 35.8689C29.7819 34.4444 30.9367 33.2896 32.3613 33.2896C33.7858 33.2896 34.9407 34.4444 34.9407 35.8689V48.7658H29.7819V35.8689Z" fill="white"/>
<path d="M40.8364 27.0252C40.8364 25.6006 41.9912 24.4458 43.4157 24.4458C44.8403 24.4458 45.9951 25.6006 45.9951 27.0252V48.7656H40.8364V27.0252Z" fill="white"/>
</svg>
