<svg width="64" height="64" viewBox="0 0 64 64" fill="none" xmlns="http://www.w3.org/2000/svg">
<path d="M0 16.5161C0 7.39452 7.39452 0 16.5161 0H47.4839C56.6055 0 64 7.39452 64 16.5161V47.4839C64 56.6055 56.6055 64 47.4839 64H16.5161C7.39452 64 0 56.6055 0 47.4839V16.5161Z" fill="#F0F5FC" fill-opacity="0.3"/>
<path d="M33.3981 34.0213C41.7248 34.0213 48.5 27.2126 48.5 18.8446C48.5 17.7144 48.3746 16.5854 48.1281 15.4884C48.0345 15.0726 47.6879 14.7629 47.2664 14.7176C46.7294 14.6601 46.1869 14.6313 45.6533 14.6313C40.8115 14.6313 36.2294 16.9901 33.3948 20.9424C33.1648 21.2631 33.1527 21.6745 33.3298 22.0007L33.2979 22.0184C33.2979 22.0184 34.9573 24.4866 35.2709 27.8164L33.4476 29.9639C33.4476 29.9119 33.4476 29.86 33.4476 29.808C33.4476 21.44 26.6735 14.6313 18.3456 14.6313C17.8119 14.6313 17.2694 14.6601 16.7325 14.7176C16.311 14.7629 15.9644 15.0726 15.8708 15.4884C15.6254 16.5854 15.5 17.7144 15.5 18.8446C15.5 27.2126 22.2752 34.0213 30.6019 34.0213C30.8165 34.0213 31.0333 34.0168 31.2501 34.0069V44.3311C29.7546 44.6871 28.5123 45.8306 28.0677 47.3522C27.9137 47.8797 28.2141 48.4326 28.739 48.5875C28.739 48.5875 31.9521 50.3447 35.7419 48.5875C36.2668 48.4326 36.5672 47.8797 36.4132 47.3522C35.9686 45.8306 34.7262 44.6871 33.2308 44.3311V34.0069C33.2847 34.0157 33.3397 34.0213 33.397 34.0213H33.3981Z" fill="white"/>
</svg>
