<svg width="current" height="current" viewBox="0 0 64 64" fill="none" xmlns="http://www.w3.org/2000/svg">
<path d="M0 16.5161C0 7.39452 7.39452 0 16.5161 0H47.4839C56.6055 0 64 7.39452 64 16.5161V47.4839C64 56.6055 56.6055 64 47.4839 64H16.5161C7.39452 64 0 56.6055 0 47.4839V16.5161Z" fill="#F0F5FC" fill-opacity="0.3"/>
<path d="M51.6245 22.9351L37.043 15.9372L36.4854 15.6582L35.9277 15.9372L21.3344 22.9351C20.7412 23.2141 20.5039 23.9116 20.7887 24.4928C21.0734 25.074 21.7853 25.3065 22.3785 25.0275L23.0666 24.7021V29.7238L11.7409 36.1406C11.1358 36.3847 10.8392 37.0589 11.0884 37.6517C11.3375 38.2446 12.0257 38.5352 12.6307 38.2911L13.0104 38.14V47.335C13.0104 47.9743 13.5443 48.4974 14.1969 48.4974C14.8494 48.4974 15.3833 47.9743 15.3833 47.335V36.7691L23.0666 32.2464V47.335C23.0666 47.9743 23.6005 48.4974 24.2531 48.4974H48.7058C49.3583 48.4974 49.8922 47.9743 49.8922 47.335V24.6904L50.5804 25.0159C51.1736 25.2949 51.8736 25.0624 52.1702 24.4812C52.455 23.9 52.2177 23.2141 51.6245 22.9235V22.9351ZM40.3413 33.3739C40.3413 33.8622 39.9379 34.269 39.4278 34.269H33.5311C33.0328 34.269 32.6176 33.8738 32.6176 33.3739V27.5966C32.6176 27.1083 33.021 26.7015 33.5311 26.7015H39.4278C39.9261 26.7015 40.3413 27.0967 40.3413 27.5966V33.3739Z" fill="white"/>
<path d="M19.1135 38.1768H18.3465C17.9165 38.1768 17.5679 38.655 17.5679 39.2449V40.9348C17.5679 41.5247 17.9165 42.0029 18.3465 42.0029H19.1135C19.5435 42.0029 19.8921 41.5247 19.8921 40.9348V39.2449C19.8921 38.655 19.5435 38.1768 19.1135 38.1768Z" fill="white"/>
</svg>
