<svg width="current" height="current" viewBox="0 0 25 24" fill="none" xmlns="http://www.w3.org/2000/svg">
<path d="M9.14645 18.7679C9.34171 18.9632 9.65829 18.9632 9.85355 18.7679L22.2678 6.3537C22.463 6.15844 22.463 5.84186 22.2678 5.6466L20.8536 4.23238C20.7598 4.13862 20.6326 4.08594 20.5 4.08594C20.3674 4.08594 20.2402 4.13862 20.1464 4.23238L9.5 14.8788L4.85355 10.2324C4.75978 10.1386 4.63261 10.0859 4.5 10.0859C4.36739 10.0859 4.24021 10.1386 4.14645 10.2324L2.73223 11.6466C2.63846 11.7404 2.58578 11.8675 2.58578 12.0002C2.58578 12.1328 2.63846 12.2599 2.73223 12.3537L9.14645 18.7679Z" fill="#5899FB" stroke="#5899FB" stroke-linecap="round" stroke-linejoin="round"/>
</svg>
