<svg width="68" height="68" viewBox="0 0 68 68" fill="none" xmlns="http://www.w3.org/2000/svg">
<circle cx="34" cy="34" r="34" fill="white"/>
<path d="M21 28.5V38.0469H14.125V28.5H21ZM16.125 36.4688H19.0625V30.0625H16.125V36.4688ZM23.3125 41.4688V27.2188H25.3281V41.4688H23.3125ZM38.4688 27.2188V32.6719H40.4844V34.3125H38.4688V41.4062H36.4688V27.2188H38.4688ZM27.0938 37.4219C30.4609 35.7344 32.2734 33.4688 32.6484 30.2969H27.9062V28.6719H34.6719C34.6562 32.9219 33 36.6016 28.2188 38.9531L27.0938 37.4219ZM54.0781 33.9375V35.5H41.0781V33.9375H46.6094V32.7188H42.6562V27.8438H52.5156V29.3906H44.6406V31.1562H52.5938V32.7188H48.5625V33.9375H54.0781ZM42.5625 38.8438C42.5625 37.1562 44.4375 36.2188 47.5469 36.2188C50.6328 36.2188 52.4844 37.1562 52.5 38.8438C52.4844 40.5078 50.6328 41.4531 47.5469 41.4531C44.4375 41.4531 42.5625 40.5078 42.5625 38.8438ZM44.5938 38.8438C44.5859 39.5859 45.5781 39.9375 47.5469 39.9375C49.4766 39.9375 50.4922 39.5859 50.5 38.8438C50.4922 38.1094 49.4766 37.7344 47.5469 37.7344C45.5781 37.7344 44.5859 38.1094 44.5938 38.8438Z" fill="#737F8F"/>
</svg>
