<svg width="68" height="68" viewBox="0 0 68 68" fill="none" xmlns="http://www.w3.org/2000/svg">
<circle cx="34" cy="34" r="34" fill="#FB97A3"/>
<path d="M24.6406 32.6719H26.6562V34.3125H24.6406V41.4062H22.6406V27.2188H24.6406V32.6719ZM13.2656 37.4219C14.9583 36.5729 16.2604 35.5677 17.1719 34.4062C18.0833 33.2448 18.6328 31.875 18.8203 30.2969H14.0781V28.6719H20.8438C20.8333 30.9375 20.3229 32.9375 19.3125 34.6719C18.3073 36.4062 16.6667 37.8333 14.3906 38.9531L13.2656 37.4219ZM40.25 35.5H27.25V33.9375H32.7812V32.7188H28.8281V27.8438H38.6875V29.3906H30.8125V31.1562H38.7656V32.7188H34.7344V33.9375H40.25V35.5ZM28.7344 38.8438C28.7344 38.2865 28.9323 37.8125 29.3281 37.4219C29.724 37.026 30.2943 36.7266 31.0391 36.5234C31.7891 36.3203 32.6823 36.2188 33.7188 36.2188C34.7448 36.2188 35.6276 36.3203 36.3672 36.5234C37.1068 36.7266 37.6745 37.026 38.0703 37.4219C38.4661 37.8125 38.6667 38.2865 38.6719 38.8438C38.6667 39.3958 38.4661 39.8672 38.0703 40.2578C37.6745 40.6484 37.1068 40.9453 36.3672 41.1484C35.6276 41.3516 34.7448 41.4531 33.7188 41.4531C32.6823 41.4531 31.7917 41.3516 31.0469 41.1484C30.3021 40.9453 29.7292 40.6484 29.3281 40.2578C28.9323 39.8672 28.7344 39.3958 28.7344 38.8438ZM30.7656 38.8438C30.7604 39.2135 31.0026 39.4896 31.4922 39.6719C31.987 39.849 32.7292 39.9375 33.7188 39.9375C35.6823 39.9375 36.6667 39.5729 36.6719 38.8438C36.6667 38.4792 36.4141 38.2031 35.9141 38.0156C35.4193 37.8281 34.6875 37.7344 33.7188 37.7344C32.7344 37.7344 31.9948 37.8281 31.5 38.0156C31.0052 38.1979 30.7604 38.474 30.7656 38.8438ZM54.0469 35.2812H48.5469V36.3359C49.7917 36.4245 50.7604 36.6875 51.4531 37.125C52.1458 37.5625 52.4948 38.1458 52.5 38.875C52.4948 39.4167 52.2943 39.8802 51.8984 40.2656C51.5026 40.651 50.9323 40.9427 50.1875 41.1406C49.4479 41.3385 48.5677 41.4375 47.5469 41.4375C46.5104 41.4375 45.6172 41.3385 44.8672 41.1406C44.1224 40.9427 43.5521 40.651 43.1562 40.2656C42.7604 39.8854 42.5625 39.4219 42.5625 38.875C42.5625 38.1406 42.9115 37.5547 43.6094 37.1172C44.3073 36.6797 45.2917 36.4167 46.5625 36.3281V35.2812H41.0781V33.6719H54.0469V35.2812ZM41.6562 31.5781C42.5 31.5052 43.2344 31.3594 43.8594 31.1406C44.4844 30.9219 44.9818 30.6615 45.3516 30.3594C45.7266 30.0573 45.9766 29.7344 46.1016 29.3906H42.2656V27.8281H52.875V29.3906H49.0078C49.1276 29.7344 49.3724 30.0599 49.7422 30.3672C50.1172 30.6693 50.6198 30.9297 51.25 31.1484C51.8854 31.362 52.6354 31.5052 53.5 31.5781L52.7969 33.1406C51.4792 33.0156 50.3724 32.7214 49.4766 32.2578C48.5807 31.7891 47.9375 31.2005 47.5469 30.4922C47.1615 31.2005 46.5208 31.7891 45.625 32.2578C44.7292 32.7266 43.625 33.0208 42.3125 33.1406L41.6562 31.5781ZM44.5938 38.875C44.5885 39.2188 44.8333 39.4818 45.3281 39.6641C45.8281 39.8464 46.5677 39.9375 47.5469 39.9375C48.5104 39.9375 49.2422 39.8464 49.7422 39.6641C50.2422 39.4818 50.4948 39.2188 50.5 38.875C50.4948 38.1719 49.5104 37.8125 47.5469 37.7969C46.5573 37.8073 45.8151 37.901 45.3203 38.0781C44.8307 38.25 44.5885 38.5156 44.5938 38.875Z" fill="white"/>
</svg>
