<svg width="current" height="current" viewBox="0 0 42 44" fill="none" xmlns="http://www.w3.org/2000/svg">
<path d="M22.7476 24.2374C33.156 24.2374 41.625 15.7265 41.625 5.26659C41.625 3.85387 41.4682 2.44254 41.1601 1.07129C41.0432 0.551541 40.6099 0.164495 40.0831 0.10782C39.4118 0.03594 38.7337 0 38.0666 0C32.0144 0 26.2868 2.94846 22.7435 7.88883C22.456 8.2897 22.4408 8.80392 22.6623 9.2117L22.6224 9.23382C22.6224 9.23382 24.6967 12.3191 25.0887 16.4813L22.8095 19.1657C22.8095 19.1007 22.8095 19.0358 22.8095 18.9708C22.8095 8.51087 14.3419 0 3.93205 0C3.26494 0 2.58681 0.03594 1.91556 0.10782C1.38875 0.164495 0.955463 0.551541 0.838545 1.07129C0.531807 2.44254 0.375 3.85387 0.375 5.26659C0.375 15.7265 8.84398 24.2374 19.2524 24.2374C19.5206 24.2374 19.7916 24.2319 20.0626 24.2194V37.1246C18.1933 37.5697 16.6403 38.9991 16.0846 40.9011C15.8921 41.5605 16.2676 42.2516 16.9237 42.4451C16.9237 42.4451 20.9402 44.6416 25.6774 42.4451C26.3335 42.2516 26.709 41.5605 26.5165 40.9011C25.9608 38.9991 24.4078 37.5697 22.5385 37.1246V24.2194C22.6059 24.2305 22.6747 24.2374 22.7462 24.2374H22.7476Z" fill="#F0F0F5"/>
</svg>
