<svg width="64" height="64" viewBox="0 0 64 64" fill="none" xmlns="http://www.w3.org/2000/svg">
<path d="M0 16.5161C0 7.39452 7.39452 0 16.5161 0H47.4839C56.6055 0 64 7.39452 64 16.5161V47.4839C64 56.6055 56.6055 64 47.4839 64H16.5161C7.39452 64 0 56.6055 0 47.4839V16.5161Z" fill="#F0F5FC" fill-opacity="0.3"/>
<g clip-path="url(#clip0_684_187)">
<path d="M48.9901 18.064H15.0104C14.6086 18.064 14.3104 18.4306 14.3882 18.8232C14.4478 19.1196 14.7071 19.3354 15.0104 19.3354H16.0889L17.6288 25.0502C17.7636 25.5468 18.2121 25.8926 18.728 25.8926H23.2156C23.7289 25.8926 24.18 25.5468 24.3148 25.0502L25.8547 19.3354H27.1199L28.6598 25.0502C28.7946 25.5468 29.2431 25.8926 29.759 25.8926H34.2466C34.7599 25.8926 35.211 25.5468 35.3458 25.0502L36.8858 19.3354H38.1509L39.6908 25.0502C39.8256 25.5468 40.2741 25.8926 40.79 25.8926H45.2776C45.7909 25.8926 46.242 25.5468 46.3768 25.0502L47.9168 19.3354H48.9953C49.2986 19.3354 49.5578 19.1222 49.6175 18.8232C49.6952 18.4306 49.3945 18.064 48.9953 18.064H48.9901Z" fill="white"/>
<path d="M48.9899 38.105H15.0102C14.6109 38.105 14.3102 38.4716 14.388 38.8642C14.4476 39.1606 14.7068 39.3764 15.0102 39.3764H16.0886L17.6286 45.0912C17.7634 45.5878 18.2119 45.9336 18.7278 45.9336H23.2154C23.7287 45.9336 24.1798 45.5878 24.3146 45.0912L25.8545 39.3764H27.1197L28.6596 45.0912C28.7944 45.5878 29.2429 45.9336 29.7588 45.9336H34.2464C34.7597 45.9336 35.2108 45.5878 35.3456 45.0912L36.8855 39.3764H38.1507L39.6906 45.0912C39.8254 45.5878 40.2739 45.9336 40.7898 45.9336H45.2774C45.7907 45.9336 46.2418 45.5878 46.3766 45.0912L47.9166 39.3764H48.995C49.2984 39.3764 49.5576 39.1632 49.6172 38.8642C49.695 38.4716 49.3943 38.105 48.995 38.105H48.9899Z" fill="white"/>
<path d="M23.4974 29.5116C23.4637 28.7186 22.7274 28.1336 21.9523 28.2922C20.7364 28.5392 19.6398 29.1606 18.8517 30.1486C18.0636 31.1366 17.6825 32.4158 17.7369 33.7002C17.7706 34.4932 18.5069 35.0782 19.282 34.9196C20.4979 34.6726 21.5945 34.0512 22.3826 33.0632C23.1941 32.0466 23.5518 30.796 23.4974 29.5116Z" fill="white"/>
<path d="M34.2329 29.5116C34.1992 28.7186 33.4629 28.1336 32.6877 28.2922C31.4719 28.5392 30.3752 29.1606 29.5871 30.1486C28.799 31.1366 28.4179 32.4158 28.4724 33.7002C28.5061 34.4932 29.2423 35.0782 30.0175 34.9196C31.2334 34.6726 32.33 34.0512 33.1181 33.0632C33.9295 32.0466 34.2873 30.796 34.2329 29.5116Z" fill="white"/>
<path d="M45.6528 29.5116C45.6191 28.7186 44.8828 28.1336 44.1077 28.2922C42.8918 28.5392 41.7952 29.1606 41.007 30.1486C40.2189 31.1366 39.8378 32.4158 39.8923 33.7002C39.926 34.4932 40.6622 35.0782 41.4374 34.9196C42.6533 34.6726 43.7499 34.0512 44.538 33.0632C45.3495 32.0466 45.7072 30.796 45.6528 29.5116Z" fill="white"/>
</g>
<defs>
<clipPath id="clip0_684_187">
<rect width="35.25" height="27.8721" fill="white" transform="translate(14.375 18.064)"/>
</clipPath>
</defs>
</svg>
